M48
; DRILL file {KiCad 8.0.7} date 2025-01-23T15:07:49-0500
; FORMAT={-:-/ absolute / metric / decimal}
; #@! TF.CreationDate,2025-01-23T15:07:49-05:00
; #@! TF.GenerationSoftware,Kicad,Pcbnew,8.0.7
; #@! TF.FileFunction,Plated,1,4,PTH
FMAT,2
METRIC
; #@! TA.AperFunction,Plated,PTH,ViaDrill
T1C0.300
; #@! TA.AperFunction,Plated,PTH,ComponentDrill
T2C0.300
; #@! TA.AperFunction,Plated,PTH,ViaDrill
T3C0.400
; #@! TA.AperFunction,Plated,PTH,ComponentDrill
T4C0.800
; #@! TA.AperFunction,Plated,PTH,ComponentDrill
T5C1.000
; #@! TA.AperFunction,Plated,PTH,ComponentDrill
T6C1.041
; #@! TA.AperFunction,Plated,PTH,ComponentDrill
T7C1.800
; #@! TA.AperFunction,Plated,PTH,ComponentDrill
T8C1.850
%
G90
G05
T1
X118.42Y-99.57
X118.44Y-105.11
X119.41Y-105.11
X120.63Y-101.09
X121.22Y-100.41
X121.27Y-89.02
X121.27Y-91.4
X121.27Y-93.92
X121.27Y-96.4
X121.42Y-101.8
X123.33Y-105.3
X123.43Y-100.53
X123.43Y-102.24
X123.93Y-105.84
X124.11Y-97.61
X124.37Y-101.38
X124.58Y-104.19
X124.62Y-96.35
X124.62Y-98.71
X125.18Y-100.54
X125.19Y-102.23
X125.3Y-104.67
X127.24Y-95.17
X127.24Y-102.37
X127.89Y-93.95
X127.91Y-101.64
X129.01Y-92.72
X129.57Y-91.52
X129.98Y-106.0
X130.127Y-90.507
X131.165Y-90.175
X133.73Y-105.98
X134.62Y-90.23
X134.62Y-92.67
X134.62Y-95.15
X134.62Y-97.54
X135.64Y-93.81
X135.64Y-94.972
X135.64Y-96.135
X135.64Y-97.297
X135.64Y-98.46
X136.172Y-102.805
X136.642Y-93.805
X136.642Y-94.968
X136.642Y-96.13
X136.642Y-97.292
X136.642Y-98.455
X136.802Y-103.555
X136.843Y-102.185
X136.981Y-109.162
X137.496Y-101.447
X137.516Y-104.327
X137.531Y-102.812
X138.625Y-89.013
X138.625Y-90.175
X139.725Y-89.013
X139.725Y-90.175
X141.4Y-113.47
X143.0Y-91.725
X143.131Y-101.687
X143.131Y-102.85
X143.131Y-104.012
X143.131Y-110.462
X143.343Y-100.175
X143.998Y-101.687
X143.998Y-102.85
X143.998Y-104.012
X144.125Y-89.775
X144.207Y-93.825
X144.207Y-94.987
X144.207Y-96.15
X144.207Y-97.312
X144.207Y-98.475
X144.48Y-116.88
X144.864Y-101.687
X144.864Y-102.85
X144.864Y-104.012
X145.21Y-93.82
X145.21Y-94.983
X145.21Y-96.145
X145.21Y-97.307
X145.21Y-98.47
X145.731Y-101.687
X145.731Y-102.85
X145.731Y-104.012
X148.22Y-110.57
X148.225Y-92.675
X148.53Y-116.91
X148.55Y-89.1
X150.97Y-118.01
X150.98Y-89.9
X151.95Y-118.01
X152.93Y-118.01
T2
X138.381Y-102.212
X138.381Y-103.512
X139.681Y-102.212
X139.681Y-103.512
X140.981Y-102.212
X140.981Y-103.512
X142.281Y-102.212
X142.281Y-103.512
T3
X165.45Y-86.35
T4
X162.02Y-110.36
X162.02Y-112.36
X164.02Y-110.36
X164.02Y-112.36
X166.02Y-110.36
X166.02Y-112.36
T5
X115.481Y-120.971
X115.481Y-123.511
X118.021Y-120.971
X118.021Y-123.511
X120.561Y-120.971
X120.561Y-123.511
X123.101Y-120.971
X123.101Y-123.511
X125.641Y-120.971
X125.641Y-123.511
X128.181Y-120.971
X128.181Y-123.511
X130.721Y-120.971
X130.721Y-123.511
X133.261Y-120.971
X133.261Y-123.511
X135.801Y-120.971
X135.801Y-123.511
X138.341Y-120.971
X138.341Y-123.511
X140.881Y-120.971
X140.881Y-123.511
X143.421Y-120.971
X143.421Y-123.511
X145.961Y-120.971
X145.961Y-123.511
X148.501Y-120.971
X148.501Y-123.511
X151.041Y-120.971
X151.041Y-123.511
X153.581Y-120.971
X153.581Y-123.511
X156.121Y-120.971
X156.121Y-123.511
X158.661Y-120.971
X158.661Y-123.511
X161.201Y-120.971
X161.201Y-123.511
X163.741Y-120.971
X163.741Y-123.511
T6
X118.216Y-76.956
X120.756Y-76.956
X123.296Y-76.956
X125.836Y-76.956
X129.649Y-76.956
X132.189Y-76.956
X134.729Y-76.956
X137.269Y-76.956
X141.083Y-76.956
X143.623Y-76.956
X146.163Y-76.956
X148.703Y-76.956
X152.516Y-76.956
X155.056Y-76.956
X157.596Y-76.956
X160.136Y-76.956
T7
X120.13Y-74.245
X120.13Y-79.745
X124.33Y-74.245
X124.33Y-79.745
X131.563Y-74.245
X131.563Y-79.745
X135.763Y-74.245
X135.763Y-79.745
X142.997Y-74.245
X142.997Y-79.745
X147.197Y-74.245
X147.197Y-79.745
X154.43Y-74.245
X154.43Y-79.745
X158.63Y-74.245
X158.63Y-79.745
T8
X156.71Y-95.33
X156.71Y-99.53
X156.71Y-103.73
X160.91Y-95.33
X160.91Y-99.53
X160.91Y-103.73
M30
