%TF.GenerationSoftware,KiCad,Pcbnew,8.0.7*%
%TF.CreationDate,2025-01-23T15:07:48-05:00*%
%TF.ProjectId,AntHat,416e7448-6174-42e6-9b69-6361645f7063,rev?*%
%TF.SameCoordinates,Original*%
%TF.FileFunction,Soldermask,Top*%
%TF.FilePolarity,Negative*%
%FSLAX46Y46*%
G04 Gerber Fmt 4.6, Leading zero omitted, Abs format (unit mm)*
G04 Created by KiCad (PCBNEW 8.0.7) date 2025-01-23 15:07:48*
%MOMM*%
%LPD*%
G01*
G04 APERTURE LIST*
G04 Aperture macros list*
%AMRoundRect*
0 Rectangle with rounded corners*
0 $1 Rounding radius*
0 $2 $3 $4 $5 $6 $7 $8 $9 X,Y pos of 4 corners*
0 Add a 4 corners polygon primitive as box body*
4,1,4,$2,$3,$4,$5,$6,$7,$8,$9,$2,$3,0*
0 Add four circle primitives for the rounded corners*
1,1,$1+$1,$2,$3*
1,1,$1+$1,$4,$5*
1,1,$1+$1,$6,$7*
1,1,$1+$1,$8,$9*
0 Add four rect primitives between the rounded corners*
20,1,$1+$1,$2,$3,$4,$5,0*
20,1,$1+$1,$4,$5,$6,$7,0*
20,1,$1+$1,$6,$7,$8,$9,0*
20,1,$1+$1,$8,$9,$2,$3,0*%
%AMFreePoly0*
4,1,17,1.395000,0.765000,0.855000,0.765000,0.855000,0.535000,1.395000,0.535000,1.395000,0.115000,0.855000,0.115000,0.855000,-0.115000,1.395000,-0.115000,1.395000,-0.535000,0.855000,-0.535000,0.855000,-0.765000,1.395000,-0.765000,1.395000,-1.185000,-0.855000,-1.185000,-0.855000,1.185000,1.395000,1.185000,1.395000,0.765000,1.395000,0.765000,$1*%
G04 Aperture macros list end*
%ADD10RoundRect,0.050000X0.305600X-0.102400X0.305600X0.102400X-0.305600X0.102400X-0.305600X-0.102400X0*%
%ADD11RoundRect,0.050000X-0.102400X-0.305600X0.102400X-0.305600X0.102400X0.305600X-0.102400X0.305600X0*%
%ADD12R,2.692400X2.692400*%
%ADD13RoundRect,0.250000X0.475000X-0.250000X0.475000X0.250000X-0.475000X0.250000X-0.475000X-0.250000X0*%
%ADD14RoundRect,0.135000X0.135000X0.185000X-0.135000X0.185000X-0.135000X-0.185000X0.135000X-0.185000X0*%
%ADD15RoundRect,0.135000X-0.185000X0.135000X-0.185000X-0.135000X0.185000X-0.135000X0.185000X0.135000X0*%
%ADD16C,6.100000*%
%ADD17R,3.400000X2.710000*%
%ADD18RoundRect,0.150000X-0.150000X0.737500X-0.150000X-0.737500X0.150000X-0.737500X0.150000X0.737500X0*%
%ADD19C,1.500000*%
%ADD20C,1.549400*%
%ADD21C,2.300000*%
%ADD22C,1.400000*%
%ADD23R,1.400000X1.400000*%
%ADD24R,0.800000X0.900000*%
%ADD25RoundRect,0.243750X0.243750X0.456250X-0.243750X0.456250X-0.243750X-0.456250X0.243750X-0.456250X0*%
%ADD26RoundRect,0.140000X0.170000X-0.140000X0.170000X0.140000X-0.170000X0.140000X-0.170000X-0.140000X0*%
%ADD27RoundRect,0.140000X-0.170000X0.140000X-0.170000X-0.140000X0.170000X-0.140000X0.170000X0.140000X0*%
%ADD28RoundRect,0.135000X-0.135000X-0.185000X0.135000X-0.185000X0.135000X0.185000X-0.135000X0.185000X0*%
%ADD29R,1.700000X1.700000*%
%ADD30O,1.700000X1.700000*%
%ADD31RoundRect,0.243750X-0.243750X-0.456250X0.243750X-0.456250X0.243750X0.456250X-0.243750X0.456250X0*%
%ADD32R,2.000000X1.800000*%
%ADD33C,3.050000*%
%ADD34C,2.775000*%
%ADD35RoundRect,0.050000X-0.100000X0.350000X-0.100000X-0.350000X0.100000X-0.350000X0.100000X0.350000X0*%
%ADD36RoundRect,0.012500X-0.237500X0.112500X-0.237500X-0.112500X0.237500X-0.112500X0.237500X0.112500X0*%
%ADD37RoundRect,0.033000X-1.167000X0.792000X-1.167000X-0.792000X1.167000X-0.792000X1.167000X0.792000X0*%
%ADD38RoundRect,0.250000X-0.475000X0.250000X-0.475000X-0.250000X0.475000X-0.250000X0.475000X0.250000X0*%
%ADD39RoundRect,0.135000X0.185000X-0.135000X0.185000X0.135000X-0.185000X0.135000X-0.185000X-0.135000X0*%
%ADD40RoundRect,0.105000X-0.105000X0.245000X-0.105000X-0.245000X0.105000X-0.245000X0.105000X0.245000X0*%
%ADD41FreePoly0,270.000000*%
%ADD42RoundRect,0.140000X-0.140000X-0.170000X0.140000X-0.170000X0.140000X0.170000X-0.140000X0.170000X0*%
%ADD43RoundRect,0.250000X0.787500X1.025000X-0.787500X1.025000X-0.787500X-1.025000X0.787500X-1.025000X0*%
G04 APERTURE END LIST*
D10*
%TO.C,U2*%
X122325800Y-100415800D03*
X122325800Y-101065798D03*
X122325800Y-101715800D03*
X122325800Y-102365798D03*
D11*
X123300002Y-103340000D03*
X123950000Y-103340000D03*
X124600002Y-103340000D03*
X125250000Y-103340000D03*
D10*
X126224202Y-102365798D03*
X126224202Y-101715800D03*
X126224202Y-101065798D03*
X126224202Y-100415800D03*
D11*
X125250000Y-99441598D03*
X124600002Y-99441598D03*
X123950000Y-99441598D03*
X123300002Y-99441598D03*
D12*
X124275001Y-101390799D03*
%TD*%
D13*
%TO.C,C5*%
X165450000Y-89425000D03*
X165450000Y-87525000D03*
%TD*%
D14*
%TO.C,R22*%
X150340000Y-116890000D03*
X149320000Y-116890000D03*
%TD*%
D15*
%TO.C,R3*%
X139722500Y-108750000D03*
X139722500Y-109770000D03*
%TD*%
D16*
%TO.C,H1*%
X168641320Y-122311320D03*
%TD*%
D17*
%TO.C,U1*%
X140331053Y-102862422D03*
D18*
X142236053Y-100299922D03*
X140966053Y-100299922D03*
X139696053Y-100299922D03*
X138426053Y-100299922D03*
X138426053Y-105424922D03*
X139696053Y-105424922D03*
X140966053Y-105424922D03*
X142236053Y-105424922D03*
%TD*%
D19*
%TO.C,TP1*%
X147800000Y-85620000D03*
%TD*%
D20*
%TO.C,J5*%
X148702667Y-76956300D03*
D21*
X147196667Y-74245000D03*
X147196667Y-79745000D03*
D20*
X146162667Y-76956300D03*
X143622667Y-76956300D03*
D21*
X142996667Y-79745000D03*
X142996667Y-74245000D03*
D20*
X141082667Y-76956300D03*
%TD*%
D14*
%TO.C,R21*%
X147785000Y-89050000D03*
X146765000Y-89050000D03*
%TD*%
%TO.C,R13*%
X133610000Y-90225714D03*
X132590000Y-90225714D03*
%TD*%
D22*
%TO.C,J3*%
X162020000Y-110360000D03*
X164020000Y-110360000D03*
X166020000Y-110360000D03*
X162020000Y-112360000D03*
X164020000Y-112360000D03*
D23*
X166020000Y-112360000D03*
%TD*%
D24*
%TO.C,D1*%
X153600000Y-88900000D03*
X155500000Y-88900000D03*
X154550000Y-86900000D03*
%TD*%
D25*
%TO.C,C16*%
X148440000Y-98675000D03*
X146565000Y-98675000D03*
%TD*%
D14*
%TO.C,R19*%
X147835000Y-87950000D03*
X146815000Y-87950000D03*
%TD*%
D25*
%TO.C,C3*%
X139468553Y-98162422D03*
X137593553Y-98162422D03*
%TD*%
D19*
%TO.C,TP3*%
X145775000Y-90750000D03*
%TD*%
D16*
%TO.C,H4*%
X110641320Y-72811320D03*
%TD*%
D26*
%TO.C,C13*%
X140902500Y-109750000D03*
X140902500Y-108790000D03*
%TD*%
D27*
%TO.C,C8*%
X142282500Y-109540000D03*
X142282500Y-110500000D03*
%TD*%
D28*
%TO.C,R12*%
X122100000Y-96394284D03*
X123120000Y-96394284D03*
%TD*%
D15*
%TO.C,R2*%
X142282500Y-107460000D03*
X142282500Y-108480000D03*
%TD*%
D29*
%TO.C,J1*%
X163741320Y-120971320D03*
D30*
X163741320Y-123511320D03*
X161201320Y-120971320D03*
X161201320Y-123511320D03*
X158661320Y-120971320D03*
X158661320Y-123511320D03*
X156121320Y-120971320D03*
X156121320Y-123511320D03*
X153581320Y-120971320D03*
X153581320Y-123511320D03*
X151041320Y-120971320D03*
X151041320Y-123511320D03*
X148501320Y-120971320D03*
X148501320Y-123511320D03*
X145961320Y-120971320D03*
X145961320Y-123511320D03*
X143421320Y-120971320D03*
X143421320Y-123511320D03*
X140881320Y-120971320D03*
X140881320Y-123511320D03*
X138341320Y-120971320D03*
X138341320Y-123511320D03*
X135801320Y-120971320D03*
X135801320Y-123511320D03*
X133261320Y-120971320D03*
X133261320Y-123511320D03*
X130721320Y-120971320D03*
X130721320Y-123511320D03*
X128181320Y-120971320D03*
X128181320Y-123511320D03*
X125641320Y-120971320D03*
X125641320Y-123511320D03*
X123101320Y-120971320D03*
X123101320Y-123511320D03*
X120561320Y-120971320D03*
X120561320Y-123511320D03*
X118021320Y-120971320D03*
X118021320Y-123511320D03*
X115481320Y-120971320D03*
X115481320Y-123511320D03*
%TD*%
D14*
%TO.C,R17*%
X119430000Y-100570000D03*
X118410000Y-100570000D03*
%TD*%
D15*
%TO.C,R20*%
X145650000Y-87940000D03*
X145650000Y-88960000D03*
%TD*%
D31*
%TO.C,C7*%
X141143553Y-98162422D03*
X143018553Y-98162422D03*
%TD*%
D25*
%TO.C,C18*%
X148468553Y-102812422D03*
X146593553Y-102812422D03*
%TD*%
D32*
%TO.C,L1*%
X144681053Y-107262422D03*
X149081053Y-107262422D03*
%TD*%
D15*
%TO.C,R6*%
X132740000Y-104950000D03*
X132740000Y-105970000D03*
%TD*%
D25*
%TO.C,C17*%
X148468553Y-100662422D03*
X146593553Y-100662422D03*
%TD*%
D33*
%TO.C,J2*%
X168210000Y-95330000D03*
X168210000Y-103730000D03*
D34*
X160910000Y-95330000D03*
X160910000Y-99530000D03*
X160910000Y-103730000D03*
X156710000Y-95330000D03*
X156710000Y-99530000D03*
X156710000Y-103730000D03*
%TD*%
D14*
%TO.C,R15*%
X133610000Y-95128570D03*
X132590000Y-95128570D03*
%TD*%
D25*
%TO.C,C2*%
X139462500Y-96200000D03*
X137587500Y-96200000D03*
%TD*%
D35*
%TO.C,U3*%
X142970000Y-87840000D03*
X142470000Y-87840000D03*
X141970000Y-87840000D03*
X141470000Y-87840000D03*
X140970000Y-87840000D03*
X140970000Y-90840000D03*
X141470000Y-90840000D03*
X141970000Y-90840000D03*
X142470000Y-90840000D03*
X142970000Y-90840000D03*
D36*
X143420000Y-89090000D03*
X140520000Y-89090000D03*
D37*
X141970000Y-89340000D03*
D36*
X143420000Y-89590000D03*
X140520000Y-89590000D03*
%TD*%
D38*
%TO.C,C11*%
X150470000Y-86790000D03*
X150470000Y-88690000D03*
%TD*%
D15*
%TO.C,R8*%
X130800000Y-104970000D03*
X130800000Y-105990000D03*
%TD*%
D20*
%TO.C,J4*%
X160136000Y-76956300D03*
D21*
X158630000Y-74245000D03*
X158630000Y-79745000D03*
D20*
X157596000Y-76956300D03*
X155056000Y-76956300D03*
D21*
X154430000Y-79745000D03*
X154430000Y-74245000D03*
D20*
X152516000Y-76956300D03*
%TD*%
%TO.C,J6*%
X137269334Y-76956300D03*
D21*
X135763334Y-74245000D03*
X135763334Y-79745000D03*
D20*
X134729334Y-76956300D03*
X132189334Y-76956300D03*
D21*
X131563334Y-79745000D03*
X131563334Y-74245000D03*
D20*
X129649334Y-76956300D03*
%TD*%
D14*
%TO.C,R23*%
X146340000Y-116890000D03*
X145320000Y-116890000D03*
%TD*%
D28*
%TO.C,R9*%
X122100000Y-89040000D03*
X123120000Y-89040000D03*
%TD*%
D39*
%TO.C,R5*%
X136732500Y-105320000D03*
X136732500Y-104300000D03*
%TD*%
D14*
%TO.C,R7*%
X119430000Y-103016666D03*
X118410000Y-103016666D03*
%TD*%
D40*
%TO.C,Q1*%
X161025000Y-88250000D03*
X160375000Y-88250000D03*
X159725000Y-88250000D03*
X159075000Y-88250000D03*
D41*
X160050000Y-90205000D03*
%TD*%
D42*
%TO.C,C20*%
X118440000Y-104230000D03*
X119400000Y-104230000D03*
%TD*%
D25*
%TO.C,C1*%
X139462500Y-94250000D03*
X137587500Y-94250000D03*
%TD*%
D42*
%TO.C,C22*%
X141820000Y-92775000D03*
X142780000Y-92775000D03*
%TD*%
D16*
%TO.C,H2*%
X110641320Y-122311320D03*
%TD*%
D39*
%TO.C,R4*%
X136992500Y-108400000D03*
X136992500Y-107380000D03*
%TD*%
D27*
%TO.C,C10*%
X152100000Y-87000000D03*
X152100000Y-87960000D03*
%TD*%
D14*
%TO.C,R18*%
X119430000Y-101793333D03*
X118410000Y-101793333D03*
%TD*%
D16*
%TO.C,H3*%
X168641320Y-72811320D03*
%TD*%
D43*
%TO.C,C19*%
X149125000Y-113475000D03*
X142900000Y-113475000D03*
%TD*%
D28*
%TO.C,R10*%
X122100000Y-91491428D03*
X123120000Y-91491428D03*
%TD*%
D26*
%TO.C,C14*%
X138422500Y-108320000D03*
X138422500Y-107360000D03*
%TD*%
D28*
%TO.C,R11*%
X122100000Y-93942856D03*
X123120000Y-93942856D03*
%TD*%
D42*
%TO.C,C12*%
X139802500Y-107490000D03*
X140762500Y-107490000D03*
%TD*%
D27*
%TO.C,C21*%
X144550000Y-87970000D03*
X144550000Y-88930000D03*
%TD*%
D31*
%TO.C,C6*%
X141143553Y-96200000D03*
X143018553Y-96200000D03*
%TD*%
D14*
%TO.C,R16*%
X133610000Y-97580000D03*
X132590000Y-97580000D03*
%TD*%
%TO.C,R14*%
X133610000Y-92677142D03*
X132590000Y-92677142D03*
%TD*%
D25*
%TO.C,C15*%
X148452500Y-96525000D03*
X146577500Y-96525000D03*
%TD*%
D20*
%TO.C,J7*%
X125836000Y-76956300D03*
D21*
X124330000Y-74245000D03*
X124330000Y-79745000D03*
D20*
X123296000Y-76956300D03*
X120756000Y-76956300D03*
D21*
X120130000Y-79745000D03*
X120130000Y-74245000D03*
D20*
X118216000Y-76956300D03*
%TD*%
D19*
%TO.C,TP2*%
X150025000Y-93225000D03*
%TD*%
D27*
%TO.C,C9*%
X136732500Y-100470000D03*
X136732500Y-101430000D03*
%TD*%
D15*
%TO.C,R1*%
X152090000Y-88940000D03*
X152090000Y-89960000D03*
%TD*%
D31*
%TO.C,C4*%
X141137500Y-94250000D03*
X143012500Y-94250000D03*
%TD*%
M02*
