%TF.GenerationSoftware,KiCad,Pcbnew,8.0.7*%
%TF.CreationDate,2025-01-23T15:07:47-05:00*%
%TF.ProjectId,AntHat,416e7448-6174-42e6-9b69-6361645f7063,rev?*%
%TF.SameCoordinates,Original*%
%TF.FileFunction,Copper,L1,Top*%
%TF.FilePolarity,Positive*%
%FSLAX46Y46*%
G04 Gerber Fmt 4.6, Leading zero omitted, Abs format (unit mm)*
G04 Created by KiCad (PCBNEW 8.0.7) date 2025-01-23 15:07:47*
%MOMM*%
%LPD*%
G01*
G04 APERTURE LIST*
G04 Aperture macros list*
%AMRoundRect*
0 Rectangle with rounded corners*
0 $1 Rounding radius*
0 $2 $3 $4 $5 $6 $7 $8 $9 X,Y pos of 4 corners*
0 Add a 4 corners polygon primitive as box body*
4,1,4,$2,$3,$4,$5,$6,$7,$8,$9,$2,$3,0*
0 Add four circle primitives for the rounded corners*
1,1,$1+$1,$2,$3*
1,1,$1+$1,$4,$5*
1,1,$1+$1,$6,$7*
1,1,$1+$1,$8,$9*
0 Add four rect primitives between the rounded corners*
20,1,$1+$1,$2,$3,$4,$5,0*
20,1,$1+$1,$4,$5,$6,$7,0*
20,1,$1+$1,$6,$7,$8,$9,0*
20,1,$1+$1,$8,$9,$2,$3,0*%
%AMFreePoly0*
4,1,17,1.395000,0.765000,0.855000,0.765000,0.855000,0.535000,1.395000,0.535000,1.395000,0.115000,0.855000,0.115000,0.855000,-0.115000,1.395000,-0.115000,1.395000,-0.535000,0.855000,-0.535000,0.855000,-0.765000,1.395000,-0.765000,1.395000,-1.185000,-0.855000,-1.185000,-0.855000,1.185000,1.395000,1.185000,1.395000,0.765000,1.395000,0.765000,$1*%
G04 Aperture macros list end*
%TA.AperFunction,SMDPad,CuDef*%
%ADD10RoundRect,0.050000X0.305600X-0.102400X0.305600X0.102400X-0.305600X0.102400X-0.305600X-0.102400X0*%
%TD*%
%TA.AperFunction,SMDPad,CuDef*%
%ADD11RoundRect,0.050000X-0.102400X-0.305600X0.102400X-0.305600X0.102400X0.305600X-0.102400X0.305600X0*%
%TD*%
%TA.AperFunction,SMDPad,CuDef*%
%ADD12R,2.692400X2.692400*%
%TD*%
%TA.AperFunction,SMDPad,CuDef*%
%ADD13RoundRect,0.250000X0.475000X-0.250000X0.475000X0.250000X-0.475000X0.250000X-0.475000X-0.250000X0*%
%TD*%
%TA.AperFunction,SMDPad,CuDef*%
%ADD14RoundRect,0.135000X0.135000X0.185000X-0.135000X0.185000X-0.135000X-0.185000X0.135000X-0.185000X0*%
%TD*%
%TA.AperFunction,SMDPad,CuDef*%
%ADD15RoundRect,0.135000X-0.185000X0.135000X-0.185000X-0.135000X0.185000X-0.135000X0.185000X0.135000X0*%
%TD*%
%TA.AperFunction,SMDPad,CuDef*%
%ADD16RoundRect,0.150000X-0.150000X0.737500X-0.150000X-0.737500X0.150000X-0.737500X0.150000X0.737500X0*%
%TD*%
%TA.AperFunction,HeatsinkPad*%
%ADD17C,0.500000*%
%TD*%
%TA.AperFunction,HeatsinkPad*%
%ADD18R,4.900000X2.950000*%
%TD*%
%TA.AperFunction,SMDPad,CuDef*%
%ADD19C,1.500000*%
%TD*%
%TA.AperFunction,ComponentPad*%
%ADD20C,1.549400*%
%TD*%
%TA.AperFunction,ComponentPad*%
%ADD21C,2.300000*%
%TD*%
%TA.AperFunction,ComponentPad*%
%ADD22C,1.400000*%
%TD*%
%TA.AperFunction,ComponentPad*%
%ADD23R,1.400000X1.400000*%
%TD*%
%TA.AperFunction,SMDPad,CuDef*%
%ADD24R,0.800000X0.900000*%
%TD*%
%TA.AperFunction,SMDPad,CuDef*%
%ADD25RoundRect,0.243750X0.243750X0.456250X-0.243750X0.456250X-0.243750X-0.456250X0.243750X-0.456250X0*%
%TD*%
%TA.AperFunction,SMDPad,CuDef*%
%ADD26RoundRect,0.140000X0.170000X-0.140000X0.170000X0.140000X-0.170000X0.140000X-0.170000X-0.140000X0*%
%TD*%
%TA.AperFunction,SMDPad,CuDef*%
%ADD27RoundRect,0.140000X-0.170000X0.140000X-0.170000X-0.140000X0.170000X-0.140000X0.170000X0.140000X0*%
%TD*%
%TA.AperFunction,SMDPad,CuDef*%
%ADD28RoundRect,0.135000X-0.135000X-0.185000X0.135000X-0.185000X0.135000X0.185000X-0.135000X0.185000X0*%
%TD*%
%TA.AperFunction,ComponentPad*%
%ADD29R,1.700000X1.700000*%
%TD*%
%TA.AperFunction,ComponentPad*%
%ADD30O,1.700000X1.700000*%
%TD*%
%TA.AperFunction,SMDPad,CuDef*%
%ADD31RoundRect,0.243750X-0.243750X-0.456250X0.243750X-0.456250X0.243750X0.456250X-0.243750X0.456250X0*%
%TD*%
%TA.AperFunction,SMDPad,CuDef*%
%ADD32R,2.000000X1.800000*%
%TD*%
%TA.AperFunction,ComponentPad*%
%ADD33C,2.775000*%
%TD*%
%TA.AperFunction,SMDPad,CuDef*%
%ADD34RoundRect,0.050000X-0.100000X0.350000X-0.100000X-0.350000X0.100000X-0.350000X0.100000X0.350000X0*%
%TD*%
%TA.AperFunction,SMDPad,CuDef*%
%ADD35RoundRect,0.012500X-0.237500X0.112500X-0.237500X-0.112500X0.237500X-0.112500X0.237500X0.112500X0*%
%TD*%
%TA.AperFunction,SMDPad,CuDef*%
%ADD36RoundRect,0.033000X-1.167000X0.792000X-1.167000X-0.792000X1.167000X-0.792000X1.167000X0.792000X0*%
%TD*%
%TA.AperFunction,SMDPad,CuDef*%
%ADD37RoundRect,0.250000X-0.475000X0.250000X-0.475000X-0.250000X0.475000X-0.250000X0.475000X0.250000X0*%
%TD*%
%TA.AperFunction,SMDPad,CuDef*%
%ADD38RoundRect,0.135000X0.185000X-0.135000X0.185000X0.135000X-0.185000X0.135000X-0.185000X-0.135000X0*%
%TD*%
%TA.AperFunction,SMDPad,CuDef*%
%ADD39RoundRect,0.105000X-0.105000X0.245000X-0.105000X-0.245000X0.105000X-0.245000X0.105000X0.245000X0*%
%TD*%
%TA.AperFunction,SMDPad,CuDef*%
%ADD40FreePoly0,270.000000*%
%TD*%
%TA.AperFunction,SMDPad,CuDef*%
%ADD41RoundRect,0.140000X-0.140000X-0.170000X0.140000X-0.170000X0.140000X0.170000X-0.140000X0.170000X0*%
%TD*%
%TA.AperFunction,SMDPad,CuDef*%
%ADD42RoundRect,0.250000X0.787500X1.025000X-0.787500X1.025000X-0.787500X-1.025000X0.787500X-1.025000X0*%
%TD*%
%TA.AperFunction,ViaPad*%
%ADD43C,0.500000*%
%TD*%
%TA.AperFunction,ViaPad*%
%ADD44C,0.800000*%
%TD*%
%TA.AperFunction,Conductor*%
%ADD45C,0.200000*%
%TD*%
%TA.AperFunction,Conductor*%
%ADD46C,1.000000*%
%TD*%
%TA.AperFunction,Conductor*%
%ADD47C,0.500000*%
%TD*%
%TA.AperFunction,Conductor*%
%ADD48C,0.230000*%
%TD*%
%TA.AperFunction,Conductor*%
%ADD49C,0.508000*%
%TD*%
G04 APERTURE END LIST*
D10*
%TO.P,U2,1,SMDATA*%
%TO.N,/SDA*%
X122325800Y-100415800D03*
%TO.P,U2,2,SMCLK*%
%TO.N,/SCL*%
X122325800Y-101065798D03*
%TO.P,U2,3,VDD*%
%TO.N,/3V3*%
X122325800Y-101715800D03*
%TO.P,U2,4,ADDR_SEL*%
%TO.N,Net-(U2-ADDR_SEL)*%
X122325800Y-102365798D03*
D11*
%TO.P,U2,5,PWM1*%
%TO.N,/PWM1*%
X123300002Y-103340000D03*
%TO.P,U2,6,TACH1*%
%TO.N,/TACH1*%
X123950000Y-103340000D03*
%TO.P,U2,7,PWM2*%
%TO.N,/PWM2*%
X124600002Y-103340000D03*
%TO.P,U2,8,TACH2*%
%TO.N,/TACH2*%
X125250000Y-103340000D03*
D10*
%TO.P,U2,9,PWM3*%
%TO.N,/PWM3*%
X126224202Y-102365798D03*
%TO.P,U2,10,TACH3*%
%TO.N,/TACH3*%
X126224202Y-101715800D03*
%TO.P,U2,11,CLK*%
%TO.N,Net-(U2-CLK)*%
X126224202Y-101065798D03*
%TO.P,U2,12,~{ALERT}*%
%TO.N,/FAN_ALERT*%
X126224202Y-100415800D03*
D11*
%TO.P,U2,13,PWM4*%
%TO.N,/PWM4*%
X125250000Y-99441598D03*
%TO.P,U2,14,TACH4*%
%TO.N,/TACH4*%
X124600002Y-99441598D03*
%TO.P,U2,15,PWM5*%
%TO.N,unconnected-(U2-PWM5-Pad15)*%
X123950000Y-99441598D03*
%TO.P,U2,16,TACH5*%
%TO.N,unconnected-(U2-TACH5-Pad16)*%
X123300002Y-99441598D03*
D12*
%TO.P,U2,17,GND*%
%TO.N,GND*%
X124275001Y-101390799D03*
%TD*%
D13*
%TO.P,C5,1*%
%TO.N,/VIN*%
X165450000Y-89425000D03*
%TO.P,C5,2*%
%TO.N,GND*%
X165450000Y-87525000D03*
%TD*%
D14*
%TO.P,R22,1*%
%TO.N,/PSU_SCL*%
X150340000Y-116890000D03*
%TO.P,R22,2*%
%TO.N,/3V3*%
X149320000Y-116890000D03*
%TD*%
D15*
%TO.P,R3,1*%
%TO.N,Net-(U1-COMP)*%
X139722500Y-108750000D03*
%TO.P,R3,2*%
%TO.N,Net-(C13-Pad1)*%
X139722500Y-109770000D03*
%TD*%
D16*
%TO.P,U1,1,BST*%
%TO.N,Net-(U1-BST)*%
X142236053Y-100299922D03*
%TO.P,U1,2,VIN*%
%TO.N,/12V_LIM*%
X140966053Y-100299922D03*
%TO.P,U1,3,EN*%
X139696053Y-100299922D03*
%TO.P,U1,4,SS*%
%TO.N,Net-(U1-SS)*%
X138426053Y-100299922D03*
%TO.P,U1,5,FB*%
%TO.N,Net-(U1-FB)*%
X138426053Y-105424922D03*
%TO.P,U1,6,COMP*%
%TO.N,Net-(U1-COMP)*%
X139696053Y-105424922D03*
%TO.P,U1,7,GND*%
%TO.N,GND*%
X140966053Y-105424922D03*
%TO.P,U1,8,SW*%
%TO.N,Net-(U1-SW)*%
X142236053Y-105424922D03*
D17*
%TO.P,U1,9,EP*%
%TO.N,GND*%
X142281053Y-102212422D03*
X140981053Y-102212422D03*
X139681053Y-102212422D03*
X138381053Y-102212422D03*
D18*
X140331053Y-102862422D03*
D17*
X142281053Y-103512422D03*
X140981053Y-103512422D03*
X139681053Y-103512422D03*
X138381053Y-103512422D03*
%TD*%
D19*
%TO.P,TP1,1,1*%
%TO.N,/12V*%
X147800000Y-85620000D03*
%TD*%
D20*
%TO.P,J5,1,Pin_1*%
%TO.N,GND*%
X148702667Y-76956300D03*
D21*
X147196667Y-74245000D03*
%TO.P,J5,2,Pin_2*%
%TO.N,/12V*%
X147196667Y-79745000D03*
D20*
X146162667Y-76956300D03*
%TO.P,J5,3,Pin_3*%
%TO.N,/TACH2*%
X143622667Y-76956300D03*
D21*
X142996667Y-79745000D03*
%TO.P,J5,4,Pin_4*%
%TO.N,/PWM2*%
X142996667Y-74245000D03*
D20*
X141082667Y-76956300D03*
%TD*%
D14*
%TO.P,R21,1*%
%TO.N,Net-(U3-ILIM)*%
X147785000Y-89050000D03*
%TO.P,R21,2*%
%TO.N,GND*%
X146765000Y-89050000D03*
%TD*%
%TO.P,R13,1*%
%TO.N,/5V*%
X133610000Y-90225714D03*
%TO.P,R13,2*%
%TO.N,/PWM1*%
X132590000Y-90225714D03*
%TD*%
D22*
%TO.P,J3,6,Pin_6*%
%TO.N,/PSU_SCL*%
X162020000Y-110360000D03*
%TO.P,J3,5,Pin_5*%
%TO.N,/PSU_EN*%
X164020000Y-110360000D03*
%TO.P,J3,4,Pin_4*%
%TO.N,unconnected-(J3-Pin_4-Pad4)*%
X166020000Y-110360000D03*
%TO.P,J3,3,Pin_3*%
%TO.N,/PSU_SDA*%
X162020000Y-112360000D03*
%TO.P,J3,2,Pin_2*%
%TO.N,GND*%
X164020000Y-112360000D03*
D23*
%TO.P,J3,1,Pin_1*%
%TO.N,unconnected-(J3-Pin_1-Pad1)*%
X166020000Y-112360000D03*
%TD*%
D24*
%TO.P,D1,1,A*%
%TO.N,Net-(D1-A)*%
X153600000Y-88900000D03*
%TO.P,D1,2,NC*%
%TO.N,unconnected-(D1-NC-Pad2)*%
X155500000Y-88900000D03*
%TO.P,D1,3,K*%
%TO.N,/12V*%
X154550000Y-86900000D03*
%TD*%
D25*
%TO.P,C16,1*%
%TO.N,/5V*%
X148440000Y-98675000D03*
%TO.P,C16,2*%
%TO.N,GND*%
X146565000Y-98675000D03*
%TD*%
D14*
%TO.P,R19,1*%
%TO.N,/12V*%
X147835000Y-87950000D03*
%TO.P,R19,2*%
%TO.N,Net-(U3-EN{slash}UVLO)*%
X146815000Y-87950000D03*
%TD*%
D25*
%TO.P,C3,1*%
%TO.N,/12V_LIM*%
X139468553Y-98162422D03*
%TO.P,C3,2*%
%TO.N,GND*%
X137593553Y-98162422D03*
%TD*%
D19*
%TO.P,TP3,1,1*%
%TO.N,GND*%
X145775000Y-90750000D03*
%TD*%
D26*
%TO.P,C13,1*%
%TO.N,Net-(C13-Pad1)*%
X140902500Y-109750000D03*
%TO.P,C13,2*%
%TO.N,GND*%
X140902500Y-108790000D03*
%TD*%
D27*
%TO.P,C8,1*%
%TO.N,Net-(C8-Pad1)*%
X142282500Y-109540000D03*
%TO.P,C8,2*%
%TO.N,Net-(U1-BST)*%
X142282500Y-110500000D03*
%TD*%
D28*
%TO.P,R12,1*%
%TO.N,/3V3*%
X122100000Y-96394284D03*
%TO.P,R12,2*%
%TO.N,/TACH4*%
X123120000Y-96394284D03*
%TD*%
D15*
%TO.P,R2,1*%
%TO.N,Net-(U1-SW)*%
X142282500Y-107460000D03*
%TO.P,R2,2*%
%TO.N,Net-(C8-Pad1)*%
X142282500Y-108480000D03*
%TD*%
D29*
%TO.P,J1,1,3V3*%
%TO.N,/3V3*%
X163741320Y-120971320D03*
D30*
%TO.P,J1,2,5V*%
%TO.N,/5V*%
X163741320Y-123511320D03*
%TO.P,J1,3,SDA/GPIO2*%
%TO.N,/SDA*%
X161201320Y-120971320D03*
%TO.P,J1,4,5V*%
%TO.N,/5V*%
X161201320Y-123511320D03*
%TO.P,J1,5,SCL/GPIO3*%
%TO.N,/SCL*%
X158661320Y-120971320D03*
%TO.P,J1,6,GND*%
%TO.N,GND*%
X158661320Y-123511320D03*
%TO.P,J1,7,GCLK0/GPIO4*%
%TO.N,unconnected-(J1-GCLK0{slash}GPIO4-Pad7)*%
X156121320Y-120971320D03*
%TO.P,J1,8,GPIO14/TXD*%
%TO.N,unconnected-(J1-GPIO14{slash}TXD-Pad8)*%
X156121320Y-123511320D03*
%TO.P,J1,9,GND*%
%TO.N,GND*%
X153581320Y-120971320D03*
%TO.P,J1,10,GPIO15/RXD*%
%TO.N,unconnected-(J1-GPIO15{slash}RXD-Pad10)*%
X153581320Y-123511320D03*
%TO.P,J1,11,GPIO17*%
%TO.N,/PSU_EN*%
X151041320Y-120971320D03*
%TO.P,J1,12,GPIO18/PWM0*%
%TO.N,unconnected-(J1-GPIO18{slash}PWM0-Pad12)*%
X151041320Y-123511320D03*
%TO.P,J1,13,GPIO27*%
%TO.N,/PSU_SCL*%
X148501320Y-120971320D03*
%TO.P,J1,14,GND*%
%TO.N,GND*%
X148501320Y-123511320D03*
%TO.P,J1,15,GPIO22*%
%TO.N,/PSU_SDA*%
X145961320Y-120971320D03*
%TO.P,J1,16,GPIO23*%
%TO.N,unconnected-(J1-GPIO23-Pad16)*%
X145961320Y-123511320D03*
%TO.P,J1,17,3V3*%
%TO.N,/3V3*%
X143421320Y-120971320D03*
%TO.P,J1,18,GPIO24*%
%TO.N,unconnected-(J1-GPIO24-Pad18)*%
X143421320Y-123511320D03*
%TO.P,J1,19,MOSI0/GPIO10*%
%TO.N,unconnected-(J1-MOSI0{slash}GPIO10-Pad19)*%
X140881320Y-120971320D03*
%TO.P,J1,20,GND*%
%TO.N,GND*%
X140881320Y-123511320D03*
%TO.P,J1,21,MISO0/GPIO9*%
%TO.N,unconnected-(J1-MISO0{slash}GPIO9-Pad21)*%
X138341320Y-120971320D03*
%TO.P,J1,22,GPIO25*%
%TO.N,unconnected-(J1-GPIO25-Pad22)*%
X138341320Y-123511320D03*
%TO.P,J1,23,SCLK0/GPIO11*%
%TO.N,unconnected-(J1-SCLK0{slash}GPIO11-Pad23)*%
X135801320Y-120971320D03*
%TO.P,J1,24,~{CE0}/GPIO8*%
%TO.N,unconnected-(J1-~{CE0}{slash}GPIO8-Pad24)*%
X135801320Y-123511320D03*
%TO.P,J1,25,GND*%
%TO.N,GND*%
X133261320Y-120971320D03*
%TO.P,J1,26,~{CE1}/GPIO7*%
%TO.N,unconnected-(J1-~{CE1}{slash}GPIO7-Pad26)*%
X133261320Y-123511320D03*
%TO.P,J1,27,ID_SD/GPIO0*%
%TO.N,unconnected-(J1-ID_SD{slash}GPIO0-Pad27)*%
X130721320Y-120971320D03*
%TO.P,J1,28,ID_SC/GPIO1*%
%TO.N,unconnected-(J1-ID_SC{slash}GPIO1-Pad28)*%
X130721320Y-123511320D03*
%TO.P,J1,29,GCLK1/GPIO5*%
%TO.N,unconnected-(J1-GCLK1{slash}GPIO5-Pad29)*%
X128181320Y-120971320D03*
%TO.P,J1,30,GND*%
%TO.N,GND*%
X128181320Y-123511320D03*
%TO.P,J1,31,GCLK2/GPIO6*%
%TO.N,unconnected-(J1-GCLK2{slash}GPIO6-Pad31)*%
X125641320Y-120971320D03*
%TO.P,J1,32,PWM0/GPIO12*%
%TO.N,unconnected-(J1-PWM0{slash}GPIO12-Pad32)*%
X125641320Y-123511320D03*
%TO.P,J1,33,PWM1/GPIO13*%
%TO.N,unconnected-(J1-PWM1{slash}GPIO13-Pad33)*%
X123101320Y-120971320D03*
%TO.P,J1,34,GND*%
%TO.N,GND*%
X123101320Y-123511320D03*
%TO.P,J1,35,GPIO19/MISO1*%
%TO.N,unconnected-(J1-GPIO19{slash}MISO1-Pad35)*%
X120561320Y-120971320D03*
%TO.P,J1,36,GPIO16*%
%TO.N,/FAN_ALERT*%
X120561320Y-123511320D03*
%TO.P,J1,37,GPIO26*%
%TO.N,unconnected-(J1-GPIO26-Pad37)*%
X118021320Y-120971320D03*
%TO.P,J1,38,GPIO20/MOSI1*%
%TO.N,unconnected-(J1-GPIO20{slash}MOSI1-Pad38)*%
X118021320Y-123511320D03*
%TO.P,J1,39,GND*%
%TO.N,GND*%
X115481320Y-120971320D03*
%TO.P,J1,40,GPIO21/SCLK1*%
%TO.N,unconnected-(J1-GPIO21{slash}SCLK1-Pad40)*%
X115481320Y-123511320D03*
%TD*%
D14*
%TO.P,R17,1*%
%TO.N,/SDA*%
X119430000Y-100570000D03*
%TO.P,R17,2*%
%TO.N,/3V3*%
X118410000Y-100570000D03*
%TD*%
D15*
%TO.P,R20,1*%
%TO.N,Net-(U3-EN{slash}UVLO)*%
X145650000Y-87940000D03*
%TO.P,R20,2*%
%TO.N,GND*%
X145650000Y-88960000D03*
%TD*%
D31*
%TO.P,C7,1*%
%TO.N,/12V_LIM*%
X141143553Y-98162422D03*
%TO.P,C7,2*%
%TO.N,GND*%
X143018553Y-98162422D03*
%TD*%
D25*
%TO.P,C18,1*%
%TO.N,/5V*%
X148468553Y-102812422D03*
%TO.P,C18,2*%
%TO.N,GND*%
X146593553Y-102812422D03*
%TD*%
D32*
%TO.P,L1,1,1*%
%TO.N,Net-(U1-SW)*%
X144681053Y-107262422D03*
%TO.P,L1,2,2*%
%TO.N,/5V*%
X149081053Y-107262422D03*
%TD*%
D15*
%TO.P,R6,1*%
%TO.N,/FAN_ALERT*%
X132740000Y-104950000D03*
%TO.P,R6,2*%
%TO.N,/3V3*%
X132740000Y-105970000D03*
%TD*%
D25*
%TO.P,C17,1*%
%TO.N,/5V*%
X148468553Y-100662422D03*
%TO.P,C17,2*%
%TO.N,GND*%
X146593553Y-100662422D03*
%TD*%
D33*
%TO.P,J2,1,1*%
%TO.N,/VIN*%
X160910000Y-95330000D03*
%TO.P,J2,2,2*%
X160910000Y-99530000D03*
%TO.P,J2,3,3*%
X160910000Y-103730000D03*
%TO.P,J2,4,4*%
%TO.N,GND*%
X156710000Y-95330000D03*
%TO.P,J2,5,5*%
X156710000Y-99530000D03*
%TO.P,J2,6,6*%
X156710000Y-103730000D03*
%TD*%
D14*
%TO.P,R15,1*%
%TO.N,/5V*%
X133610000Y-95128570D03*
%TO.P,R15,2*%
%TO.N,/PWM3*%
X132590000Y-95128570D03*
%TD*%
D25*
%TO.P,C2,1*%
%TO.N,/12V_LIM*%
X139462500Y-96200000D03*
%TO.P,C2,2*%
%TO.N,GND*%
X137587500Y-96200000D03*
%TD*%
D34*
%TO.P,U3,1,dV/dT*%
%TO.N,Net-(U3-dV{slash}dT)*%
X142970000Y-87840000D03*
%TO.P,U3,2,EN/UVLO*%
%TO.N,Net-(U3-EN{slash}UVLO)*%
X142470000Y-87840000D03*
%TO.P,U3,3,VIN*%
%TO.N,/12V*%
X141970000Y-87840000D03*
%TO.P,U3,4,VIN*%
X141470000Y-87840000D03*
%TO.P,U3,5,VIN*%
X140970000Y-87840000D03*
%TO.P,U3,6,OUT*%
%TO.N,/12V_LIM*%
X140970000Y-90840000D03*
%TO.P,U3,7,OUT*%
X141470000Y-90840000D03*
%TO.P,U3,8,OUT*%
X141970000Y-90840000D03*
%TO.P,U3,9,BFET*%
%TO.N,unconnected-(U3-BFET-Pad9)*%
X142470000Y-90840000D03*
%TO.P,U3,10,ILIM*%
%TO.N,Net-(U3-ILIM)*%
X142970000Y-90840000D03*
D35*
%TO.P,U3,11,GND*%
%TO.N,GND*%
X143420000Y-89090000D03*
X140520000Y-89090000D03*
D36*
X141970000Y-89340000D03*
D35*
X143420000Y-89590000D03*
X140520000Y-89590000D03*
%TD*%
D37*
%TO.P,C11,1*%
%TO.N,/12V*%
X150470000Y-86790000D03*
%TO.P,C11,2*%
%TO.N,GND*%
X150470000Y-88690000D03*
%TD*%
D15*
%TO.P,R8,1*%
%TO.N,Net-(U2-CLK)*%
X130800000Y-104970000D03*
%TO.P,R8,2*%
%TO.N,/3V3*%
X130800000Y-105990000D03*
%TD*%
D20*
%TO.P,J4,1,Pin_1*%
%TO.N,GND*%
X160136000Y-76956300D03*
D21*
X158630000Y-74245000D03*
%TO.P,J4,2,Pin_2*%
%TO.N,/12V*%
X158630000Y-79745000D03*
D20*
X157596000Y-76956300D03*
%TO.P,J4,3,Pin_3*%
%TO.N,/TACH1*%
X155056000Y-76956300D03*
D21*
X154430000Y-79745000D03*
%TO.P,J4,4,Pin_4*%
%TO.N,/PWM1*%
X154430000Y-74245000D03*
D20*
X152516000Y-76956300D03*
%TD*%
%TO.P,J6,1,Pin_1*%
%TO.N,GND*%
X137269334Y-76956300D03*
D21*
X135763334Y-74245000D03*
%TO.P,J6,2,Pin_2*%
%TO.N,/12V*%
X135763334Y-79745000D03*
D20*
X134729334Y-76956300D03*
%TO.P,J6,3,Pin_3*%
%TO.N,/TACH3*%
X132189334Y-76956300D03*
D21*
X131563334Y-79745000D03*
%TO.P,J6,4,Pin_4*%
%TO.N,/PWM3*%
X131563334Y-74245000D03*
D20*
X129649334Y-76956300D03*
%TD*%
D14*
%TO.P,R23,1*%
%TO.N,/PSU_SDA*%
X146340000Y-116890000D03*
%TO.P,R23,2*%
%TO.N,/3V3*%
X145320000Y-116890000D03*
%TD*%
D28*
%TO.P,R9,1*%
%TO.N,/3V3*%
X122100000Y-89040000D03*
%TO.P,R9,2*%
%TO.N,/TACH1*%
X123120000Y-89040000D03*
%TD*%
D38*
%TO.P,R5,1*%
%TO.N,Net-(U1-FB)*%
X136732500Y-105320000D03*
%TO.P,R5,2*%
%TO.N,GND*%
X136732500Y-104300000D03*
%TD*%
D14*
%TO.P,R7,1*%
%TO.N,Net-(U2-ADDR_SEL)*%
X119430000Y-103016666D03*
%TO.P,R7,2*%
%TO.N,/3V3*%
X118410000Y-103016666D03*
%TD*%
D39*
%TO.P,Q1,1,S*%
%TO.N,/12V*%
X161025000Y-88250000D03*
%TO.P,Q1,2,S*%
X160375000Y-88250000D03*
%TO.P,Q1,3,S*%
X159725000Y-88250000D03*
%TO.P,Q1,4,G*%
%TO.N,Net-(D1-A)*%
X159075000Y-88250000D03*
D40*
%TO.P,Q1,5,D*%
%TO.N,/VIN*%
X160050000Y-90205000D03*
%TD*%
D41*
%TO.P,C20,1*%
%TO.N,/3V3*%
X118440000Y-104230000D03*
%TO.P,C20,2*%
%TO.N,GND*%
X119400000Y-104230000D03*
%TD*%
D25*
%TO.P,C1,1*%
%TO.N,/12V_LIM*%
X139462500Y-94250000D03*
%TO.P,C1,2*%
%TO.N,GND*%
X137587500Y-94250000D03*
%TD*%
D41*
%TO.P,C22,1*%
%TO.N,/12V_LIM*%
X141820000Y-92775000D03*
%TO.P,C22,2*%
%TO.N,GND*%
X142780000Y-92775000D03*
%TD*%
D38*
%TO.P,R4,1*%
%TO.N,/5V*%
X136992500Y-108400000D03*
%TO.P,R4,2*%
%TO.N,Net-(U1-FB)*%
X136992500Y-107380000D03*
%TD*%
D27*
%TO.P,C10,1*%
%TO.N,/12V*%
X152100000Y-87000000D03*
%TO.P,C10,2*%
%TO.N,Net-(D1-A)*%
X152100000Y-87960000D03*
%TD*%
D14*
%TO.P,R18,1*%
%TO.N,/SCL*%
X119430000Y-101793333D03*
%TO.P,R18,2*%
%TO.N,/3V3*%
X118410000Y-101793333D03*
%TD*%
D42*
%TO.P,C19,1*%
%TO.N,/5V*%
X149125000Y-113475000D03*
%TO.P,C19,2*%
%TO.N,GND*%
X142900000Y-113475000D03*
%TD*%
D28*
%TO.P,R10,1*%
%TO.N,/3V3*%
X122100000Y-91491428D03*
%TO.P,R10,2*%
%TO.N,/TACH2*%
X123120000Y-91491428D03*
%TD*%
D26*
%TO.P,C14,1*%
%TO.N,/5V*%
X138422500Y-108320000D03*
%TO.P,C14,2*%
%TO.N,Net-(U1-FB)*%
X138422500Y-107360000D03*
%TD*%
D28*
%TO.P,R11,1*%
%TO.N,/3V3*%
X122100000Y-93942856D03*
%TO.P,R11,2*%
%TO.N,/TACH3*%
X123120000Y-93942856D03*
%TD*%
D41*
%TO.P,C12,1*%
%TO.N,Net-(U1-COMP)*%
X139802500Y-107490000D03*
%TO.P,C12,2*%
%TO.N,GND*%
X140762500Y-107490000D03*
%TD*%
D27*
%TO.P,C21,1*%
%TO.N,Net-(U3-dV{slash}dT)*%
X144550000Y-87970000D03*
%TO.P,C21,2*%
%TO.N,GND*%
X144550000Y-88930000D03*
%TD*%
D31*
%TO.P,C6,1*%
%TO.N,/12V_LIM*%
X141143553Y-96200000D03*
%TO.P,C6,2*%
%TO.N,GND*%
X143018553Y-96200000D03*
%TD*%
D14*
%TO.P,R16,1*%
%TO.N,/5V*%
X133610000Y-97580000D03*
%TO.P,R16,2*%
%TO.N,/PWM4*%
X132590000Y-97580000D03*
%TD*%
%TO.P,R14,1*%
%TO.N,/5V*%
X133610000Y-92677142D03*
%TO.P,R14,2*%
%TO.N,/PWM2*%
X132590000Y-92677142D03*
%TD*%
D25*
%TO.P,C15,1*%
%TO.N,/5V*%
X148452500Y-96525000D03*
%TO.P,C15,2*%
%TO.N,GND*%
X146577500Y-96525000D03*
%TD*%
D20*
%TO.P,J7,1,Pin_1*%
%TO.N,GND*%
X125836000Y-76956300D03*
D21*
X124330000Y-74245000D03*
%TO.P,J7,2,Pin_2*%
%TO.N,/12V*%
X124330000Y-79745000D03*
D20*
X123296000Y-76956300D03*
%TO.P,J7,3,Pin_3*%
%TO.N,/TACH4*%
X120756000Y-76956300D03*
D21*
X120130000Y-79745000D03*
%TO.P,J7,4,Pin_4*%
%TO.N,/PWM4*%
X120130000Y-74245000D03*
D20*
X118216000Y-76956300D03*
%TD*%
D19*
%TO.P,TP2,1,1*%
%TO.N,/5V*%
X150025000Y-93225000D03*
%TD*%
D27*
%TO.P,C9,1*%
%TO.N,Net-(U1-SS)*%
X136732500Y-100470000D03*
%TO.P,C9,2*%
%TO.N,GND*%
X136732500Y-101430000D03*
%TD*%
D15*
%TO.P,R1,1*%
%TO.N,Net-(D1-A)*%
X152090000Y-88940000D03*
%TO.P,R1,2*%
%TO.N,GND*%
X152090000Y-89960000D03*
%TD*%
D31*
%TO.P,C4,1*%
%TO.N,/12V_LIM*%
X141137500Y-94250000D03*
%TO.P,C4,2*%
%TO.N,GND*%
X143012500Y-94250000D03*
%TD*%
D43*
%TO.N,GND*%
X138625000Y-90175000D03*
X138625000Y-89012500D03*
X139725000Y-89012500D03*
X139725000Y-90175000D03*
X144125000Y-89775000D03*
%TO.N,Net-(U3-ILIM)*%
X148550000Y-89100000D03*
X143000000Y-91725000D03*
D44*
%TO.N,GND*%
X165450000Y-86350000D03*
D43*
%TO.N,/PSU_SCL*%
X151950000Y-118010000D03*
%TO.N,/PSU_SDA*%
X152930000Y-118010000D03*
%TO.N,GND*%
X144864385Y-104012422D03*
X150980000Y-89900000D03*
X144207500Y-97312500D03*
X144864385Y-101687422D03*
X145731053Y-101687422D03*
X125180000Y-100540000D03*
X119410000Y-105110000D03*
X136642500Y-98455000D03*
X144207500Y-93825000D03*
X137496053Y-101447422D03*
X143997719Y-102849922D03*
X144207500Y-98475000D03*
X143997719Y-104012422D03*
X145731053Y-104012422D03*
X143997719Y-101687422D03*
X144207500Y-94987500D03*
X145210000Y-96145000D03*
X141400000Y-113470000D03*
X137531053Y-102812422D03*
X137516053Y-104327422D03*
X136642500Y-94967500D03*
X136172500Y-102805000D03*
X136642500Y-97292500D03*
X135640000Y-94972500D03*
X136642500Y-96130000D03*
X145210000Y-97307500D03*
X135640000Y-96135000D03*
X143131053Y-101687422D03*
X143131053Y-102849922D03*
X144207500Y-96150000D03*
X136842500Y-102185000D03*
X136642500Y-93805000D03*
X143131053Y-104012422D03*
X124370000Y-101380000D03*
X123430000Y-102240000D03*
X135640000Y-98460000D03*
X123430000Y-100530000D03*
X145731053Y-102849922D03*
X135640000Y-93810000D03*
X136802500Y-103555000D03*
X145210000Y-98470000D03*
X144864385Y-102849922D03*
X145210000Y-94982500D03*
X135640000Y-97297500D03*
X125190000Y-102230000D03*
X145210000Y-93820000D03*
%TO.N,Net-(U1-BST)*%
X143131053Y-110462422D03*
X143342500Y-100175000D03*
%TO.N,/5V*%
X134620000Y-95150000D03*
X136981053Y-109162422D03*
X148220000Y-110570000D03*
X134620000Y-90230000D03*
X134620000Y-92670000D03*
X134620000Y-97540000D03*
X148225000Y-92675000D03*
%TO.N,/3V3*%
X118420000Y-99570000D03*
X121270000Y-93920000D03*
X121270000Y-96400000D03*
X118440000Y-105110000D03*
X133730000Y-105980000D03*
X148530000Y-116910000D03*
X121270000Y-89020000D03*
X121270000Y-91400000D03*
X121420000Y-101800000D03*
X144480000Y-116880000D03*
X129980000Y-106000000D03*
%TO.N,/SDA*%
X121220000Y-100410000D03*
%TO.N,/SCL*%
X120630000Y-101090000D03*
%TO.N,/PSU_EN*%
X150970000Y-118010000D03*
%TO.N,/TACH1*%
X123930000Y-105840000D03*
X131165000Y-90175000D03*
%TO.N,/PWM1*%
X123330000Y-105300000D03*
X130126737Y-90506736D03*
%TO.N,/TACH2*%
X125300000Y-104670000D03*
X129570000Y-91520000D03*
%TO.N,/PWM2*%
X124580000Y-104190000D03*
X129010000Y-92720000D03*
%TO.N,/PWM3*%
X127240000Y-95170000D03*
X127240000Y-102370000D03*
%TO.N,/TACH3*%
X127910000Y-101640000D03*
X127890000Y-93950000D03*
%TO.N,/TACH4*%
X124620000Y-98710000D03*
X124620000Y-96350000D03*
%TO.N,/PWM4*%
X124110000Y-97610000D03*
%TD*%
D45*
%TO.N,Net-(U3-ILIM)*%
X148550000Y-89100000D02*
X147835000Y-89100000D01*
X147835000Y-89100000D02*
X147785000Y-89050000D01*
X142970000Y-91695000D02*
X143000000Y-91725000D01*
X142970000Y-91345000D02*
X142970000Y-91695000D01*
X142970000Y-90840000D02*
X142970000Y-91345000D01*
%TO.N,Net-(D1-A)*%
X154900000Y-87600000D02*
X158110000Y-87600000D01*
X153600000Y-88900000D02*
X154900000Y-87600000D01*
X158760000Y-88250000D02*
X159075000Y-88250000D01*
X158110000Y-87600000D02*
X158760000Y-88250000D01*
D46*
%TO.N,GND*%
X165450000Y-87525000D02*
X165450000Y-86350000D01*
D45*
%TO.N,/PSU_SCL*%
X150340000Y-117510000D02*
X150330000Y-117520000D01*
X149412640Y-117520000D02*
X148501320Y-118431320D01*
X150330000Y-117520000D02*
X149412640Y-117520000D01*
X151400000Y-117520000D02*
X150330000Y-117520000D01*
X148501320Y-118431320D02*
X148501320Y-120971320D01*
X150340000Y-116890000D02*
X150340000Y-117510000D01*
X151890000Y-118010000D02*
X151400000Y-117520000D01*
%TO.N,/PSU_SDA*%
X147505000Y-116945000D02*
X145961320Y-118488680D01*
X146340000Y-116890000D02*
X147450000Y-116890000D01*
X145961320Y-118488680D02*
X145961320Y-120971320D01*
X152930000Y-118010000D02*
X151130000Y-116210000D01*
X151130000Y-116210000D02*
X148240000Y-116210000D01*
X147450000Y-116890000D02*
X147505000Y-116945000D01*
X148240000Y-116210000D02*
X147505000Y-116945000D01*
%TO.N,/12V*%
X147835000Y-87950000D02*
X147835000Y-86835000D01*
D47*
%TO.N,GND*%
X137496053Y-101447422D02*
X137616053Y-101447422D01*
D48*
X138431053Y-98712422D02*
X138143553Y-98712422D01*
X142181053Y-98762422D02*
X141581053Y-99362422D01*
D49*
X150470000Y-89390000D02*
X150980000Y-89900000D01*
D47*
X140966053Y-105424922D02*
X140966053Y-107427422D01*
X136831053Y-104327422D02*
X137516053Y-104327422D01*
X136831053Y-101447422D02*
X137496053Y-101447422D01*
D48*
X142181053Y-98762422D02*
X142418553Y-98762422D01*
D49*
X141400000Y-113470000D02*
X142895000Y-113470000D01*
D47*
X137566053Y-104327422D02*
X138381053Y-103512422D01*
D49*
X150470000Y-88690000D02*
X150470000Y-89390000D01*
D48*
X139081053Y-99362422D02*
X139081053Y-101612422D01*
X138143553Y-98712422D02*
X137593553Y-98162422D01*
D45*
X119400000Y-105100000D02*
X119410000Y-105110000D01*
D47*
X137516053Y-104327422D02*
X137566053Y-104327422D01*
D49*
X152090000Y-89960000D02*
X151040000Y-89960000D01*
D47*
X140881053Y-107512422D02*
X140881053Y-108727422D01*
X137616053Y-101447422D02*
X138381053Y-102212422D01*
D49*
X151040000Y-89960000D02*
X150980000Y-89900000D01*
X142895000Y-113470000D02*
X142900000Y-113475000D01*
D48*
X141581053Y-99362422D02*
X141581053Y-101612422D01*
D45*
X119400000Y-104230000D02*
X119400000Y-105100000D01*
D48*
X138431053Y-98712422D02*
X139081053Y-99362422D01*
D47*
X140966053Y-105424922D02*
X140966053Y-103497422D01*
D48*
X142418553Y-98762422D02*
X143018553Y-98162422D01*
D47*
%TO.N,Net-(U1-BST)*%
X143131053Y-110462422D02*
X142366053Y-110462422D01*
X143342500Y-100175000D02*
X143217578Y-100299922D01*
X143217578Y-100299922D02*
X142236053Y-100299922D01*
%TO.N,Net-(C8-Pad1)*%
X142281053Y-109577422D02*
X142281053Y-108447422D01*
%TO.N,Net-(U1-SS)*%
X136831053Y-100477422D02*
X138248553Y-100477422D01*
D45*
%TO.N,Net-(D1-A)*%
X152100000Y-87960000D02*
X152100000Y-88930000D01*
X153560000Y-88940000D02*
X153600000Y-88900000D01*
X152090000Y-88940000D02*
X153560000Y-88940000D01*
X152100000Y-88930000D02*
X152090000Y-88940000D01*
D47*
%TO.N,Net-(U1-COMP)*%
X139731053Y-108727422D02*
X139731053Y-107692422D01*
X139681053Y-107282422D02*
X139681053Y-105439922D01*
%TO.N,Net-(C13-Pad1)*%
X140931053Y-109747422D02*
X139781053Y-109747422D01*
D45*
%TO.N,/5V*%
X134580000Y-97580000D02*
X134620000Y-97540000D01*
X134615714Y-90225714D02*
X134620000Y-90230000D01*
X133610000Y-97580000D02*
X134580000Y-97580000D01*
X134598570Y-95128570D02*
X134620000Y-95150000D01*
X133610000Y-92677142D02*
X134612858Y-92677142D01*
D47*
X136981053Y-108347422D02*
X138231053Y-108347422D01*
D48*
X136981053Y-108347422D02*
X136981053Y-109162422D01*
D45*
X133610000Y-95128570D02*
X134598570Y-95128570D01*
X134612858Y-92677142D02*
X134620000Y-92670000D01*
X133610000Y-90225714D02*
X134615714Y-90225714D01*
D47*
%TO.N,Net-(U1-FB)*%
X138231053Y-107377422D02*
X136981053Y-107377422D01*
X136831053Y-105297422D02*
X138298553Y-105297422D01*
X138426053Y-105424922D02*
X138426053Y-107182422D01*
D45*
%TO.N,/3V3*%
X121290000Y-89040000D02*
X121270000Y-89020000D01*
X118410000Y-100570000D02*
X118410000Y-99580000D01*
X133720000Y-105970000D02*
X133730000Y-105980000D01*
X118410000Y-103016666D02*
X118410000Y-104200000D01*
X149320000Y-116890000D02*
X148550000Y-116890000D01*
X118410000Y-100570000D02*
X118410000Y-101793333D01*
X121361428Y-91491428D02*
X121270000Y-91400000D01*
X118410000Y-99580000D02*
X118420000Y-99570000D01*
X122100000Y-89040000D02*
X121290000Y-89040000D01*
X144490000Y-116890000D02*
X144480000Y-116880000D01*
X130800000Y-105990000D02*
X129990000Y-105990000D01*
X118440000Y-104230000D02*
X118440000Y-105110000D01*
X118410000Y-104200000D02*
X118440000Y-104230000D01*
X122325800Y-101715800D02*
X121504200Y-101715800D01*
X148550000Y-116890000D02*
X148530000Y-116910000D01*
X129990000Y-105990000D02*
X129980000Y-106000000D01*
X122100000Y-91491428D02*
X121361428Y-91491428D01*
X122100000Y-93942856D02*
X121292856Y-93942856D01*
X121504200Y-101715800D02*
X121420000Y-101800000D01*
X145320000Y-116890000D02*
X144490000Y-116890000D01*
X122100000Y-96394284D02*
X121275716Y-96394284D01*
X121275716Y-96394284D02*
X121270000Y-96400000D01*
X121292856Y-93942856D02*
X121270000Y-93920000D01*
X132740000Y-105970000D02*
X133720000Y-105970000D01*
%TO.N,/SDA*%
X121220000Y-100410000D02*
X122320000Y-100410000D01*
X119430000Y-100570000D02*
X121060000Y-100570000D01*
X121060000Y-100570000D02*
X121220000Y-100410000D01*
X122320000Y-100410000D02*
X122325800Y-100415800D01*
%TO.N,/SCL*%
X119430000Y-101793333D02*
X119926667Y-101793333D01*
X119926667Y-101793333D02*
X120630000Y-101090000D01*
X120630000Y-101090000D02*
X122301598Y-101090000D01*
X122301598Y-101090000D02*
X122325800Y-101065798D01*
%TO.N,/PSU_EN*%
X150990000Y-120920000D02*
X151041320Y-120971320D01*
X150970000Y-118040000D02*
X150990000Y-118060000D01*
X150990000Y-118060000D02*
X150990000Y-120920000D01*
%TO.N,/TACH1*%
X130030000Y-89040000D02*
X131165000Y-90175000D01*
X123950000Y-105820000D02*
X123950000Y-103340000D01*
X123120000Y-89040000D02*
X130030000Y-89040000D01*
X123930000Y-105840000D02*
X123950000Y-105820000D01*
%TO.N,/PWM1*%
X130295001Y-90675000D02*
X130126737Y-90506736D01*
X132590000Y-90225714D02*
X132140714Y-90675000D01*
X123300002Y-103340000D02*
X123300002Y-105270002D01*
X123300002Y-105270002D02*
X123330000Y-105300000D01*
X132140714Y-90675000D02*
X130295001Y-90675000D01*
%TO.N,/TACH2*%
X123120000Y-91491428D02*
X129541428Y-91491428D01*
X125250000Y-103340000D02*
X125250000Y-104620000D01*
X125250000Y-104620000D02*
X125300000Y-104670000D01*
X129541428Y-91491428D02*
X129570000Y-91520000D01*
%TO.N,/PWM2*%
X129007142Y-92717142D02*
X129010000Y-92720000D01*
X132590000Y-92677142D02*
X129052858Y-92677142D01*
X124600002Y-104169998D02*
X124580000Y-104190000D01*
X124600002Y-103340000D02*
X124600002Y-104169998D01*
X129052858Y-92677142D02*
X129010000Y-92720000D01*
%TO.N,/PWM3*%
X126224202Y-102365798D02*
X127235798Y-102365798D01*
X127238570Y-95168570D02*
X127240000Y-95170000D01*
X127235798Y-102365798D02*
X127240000Y-102370000D01*
X132590000Y-95128570D02*
X127281430Y-95128570D01*
X127281430Y-95128570D02*
X127240000Y-95170000D01*
%TO.N,/TACH3*%
X127834200Y-101715800D02*
X126224202Y-101715800D01*
X127910000Y-101640000D02*
X127834200Y-101715800D01*
X123120000Y-93942856D02*
X127882856Y-93942856D01*
X127882856Y-93942856D02*
X127890000Y-93950000D01*
%TO.N,/TACH4*%
X124610000Y-96340000D02*
X124620000Y-96350000D01*
X124600002Y-99441598D02*
X124600002Y-98729998D01*
X123120000Y-96340000D02*
X124610000Y-96340000D01*
X124600002Y-98729998D02*
X124620000Y-98710000D01*
%TO.N,/PWM4*%
X124100000Y-97620000D02*
X124110000Y-97610000D01*
X132590000Y-97580000D02*
X125730000Y-97580000D01*
X125250000Y-98060000D02*
X124800000Y-97610000D01*
X124800000Y-97610000D02*
X124110000Y-97610000D01*
X125730000Y-97580000D02*
X125250000Y-98060000D01*
X125250000Y-99441598D02*
X125250000Y-98060000D01*
D47*
%TO.N,Net-(U1-SW)*%
X142281053Y-107477422D02*
X144591053Y-107477422D01*
X142281053Y-107477422D02*
X142281053Y-105469922D01*
D45*
%TO.N,/FAN_ALERT*%
X131860000Y-109672640D02*
X121810000Y-119722640D01*
X131860000Y-102070000D02*
X131860000Y-104960000D01*
X121810000Y-122262640D02*
X120561320Y-123511320D01*
X130190000Y-100400000D02*
X131860000Y-102070000D01*
X121810000Y-119722640D02*
X121810000Y-122262640D01*
X132740000Y-104950000D02*
X131870000Y-104950000D01*
X131860000Y-104960000D02*
X131860000Y-109672640D01*
X126240002Y-100400000D02*
X130190000Y-100400000D01*
X126224202Y-100415800D02*
X126240002Y-100400000D01*
X131870000Y-104950000D02*
X131860000Y-104960000D01*
%TO.N,Net-(U2-ADDR_SEL)*%
X121454202Y-102365798D02*
X122325800Y-102365798D01*
X119430000Y-103016666D02*
X120803334Y-103016666D01*
X120803334Y-103016666D02*
X121454202Y-102365798D01*
%TO.N,Net-(U2-CLK)*%
X129805798Y-101065798D02*
X130800000Y-102060000D01*
X130800000Y-102060000D02*
X130800000Y-105020000D01*
X126224202Y-101065798D02*
X129805798Y-101065798D01*
%TO.N,Net-(U3-dV{slash}dT)*%
X142970000Y-87840000D02*
X144420000Y-87840000D01*
X144420000Y-87840000D02*
X144550000Y-87970000D01*
%TO.N,Net-(U3-EN{slash}UVLO)*%
X145650000Y-87940000D02*
X146805000Y-87940000D01*
X146805000Y-87940000D02*
X146815000Y-87950000D01*
X144948400Y-87238400D02*
X145650000Y-87940000D01*
X142470000Y-87386800D02*
X142618400Y-87238400D01*
X142470000Y-87840000D02*
X142470000Y-87386800D01*
X142618400Y-87238400D02*
X144948400Y-87238400D01*
%TD*%
%TA.AperFunction,Conductor*%
%TO.N,/12V*%
G36*
X136248045Y-75658661D02*
G01*
X136294009Y-75711283D01*
X136305419Y-75763843D01*
X136301438Y-76583737D01*
X136296100Y-76619129D01*
X136255025Y-76754540D01*
X136235154Y-76956300D01*
X136255024Y-77158057D01*
X136292535Y-77281713D01*
X136297873Y-77318310D01*
X136295246Y-77859565D01*
X136294935Y-77923597D01*
X139980126Y-80540000D01*
X139980127Y-80540000D01*
X141771277Y-80540000D01*
X141838316Y-80559685D01*
X141875084Y-80596177D01*
X141884516Y-80610613D01*
X141884526Y-80610627D01*
X142042161Y-80781862D01*
X142042165Y-80781866D01*
X142225845Y-80924830D01*
X142430552Y-81035612D01*
X142540626Y-81073400D01*
X142650697Y-81111188D01*
X142650699Y-81111188D01*
X142650701Y-81111189D01*
X142880287Y-81149500D01*
X142880288Y-81149500D01*
X143113046Y-81149500D01*
X143113047Y-81149500D01*
X143342633Y-81111189D01*
X143562782Y-81035612D01*
X143767489Y-80924830D01*
X143951169Y-80781866D01*
X144108814Y-80610619D01*
X144114528Y-80601872D01*
X144118250Y-80596177D01*
X144171397Y-80550821D01*
X144222057Y-80540000D01*
X144685000Y-80540000D01*
X144685000Y-75793196D01*
X144704685Y-75726157D01*
X144757489Y-75680402D01*
X144809491Y-75669197D01*
X147661740Y-75680606D01*
X147728698Y-75700559D01*
X147774242Y-75753545D01*
X147785241Y-75805204D01*
X147782054Y-76464881D01*
X147767414Y-76522734D01*
X147747211Y-76560531D01*
X147688357Y-76754543D01*
X147668487Y-76956300D01*
X147688357Y-77158056D01*
X147688358Y-77158059D01*
X147747209Y-77352064D01*
X147747210Y-77352065D01*
X147747211Y-77352068D01*
X147762702Y-77381051D01*
X147777342Y-77440101D01*
X147775317Y-77859565D01*
X147775058Y-77913141D01*
X152265597Y-80576536D01*
X152265597Y-80576535D01*
X152265598Y-80576536D01*
X152273033Y-80576478D01*
X153224341Y-80569160D01*
X153291527Y-80588328D01*
X153316521Y-80609173D01*
X153475494Y-80781862D01*
X153475498Y-80781866D01*
X153659178Y-80924830D01*
X153863885Y-81035612D01*
X153973959Y-81073400D01*
X154084030Y-81111188D01*
X154084032Y-81111188D01*
X154084034Y-81111189D01*
X154313620Y-81149500D01*
X154313621Y-81149500D01*
X154546379Y-81149500D01*
X154546380Y-81149500D01*
X154775966Y-81111189D01*
X154996115Y-81035612D01*
X155200822Y-80924830D01*
X155384502Y-80781866D01*
X155542147Y-80610619D01*
X155544705Y-80606702D01*
X155597846Y-80561342D01*
X155647562Y-80550520D01*
X156167632Y-80546520D01*
X156126341Y-75814729D01*
X156145440Y-75747523D01*
X156197842Y-75701309D01*
X156250817Y-75689651D01*
X159100469Y-75700783D01*
X159167431Y-75720729D01*
X159212980Y-75773712D01*
X159223983Y-75825411D01*
X159220788Y-76454804D01*
X159206149Y-76512627D01*
X159180544Y-76560531D01*
X159121690Y-76754543D01*
X159101820Y-76956300D01*
X159121690Y-77158056D01*
X159180543Y-77352066D01*
X159201099Y-77390524D01*
X159215738Y-77449605D01*
X159213605Y-77869915D01*
X159213606Y-77869915D01*
X159213606Y-77869916D01*
X164010521Y-80833342D01*
X164057209Y-80885323D01*
X164069350Y-80939090D01*
X164053833Y-88472193D01*
X164034010Y-88539192D01*
X163981112Y-88584838D01*
X163930849Y-88595934D01*
X159664515Y-88630904D01*
X159597317Y-88611769D01*
X159551131Y-88559342D01*
X159539499Y-88506912D01*
X159539499Y-87970882D01*
X159537112Y-87954500D01*
X159531295Y-87914566D01*
X159530000Y-87896690D01*
X159530000Y-86998973D01*
X145279395Y-87016541D01*
X145212331Y-86996939D01*
X145191561Y-86980222D01*
X145166069Y-86954730D01*
X145166068Y-86954729D01*
X145085232Y-86908059D01*
X145085233Y-86908059D01*
X145055178Y-86900006D01*
X144995071Y-86883900D01*
X142665071Y-86883900D01*
X142571729Y-86883900D01*
X142511621Y-86900006D01*
X142481567Y-86908059D01*
X142400733Y-86954728D01*
X142400730Y-86954730D01*
X142186330Y-87169130D01*
X142186326Y-87169135D01*
X142139660Y-87249964D01*
X142139658Y-87249969D01*
X142132758Y-87275718D01*
X142115291Y-87313686D01*
X142114437Y-87314931D01*
X142068455Y-87419072D01*
X142068454Y-87419075D01*
X142065500Y-87444536D01*
X142065500Y-88127243D01*
X142045815Y-88194282D01*
X141993011Y-88240037D01*
X141942419Y-88251240D01*
X139711611Y-88267765D01*
X139644427Y-88248577D01*
X139613665Y-88220980D01*
X138650000Y-87010000D01*
X122880942Y-87010000D01*
X122813903Y-86990315D01*
X122787979Y-86968060D01*
X121841037Y-85895300D01*
X121811429Y-85832014D01*
X121810000Y-85813240D01*
X121810000Y-75774000D01*
X121829685Y-75706961D01*
X121882489Y-75661206D01*
X121934000Y-75650000D01*
X124816109Y-75650000D01*
X124883148Y-75669685D01*
X124928903Y-75722489D01*
X124940102Y-75775278D01*
X124933332Y-76431976D01*
X124918698Y-76489151D01*
X124880543Y-76560534D01*
X124821690Y-76754543D01*
X124801820Y-76956300D01*
X124821690Y-77158056D01*
X124821691Y-77158059D01*
X124880542Y-77352064D01*
X124896036Y-77381051D01*
X124908065Y-77403556D01*
X124922699Y-77463287D01*
X124918614Y-77859565D01*
X124918614Y-77859566D01*
X128088099Y-80541130D01*
X128088100Y-80541129D01*
X128088101Y-80541130D01*
X130336451Y-80537981D01*
X130403517Y-80557572D01*
X130440432Y-80594158D01*
X130446910Y-80604073D01*
X130451187Y-80610619D01*
X130608832Y-80781866D01*
X130792512Y-80924830D01*
X130997219Y-81035612D01*
X131107293Y-81073400D01*
X131217364Y-81111188D01*
X131217366Y-81111188D01*
X131217368Y-81111189D01*
X131446954Y-81149500D01*
X131446955Y-81149500D01*
X131679713Y-81149500D01*
X131679714Y-81149500D01*
X131909300Y-81111189D01*
X132129449Y-81035612D01*
X132334156Y-80924830D01*
X132517836Y-80781866D01*
X132675481Y-80610619D01*
X132688480Y-80590721D01*
X132741624Y-80545365D01*
X132792113Y-80534542D01*
X133228593Y-80533931D01*
X133222453Y-76973351D01*
X133223050Y-76961007D01*
X133223514Y-76956300D01*
X133222991Y-76950997D01*
X133222394Y-76939073D01*
X133220387Y-75774711D01*
X133239956Y-75707639D01*
X133292681Y-75661794D01*
X133343894Y-75650500D01*
X135588800Y-75641592D01*
X135609680Y-75643280D01*
X135646954Y-75649500D01*
X135646957Y-75649500D01*
X135879711Y-75649500D01*
X135879714Y-75649500D01*
X135925464Y-75641865D01*
X135945356Y-75640177D01*
X136180929Y-75639242D01*
X136248045Y-75658661D01*
G37*
%TD.AperFunction*%
%TD*%
%TA.AperFunction,Conductor*%
%TO.N,GND*%
G36*
X139407475Y-88577424D02*
G01*
X139416773Y-88584013D01*
X139418029Y-88584991D01*
X139533067Y-88638486D01*
X139600251Y-88657674D01*
X139714615Y-88673254D01*
X140663071Y-88666228D01*
X140731334Y-88685724D01*
X140778223Y-88739034D01*
X140790000Y-88792224D01*
X140790000Y-89917659D01*
X140769998Y-89985780D01*
X140716342Y-90032273D01*
X140666863Y-90043626D01*
X140662766Y-90043719D01*
X140654340Y-90044050D01*
X140652546Y-90044124D01*
X140528234Y-90069469D01*
X140462795Y-90093967D01*
X140361558Y-90149407D01*
X140361548Y-90149414D01*
X138277827Y-91713275D01*
X138277826Y-91713276D01*
X138223892Y-91761882D01*
X138193835Y-91794295D01*
X138155828Y-91842035D01*
X138101788Y-91956829D01*
X138082290Y-92023902D01*
X138082288Y-92023910D01*
X138077073Y-92060889D01*
X138047753Y-92125549D01*
X138026913Y-92144830D01*
X138019868Y-92150006D01*
X138019867Y-92150007D01*
X138055213Y-98860758D01*
X138035570Y-98928984D01*
X137982160Y-98975758D01*
X137929215Y-98987422D01*
X135166925Y-98987422D01*
X135098804Y-98967420D01*
X135052311Y-98913764D01*
X135040925Y-98861562D01*
X135040783Y-98734272D01*
X135040069Y-98093755D01*
X135059995Y-98025615D01*
X135082511Y-97999309D01*
X135110483Y-97974530D01*
X135200220Y-97844523D01*
X135256237Y-97696818D01*
X135256237Y-97696817D01*
X135256238Y-97696815D01*
X135275278Y-97540003D01*
X135275278Y-97539996D01*
X135256238Y-97383184D01*
X135244818Y-97353073D01*
X135200220Y-97235477D01*
X135200216Y-97235472D01*
X135200216Y-97235470D01*
X135110483Y-97105470D01*
X135110482Y-97105469D01*
X135105410Y-97100976D01*
X135081281Y-97079599D01*
X135043556Y-97019457D01*
X135038835Y-96985438D01*
X135037410Y-95706109D01*
X135057336Y-95637970D01*
X135079854Y-95611663D01*
X135110483Y-95584530D01*
X135200220Y-95454523D01*
X135256237Y-95306818D01*
X135256237Y-95306817D01*
X135256238Y-95306815D01*
X135275278Y-95150003D01*
X135275278Y-95149996D01*
X135256238Y-94993184D01*
X135248392Y-94972498D01*
X135200220Y-94845477D01*
X135200216Y-94845472D01*
X135200216Y-94845470D01*
X135110483Y-94715470D01*
X135110482Y-94715469D01*
X135105494Y-94711050D01*
X135078617Y-94687239D01*
X135040892Y-94627097D01*
X135036171Y-94593077D01*
X135034651Y-93228554D01*
X135054577Y-93160414D01*
X135077091Y-93134112D01*
X135110483Y-93104530D01*
X135200220Y-92974523D01*
X135256237Y-92826818D01*
X135256237Y-92826817D01*
X135256238Y-92826815D01*
X135275278Y-92670003D01*
X135275278Y-92669996D01*
X135256238Y-92513184D01*
X135248392Y-92492498D01*
X135200220Y-92365477D01*
X135200216Y-92365472D01*
X135200216Y-92365470D01*
X135110483Y-92235470D01*
X135110478Y-92235465D01*
X135075854Y-92204792D01*
X135038127Y-92144649D01*
X135033406Y-92110631D01*
X135031937Y-90790960D01*
X135051863Y-90722819D01*
X135074379Y-90696514D01*
X135110483Y-90664530D01*
X135200220Y-90534523D01*
X135256237Y-90386818D01*
X135256237Y-90386817D01*
X135256238Y-90386815D01*
X135275278Y-90230003D01*
X135275278Y-90229996D01*
X135256238Y-90073184D01*
X135245028Y-90043626D01*
X135200220Y-89925477D01*
X135200216Y-89925472D01*
X135200216Y-89925470D01*
X135110484Y-89795472D01*
X135110483Y-89795470D01*
X135073131Y-89762380D01*
X135035407Y-89702238D01*
X135030686Y-89668216D01*
X135029590Y-88683560D01*
X135049516Y-88615419D01*
X135103120Y-88568867D01*
X135155590Y-88557422D01*
X139339354Y-88557422D01*
X139407475Y-88577424D01*
G37*
%TD.AperFunction*%
%TD*%
%TA.AperFunction,Conductor*%
%TO.N,Net-(U1-SW)*%
G36*
X142441423Y-104757923D02*
G01*
X142480024Y-104796941D01*
X142519954Y-104860562D01*
X142532979Y-104881315D01*
X142579662Y-104934805D01*
X142657482Y-105003712D01*
X142772314Y-105057650D01*
X142840506Y-105077410D01*
X142954805Y-105093429D01*
X144204606Y-105088989D01*
X144272797Y-105108749D01*
X144319480Y-105162239D01*
X144331053Y-105214988D01*
X144331053Y-107636422D01*
X144311051Y-107704543D01*
X144257395Y-107751036D01*
X144205053Y-107762422D01*
X142057053Y-107762422D01*
X141988932Y-107742420D01*
X141942439Y-107688764D01*
X141931053Y-107636422D01*
X141931053Y-104934000D01*
X141951055Y-104865879D01*
X141954644Y-104860594D01*
X141965844Y-104844980D01*
X141981713Y-104814454D01*
X141986210Y-104805804D01*
X142035378Y-104754588D01*
X142098006Y-104737921D01*
X142373302Y-104737921D01*
X142441423Y-104757923D01*
G37*
%TD.AperFunction*%
%TD*%
%TA.AperFunction,Conductor*%
%TO.N,GND*%
G36*
X146489702Y-88529803D02*
G01*
X146598121Y-88567741D01*
X146627543Y-88570500D01*
X147002456Y-88570499D01*
X147031879Y-88567741D01*
X147031884Y-88567738D01*
X147039374Y-88566104D01*
X147039937Y-88568686D01*
X147098236Y-88565702D01*
X147159846Y-88600983D01*
X147192602Y-88663971D01*
X147194963Y-88687655D01*
X147270475Y-104546444D01*
X147250797Y-104614659D01*
X147197363Y-104661407D01*
X147144924Y-104673043D01*
X142953365Y-104687932D01*
X142885173Y-104668172D01*
X142838490Y-104614682D01*
X142833988Y-104603548D01*
X142788846Y-104474540D01*
X142788844Y-104474536D01*
X142708203Y-104365271D01*
X142598938Y-104284630D01*
X142598934Y-104284628D01*
X142470757Y-104239777D01*
X142470753Y-104239776D01*
X142440319Y-104236922D01*
X142031787Y-104236922D01*
X142031786Y-104236922D01*
X142001352Y-104239776D01*
X142001348Y-104239777D01*
X141873171Y-104284628D01*
X141873167Y-104284630D01*
X141763902Y-104365271D01*
X141683261Y-104474536D01*
X141683259Y-104474540D01*
X141636333Y-104608648D01*
X141594955Y-104666340D01*
X141528954Y-104692502D01*
X141517852Y-104693032D01*
X140416177Y-104696945D01*
X140347985Y-104677185D01*
X140301302Y-104623695D01*
X140296648Y-104609814D01*
X140296232Y-104609960D01*
X140248846Y-104474540D01*
X140248844Y-104474536D01*
X140168203Y-104365271D01*
X140058938Y-104284630D01*
X140058934Y-104284628D01*
X139930757Y-104239777D01*
X139930753Y-104239776D01*
X139900319Y-104236922D01*
X139491787Y-104236922D01*
X139491786Y-104236922D01*
X139461352Y-104239776D01*
X139461348Y-104239777D01*
X139333171Y-104284628D01*
X139333167Y-104284630D01*
X139223904Y-104365270D01*
X139162432Y-104448562D01*
X139105887Y-104491494D01*
X139035107Y-104497040D01*
X138972565Y-104463439D01*
X138959674Y-104448562D01*
X138928801Y-104406732D01*
X138898203Y-104365272D01*
X138898201Y-104365271D01*
X138898201Y-104365270D01*
X138788938Y-104284630D01*
X138788934Y-104284628D01*
X138660757Y-104239777D01*
X138660753Y-104239776D01*
X138630319Y-104236922D01*
X138221787Y-104236922D01*
X138221786Y-104236922D01*
X138191352Y-104239776D01*
X138191348Y-104239777D01*
X138063171Y-104284628D01*
X138063167Y-104284630D01*
X137953902Y-104365271D01*
X137873261Y-104474536D01*
X137873259Y-104474540D01*
X137828406Y-104602722D01*
X137827368Y-104607475D01*
X137793285Y-104669756D01*
X137730941Y-104703723D01*
X137704720Y-104706577D01*
X135905001Y-104712970D01*
X135836809Y-104693210D01*
X135790126Y-104639720D01*
X135778553Y-104586971D01*
X135778553Y-101371068D01*
X135798555Y-101302947D01*
X135852211Y-101256454D01*
X135902911Y-101245079D01*
X137786073Y-101220586D01*
X137854447Y-101239700D01*
X137889090Y-101271754D01*
X137953902Y-101359572D01*
X138063167Y-101440213D01*
X138063171Y-101440215D01*
X138191354Y-101485068D01*
X138221787Y-101487922D01*
X138221789Y-101487922D01*
X138630317Y-101487922D01*
X138630319Y-101487922D01*
X138660752Y-101485068D01*
X138788935Y-101440215D01*
X138791365Y-101438422D01*
X138898200Y-101359574D01*
X138898199Y-101359574D01*
X138898203Y-101359572D01*
X138959675Y-101276278D01*
X139016218Y-101233349D01*
X139086997Y-101227802D01*
X139149540Y-101261402D01*
X139162424Y-101276271D01*
X139223903Y-101359572D01*
X139223904Y-101359572D01*
X139223905Y-101359574D01*
X139333167Y-101440213D01*
X139333171Y-101440215D01*
X139461354Y-101485068D01*
X139491787Y-101487922D01*
X139491789Y-101487922D01*
X139900317Y-101487922D01*
X139900319Y-101487922D01*
X139930752Y-101485068D01*
X139964055Y-101473414D01*
X140043853Y-101445493D01*
X140085468Y-101438422D01*
X140576638Y-101438422D01*
X140618253Y-101445493D01*
X140731348Y-101485066D01*
X140731354Y-101485068D01*
X140761787Y-101487922D01*
X140761789Y-101487922D01*
X141170317Y-101487922D01*
X141170319Y-101487922D01*
X141200752Y-101485068D01*
X141328935Y-101440215D01*
X141328938Y-101440213D01*
X141438201Y-101359574D01*
X141438201Y-101359572D01*
X141438203Y-101359572D01*
X141499674Y-101276281D01*
X141556218Y-101233350D01*
X141626998Y-101227803D01*
X141689540Y-101261404D01*
X141702433Y-101276282D01*
X141763904Y-101359574D01*
X141873167Y-101440213D01*
X141873171Y-101440215D01*
X142001354Y-101485068D01*
X142031787Y-101487922D01*
X142031789Y-101487922D01*
X142440317Y-101487922D01*
X142440319Y-101487922D01*
X142470752Y-101485068D01*
X142598935Y-101440215D01*
X142601365Y-101438422D01*
X142708203Y-101359572D01*
X142788844Y-101250307D01*
X142788846Y-101250303D01*
X142794779Y-101233349D01*
X142833699Y-101122121D01*
X142836553Y-101091688D01*
X142836553Y-100976422D01*
X142856555Y-100908301D01*
X142910211Y-100861808D01*
X142962553Y-100850422D01*
X143290050Y-100850422D01*
X143290052Y-100850422D01*
X143290053Y-100850422D01*
X143430063Y-100812906D01*
X143555593Y-100740432D01*
X143700418Y-100595605D01*
X143712806Y-100584743D01*
X143735118Y-100567623D01*
X143735117Y-100567623D01*
X143735121Y-100567621D01*
X143752253Y-100545292D01*
X143763106Y-100532917D01*
X143783010Y-100513015D01*
X143797083Y-100488638D01*
X143806236Y-100474942D01*
X143823359Y-100452627D01*
X143823361Y-100452625D01*
X143834131Y-100426621D01*
X143841412Y-100411857D01*
X143855484Y-100387485D01*
X143862765Y-100360306D01*
X143868064Y-100344699D01*
X143878828Y-100318713D01*
X143878830Y-100318709D01*
X143882504Y-100290797D01*
X143885715Y-100274655D01*
X143892999Y-100247474D01*
X143892999Y-100219345D01*
X143894077Y-100202898D01*
X143897750Y-100174999D01*
X143894077Y-100147101D01*
X143892999Y-100130655D01*
X143892999Y-100102526D01*
X143892998Y-100102524D01*
X143885715Y-100075344D01*
X143882504Y-100059204D01*
X143878830Y-100031291D01*
X143868061Y-100005294D01*
X143862765Y-99989690D01*
X143855484Y-99962515D01*
X143841415Y-99938147D01*
X143834131Y-99923378D01*
X143823361Y-99897375D01*
X143806232Y-99875052D01*
X143797078Y-99861354D01*
X143783010Y-99836986D01*
X143763113Y-99817089D01*
X143752253Y-99804705D01*
X143735121Y-99782379D01*
X143712798Y-99765250D01*
X143700412Y-99754388D01*
X143680514Y-99734490D01*
X143680513Y-99734489D01*
X143659449Y-99722328D01*
X143656145Y-99720420D01*
X143642451Y-99711270D01*
X143620125Y-99694139D01*
X143620120Y-99694137D01*
X143594122Y-99683368D01*
X143579343Y-99676079D01*
X143554985Y-99662016D01*
X143554986Y-99662016D01*
X143527806Y-99654733D01*
X143512205Y-99649437D01*
X143486209Y-99638670D01*
X143458307Y-99634996D01*
X143442150Y-99631782D01*
X143414974Y-99624501D01*
X143386845Y-99624501D01*
X143370399Y-99623423D01*
X143342500Y-99619750D01*
X143314600Y-99623423D01*
X143298155Y-99624501D01*
X143270026Y-99624501D01*
X143242851Y-99631782D01*
X143226693Y-99634996D01*
X143198792Y-99638669D01*
X143172795Y-99649437D01*
X143157198Y-99654731D01*
X143130019Y-99662014D01*
X143130011Y-99662017D01*
X143105652Y-99676081D01*
X143090877Y-99683367D01*
X143064877Y-99694137D01*
X143064873Y-99694139D01*
X143042552Y-99711266D01*
X143028847Y-99720423D01*
X143025547Y-99722328D01*
X142956550Y-99739062D01*
X142889460Y-99715837D01*
X142845576Y-99660028D01*
X142836553Y-99613205D01*
X142836553Y-99508157D01*
X142836553Y-99508156D01*
X142833699Y-99477723D01*
X142788846Y-99349540D01*
X142788844Y-99349536D01*
X142708203Y-99240271D01*
X142598938Y-99159630D01*
X142598935Y-99159629D01*
X142586473Y-99155268D01*
X142528781Y-99113889D01*
X142502619Y-99047888D01*
X142502090Y-99036046D01*
X142518958Y-92304958D01*
X142539131Y-92236890D01*
X142592903Y-92190532D01*
X142663202Y-92180604D01*
X142714826Y-92202425D01*
X142715226Y-92201734D01*
X142720787Y-92204944D01*
X142721664Y-92205315D01*
X142722375Y-92205861D01*
X142856291Y-92261330D01*
X143000000Y-92280250D01*
X143143709Y-92261330D01*
X143277625Y-92205861D01*
X143322668Y-92171297D01*
X143388885Y-92145697D01*
X143398792Y-92145261D01*
X143419744Y-92145169D01*
X143419743Y-92125047D01*
X143439742Y-92056929D01*
X143445782Y-92048340D01*
X143480859Y-92002627D01*
X143480861Y-92002625D01*
X143480862Y-92002621D01*
X143480864Y-92002619D01*
X143499712Y-91957112D01*
X143536330Y-91868709D01*
X143555250Y-91725000D01*
X143536330Y-91581291D01*
X143512138Y-91522887D01*
X143480863Y-91447378D01*
X143445764Y-91401636D01*
X143420164Y-91335415D01*
X143419727Y-91324935D01*
X143419725Y-91237705D01*
X143420443Y-91227828D01*
X143420170Y-91227809D01*
X143420500Y-91223258D01*
X143420500Y-90456744D01*
X143420500Y-90456740D01*
X143410573Y-90388607D01*
X143359198Y-90283517D01*
X143359196Y-90283514D01*
X143276482Y-90200800D01*
X143227704Y-90176955D01*
X143176208Y-90130560D01*
X143171372Y-90122826D01*
X143152206Y-90056208D01*
X143150182Y-88665520D01*
X143170085Y-88597374D01*
X143223673Y-88550803D01*
X143275518Y-88539342D01*
X144236820Y-88534309D01*
X144279085Y-88541378D01*
X144297181Y-88547710D01*
X144326934Y-88550500D01*
X144326937Y-88550500D01*
X144773063Y-88550500D01*
X144773066Y-88550500D01*
X144802819Y-88547710D01*
X144830409Y-88538055D01*
X144871353Y-88530987D01*
X146447432Y-88522735D01*
X146489702Y-88529803D01*
G37*
%TD.AperFunction*%
%TD*%
%TA.AperFunction,Conductor*%
%TO.N,/5V*%
G36*
X150469407Y-91908040D02*
G01*
X152754079Y-91914974D01*
X154047958Y-91918902D01*
X154116018Y-91939110D01*
X154136718Y-91955852D01*
X154564206Y-92383783D01*
X154598198Y-92446113D01*
X154601064Y-92472580D01*
X154637487Y-110702108D01*
X154637487Y-110702109D01*
X154638487Y-111202107D01*
X155110120Y-111368128D01*
X155110121Y-111368129D01*
X162746919Y-114056388D01*
X164988172Y-114845341D01*
X165838727Y-115144748D01*
X165896342Y-115186234D01*
X165899640Y-115190671D01*
X166326027Y-115791421D01*
X166349143Y-115858549D01*
X166349277Y-115864077D01*
X166358731Y-120236610D01*
X166338876Y-120304773D01*
X166331242Y-120315441D01*
X166149536Y-120543294D01*
X166149533Y-120543298D01*
X165967246Y-120833405D01*
X165967241Y-120833414D01*
X165818588Y-121142095D01*
X165818577Y-121142122D01*
X165705424Y-121465496D01*
X165629181Y-121799533D01*
X165590820Y-122140006D01*
X165590820Y-122482633D01*
X165629181Y-122823106D01*
X165705424Y-123157143D01*
X165818577Y-123480517D01*
X165818588Y-123480544D01*
X165967241Y-123789225D01*
X165967246Y-123789234D01*
X166149531Y-124079338D01*
X166340237Y-124318476D01*
X166367071Y-124384206D01*
X166367726Y-124396763D01*
X166368288Y-124656357D01*
X166348433Y-124724521D01*
X166331618Y-124745491D01*
X165906266Y-125173087D01*
X165844043Y-125207276D01*
X165817327Y-125210225D01*
X160717849Y-125226036D01*
X160217302Y-125227588D01*
X160149120Y-125207799D01*
X160127955Y-125190824D01*
X160110163Y-125173087D01*
X159702042Y-124766229D01*
X159667921Y-124703971D01*
X159665000Y-124676997D01*
X159665000Y-123558860D01*
X159665607Y-123546509D01*
X159669073Y-123511321D01*
X159669073Y-123511318D01*
X159665607Y-123476129D01*
X159665000Y-123463778D01*
X159665000Y-121018860D01*
X159665607Y-121006509D01*
X159669073Y-120971321D01*
X159669073Y-120971318D01*
X159669073Y-120971316D01*
X160193567Y-120971316D01*
X160193567Y-120971323D01*
X160212929Y-121167915D01*
X160270278Y-121356971D01*
X160363404Y-121531198D01*
X160488731Y-121683909D01*
X160641442Y-121809236D01*
X160815670Y-121902362D01*
X161004717Y-121959709D01*
X161004722Y-121959709D01*
X161004724Y-121959710D01*
X161201317Y-121979073D01*
X161201320Y-121979073D01*
X161201323Y-121979073D01*
X161397915Y-121959710D01*
X161397916Y-121959709D01*
X161397923Y-121959709D01*
X161586970Y-121902362D01*
X161761198Y-121809236D01*
X161913909Y-121683909D01*
X162039236Y-121531198D01*
X162132362Y-121356970D01*
X162189709Y-121167923D01*
X162209073Y-120971320D01*
X162204390Y-120923778D01*
X162189710Y-120774724D01*
X162189709Y-120774722D01*
X162189709Y-120774717D01*
X162132362Y-120585670D01*
X162039236Y-120411442D01*
X161913909Y-120258731D01*
X161761198Y-120133404D01*
X161710422Y-120106264D01*
X161710418Y-120106262D01*
X162738420Y-120106262D01*
X162738420Y-121836373D01*
X162738421Y-121836380D01*
X162747292Y-121880978D01*
X162747292Y-121880979D01*
X162761580Y-121902361D01*
X162781086Y-121931554D01*
X162831662Y-121965348D01*
X162831661Y-121965348D01*
X162838008Y-121966610D01*
X162876263Y-121974220D01*
X164606376Y-121974219D01*
X164650978Y-121965348D01*
X164701554Y-121931554D01*
X164735348Y-121880978D01*
X164744220Y-121836377D01*
X164744219Y-120106264D01*
X164735348Y-120061662D01*
X164701554Y-120011086D01*
X164650978Y-119977292D01*
X164650977Y-119977291D01*
X164650978Y-119977291D01*
X164619069Y-119970944D01*
X164606377Y-119968420D01*
X164606375Y-119968420D01*
X162876266Y-119968420D01*
X162876259Y-119968421D01*
X162831661Y-119977292D01*
X162831660Y-119977292D01*
X162781087Y-120011085D01*
X162781086Y-120011086D01*
X162778086Y-120015576D01*
X162747291Y-120061662D01*
X162738420Y-120106262D01*
X161710418Y-120106262D01*
X161586971Y-120040278D01*
X161505539Y-120015576D01*
X161397923Y-119982931D01*
X161397920Y-119982930D01*
X161397915Y-119982929D01*
X161201323Y-119963567D01*
X161201317Y-119963567D01*
X161004724Y-119982929D01*
X160815668Y-120040278D01*
X160641441Y-120133404D01*
X160488731Y-120258731D01*
X160363404Y-120411441D01*
X160270278Y-120585668D01*
X160212929Y-120774724D01*
X160193567Y-120971316D01*
X159669073Y-120971316D01*
X159665607Y-120936129D01*
X159665000Y-120923778D01*
X159665000Y-119624255D01*
X159665000Y-119624254D01*
X159665000Y-119124254D01*
X159196752Y-118948912D01*
X159196752Y-118948911D01*
X148275225Y-114859188D01*
X148218445Y-114816568D01*
X148215787Y-114812870D01*
X147793560Y-114202473D01*
X147771257Y-114135070D01*
X147771184Y-114130554D01*
X147818787Y-92452217D01*
X147838939Y-92384143D01*
X147855920Y-92363173D01*
X148282975Y-91938346D01*
X148345376Y-91904484D01*
X148372214Y-91901675D01*
X150469407Y-91908040D01*
G37*
%TD.AperFunction*%
%TD*%
%TA.AperFunction,Conductor*%
%TO.N,/12V_LIM*%
G36*
X142007919Y-90460705D02*
G01*
X142053987Y-90513236D01*
X142065500Y-90565416D01*
X142065500Y-91235463D01*
X142068454Y-91260923D01*
X142109833Y-91354638D01*
X142120398Y-91404673D01*
X142123253Y-98300175D01*
X142103596Y-98367222D01*
X142050811Y-98412999D01*
X142045851Y-98414785D01*
X142045938Y-98414994D01*
X142038430Y-98418103D01*
X142020625Y-98428383D01*
X142007591Y-98435908D01*
X142007589Y-98435908D01*
X141954178Y-98466746D01*
X141954172Y-98466750D01*
X141285378Y-99135544D01*
X141272459Y-99157922D01*
X141263798Y-99172924D01*
X141236734Y-99219800D01*
X141211553Y-99313776D01*
X141211553Y-99313778D01*
X141211553Y-101008922D01*
X141191868Y-101075961D01*
X141139064Y-101121716D01*
X141087553Y-101132922D01*
X139574553Y-101132922D01*
X139507514Y-101113237D01*
X139461759Y-101060433D01*
X139450553Y-101008922D01*
X139450553Y-99313778D01*
X139450553Y-99313776D01*
X139425372Y-99219800D01*
X139398308Y-99172924D01*
X139376727Y-99135544D01*
X138657931Y-98416748D01*
X138657930Y-98416747D01*
X138631222Y-98401328D01*
X138604514Y-98385908D01*
X138604513Y-98385907D01*
X138573680Y-98368105D01*
X138566169Y-98364994D01*
X138567388Y-98362050D01*
X138520515Y-98333480D01*
X138489986Y-98270633D01*
X138488269Y-98250413D01*
X138471670Y-92137104D01*
X138491173Y-92070014D01*
X138521233Y-92037597D01*
X140604965Y-90473728D01*
X140670400Y-90449232D01*
X140678659Y-90448907D01*
X141940768Y-90441419D01*
X142007919Y-90460705D01*
G37*
%TD.AperFunction*%
%TD*%
%TA.AperFunction,Conductor*%
%TO.N,/VIN*%
G36*
X165822385Y-89345554D02*
G01*
X165843175Y-89362260D01*
X165856161Y-89375227D01*
X166270060Y-89788529D01*
X166303589Y-89849827D01*
X166306442Y-89876345D01*
X166297084Y-105962754D01*
X166277360Y-106029782D01*
X166260833Y-106050295D01*
X165832985Y-106478809D01*
X165771688Y-106512342D01*
X165745501Y-106515196D01*
X159850853Y-106527805D01*
X159376489Y-106528819D01*
X159309409Y-106509279D01*
X159288574Y-106492531D01*
X158862150Y-106066399D01*
X158828644Y-106005088D01*
X158825801Y-105978516D01*
X158849198Y-89891232D01*
X158868980Y-89824223D01*
X158885486Y-89803764D01*
X159313780Y-89375226D01*
X159375092Y-89341724D01*
X159401232Y-89338883D01*
X162578381Y-89332444D01*
X165755306Y-89326005D01*
X165822385Y-89345554D01*
G37*
%TD.AperFunction*%
%TD*%
M02*
