%TF.GenerationSoftware,KiCad,Pcbnew,8.0.7*%
%TF.CreationDate,2025-01-23T15:07:47-05:00*%
%TF.ProjectId,AntHat,416e7448-6174-42e6-9b69-6361645f7063,rev?*%
%TF.SameCoordinates,Original*%
%TF.FileFunction,Copper,L4,Bot*%
%TF.FilePolarity,Positive*%
%FSLAX46Y46*%
G04 Gerber Fmt 4.6, Leading zero omitted, Abs format (unit mm)*
G04 Created by KiCad (PCBNEW 8.0.7) date 2025-01-23 15:07:47*
%MOMM*%
%LPD*%
G01*
G04 APERTURE LIST*
%TA.AperFunction,HeatsinkPad*%
%ADD10C,0.500000*%
%TD*%
%TA.AperFunction,HeatsinkPad*%
%ADD11R,4.400000X1.800000*%
%TD*%
%TA.AperFunction,ComponentPad*%
%ADD12C,1.549400*%
%TD*%
%TA.AperFunction,ComponentPad*%
%ADD13C,2.300000*%
%TD*%
%TA.AperFunction,ComponentPad*%
%ADD14C,1.400000*%
%TD*%
%TA.AperFunction,ComponentPad*%
%ADD15R,1.400000X1.400000*%
%TD*%
%TA.AperFunction,ComponentPad*%
%ADD16R,1.700000X1.700000*%
%TD*%
%TA.AperFunction,ComponentPad*%
%ADD17O,1.700000X1.700000*%
%TD*%
%TA.AperFunction,ComponentPad*%
%ADD18C,2.775000*%
%TD*%
%TA.AperFunction,ViaPad*%
%ADD19C,0.500000*%
%TD*%
%TA.AperFunction,ViaPad*%
%ADD20C,0.800000*%
%TD*%
%TA.AperFunction,Conductor*%
%ADD21C,0.200000*%
%TD*%
%TA.AperFunction,Conductor*%
%ADD22C,0.508000*%
%TD*%
%TA.AperFunction,Conductor*%
%ADD23C,0.254000*%
%TD*%
%TA.AperFunction,Conductor*%
%ADD24C,0.230000*%
%TD*%
G04 APERTURE END LIST*
D10*
%TO.P,U1,9,EP*%
%TO.N,GND*%
X142281053Y-102212422D03*
X140981053Y-102212422D03*
X139681053Y-102212422D03*
X138381053Y-102212422D03*
D11*
X140331053Y-102862422D03*
D10*
X142281053Y-103512422D03*
X140981053Y-103512422D03*
X139681053Y-103512422D03*
X138381053Y-103512422D03*
%TD*%
D12*
%TO.P,J5,1,Pin_1*%
%TO.N,GND*%
X148702667Y-76956300D03*
D13*
X147196667Y-74245000D03*
%TO.P,J5,2,Pin_2*%
%TO.N,/12V*%
X147196667Y-79745000D03*
D12*
X146162667Y-76956300D03*
%TO.P,J5,3,Pin_3*%
%TO.N,/TACH2*%
X143622667Y-76956300D03*
D13*
X142996667Y-79745000D03*
%TO.P,J5,4,Pin_4*%
%TO.N,/PWM2*%
X142996667Y-74245000D03*
D12*
X141082667Y-76956300D03*
%TD*%
D14*
%TO.P,J3,6,Pin_6*%
%TO.N,/PSU_SCL*%
X162020000Y-110360000D03*
%TO.P,J3,5,Pin_5*%
%TO.N,/PSU_EN*%
X164020000Y-110360000D03*
%TO.P,J3,4,Pin_4*%
%TO.N,unconnected-(J3-Pin_4-Pad4)*%
X166020000Y-110360000D03*
%TO.P,J3,3,Pin_3*%
%TO.N,/PSU_SDA*%
X162020000Y-112360000D03*
%TO.P,J3,2,Pin_2*%
%TO.N,GND*%
X164020000Y-112360000D03*
D15*
%TO.P,J3,1,Pin_1*%
%TO.N,unconnected-(J3-Pin_1-Pad1)*%
X166020000Y-112360000D03*
%TD*%
D16*
%TO.P,J1,1,3V3*%
%TO.N,/3V3*%
X163741320Y-120971320D03*
D17*
%TO.P,J1,2,5V*%
%TO.N,/5V*%
X163741320Y-123511320D03*
%TO.P,J1,3,SDA/GPIO2*%
%TO.N,/SDA*%
X161201320Y-120971320D03*
%TO.P,J1,4,5V*%
%TO.N,/5V*%
X161201320Y-123511320D03*
%TO.P,J1,5,SCL/GPIO3*%
%TO.N,/SCL*%
X158661320Y-120971320D03*
%TO.P,J1,6,GND*%
%TO.N,GND*%
X158661320Y-123511320D03*
%TO.P,J1,7,GCLK0/GPIO4*%
%TO.N,unconnected-(J1-GCLK0{slash}GPIO4-Pad7)*%
X156121320Y-120971320D03*
%TO.P,J1,8,GPIO14/TXD*%
%TO.N,unconnected-(J1-GPIO14{slash}TXD-Pad8)*%
X156121320Y-123511320D03*
%TO.P,J1,9,GND*%
%TO.N,GND*%
X153581320Y-120971320D03*
%TO.P,J1,10,GPIO15/RXD*%
%TO.N,unconnected-(J1-GPIO15{slash}RXD-Pad10)*%
X153581320Y-123511320D03*
%TO.P,J1,11,GPIO17*%
%TO.N,/PSU_EN*%
X151041320Y-120971320D03*
%TO.P,J1,12,GPIO18/PWM0*%
%TO.N,unconnected-(J1-GPIO18{slash}PWM0-Pad12)*%
X151041320Y-123511320D03*
%TO.P,J1,13,GPIO27*%
%TO.N,/PSU_SCL*%
X148501320Y-120971320D03*
%TO.P,J1,14,GND*%
%TO.N,GND*%
X148501320Y-123511320D03*
%TO.P,J1,15,GPIO22*%
%TO.N,/PSU_SDA*%
X145961320Y-120971320D03*
%TO.P,J1,16,GPIO23*%
%TO.N,unconnected-(J1-GPIO23-Pad16)*%
X145961320Y-123511320D03*
%TO.P,J1,17,3V3*%
%TO.N,/3V3*%
X143421320Y-120971320D03*
%TO.P,J1,18,GPIO24*%
%TO.N,unconnected-(J1-GPIO24-Pad18)*%
X143421320Y-123511320D03*
%TO.P,J1,19,MOSI0/GPIO10*%
%TO.N,unconnected-(J1-MOSI0{slash}GPIO10-Pad19)*%
X140881320Y-120971320D03*
%TO.P,J1,20,GND*%
%TO.N,GND*%
X140881320Y-123511320D03*
%TO.P,J1,21,MISO0/GPIO9*%
%TO.N,unconnected-(J1-MISO0{slash}GPIO9-Pad21)*%
X138341320Y-120971320D03*
%TO.P,J1,22,GPIO25*%
%TO.N,unconnected-(J1-GPIO25-Pad22)*%
X138341320Y-123511320D03*
%TO.P,J1,23,SCLK0/GPIO11*%
%TO.N,unconnected-(J1-SCLK0{slash}GPIO11-Pad23)*%
X135801320Y-120971320D03*
%TO.P,J1,24,~{CE0}/GPIO8*%
%TO.N,unconnected-(J1-~{CE0}{slash}GPIO8-Pad24)*%
X135801320Y-123511320D03*
%TO.P,J1,25,GND*%
%TO.N,GND*%
X133261320Y-120971320D03*
%TO.P,J1,26,~{CE1}/GPIO7*%
%TO.N,unconnected-(J1-~{CE1}{slash}GPIO7-Pad26)*%
X133261320Y-123511320D03*
%TO.P,J1,27,ID_SD/GPIO0*%
%TO.N,unconnected-(J1-ID_SD{slash}GPIO0-Pad27)*%
X130721320Y-120971320D03*
%TO.P,J1,28,ID_SC/GPIO1*%
%TO.N,unconnected-(J1-ID_SC{slash}GPIO1-Pad28)*%
X130721320Y-123511320D03*
%TO.P,J1,29,GCLK1/GPIO5*%
%TO.N,unconnected-(J1-GCLK1{slash}GPIO5-Pad29)*%
X128181320Y-120971320D03*
%TO.P,J1,30,GND*%
%TO.N,GND*%
X128181320Y-123511320D03*
%TO.P,J1,31,GCLK2/GPIO6*%
%TO.N,unconnected-(J1-GCLK2{slash}GPIO6-Pad31)*%
X125641320Y-120971320D03*
%TO.P,J1,32,PWM0/GPIO12*%
%TO.N,unconnected-(J1-PWM0{slash}GPIO12-Pad32)*%
X125641320Y-123511320D03*
%TO.P,J1,33,PWM1/GPIO13*%
%TO.N,unconnected-(J1-PWM1{slash}GPIO13-Pad33)*%
X123101320Y-120971320D03*
%TO.P,J1,34,GND*%
%TO.N,GND*%
X123101320Y-123511320D03*
%TO.P,J1,35,GPIO19/MISO1*%
%TO.N,unconnected-(J1-GPIO19{slash}MISO1-Pad35)*%
X120561320Y-120971320D03*
%TO.P,J1,36,GPIO16*%
%TO.N,/FAN_ALERT*%
X120561320Y-123511320D03*
%TO.P,J1,37,GPIO26*%
%TO.N,unconnected-(J1-GPIO26-Pad37)*%
X118021320Y-120971320D03*
%TO.P,J1,38,GPIO20/MOSI1*%
%TO.N,unconnected-(J1-GPIO20{slash}MOSI1-Pad38)*%
X118021320Y-123511320D03*
%TO.P,J1,39,GND*%
%TO.N,GND*%
X115481320Y-120971320D03*
%TO.P,J1,40,GPIO21/SCLK1*%
%TO.N,unconnected-(J1-GPIO21{slash}SCLK1-Pad40)*%
X115481320Y-123511320D03*
%TD*%
D18*
%TO.P,J2,1,1*%
%TO.N,/VIN*%
X160910000Y-95330000D03*
%TO.P,J2,2,2*%
X160910000Y-99530000D03*
%TO.P,J2,3,3*%
X160910000Y-103730000D03*
%TO.P,J2,4,4*%
%TO.N,GND*%
X156710000Y-95330000D03*
%TO.P,J2,5,5*%
X156710000Y-99530000D03*
%TO.P,J2,6,6*%
X156710000Y-103730000D03*
%TD*%
D12*
%TO.P,J4,1,Pin_1*%
%TO.N,GND*%
X160136000Y-76956300D03*
D13*
X158630000Y-74245000D03*
%TO.P,J4,2,Pin_2*%
%TO.N,/12V*%
X158630000Y-79745000D03*
D12*
X157596000Y-76956300D03*
%TO.P,J4,3,Pin_3*%
%TO.N,/TACH1*%
X155056000Y-76956300D03*
D13*
X154430000Y-79745000D03*
%TO.P,J4,4,Pin_4*%
%TO.N,/PWM1*%
X154430000Y-74245000D03*
D12*
X152516000Y-76956300D03*
%TD*%
%TO.P,J6,1,Pin_1*%
%TO.N,GND*%
X137269334Y-76956300D03*
D13*
X135763334Y-74245000D03*
%TO.P,J6,2,Pin_2*%
%TO.N,/12V*%
X135763334Y-79745000D03*
D12*
X134729334Y-76956300D03*
%TO.P,J6,3,Pin_3*%
%TO.N,/TACH3*%
X132189334Y-76956300D03*
D13*
X131563334Y-79745000D03*
%TO.P,J6,4,Pin_4*%
%TO.N,/PWM3*%
X131563334Y-74245000D03*
D12*
X129649334Y-76956300D03*
%TD*%
%TO.P,J7,1,Pin_1*%
%TO.N,GND*%
X125836000Y-76956300D03*
D13*
X124330000Y-74245000D03*
%TO.P,J7,2,Pin_2*%
%TO.N,/12V*%
X124330000Y-79745000D03*
D12*
X123296000Y-76956300D03*
%TO.P,J7,3,Pin_3*%
%TO.N,/TACH4*%
X120756000Y-76956300D03*
D13*
X120130000Y-79745000D03*
%TO.P,J7,4,Pin_4*%
%TO.N,/PWM4*%
X120130000Y-74245000D03*
D12*
X118216000Y-76956300D03*
%TD*%
D19*
%TO.N,GND*%
X138625000Y-90175000D03*
X138625000Y-89012500D03*
X139725000Y-89012500D03*
X139725000Y-90175000D03*
X144125000Y-89775000D03*
%TO.N,Net-(U3-ILIM)*%
X148550000Y-89100000D03*
X143000000Y-91725000D03*
D20*
%TO.N,GND*%
X165450000Y-86350000D03*
D19*
%TO.N,/PSU_SCL*%
X151950000Y-118010000D03*
%TO.N,/PSU_SDA*%
X152930000Y-118010000D03*
%TO.N,GND*%
X144864385Y-104012422D03*
X150980000Y-89900000D03*
X144207500Y-97312500D03*
X144864385Y-101687422D03*
X145731053Y-101687422D03*
X125180000Y-100540000D03*
X119410000Y-105110000D03*
X136642500Y-98455000D03*
X144207500Y-93825000D03*
X137496053Y-101447422D03*
X143997719Y-102849922D03*
X144207500Y-98475000D03*
X143997719Y-104012422D03*
X145731053Y-104012422D03*
X143997719Y-101687422D03*
X144207500Y-94987500D03*
X145210000Y-96145000D03*
X141400000Y-113470000D03*
X137531053Y-102812422D03*
X137516053Y-104327422D03*
X136642500Y-94967500D03*
X136172500Y-102805000D03*
X136642500Y-97292500D03*
X135640000Y-94972500D03*
X136642500Y-96130000D03*
X145210000Y-97307500D03*
X135640000Y-96135000D03*
X143131053Y-101687422D03*
X143131053Y-102849922D03*
X144207500Y-96150000D03*
X136842500Y-102185000D03*
X136642500Y-93805000D03*
X143131053Y-104012422D03*
X124370000Y-101380000D03*
X123430000Y-102240000D03*
X135640000Y-98460000D03*
X123430000Y-100530000D03*
X145731053Y-102849922D03*
X135640000Y-93810000D03*
X136802500Y-103555000D03*
X145210000Y-98470000D03*
X144864385Y-102849922D03*
X145210000Y-94982500D03*
X135640000Y-97297500D03*
X125190000Y-102230000D03*
X145210000Y-93820000D03*
%TO.N,Net-(U1-BST)*%
X143131053Y-110462422D03*
X143342500Y-100175000D03*
%TO.N,/5V*%
X134620000Y-95150000D03*
X136981053Y-109162422D03*
X148220000Y-110570000D03*
X134620000Y-90230000D03*
X134620000Y-92670000D03*
X134620000Y-97540000D03*
X148225000Y-92675000D03*
%TO.N,/3V3*%
X118420000Y-99570000D03*
X121270000Y-93920000D03*
X121270000Y-96400000D03*
X118440000Y-105110000D03*
X133730000Y-105980000D03*
X148530000Y-116910000D03*
X121270000Y-89020000D03*
X121270000Y-91400000D03*
X121420000Y-101800000D03*
X144480000Y-116880000D03*
X129980000Y-106000000D03*
%TO.N,/SDA*%
X121220000Y-100410000D03*
%TO.N,/SCL*%
X120630000Y-101090000D03*
%TO.N,/PSU_EN*%
X150970000Y-118010000D03*
%TO.N,/TACH1*%
X123930000Y-105840000D03*
X131165000Y-90175000D03*
%TO.N,/PWM1*%
X123330000Y-105300000D03*
X130126737Y-90506736D03*
%TO.N,/TACH2*%
X125300000Y-104670000D03*
X129570000Y-91520000D03*
%TO.N,/PWM2*%
X124580000Y-104190000D03*
X129010000Y-92720000D03*
%TO.N,/PWM3*%
X127240000Y-95170000D03*
X127240000Y-102370000D03*
%TO.N,/TACH3*%
X127910000Y-101640000D03*
X127890000Y-93950000D03*
%TO.N,/TACH4*%
X124620000Y-98710000D03*
X124620000Y-96350000D03*
%TO.N,/PWM4*%
X124110000Y-97610000D03*
%TD*%
D21*
%TO.N,Net-(U3-ILIM)*%
X145925000Y-91725000D02*
X148550000Y-89100000D01*
X143000000Y-91725000D02*
X145925000Y-91725000D01*
D22*
%TO.N,/5V*%
X148225000Y-92675000D02*
X134625000Y-92675000D01*
X134625000Y-92675000D02*
X134620000Y-92670000D01*
D21*
%TO.N,/PSU_EN*%
X150970000Y-118040000D02*
X160385000Y-108625000D01*
X160385000Y-108625000D02*
X162950000Y-108625000D01*
X162950000Y-108625000D02*
X164020000Y-109695000D01*
X164020000Y-109695000D02*
X164020000Y-110360000D01*
%TO.N,/PSU_SCL*%
X151950000Y-118010000D02*
X151977500Y-118010000D01*
X151977500Y-118010000D02*
X159662500Y-110325000D01*
X159662500Y-110325000D02*
X161985000Y-110325000D01*
X161985000Y-110325000D02*
X162020000Y-110360000D01*
%TO.N,/PSU_SDA*%
X152930000Y-118010000D02*
X158580000Y-112360000D01*
X158580000Y-112360000D02*
X162020000Y-112360000D01*
D23*
%TO.N,Net-(U1-BST)*%
X143527000Y-99990500D02*
X143342500Y-100175000D01*
X143131053Y-110462422D02*
X147375000Y-106218475D01*
X147375000Y-106218475D02*
X147375000Y-100261078D01*
X147104422Y-99990500D02*
X143527000Y-99990500D01*
X147375000Y-100261078D02*
X147104422Y-99990500D01*
D24*
%TO.N,/5V*%
X147490000Y-111300000D02*
X139118631Y-111300000D01*
X148220000Y-110570000D02*
X147490000Y-111300000D01*
D22*
X134620000Y-97540000D02*
X134620000Y-95150000D01*
X134620000Y-95150000D02*
X134620000Y-92670000D01*
D24*
X139118631Y-111300000D02*
X136981053Y-109162422D01*
D22*
X134620000Y-92670000D02*
X134620000Y-90230000D01*
D21*
%TO.N,/SDA*%
X120820000Y-101607107D02*
X121220000Y-101207107D01*
X121220000Y-101207107D02*
X121220000Y-100410000D01*
X159680000Y-119440000D02*
X159680000Y-119450000D01*
X133680000Y-118590000D02*
X120820000Y-105730000D01*
X154350000Y-118590000D02*
X133680000Y-118590000D01*
X158830000Y-118590000D02*
X159680000Y-119440000D01*
X161201320Y-120911320D02*
X161201320Y-120971320D01*
X154390000Y-118590000D02*
X158830000Y-118590000D01*
X120820000Y-105730000D02*
X120820000Y-101607107D01*
X159680000Y-119450000D02*
X161201320Y-120971320D01*
%TO.N,/SCL*%
X153370000Y-119170000D02*
X133400000Y-119170000D01*
X120310000Y-106080000D02*
X120310000Y-101410000D01*
X156860000Y-119170000D02*
X158661320Y-120971320D01*
X133400000Y-119170000D02*
X120310000Y-106080000D01*
X153370000Y-119170000D02*
X156860000Y-119170000D01*
X120310000Y-101410000D02*
X120630000Y-101090000D01*
%TO.N,/TACH1*%
X127880000Y-105830000D02*
X130700000Y-103010000D01*
X123930000Y-105840000D02*
X123940000Y-105830000D01*
X130700000Y-103010000D02*
X130700000Y-90640000D01*
X131165000Y-90175000D02*
X138760000Y-82580000D01*
X130700000Y-90640000D02*
X131165000Y-90175000D01*
X151920000Y-79740000D02*
X154440000Y-79740000D01*
X123940000Y-105830000D02*
X127880000Y-105830000D01*
X155070000Y-79110000D02*
X154440000Y-79740000D01*
X155070000Y-76830000D02*
X155070000Y-79110000D01*
X149080000Y-82580000D02*
X151920000Y-79740000D01*
X138760000Y-82580000D02*
X149080000Y-82580000D01*
%TO.N,/PWM1*%
X138533473Y-82100000D02*
X148890000Y-82100000D01*
X127480000Y-105300000D02*
X130126737Y-102653263D01*
X130126737Y-102653263D02*
X130126737Y-90506736D01*
X152530000Y-76830000D02*
X154440000Y-74920000D01*
X123330000Y-105300000D02*
X127480000Y-105300000D01*
X130126737Y-90506736D02*
X138533473Y-82100000D01*
X154440000Y-74920000D02*
X154440000Y-74240000D01*
X148890000Y-82100000D02*
X152530000Y-78460000D01*
X152530000Y-78460000D02*
X152530000Y-76830000D01*
%TO.N,/TACH2*%
X129570000Y-91520000D02*
X129570000Y-90290000D01*
X143490000Y-79260000D02*
X143490000Y-76976667D01*
X125300000Y-104670000D02*
X127160000Y-104670000D01*
X140120000Y-79740000D02*
X143010000Y-79740000D01*
X129570000Y-102260000D02*
X129570000Y-91520000D01*
X129570000Y-90290000D02*
X140120000Y-79740000D01*
X143490000Y-76976667D02*
X143636667Y-76830000D01*
X143010000Y-79740000D02*
X143490000Y-79260000D01*
X127160000Y-104670000D02*
X129570000Y-102260000D01*
%TO.N,/PWM2*%
X129010000Y-101900000D02*
X129010000Y-92720000D01*
X126740000Y-104170000D02*
X129010000Y-101900000D01*
X141096667Y-78013333D02*
X141096667Y-76830000D01*
X124600000Y-104170000D02*
X126740000Y-104170000D01*
X124580000Y-104190000D02*
X124600000Y-104170000D01*
X141096667Y-76830000D02*
X143010000Y-74916667D01*
X129010000Y-90100000D02*
X141096667Y-78013333D01*
X129010000Y-92720000D02*
X129010000Y-90100000D01*
X143010000Y-74916667D02*
X143010000Y-74240000D01*
%TO.N,/PWM3*%
X129663334Y-80816666D02*
X129663334Y-76830000D01*
X127240000Y-83240000D02*
X129663334Y-80816666D01*
X127240000Y-95170000D02*
X127240000Y-83240000D01*
X131580000Y-74913334D02*
X131580000Y-74240000D01*
X127240000Y-102370000D02*
X127240000Y-95170000D01*
X129663334Y-76830000D02*
X131580000Y-74913334D01*
%TO.N,/TACH3*%
X131580000Y-79740000D02*
X131580000Y-79650000D01*
X132203334Y-79026666D02*
X132203334Y-76830000D01*
X127910000Y-101640000D02*
X127890000Y-101620000D01*
X127890000Y-101620000D02*
X127890000Y-93950000D01*
X127890000Y-83430000D02*
X131580000Y-79740000D01*
X127890000Y-93950000D02*
X127890000Y-83430000D01*
X131580000Y-79650000D02*
X132203334Y-79026666D01*
%TO.N,/TACH4*%
X124620000Y-98710000D02*
X124620000Y-96350000D01*
X124620000Y-96350000D02*
X124620000Y-86330000D01*
X120150000Y-77450000D02*
X120770000Y-76830000D01*
X124620000Y-86330000D02*
X120150000Y-81860000D01*
X120150000Y-81860000D02*
X120150000Y-79740000D01*
X120150000Y-79740000D02*
X120150000Y-77450000D01*
%TO.N,/PWM4*%
X118230000Y-76830000D02*
X120150000Y-74910000D01*
X120150000Y-74910000D02*
X120150000Y-74240000D01*
X118230000Y-80710000D02*
X118230000Y-76830000D01*
X124110000Y-97610000D02*
X124110000Y-86590000D01*
X124110000Y-86590000D02*
X118230000Y-80710000D01*
%TD*%
%TA.AperFunction,Conductor*%
%TO.N,GND*%
G36*
X142733937Y-99682424D02*
G01*
X142780430Y-99736080D01*
X142790534Y-99806354D01*
X142769513Y-99859997D01*
X142762283Y-99870471D01*
X142762282Y-99870473D01*
X142706261Y-100018184D01*
X142687222Y-100174996D01*
X142687222Y-100175003D01*
X142706261Y-100331815D01*
X142734271Y-100405670D01*
X142762280Y-100479523D01*
X142762281Y-100479525D01*
X142762282Y-100479526D01*
X142762283Y-100479529D01*
X142852016Y-100609529D01*
X142852017Y-100609530D01*
X142970260Y-100714283D01*
X143110135Y-100787696D01*
X143110136Y-100787696D01*
X143110138Y-100787697D01*
X143186825Y-100806598D01*
X143263515Y-100825500D01*
X143263517Y-100825500D01*
X143421483Y-100825500D01*
X143421485Y-100825500D01*
X143574865Y-100787696D01*
X143714740Y-100714283D01*
X143832983Y-100609530D01*
X143858595Y-100572424D01*
X143913752Y-100527725D01*
X143962291Y-100518000D01*
X146721500Y-100518000D01*
X146789621Y-100538002D01*
X146836114Y-100591658D01*
X146847500Y-100644000D01*
X146847500Y-105947786D01*
X146827498Y-106015907D01*
X146810595Y-106036881D01*
X144246959Y-108600517D01*
X144184647Y-108634543D01*
X144157864Y-108637422D01*
X137411563Y-108637422D01*
X137353007Y-108622989D01*
X137213418Y-108549726D01*
X137213414Y-108549724D01*
X137060040Y-108511922D01*
X137060038Y-108511922D01*
X136902068Y-108511922D01*
X136902065Y-108511922D01*
X136748691Y-108549724D01*
X136748687Y-108549726D01*
X136609099Y-108622989D01*
X136550543Y-108637422D01*
X135907053Y-108637422D01*
X135838932Y-108617420D01*
X135792439Y-108563764D01*
X135781053Y-108511422D01*
X135781053Y-99788422D01*
X135801055Y-99720301D01*
X135854711Y-99673808D01*
X135907053Y-99662422D01*
X142665816Y-99662422D01*
X142733937Y-99682424D01*
G37*
%TD.AperFunction*%
%TD*%
M02*
