M48
; DRILL file {KiCad 8.0.1} date 2024-04-04T15:13:08-0400
; FORMAT={-:-/ absolute / inch / decimal}
; #@! TF.CreationDate,2024-04-04T15:13:08-04:00
; #@! TF.GenerationSoftware,Kicad,Pcbnew,8.0.1
; #@! TF.FileFunction,Plated,1,4,PTH
FMAT,2
INCH
; #@! TA.AperFunction,Plated,PTH,ViaDrill
T1C0.0118
; #@! TA.AperFunction,Plated,PTH,ComponentDrill
T2C0.0118
; #@! TA.AperFunction,Plated,PTH,ComponentDrill
T3C0.0315
; #@! TA.AperFunction,Plated,PTH,ComponentDrill
T4C0.0394
; #@! TA.AperFunction,Plated,PTH,ComponentDrill
T5C0.0410
; #@! TA.AperFunction,Plated,PTH,ComponentDrill
T6C0.0709
; #@! TA.AperFunction,Plated,PTH,ComponentDrill
T7C0.0728
%
G90
G05
T1
X4.6622Y-3.9201
X4.663Y-4.1382
X4.7012Y-4.1382
X4.7492Y-3.9799
X4.7724Y-3.9531
X4.7744Y-3.5047
X4.7744Y-3.5984
X4.7744Y-3.6976
X4.7744Y-3.7953
X4.7803Y-4.0079
X4.8555Y-4.1457
X4.8594Y-3.9579
X4.8594Y-4.0252
X4.8791Y-4.1669
X4.8862Y-3.8429
X4.8965Y-3.9913
X4.9047Y-4.102
X4.9063Y-3.7933
X4.9063Y-3.8862
X4.9283Y-3.9583
X4.9287Y-4.0248
X4.9331Y-4.1209
X5.0094Y-3.7469
X5.0094Y-4.0303
X5.035Y-3.6988
X5.0358Y-4.0016
X5.0791Y-3.6504
X5.1012Y-3.6031
X5.1173Y-4.1732
X5.1231Y-3.5633
X5.164Y-3.5502
X5.265Y-4.1724
X5.3Y-3.5524
X5.3Y-3.6484
X5.3Y-3.7461
X5.3Y-3.8402
X5.3591Y-3.9902
X5.3756Y-3.6358
X5.3756Y-3.6827
X5.3756Y-3.7736
X5.3776Y-3.7244
X5.3776Y-3.8189
X5.3839Y-4.0197
X5.3854Y-3.9657
X5.3909Y-4.2404
X5.4112Y-3.9367
X5.412Y-4.0501
X5.4125Y-3.9904
X5.6232Y-4.4929
X5.633Y-3.8542
X5.633Y-3.9432
X5.633Y-3.9924
X5.633Y-4.0456
X5.633Y-4.2916
X5.6413Y-3.8866
X5.6768Y-3.8543
X5.6768Y-3.9001
X5.6768Y-3.9459
X5.6768Y-3.9916
X5.6768Y-4.0374
X5.7051Y-3.8551
X5.7051Y-3.9009
X5.7051Y-3.9467
X5.7051Y-3.9924
X5.7051Y-4.0382
X5.7354Y-3.8546
X5.7354Y-3.9004
X5.7354Y-3.9462
X5.7354Y-3.9919
X5.7354Y-4.0377
X5.835Y-3.6323
X5.8366Y-4.3102
X5.9441Y-3.5394
X6.0087Y-4.6264
X6.0382Y-4.6264
X6.0382Y-4.6917
X6.4228Y-3.4512
T2
X5.446Y-3.9668
X5.446Y-4.018
X5.4972Y-3.9668
X5.4972Y-4.018
X5.5484Y-3.9668
X5.5484Y-4.018
X5.5995Y-3.9668
X5.5995Y-4.018
T3
X6.5252Y-3.2335
X6.5252Y-3.3122
X6.5252Y-3.3909
X6.6039Y-3.2335
X6.6039Y-3.3122
X6.6039Y-3.3909
T4
X4.5465Y-4.7627
X4.5465Y-4.8627
X4.6465Y-4.7627
X4.6465Y-4.8627
X4.7465Y-4.7627
X4.7465Y-4.8627
X4.8465Y-4.7627
X4.8465Y-4.8627
X4.9465Y-4.7627
X4.9465Y-4.8627
X5.0465Y-4.7627
X5.0465Y-4.8627
X5.1465Y-4.7627
X5.1465Y-4.8627
X5.2465Y-4.7627
X5.2465Y-4.8627
X5.3465Y-4.7627
X5.3465Y-4.8627
X5.4465Y-4.7627
X5.4465Y-4.8627
X5.5465Y-4.7627
X5.5465Y-4.8627
X5.6465Y-4.7627
X5.6465Y-4.8627
X5.7465Y-4.7627
X5.7465Y-4.8627
X5.8465Y-4.7627
X5.8465Y-4.8627
X5.9465Y-4.7627
X5.9465Y-4.8627
X6.0465Y-4.7627
X6.0465Y-4.8627
X6.1465Y-4.7627
X6.1465Y-4.8627
X6.2465Y-4.7627
X6.2465Y-4.8627
X6.3465Y-4.7627
X6.3465Y-4.8627
X6.4465Y-4.7627
X6.4465Y-4.8627
T5
X4.6547Y-3.0248
X4.7547Y-3.0248
X4.8547Y-3.0248
X4.9547Y-3.0248
X5.1049Y-3.0248
X5.2049Y-3.0248
X5.3049Y-3.0248
X5.4049Y-3.0248
X5.555Y-3.0248
X5.655Y-3.0248
X5.755Y-3.0248
X5.855Y-3.0248
X6.0051Y-3.0248
X6.1051Y-3.0248
X6.2051Y-3.0248
X6.3051Y-3.0248
T6
X4.7303Y-2.9228
X4.7303Y-3.1394
X4.8957Y-2.9228
X4.8957Y-3.1394
X5.1803Y-2.9228
X5.1803Y-3.1394
X5.3457Y-2.9228
X5.3457Y-3.1394
X5.6303Y-2.9228
X5.6303Y-3.1394
X5.7957Y-2.9228
X5.7957Y-3.1394
X6.0803Y-2.9228
X6.0803Y-3.1394
X6.2457Y-2.9228
X6.2457Y-3.1394
T7
X6.1697Y-3.7531
X6.1697Y-3.9185
X6.1697Y-4.0839
X6.335Y-3.7531
X6.335Y-3.9185
X6.335Y-4.0839
M30
