M48
; DRILL file {KiCad 9.0.2} date 2025-09-21T19:24:46-0500
; FORMAT={-:-/ absolute / inch / decimal}
; #@! TF.CreationDate,2025-09-21T19:24:46-05:00
; #@! TF.GenerationSoftware,Kicad,Pcbnew,9.0.2
; #@! TF.FileFunction,Plated,1,6,PTH
FMAT,2
INCH
; #@! TA.AperFunction,Plated,PTH,ViaDrill
T1C0.0118
; #@! TA.AperFunction,Plated,PTH,ComponentDrill
T2C0.0118
; #@! TA.AperFunction,Plated,PTH,ComponentDrill
T3C0.0315
; #@! TA.AperFunction,Plated,PTH,ComponentDrill
T4C0.0394
; #@! TA.AperFunction,Plated,PTH,ComponentDrill
T5C0.0410
; #@! TA.AperFunction,Plated,PTH,ComponentDrill
T6C0.0709
; #@! TA.AperFunction,Plated,PTH,ComponentDrill
T7C0.0728
%
G90
G05
T1
X4.6618Y-3.9594
X4.663Y-4.1035
X4.7008Y-4.1035
X4.7492Y-3.9799
X4.7724Y-3.9531
X4.7803Y-4.0079
X4.8071Y-3.5055
X4.8071Y-3.602
X4.8071Y-3.6985
X4.8071Y-3.7951
X4.8555Y-4.1457
X4.8594Y-3.9579
X4.8594Y-4.0252
X4.8791Y-4.1669
X4.8862Y-3.8429
X4.8965Y-3.9913
X4.9047Y-4.102
X4.9063Y-3.7933
X4.9063Y-3.8862
X4.9283Y-3.9583
X4.9287Y-4.0248
X4.9331Y-4.1209
X5.0094Y-3.7469
X5.0094Y-4.0303
X5.035Y-3.6988
X5.0358Y-4.0016
X5.0791Y-3.6504
X5.1012Y-3.6031
X5.1231Y-3.5633
X5.1496Y-4.1728
X5.164Y-3.5502
X5.226Y-4.172
X5.2602Y-3.5522
X5.2602Y-3.6487
X5.2602Y-3.7452
X5.2602Y-3.8417
X5.3402Y-3.6933
X5.3402Y-3.7391
X5.3402Y-3.7848
X5.3402Y-3.8306
X5.3402Y-3.8764
X5.3611Y-4.0474
X5.3796Y-3.6931
X5.3796Y-3.7389
X5.3796Y-3.7846
X5.3796Y-3.8304
X5.3796Y-3.8762
X5.3859Y-4.077
X5.3875Y-4.023
X5.3929Y-4.2657
X5.4132Y-3.994
X5.414Y-4.1074
X5.4146Y-4.0477
X5.4577Y-3.5044
X5.4577Y-3.5502
X5.4898Y-3.7736
X5.4898Y-3.8028
X5.4898Y-3.8496
X5.4898Y-3.8787
X5.4906Y-3.6957
X5.4906Y-3.7248
X5.4929Y-3.6724
X5.5Y-3.9299
X5.5Y-3.9673
X5.501Y-3.5044
X5.501Y-3.5502
X5.5193Y-3.6122
X5.522Y-3.6724
X5.5228Y-3.4535
X5.5248Y-3.9303
X5.5248Y-3.9677
X5.5283Y-3.426
X5.5484Y-3.6122
X5.55Y-3.6724
X5.55Y-3.9295
X5.55Y-3.9669
X5.5526Y-3.426
X5.5567Y-3.7736
X5.5567Y-3.8028
X5.5567Y-3.8496
X5.5567Y-3.8787
X5.5575Y-3.6957
X5.5575Y-3.7248
X5.5764Y-3.6122
X5.5768Y-3.426
X5.6017Y-4.3504
X5.6075Y-4.1539
X5.6079Y-4.4984
X5.6083Y-4.1878
X5.6083Y-4.2209
X5.6083Y-4.4335
X5.6083Y-4.4661
X5.6299Y-3.6112
X5.6351Y-4.0034
X5.6351Y-4.0492
X5.6351Y-4.095
X5.642Y-4.4984
X5.6424Y-4.4335
X5.6424Y-4.4661
X5.6434Y-3.9439
X5.6646Y-4.1539
X5.6654Y-4.1878
X5.6654Y-4.2209
X5.6692Y-4.0034
X5.6692Y-4.0492
X5.6692Y-4.095
X5.6742Y-3.5344
X5.6775Y-3.6939
X5.6775Y-3.7397
X5.6775Y-3.7854
X5.6775Y-3.8312
X5.6775Y-3.877
X5.7033Y-4.0034
X5.7033Y-4.0492
X5.7033Y-4.095
X5.7169Y-3.6937
X5.7169Y-3.7395
X5.7169Y-3.7852
X5.7169Y-3.831
X5.7169Y-3.8768
X5.7213Y-4.602
X5.7374Y-4.0034
X5.7374Y-4.0492
X5.7374Y-4.095
X5.8183Y-3.5059
X5.8354Y-4.3531
X5.8356Y-3.6486
X5.8445Y-3.8701
X5.8445Y-3.8984
X5.8449Y-3.7866
X5.8449Y-3.815
X5.8449Y-3.9484
X5.8449Y-3.9768
X5.8457Y-4.0335
X5.8457Y-4.0618
X5.8484Y-4.1382
X5.8484Y-4.1665
X5.8492Y-4.2087
X5.8492Y-4.237
X5.8496Y-4.2803
X5.8496Y-4.3087
X5.8543Y-4.4382
X5.8543Y-4.4665
X5.8543Y-4.4961
X5.8787Y-4.602
X5.885Y-4.1382
X5.885Y-4.1665
X5.8858Y-4.2087
X5.8858Y-4.237
X5.8862Y-4.2803
X5.8862Y-4.3087
X5.8909Y-4.4382
X5.8909Y-4.4665
X5.8909Y-4.4961
X5.9124Y-3.4102
X5.9366Y-3.4102
X5.9437Y-4.6461
X5.9441Y-3.5394
X5.9823Y-4.6461
X6.0209Y-4.6461
X6.0715Y-3.3898
X6.0957Y-3.3898
X6.2713Y-3.5362
X6.2713Y-3.5642
X6.2957Y-3.4413
X6.3Y-3.5362
X6.3Y-3.5642
X6.3199Y-3.4413
X6.3287Y-3.5362
X6.3287Y-3.5642
X6.3441Y-3.4413
X6.4984Y-3.4465
X6.5Y-3.5283
X6.5287Y-3.5283
X6.5295Y-3.4457
T2
X5.4481Y-4.0241
X5.4481Y-4.0753
X5.4993Y-4.0241
X5.4993Y-4.0753
X5.5504Y-4.0241
X5.5504Y-4.0753
X5.6016Y-4.0241
X5.6016Y-4.0753
T3
X6.3787Y-4.3449
X6.3787Y-4.4236
X6.4575Y-4.3449
X6.4575Y-4.4236
X6.5362Y-4.3449
X6.5362Y-4.4236
T4
X4.5465Y-4.7627
X4.5465Y-4.8627
X4.6465Y-4.7627
X4.6465Y-4.8627
X4.7465Y-4.7627
X4.7465Y-4.8627
X4.8465Y-4.7627
X4.8465Y-4.8627
X4.9465Y-4.7627
X4.9465Y-4.8627
X5.0465Y-4.7627
X5.0465Y-4.8627
X5.1465Y-4.7627
X5.1465Y-4.8627
X5.2465Y-4.7627
X5.2465Y-4.8627
X5.3465Y-4.7627
X5.3465Y-4.8627
X5.4465Y-4.7627
X5.4465Y-4.8627
X5.5465Y-4.7627
X5.5465Y-4.8627
X5.6465Y-4.7627
X5.6465Y-4.8627
X5.7465Y-4.7627
X5.7465Y-4.8627
X5.8465Y-4.7627
X5.8465Y-4.8627
X5.9465Y-4.7627
X5.9465Y-4.8627
X6.0465Y-4.7627
X6.0465Y-4.8627
X6.1465Y-4.7627
X6.1465Y-4.8627
X6.2465Y-4.7627
X6.2465Y-4.8627
X6.3465Y-4.7627
X6.3465Y-4.8627
X6.4465Y-4.7627
X6.4465Y-4.8627
T5
X4.6542Y-3.0298
X4.7542Y-3.0298
X4.8542Y-3.0298
X4.9542Y-3.0298
X5.1043Y-3.0298
X5.2043Y-3.0298
X5.3043Y-3.0298
X5.4043Y-3.0298
X5.5544Y-3.0298
X5.6544Y-3.0298
X5.7544Y-3.0298
X5.8544Y-3.0298
X6.0046Y-3.0298
X6.1046Y-3.0298
X6.2046Y-3.0298
X6.3046Y-3.0298
T6
X4.7295Y-2.923
X4.7295Y-3.1396
X4.8949Y-2.923
X4.8949Y-3.1396
X5.1797Y-2.923
X5.1797Y-3.1396
X5.345Y-2.923
X5.345Y-3.1396
X5.6298Y-2.923
X5.6298Y-3.1396
X5.7951Y-2.923
X5.7951Y-3.1396
X6.0799Y-2.923
X6.0799Y-3.1396
X6.2453Y-2.923
X6.2453Y-3.1396
T7
X6.1697Y-3.7531
X6.1697Y-3.9185
X6.1697Y-4.0839
X6.335Y-3.7531
X6.335Y-3.9185
X6.335Y-4.0839
M30
