%TF.GenerationSoftware,KiCad,Pcbnew,9.0.2*%
%TF.CreationDate,2025-09-21T19:24:43-05:00*%
%TF.ProjectId,AntHat,416e7448-6174-42e6-9b69-6361645f7063,rev?*%
%TF.SameCoordinates,Original*%
%TF.FileFunction,Copper,L4,Inr*%
%TF.FilePolarity,Positive*%
%FSLAX46Y46*%
G04 Gerber Fmt 4.6, Leading zero omitted, Abs format (unit mm)*
G04 Created by KiCad (PCBNEW 9.0.2) date 2025-09-21 19:24:43*
%MOMM*%
%LPD*%
G01*
G04 APERTURE LIST*
%TA.AperFunction,ComponentPad*%
%ADD10R,1.400000X1.400000*%
%TD*%
%TA.AperFunction,ComponentPad*%
%ADD11C,1.400000*%
%TD*%
%TA.AperFunction,HeatsinkPad*%
%ADD12C,0.500000*%
%TD*%
%TA.AperFunction,ComponentPad*%
%ADD13C,1.549400*%
%TD*%
%TA.AperFunction,ComponentPad*%
%ADD14C,2.300000*%
%TD*%
%TA.AperFunction,ComponentPad*%
%ADD15R,1.700000X1.700000*%
%TD*%
%TA.AperFunction,ComponentPad*%
%ADD16O,1.700000X1.700000*%
%TD*%
%TA.AperFunction,ComponentPad*%
%ADD17C,2.775000*%
%TD*%
%TA.AperFunction,ViaPad*%
%ADD18C,0.500000*%
%TD*%
G04 APERTURE END LIST*
D10*
%TO.N,unconnected-(J3-Pin_1-Pad1)*%
%TO.C,J3*%
X166020000Y-112360000D03*
D11*
%TO.N,GND*%
X164020000Y-112360000D03*
%TO.N,/PSU_SDA*%
X162020000Y-112360000D03*
%TO.N,unconnected-(J3-Pin_4-Pad4)*%
X166020000Y-110360000D03*
%TO.N,/PSU_EN*%
X164020000Y-110360000D03*
%TO.N,/PSU_SCL*%
X162020000Y-110360000D03*
%TD*%
D12*
%TO.N,GND*%
%TO.C,U1*%
X142281053Y-102212422D03*
X140981053Y-102212422D03*
X139681053Y-102212422D03*
X138381053Y-102212422D03*
X142281053Y-103512422D03*
X140981053Y-103512422D03*
X139681053Y-103512422D03*
X138381053Y-103512422D03*
%TD*%
D13*
%TO.N,GND*%
%TO.C,J5*%
X148702667Y-76956300D03*
D14*
X147196667Y-74245000D03*
%TO.N,/12V*%
X147196667Y-79745000D03*
D13*
X146162667Y-76956300D03*
%TO.N,/TACH2*%
X143622667Y-76956300D03*
D14*
X142996667Y-79745000D03*
%TO.N,/PWM2*%
X142996667Y-74245000D03*
D13*
X141082667Y-76956300D03*
%TD*%
D15*
%TO.N,/3V3*%
%TO.C,J1*%
X163741320Y-120971320D03*
D16*
%TO.N,/5V*%
X163741320Y-123511320D03*
%TO.N,/SDA*%
X161201320Y-120971320D03*
%TO.N,/5V*%
X161201320Y-123511320D03*
%TO.N,/SCL*%
X158661320Y-120971320D03*
%TO.N,GND*%
X158661320Y-123511320D03*
%TO.N,unconnected-(J1-GCLK0{slash}GPIO4-Pad7)*%
X156121320Y-120971320D03*
%TO.N,unconnected-(J1-GPIO14{slash}TXD-Pad8)*%
X156121320Y-123511320D03*
%TO.N,GND*%
X153581320Y-120971320D03*
%TO.N,unconnected-(J1-GPIO15{slash}RXD-Pad10)*%
X153581320Y-123511320D03*
%TO.N,/PSU_EN*%
X151041320Y-120971320D03*
%TO.N,unconnected-(J1-GPIO18{slash}PWM0-Pad12)*%
X151041320Y-123511320D03*
%TO.N,/PSU_SCL*%
X148501320Y-120971320D03*
%TO.N,GND*%
X148501320Y-123511320D03*
%TO.N,/PSU_SDA*%
X145961320Y-120971320D03*
%TO.N,unconnected-(J1-GPIO23-Pad16)*%
X145961320Y-123511320D03*
%TO.N,/3V3*%
X143421320Y-120971320D03*
%TO.N,unconnected-(J1-GPIO24-Pad18)*%
X143421320Y-123511320D03*
%TO.N,unconnected-(J1-MOSI0{slash}GPIO10-Pad19)*%
X140881320Y-120971320D03*
%TO.N,GND*%
X140881320Y-123511320D03*
%TO.N,unconnected-(J1-MISO0{slash}GPIO9-Pad21)*%
X138341320Y-120971320D03*
%TO.N,unconnected-(J1-GPIO25-Pad22)*%
X138341320Y-123511320D03*
%TO.N,unconnected-(J1-SCLK0{slash}GPIO11-Pad23)*%
X135801320Y-120971320D03*
%TO.N,unconnected-(J1-~{CE0}{slash}GPIO8-Pad24)*%
X135801320Y-123511320D03*
%TO.N,GND*%
X133261320Y-120971320D03*
%TO.N,unconnected-(J1-~{CE1}{slash}GPIO7-Pad26)*%
X133261320Y-123511320D03*
%TO.N,unconnected-(J1-ID_SD{slash}GPIO0-Pad27)*%
X130721320Y-120971320D03*
%TO.N,unconnected-(J1-ID_SC{slash}GPIO1-Pad28)*%
X130721320Y-123511320D03*
%TO.N,unconnected-(J1-GCLK1{slash}GPIO5-Pad29)*%
X128181320Y-120971320D03*
%TO.N,GND*%
X128181320Y-123511320D03*
%TO.N,unconnected-(J1-GCLK2{slash}GPIO6-Pad31)*%
X125641320Y-120971320D03*
%TO.N,unconnected-(J1-PWM0{slash}GPIO12-Pad32)*%
X125641320Y-123511320D03*
%TO.N,unconnected-(J1-PWM1{slash}GPIO13-Pad33)*%
X123101320Y-120971320D03*
%TO.N,GND*%
X123101320Y-123511320D03*
%TO.N,unconnected-(J1-GPIO19{slash}MISO1-Pad35)*%
X120561320Y-120971320D03*
%TO.N,/FAN_ALERT*%
X120561320Y-123511320D03*
%TO.N,unconnected-(J1-GPIO26-Pad37)*%
X118021320Y-120971320D03*
%TO.N,unconnected-(J1-GPIO20{slash}MOSI1-Pad38)*%
X118021320Y-123511320D03*
%TO.N,GND*%
X115481320Y-120971320D03*
%TO.N,unconnected-(J1-GPIO21{slash}SCLK1-Pad40)*%
X115481320Y-123511320D03*
%TD*%
D17*
%TO.N,/VIN*%
%TO.C,J2*%
X160910000Y-95330000D03*
X160910000Y-99530000D03*
X160910000Y-103730000D03*
%TO.N,GND*%
X156710000Y-95330000D03*
X156710000Y-99530000D03*
X156710000Y-103730000D03*
%TD*%
D13*
%TO.N,GND*%
%TO.C,J4*%
X160136000Y-76956300D03*
D14*
X158630000Y-74245000D03*
%TO.N,/12V*%
X158630000Y-79745000D03*
D13*
X157596000Y-76956300D03*
%TO.N,/TACH1*%
X155056000Y-76956300D03*
D14*
X154430000Y-79745000D03*
%TO.N,/PWM1*%
X154430000Y-74245000D03*
D13*
X152516000Y-76956300D03*
%TD*%
%TO.N,GND*%
%TO.C,J6*%
X137269334Y-76956300D03*
D14*
X135763334Y-74245000D03*
%TO.N,/12V*%
X135763334Y-79745000D03*
D13*
X134729334Y-76956300D03*
%TO.N,/TACH3*%
X132189334Y-76956300D03*
D14*
X131563334Y-79745000D03*
%TO.N,/PWM3*%
X131563334Y-74245000D03*
D13*
X129649334Y-76956300D03*
%TD*%
%TO.N,GND*%
%TO.C,J7*%
X125836000Y-76956300D03*
D14*
X124330000Y-74245000D03*
%TO.N,/12V*%
X124330000Y-79745000D03*
D13*
X123296000Y-76956300D03*
%TO.N,/TACH4*%
X120756000Y-76956300D03*
D14*
X120130000Y-79745000D03*
%TO.N,/PWM4*%
X120130000Y-74245000D03*
D13*
X118216000Y-76956300D03*
%TD*%
D18*
%TO.N,/PSU_SCL*%
X151950000Y-118010000D03*
%TO.N,/PSU_SDA*%
X152930000Y-118010000D03*
%TO.N,/12V*%
X160525000Y-87410000D03*
X140420000Y-87020000D03*
X159910000Y-87410000D03*
X154830000Y-86100000D03*
X154215000Y-86100000D03*
X141035000Y-87020000D03*
X150175000Y-86620000D03*
X140280000Y-87720000D03*
X150790000Y-86620000D03*
X161140000Y-87410000D03*
X141650000Y-87020000D03*
%TO.N,GND*%
X144864385Y-104012422D03*
X150980000Y-89900000D03*
X144207500Y-97312500D03*
X165850000Y-87520000D03*
X144864385Y-101687422D03*
X145731053Y-101687422D03*
X125180000Y-100540000D03*
X119400000Y-104230000D03*
X136642500Y-98455000D03*
X144207500Y-93825000D03*
X165060000Y-87540000D03*
X137496053Y-101447422D03*
X143316666Y-113440000D03*
X142440000Y-114260000D03*
X143997719Y-102849922D03*
X144207500Y-98475000D03*
X143997719Y-104012422D03*
X145731053Y-104012422D03*
X143997719Y-101687422D03*
X142450000Y-112610000D03*
X144207500Y-94987500D03*
X145210000Y-96145000D03*
X144125000Y-89775000D03*
X143316666Y-112610000D03*
X137531053Y-102812422D03*
X137516053Y-104327422D03*
X136642500Y-94967500D03*
X136172500Y-102805000D03*
X136642500Y-97292500D03*
X143306666Y-114260000D03*
X135640000Y-94972500D03*
X136642500Y-96130000D03*
X142450000Y-113440000D03*
X138625000Y-90175000D03*
X145210000Y-97307500D03*
X135640000Y-96135000D03*
X143131053Y-101687422D03*
X143131053Y-102849922D03*
X144207500Y-96150000D03*
X136842500Y-102185000D03*
X136642500Y-93805000D03*
X143131053Y-104012422D03*
X124370000Y-101380000D03*
X123430000Y-102240000D03*
X135640000Y-98460000D03*
X123430000Y-100530000D03*
X139725000Y-90175000D03*
X145731053Y-102849922D03*
X135640000Y-93810000D03*
X136802500Y-103555000D03*
X145210000Y-98470000D03*
X144864385Y-102849922D03*
X145210000Y-94982500D03*
X135640000Y-97297500D03*
X139725000Y-89012500D03*
X138625000Y-89012500D03*
X125190000Y-102230000D03*
X145210000Y-93820000D03*
%TO.N,/VIN*%
X160020000Y-89820000D03*
X165830000Y-89620000D03*
X160750000Y-90530000D03*
X159290000Y-90530000D03*
X160020000Y-90530000D03*
X160750000Y-89820000D03*
X165100000Y-89620000D03*
X159290000Y-89820000D03*
%TO.N,Net-(U1-BST)*%
X142282500Y-110500000D03*
X143342500Y-100175000D03*
%TO.N,/5V*%
X148700000Y-113450000D03*
X133610000Y-95128570D03*
X148580000Y-108720000D03*
X148460000Y-101010000D03*
X148480000Y-102450000D03*
X148480000Y-103170000D03*
X148700000Y-114200000D03*
X148550000Y-105110000D03*
X148460000Y-100290000D03*
X148580000Y-109440000D03*
X149480000Y-105830000D03*
X149630000Y-114200000D03*
X136980000Y-108350000D03*
X149500000Y-106900000D03*
X148700000Y-112730000D03*
X148220000Y-110570000D03*
X149480000Y-105110000D03*
X133610000Y-90225714D03*
X149630000Y-112730000D03*
X148550000Y-105830000D03*
X149630000Y-113450000D03*
X149510000Y-108720000D03*
X149510000Y-109440000D03*
X133610000Y-92677142D03*
X149500000Y-107620000D03*
X148450000Y-98300000D03*
X133610000Y-97580000D03*
X148570000Y-106900000D03*
X148570000Y-107620000D03*
X148460000Y-96180000D03*
X148225000Y-92675000D03*
X148460000Y-96900000D03*
X148450000Y-99020000D03*
%TO.N,/3V3*%
X118410000Y-100570000D03*
X122100000Y-93942856D03*
X122100000Y-96394284D03*
X118440000Y-104230000D03*
X132740000Y-105970000D03*
X149320000Y-116890000D03*
X122100000Y-89040000D03*
X122100000Y-91491428D03*
X121420000Y-101800000D03*
X145320000Y-116890000D03*
X130800000Y-105990000D03*
%TO.N,/SDA*%
X121220000Y-100410000D03*
%TO.N,/SCL*%
X120630000Y-101090000D03*
%TO.N,/PSU_EN*%
X150970000Y-118010000D03*
%TO.N,/TACH1*%
X123930000Y-105840000D03*
X131165000Y-90175000D03*
%TO.N,/PWM1*%
X123330000Y-105300000D03*
X130126737Y-90506736D03*
%TO.N,/TACH2*%
X125300000Y-104670000D03*
X129570000Y-91520000D03*
%TO.N,/PWM2*%
X124580000Y-104190000D03*
X129010000Y-92720000D03*
%TO.N,/PWM3*%
X127240000Y-95170000D03*
X127240000Y-102370000D03*
%TO.N,/TACH3*%
X127910000Y-101640000D03*
X127890000Y-93950000D03*
%TO.N,/TACH4*%
X124620000Y-98710000D03*
X124620000Y-96350000D03*
%TO.N,/PWM4*%
X124110000Y-97610000D03*
%TO.N,Net-(U1-SW)*%
X143880000Y-105510000D03*
X142450000Y-106370000D03*
X143900000Y-106370000D03*
X143900000Y-107210000D03*
X142430000Y-105510000D03*
X142450000Y-107210000D03*
%TO.N,/12V_LIM*%
X139700000Y-100770000D03*
X139440000Y-96590000D03*
X140330000Y-99830000D03*
X139460000Y-94610000D03*
X140190000Y-91750000D03*
X139460000Y-93870000D03*
X140260000Y-93280000D03*
X139440000Y-98520000D03*
X141640000Y-91750000D03*
X139440000Y-95850000D03*
X140970000Y-93280000D03*
X141160000Y-94610000D03*
X140330000Y-100780000D03*
X141140000Y-97780000D03*
X139700000Y-99820000D03*
X141140000Y-96590000D03*
X141140000Y-95850000D03*
X140930000Y-91750000D03*
X140970000Y-99810000D03*
X139520000Y-93280000D03*
X141140000Y-98520000D03*
X141160000Y-93870000D03*
X139440000Y-97780000D03*
X140970000Y-100760000D03*
%TO.N,Net-(U3-ILIM)*%
X143000000Y-91725000D03*
X147785000Y-89050000D03*
%TD*%
%TA.AperFunction,Conductor*%
%TO.N,/12V*%
G36*
X136248045Y-75658660D02*
G01*
X136294009Y-75711283D01*
X136305419Y-75763843D01*
X136301460Y-76579458D01*
X136292023Y-76626306D01*
X136279686Y-76656092D01*
X136279685Y-76656094D01*
X136279683Y-76656101D01*
X136240134Y-76854928D01*
X136240134Y-77057671D01*
X136279683Y-77256499D01*
X136279685Y-77256506D01*
X136288400Y-77277547D01*
X136297837Y-77325600D01*
X136294934Y-77923596D01*
X136294935Y-77923596D01*
X136294935Y-77923597D01*
X139980126Y-80540000D01*
X139980127Y-80540000D01*
X141775030Y-80540000D01*
X141842069Y-80559685D01*
X141875349Y-80591116D01*
X141925370Y-80659966D01*
X142081698Y-80816294D01*
X142081703Y-80816298D01*
X142176709Y-80885323D01*
X142260549Y-80946236D01*
X142457526Y-81046601D01*
X142667779Y-81114917D01*
X142749660Y-81127885D01*
X142886125Y-81149500D01*
X142886130Y-81149500D01*
X143107209Y-81149500D01*
X143228510Y-81130287D01*
X143325555Y-81114917D01*
X143535808Y-81046601D01*
X143732785Y-80946236D01*
X143911637Y-80816293D01*
X144067960Y-80659970D01*
X144117985Y-80591115D01*
X144173315Y-80548449D01*
X144218304Y-80540000D01*
X144685000Y-80540000D01*
X144685000Y-75793196D01*
X144704685Y-75726157D01*
X144757489Y-75680402D01*
X144809491Y-75669197D01*
X147661740Y-75680606D01*
X147728698Y-75700559D01*
X147774242Y-75753545D01*
X147785241Y-75805204D01*
X147782051Y-76465362D01*
X147772613Y-76512215D01*
X147713019Y-76656088D01*
X147713016Y-76656100D01*
X147673467Y-76854928D01*
X147673467Y-77057671D01*
X147713016Y-77256499D01*
X147713018Y-77256507D01*
X147767919Y-77389049D01*
X147777357Y-77437101D01*
X147775317Y-77859563D01*
X147775058Y-77913141D01*
X152265597Y-80576536D01*
X152265597Y-80576535D01*
X152265598Y-80576536D01*
X152270695Y-80576496D01*
X153228572Y-80569128D01*
X153295757Y-80588295D01*
X153329841Y-80620239D01*
X153358703Y-80659966D01*
X153515031Y-80816294D01*
X153515036Y-80816298D01*
X153610042Y-80885323D01*
X153693882Y-80946236D01*
X153890859Y-81046601D01*
X154101112Y-81114917D01*
X154182993Y-81127885D01*
X154319458Y-81149500D01*
X154319463Y-81149500D01*
X154540542Y-81149500D01*
X154661843Y-81130287D01*
X154758888Y-81114917D01*
X154969141Y-81046601D01*
X155166118Y-80946236D01*
X155344970Y-80816293D01*
X155501293Y-80659970D01*
X155543654Y-80601663D01*
X155598981Y-80559000D01*
X155643009Y-80550555D01*
X156167632Y-80546520D01*
X156126341Y-75814729D01*
X156145440Y-75747523D01*
X156197842Y-75701309D01*
X156250817Y-75689651D01*
X159100469Y-75700783D01*
X159167431Y-75720729D01*
X159212980Y-75773712D01*
X159223983Y-75825411D01*
X159220801Y-76452313D01*
X159211364Y-76499136D01*
X159146352Y-76656088D01*
X159146349Y-76656100D01*
X159106800Y-76854928D01*
X159106800Y-77057671D01*
X159146349Y-77256499D01*
X159146351Y-77256507D01*
X159206303Y-77401243D01*
X159215740Y-77449325D01*
X159213605Y-77869915D01*
X159213606Y-77869915D01*
X159213606Y-77869916D01*
X164010521Y-80833342D01*
X164057209Y-80885323D01*
X164069350Y-80939090D01*
X164053833Y-88472193D01*
X164034010Y-88539192D01*
X163981112Y-88584838D01*
X163930849Y-88595934D01*
X159655016Y-88630982D01*
X159587818Y-88611847D01*
X159541632Y-88559420D01*
X159530000Y-88506986D01*
X159530000Y-86998973D01*
X142475000Y-87019999D01*
X142474999Y-87020000D01*
X142117114Y-87374935D01*
X142117114Y-87374936D01*
X142110992Y-88127915D01*
X142090763Y-88194792D01*
X142037589Y-88240116D01*
X141987914Y-88250904D01*
X139711610Y-88267765D01*
X139644427Y-88248577D01*
X139613665Y-88220980D01*
X138650000Y-87010000D01*
X122880942Y-87010000D01*
X122813903Y-86990315D01*
X122787979Y-86968060D01*
X121841037Y-85895300D01*
X121811429Y-85832014D01*
X121810000Y-85813240D01*
X121810000Y-75774000D01*
X121829685Y-75706961D01*
X121882489Y-75661206D01*
X121934000Y-75650000D01*
X124816109Y-75650000D01*
X124883148Y-75669685D01*
X124928903Y-75722489D01*
X124940102Y-75775278D01*
X124933430Y-76422462D01*
X124923998Y-76468637D01*
X124846351Y-76656092D01*
X124846349Y-76656100D01*
X124806800Y-76854928D01*
X124806800Y-77057671D01*
X124846349Y-77256499D01*
X124846351Y-77256507D01*
X124913232Y-77417971D01*
X124922664Y-77466702D01*
X124918614Y-77859563D01*
X124918615Y-77859567D01*
X128088099Y-80541130D01*
X128088100Y-80541129D01*
X128088101Y-80541130D01*
X130340056Y-80537976D01*
X130407119Y-80557566D01*
X130440545Y-80589091D01*
X130492037Y-80659966D01*
X130648365Y-80816294D01*
X130648370Y-80816298D01*
X130743376Y-80885323D01*
X130827216Y-80946236D01*
X131024193Y-81046601D01*
X131234446Y-81114917D01*
X131316327Y-81127885D01*
X131452792Y-81149500D01*
X131452797Y-81149500D01*
X131673876Y-81149500D01*
X131795177Y-81130287D01*
X131892222Y-81114917D01*
X132102475Y-81046601D01*
X132299452Y-80946236D01*
X132478304Y-80816293D01*
X132634627Y-80659970D01*
X132688617Y-80585658D01*
X132743944Y-80542995D01*
X132788754Y-80534546D01*
X133228593Y-80533931D01*
X133220387Y-75774711D01*
X133239956Y-75707639D01*
X133292681Y-75661794D01*
X133343894Y-75650500D01*
X135592532Y-75641577D01*
X135612393Y-75643100D01*
X135652797Y-75649500D01*
X135652800Y-75649500D01*
X135873870Y-75649500D01*
X135873871Y-75649500D01*
X135923023Y-75641715D01*
X135941908Y-75640190D01*
X136180929Y-75639242D01*
X136248045Y-75658660D01*
G37*
%TD.AperFunction*%
%TD*%
%TA.AperFunction,Conductor*%
%TO.N,Net-(U1-SW)*%
G36*
X144273174Y-104732424D02*
G01*
X144319667Y-104786080D01*
X144331053Y-104838422D01*
X144331053Y-107636422D01*
X144311051Y-107704543D01*
X144257395Y-107751036D01*
X144205053Y-107762422D01*
X142057053Y-107762422D01*
X141988932Y-107742420D01*
X141942439Y-107688764D01*
X141931053Y-107636422D01*
X141931053Y-104838422D01*
X141951055Y-104770301D01*
X142004711Y-104723808D01*
X142057053Y-104712422D01*
X144205053Y-104712422D01*
X144273174Y-104732424D01*
G37*
%TD.AperFunction*%
%TD*%
%TA.AperFunction,Conductor*%
%TO.N,/5V*%
G36*
X154474595Y-91920196D02*
G01*
X154542654Y-91940404D01*
X154588984Y-91994201D01*
X154600212Y-92045943D01*
X154638487Y-111202107D01*
X164490064Y-114670000D01*
X166264139Y-115294499D01*
X166321754Y-115335985D01*
X166347793Y-115402034D01*
X166348302Y-115413078D01*
X166358731Y-120236610D01*
X166338876Y-120304773D01*
X166331242Y-120315441D01*
X166149536Y-120543294D01*
X166149533Y-120543298D01*
X165967246Y-120833405D01*
X165967241Y-120833414D01*
X165818588Y-121142095D01*
X165818577Y-121142122D01*
X165705424Y-121465496D01*
X165629181Y-121799533D01*
X165590820Y-122140006D01*
X165590820Y-122482633D01*
X165629181Y-122823106D01*
X165705424Y-123157143D01*
X165818577Y-123480517D01*
X165818588Y-123480544D01*
X165967241Y-123789225D01*
X165967246Y-123789234D01*
X166149531Y-124079338D01*
X166340237Y-124318476D01*
X166367071Y-124384206D01*
X166367726Y-124396764D01*
X166369209Y-125082633D01*
X166349354Y-125150796D01*
X166295799Y-125197405D01*
X166243600Y-125208904D01*
X159791391Y-125228910D01*
X159723208Y-125209120D01*
X159676549Y-125155608D01*
X159665000Y-125102911D01*
X159665000Y-120872540D01*
X160198420Y-120872540D01*
X160198420Y-121070099D01*
X160236961Y-121263855D01*
X160312561Y-121446371D01*
X160422316Y-121610632D01*
X160562008Y-121750324D01*
X160726269Y-121860079D01*
X160908785Y-121935679D01*
X161102543Y-121974220D01*
X161102544Y-121974220D01*
X161300096Y-121974220D01*
X161300097Y-121974220D01*
X161493855Y-121935679D01*
X161676371Y-121860079D01*
X161840632Y-121750324D01*
X161980324Y-121610632D01*
X162090079Y-121446371D01*
X162165679Y-121263855D01*
X162204220Y-121070097D01*
X162204220Y-120872543D01*
X162165679Y-120678785D01*
X162090079Y-120496269D01*
X161980324Y-120332008D01*
X161840632Y-120192316D01*
X161711842Y-120106262D01*
X162738420Y-120106262D01*
X162738420Y-121836373D01*
X162738421Y-121836380D01*
X162747292Y-121880978D01*
X162747292Y-121880979D01*
X162769769Y-121914618D01*
X162781086Y-121931554D01*
X162831662Y-121965348D01*
X162831661Y-121965348D01*
X162838008Y-121966610D01*
X162876263Y-121974220D01*
X164606376Y-121974219D01*
X164650978Y-121965348D01*
X164701554Y-121931554D01*
X164735348Y-121880978D01*
X164744220Y-121836377D01*
X164744219Y-120106264D01*
X164735348Y-120061662D01*
X164701554Y-120011086D01*
X164650978Y-119977292D01*
X164650977Y-119977291D01*
X164650978Y-119977291D01*
X164619069Y-119970944D01*
X164606377Y-119968420D01*
X164606375Y-119968420D01*
X162876266Y-119968420D01*
X162876259Y-119968421D01*
X162831661Y-119977292D01*
X162831660Y-119977292D01*
X162787259Y-120006961D01*
X162781086Y-120011086D01*
X162772666Y-120023686D01*
X162747291Y-120061662D01*
X162738420Y-120106262D01*
X161711842Y-120106262D01*
X161676371Y-120082561D01*
X161493855Y-120006961D01*
X161300099Y-119968420D01*
X161300097Y-119968420D01*
X161102543Y-119968420D01*
X161102540Y-119968420D01*
X160908784Y-120006961D01*
X160908779Y-120006963D01*
X160726268Y-120082561D01*
X160562009Y-120192315D01*
X160562003Y-120192320D01*
X160422320Y-120332003D01*
X160422315Y-120332009D01*
X160312561Y-120496268D01*
X160236963Y-120678779D01*
X160236961Y-120678784D01*
X160198420Y-120872540D01*
X159665000Y-120872540D01*
X159665000Y-119124254D01*
X147852006Y-114700708D01*
X147795226Y-114658088D01*
X147770501Y-114591535D01*
X147770192Y-114582433D01*
X147819680Y-92045943D01*
X147819723Y-92026103D01*
X147839875Y-91958028D01*
X147893633Y-91911653D01*
X147946101Y-91900382D01*
X154474595Y-91920196D01*
G37*
%TD.AperFunction*%
%TD*%
%TA.AperFunction,Conductor*%
%TO.N,/12V_LIM*%
G36*
X142062470Y-90460382D02*
G01*
X142108538Y-90512913D01*
X142120051Y-90565042D01*
X142124491Y-101290817D01*
X142104834Y-101357864D01*
X142052049Y-101403641D01*
X142000470Y-101414868D01*
X138620503Y-101414287D01*
X138553467Y-101394591D01*
X138507721Y-101341779D01*
X138496524Y-101290624D01*
X138471670Y-92137104D01*
X138491173Y-92070014D01*
X138521233Y-92037597D01*
X140604965Y-90473728D01*
X140670400Y-90449232D01*
X140678659Y-90448907D01*
X141995317Y-90441095D01*
X142062470Y-90460382D01*
G37*
%TD.AperFunction*%
%TD*%
%TA.AperFunction,Conductor*%
%TO.N,/VIN*%
G36*
X166249518Y-89344688D02*
G01*
X166295380Y-89397399D01*
X166306690Y-89449211D01*
X166296835Y-106390354D01*
X166277111Y-106457382D01*
X166224281Y-106503106D01*
X166173100Y-106514282D01*
X158949445Y-106529733D01*
X158882364Y-106510192D01*
X158836496Y-106457486D01*
X158825180Y-106405557D01*
X158849820Y-89463568D01*
X158869602Y-89396558D01*
X158922473Y-89350880D01*
X158973566Y-89339749D01*
X166182442Y-89325139D01*
X166249518Y-89344688D01*
G37*
%TD.AperFunction*%
%TD*%
M02*
