%TF.GenerationSoftware,KiCad,Pcbnew,9.0.2*%
%TF.CreationDate,2025-09-21T19:24:43-05:00*%
%TF.ProjectId,AntHat,416e7448-6174-42e6-9b69-6361645f7063,rev?*%
%TF.SameCoordinates,Original*%
%TF.FileFunction,Copper,L6,Bot*%
%TF.FilePolarity,Positive*%
%FSLAX46Y46*%
G04 Gerber Fmt 4.6, Leading zero omitted, Abs format (unit mm)*
G04 Created by KiCad (PCBNEW 9.0.2) date 2025-09-21 19:24:43*
%MOMM*%
%LPD*%
G01*
G04 APERTURE LIST*
%TA.AperFunction,ComponentPad*%
%ADD10R,1.400000X1.400000*%
%TD*%
%TA.AperFunction,ComponentPad*%
%ADD11C,1.400000*%
%TD*%
%TA.AperFunction,HeatsinkPad*%
%ADD12C,0.500000*%
%TD*%
%TA.AperFunction,HeatsinkPad*%
%ADD13R,4.400000X1.800000*%
%TD*%
%TA.AperFunction,ComponentPad*%
%ADD14C,1.549400*%
%TD*%
%TA.AperFunction,ComponentPad*%
%ADD15C,2.300000*%
%TD*%
%TA.AperFunction,ComponentPad*%
%ADD16R,1.700000X1.700000*%
%TD*%
%TA.AperFunction,ComponentPad*%
%ADD17O,1.700000X1.700000*%
%TD*%
%TA.AperFunction,ComponentPad*%
%ADD18C,2.775000*%
%TD*%
%TA.AperFunction,ViaPad*%
%ADD19C,0.500000*%
%TD*%
%TA.AperFunction,Conductor*%
%ADD20C,0.508000*%
%TD*%
%TA.AperFunction,Conductor*%
%ADD21C,0.200000*%
%TD*%
%TA.AperFunction,Conductor*%
%ADD22C,0.254000*%
%TD*%
%TA.AperFunction,Conductor*%
%ADD23C,0.230000*%
%TD*%
G04 APERTURE END LIST*
D10*
%TO.P,J3,1,Pin_1*%
%TO.N,unconnected-(J3-Pin_1-Pad1)*%
X166020000Y-112360000D03*
D11*
%TO.P,J3,2,Pin_2*%
%TO.N,GND*%
X164020000Y-112360000D03*
%TO.P,J3,3,Pin_3*%
%TO.N,/PSU_SDA*%
X162020000Y-112360000D03*
%TO.P,J3,4,Pin_4*%
%TO.N,unconnected-(J3-Pin_4-Pad4)*%
X166020000Y-110360000D03*
%TO.P,J3,5,Pin_5*%
%TO.N,/PSU_EN*%
X164020000Y-110360000D03*
%TO.P,J3,6,Pin_6*%
%TO.N,/PSU_SCL*%
X162020000Y-110360000D03*
%TD*%
D12*
%TO.P,U1,9,EP*%
%TO.N,GND*%
X142281053Y-102212422D03*
X140981053Y-102212422D03*
X139681053Y-102212422D03*
X138381053Y-102212422D03*
D13*
X140331053Y-102862422D03*
D12*
X142281053Y-103512422D03*
X140981053Y-103512422D03*
X139681053Y-103512422D03*
X138381053Y-103512422D03*
%TD*%
D14*
%TO.P,J5,1,Pin_1*%
%TO.N,GND*%
X148702667Y-76956300D03*
D15*
X147196667Y-74245000D03*
%TO.P,J5,2,Pin_2*%
%TO.N,/12V*%
X147196667Y-79745000D03*
D14*
X146162667Y-76956300D03*
%TO.P,J5,3,Pin_3*%
%TO.N,/TACH2*%
X143622667Y-76956300D03*
D15*
X142996667Y-79745000D03*
%TO.P,J5,4,Pin_4*%
%TO.N,/PWM2*%
X142996667Y-74245000D03*
D14*
X141082667Y-76956300D03*
%TD*%
D16*
%TO.P,J1,1,3V3*%
%TO.N,/3V3*%
X163741320Y-120971320D03*
D17*
%TO.P,J1,2,5V*%
%TO.N,/5V*%
X163741320Y-123511320D03*
%TO.P,J1,3,SDA/GPIO2*%
%TO.N,/SDA*%
X161201320Y-120971320D03*
%TO.P,J1,4,5V*%
%TO.N,/5V*%
X161201320Y-123511320D03*
%TO.P,J1,5,SCL/GPIO3*%
%TO.N,/SCL*%
X158661320Y-120971320D03*
%TO.P,J1,6,GND*%
%TO.N,GND*%
X158661320Y-123511320D03*
%TO.P,J1,7,GCLK0/GPIO4*%
%TO.N,unconnected-(J1-GCLK0{slash}GPIO4-Pad7)*%
X156121320Y-120971320D03*
%TO.P,J1,8,GPIO14/TXD*%
%TO.N,unconnected-(J1-GPIO14{slash}TXD-Pad8)*%
X156121320Y-123511320D03*
%TO.P,J1,9,GND*%
%TO.N,GND*%
X153581320Y-120971320D03*
%TO.P,J1,10,GPIO15/RXD*%
%TO.N,unconnected-(J1-GPIO15{slash}RXD-Pad10)*%
X153581320Y-123511320D03*
%TO.P,J1,11,GPIO17*%
%TO.N,/PSU_EN*%
X151041320Y-120971320D03*
%TO.P,J1,12,GPIO18/PWM0*%
%TO.N,unconnected-(J1-GPIO18{slash}PWM0-Pad12)*%
X151041320Y-123511320D03*
%TO.P,J1,13,GPIO27*%
%TO.N,/PSU_SCL*%
X148501320Y-120971320D03*
%TO.P,J1,14,GND*%
%TO.N,GND*%
X148501320Y-123511320D03*
%TO.P,J1,15,GPIO22*%
%TO.N,/PSU_SDA*%
X145961320Y-120971320D03*
%TO.P,J1,16,GPIO23*%
%TO.N,unconnected-(J1-GPIO23-Pad16)*%
X145961320Y-123511320D03*
%TO.P,J1,17,3V3*%
%TO.N,/3V3*%
X143421320Y-120971320D03*
%TO.P,J1,18,GPIO24*%
%TO.N,unconnected-(J1-GPIO24-Pad18)*%
X143421320Y-123511320D03*
%TO.P,J1,19,MOSI0/GPIO10*%
%TO.N,unconnected-(J1-MOSI0{slash}GPIO10-Pad19)*%
X140881320Y-120971320D03*
%TO.P,J1,20,GND*%
%TO.N,GND*%
X140881320Y-123511320D03*
%TO.P,J1,21,MISO0/GPIO9*%
%TO.N,unconnected-(J1-MISO0{slash}GPIO9-Pad21)*%
X138341320Y-120971320D03*
%TO.P,J1,22,GPIO25*%
%TO.N,unconnected-(J1-GPIO25-Pad22)*%
X138341320Y-123511320D03*
%TO.P,J1,23,SCLK0/GPIO11*%
%TO.N,unconnected-(J1-SCLK0{slash}GPIO11-Pad23)*%
X135801320Y-120971320D03*
%TO.P,J1,24,~{CE0}/GPIO8*%
%TO.N,unconnected-(J1-~{CE0}{slash}GPIO8-Pad24)*%
X135801320Y-123511320D03*
%TO.P,J1,25,GND*%
%TO.N,GND*%
X133261320Y-120971320D03*
%TO.P,J1,26,~{CE1}/GPIO7*%
%TO.N,unconnected-(J1-~{CE1}{slash}GPIO7-Pad26)*%
X133261320Y-123511320D03*
%TO.P,J1,27,ID_SD/GPIO0*%
%TO.N,unconnected-(J1-ID_SD{slash}GPIO0-Pad27)*%
X130721320Y-120971320D03*
%TO.P,J1,28,ID_SC/GPIO1*%
%TO.N,unconnected-(J1-ID_SC{slash}GPIO1-Pad28)*%
X130721320Y-123511320D03*
%TO.P,J1,29,GCLK1/GPIO5*%
%TO.N,unconnected-(J1-GCLK1{slash}GPIO5-Pad29)*%
X128181320Y-120971320D03*
%TO.P,J1,30,GND*%
%TO.N,GND*%
X128181320Y-123511320D03*
%TO.P,J1,31,GCLK2/GPIO6*%
%TO.N,unconnected-(J1-GCLK2{slash}GPIO6-Pad31)*%
X125641320Y-120971320D03*
%TO.P,J1,32,PWM0/GPIO12*%
%TO.N,unconnected-(J1-PWM0{slash}GPIO12-Pad32)*%
X125641320Y-123511320D03*
%TO.P,J1,33,PWM1/GPIO13*%
%TO.N,unconnected-(J1-PWM1{slash}GPIO13-Pad33)*%
X123101320Y-120971320D03*
%TO.P,J1,34,GND*%
%TO.N,GND*%
X123101320Y-123511320D03*
%TO.P,J1,35,GPIO19/MISO1*%
%TO.N,unconnected-(J1-GPIO19{slash}MISO1-Pad35)*%
X120561320Y-120971320D03*
%TO.P,J1,36,GPIO16*%
%TO.N,/FAN_ALERT*%
X120561320Y-123511320D03*
%TO.P,J1,37,GPIO26*%
%TO.N,unconnected-(J1-GPIO26-Pad37)*%
X118021320Y-120971320D03*
%TO.P,J1,38,GPIO20/MOSI1*%
%TO.N,unconnected-(J1-GPIO20{slash}MOSI1-Pad38)*%
X118021320Y-123511320D03*
%TO.P,J1,39,GND*%
%TO.N,GND*%
X115481320Y-120971320D03*
%TO.P,J1,40,GPIO21/SCLK1*%
%TO.N,unconnected-(J1-GPIO21{slash}SCLK1-Pad40)*%
X115481320Y-123511320D03*
%TD*%
D18*
%TO.P,J2,1,1*%
%TO.N,/VIN*%
X160910000Y-95330000D03*
%TO.P,J2,2,2*%
X160910000Y-99530000D03*
%TO.P,J2,3,3*%
X160910000Y-103730000D03*
%TO.P,J2,4,4*%
%TO.N,GND*%
X156710000Y-95330000D03*
%TO.P,J2,5,5*%
X156710000Y-99530000D03*
%TO.P,J2,6,6*%
X156710000Y-103730000D03*
%TD*%
D14*
%TO.P,J4,1,Pin_1*%
%TO.N,GND*%
X160136000Y-76956300D03*
D15*
X158630000Y-74245000D03*
%TO.P,J4,2,Pin_2*%
%TO.N,/12V*%
X158630000Y-79745000D03*
D14*
X157596000Y-76956300D03*
%TO.P,J4,3,Pin_3*%
%TO.N,/TACH1*%
X155056000Y-76956300D03*
D15*
X154430000Y-79745000D03*
%TO.P,J4,4,Pin_4*%
%TO.N,/PWM1*%
X154430000Y-74245000D03*
D14*
X152516000Y-76956300D03*
%TD*%
%TO.P,J6,1,Pin_1*%
%TO.N,GND*%
X137269334Y-76956300D03*
D15*
X135763334Y-74245000D03*
%TO.P,J6,2,Pin_2*%
%TO.N,/12V*%
X135763334Y-79745000D03*
D14*
X134729334Y-76956300D03*
%TO.P,J6,3,Pin_3*%
%TO.N,/TACH3*%
X132189334Y-76956300D03*
D15*
X131563334Y-79745000D03*
%TO.P,J6,4,Pin_4*%
%TO.N,/PWM3*%
X131563334Y-74245000D03*
D14*
X129649334Y-76956300D03*
%TD*%
%TO.P,J7,1,Pin_1*%
%TO.N,GND*%
X125836000Y-76956300D03*
D15*
X124330000Y-74245000D03*
%TO.P,J7,2,Pin_2*%
%TO.N,/12V*%
X124330000Y-79745000D03*
D14*
X123296000Y-76956300D03*
%TO.P,J7,3,Pin_3*%
%TO.N,/TACH4*%
X120756000Y-76956300D03*
D15*
X120130000Y-79745000D03*
%TO.P,J7,4,Pin_4*%
%TO.N,/PWM4*%
X120130000Y-74245000D03*
D14*
X118216000Y-76956300D03*
%TD*%
D19*
%TO.N,/PSU_SCL*%
X151950000Y-118010000D03*
%TO.N,/PSU_SDA*%
X152930000Y-118010000D03*
%TO.N,/12V*%
X160525000Y-87410000D03*
X140420000Y-87020000D03*
X159910000Y-87410000D03*
X154830000Y-86100000D03*
X154215000Y-86100000D03*
X141035000Y-87020000D03*
X150175000Y-86620000D03*
X140280000Y-87720000D03*
X150790000Y-86620000D03*
X161140000Y-87410000D03*
X141650000Y-87020000D03*
%TO.N,GND*%
X144864385Y-104012422D03*
X150980000Y-89900000D03*
X144207500Y-97312500D03*
X165850000Y-87520000D03*
X144864385Y-101687422D03*
X145731053Y-101687422D03*
X125180000Y-100540000D03*
X119400000Y-104230000D03*
X136642500Y-98455000D03*
X144207500Y-93825000D03*
X165060000Y-87540000D03*
X137496053Y-101447422D03*
X143316666Y-113440000D03*
X142440000Y-114260000D03*
X143997719Y-102849922D03*
X144207500Y-98475000D03*
X143997719Y-104012422D03*
X145731053Y-104012422D03*
X143997719Y-101687422D03*
X142450000Y-112610000D03*
X144207500Y-94987500D03*
X145210000Y-96145000D03*
X144125000Y-89775000D03*
X143316666Y-112610000D03*
X137531053Y-102812422D03*
X137516053Y-104327422D03*
X136642500Y-94967500D03*
X136172500Y-102805000D03*
X136642500Y-97292500D03*
X143306666Y-114260000D03*
X135640000Y-94972500D03*
X136642500Y-96130000D03*
X142450000Y-113440000D03*
X138625000Y-90175000D03*
X145210000Y-97307500D03*
X135640000Y-96135000D03*
X143131053Y-101687422D03*
X143131053Y-102849922D03*
X144207500Y-96150000D03*
X136842500Y-102185000D03*
X136642500Y-93805000D03*
X143131053Y-104012422D03*
X124370000Y-101380000D03*
X123430000Y-102240000D03*
X135640000Y-98460000D03*
X123430000Y-100530000D03*
X139725000Y-90175000D03*
X145731053Y-102849922D03*
X135640000Y-93810000D03*
X136802500Y-103555000D03*
X145210000Y-98470000D03*
X144864385Y-102849922D03*
X145210000Y-94982500D03*
X135640000Y-97297500D03*
X139725000Y-89012500D03*
X138625000Y-89012500D03*
X125190000Y-102230000D03*
X145210000Y-93820000D03*
%TO.N,/VIN*%
X160020000Y-89820000D03*
X165830000Y-89620000D03*
X160750000Y-90530000D03*
X159290000Y-90530000D03*
X160020000Y-90530000D03*
X160750000Y-89820000D03*
X165100000Y-89620000D03*
X159290000Y-89820000D03*
%TO.N,Net-(U1-BST)*%
X142282500Y-110500000D03*
X143342500Y-100175000D03*
%TO.N,/5V*%
X148700000Y-113450000D03*
X133610000Y-95128570D03*
X148580000Y-108720000D03*
X148460000Y-101010000D03*
X148480000Y-102450000D03*
X148480000Y-103170000D03*
X148700000Y-114200000D03*
X148550000Y-105110000D03*
X148460000Y-100290000D03*
X148580000Y-109440000D03*
X149480000Y-105830000D03*
X149630000Y-114200000D03*
X136980000Y-108350000D03*
X149500000Y-106900000D03*
X148700000Y-112730000D03*
X148220000Y-110570000D03*
X149480000Y-105110000D03*
X133610000Y-90225714D03*
X149630000Y-112730000D03*
X148550000Y-105830000D03*
X149630000Y-113450000D03*
X149510000Y-108720000D03*
X149510000Y-109440000D03*
X133610000Y-92677142D03*
X149500000Y-107620000D03*
X148450000Y-98300000D03*
X133610000Y-97580000D03*
X148570000Y-106900000D03*
X148570000Y-107620000D03*
X148460000Y-96180000D03*
X148225000Y-92675000D03*
X148460000Y-96900000D03*
X148450000Y-99020000D03*
%TO.N,/3V3*%
X118410000Y-100570000D03*
X122100000Y-93942856D03*
X122100000Y-96394284D03*
X118440000Y-104230000D03*
X132740000Y-105970000D03*
X149320000Y-116890000D03*
X122100000Y-89040000D03*
X122100000Y-91491428D03*
X121420000Y-101800000D03*
X145320000Y-116890000D03*
X130800000Y-105990000D03*
%TO.N,/SDA*%
X121220000Y-100410000D03*
%TO.N,/SCL*%
X120630000Y-101090000D03*
%TO.N,/PSU_EN*%
X150970000Y-118010000D03*
%TO.N,/TACH1*%
X123930000Y-105840000D03*
X131165000Y-90175000D03*
%TO.N,/PWM1*%
X123330000Y-105300000D03*
X130126737Y-90506736D03*
%TO.N,/TACH2*%
X125300000Y-104670000D03*
X129570000Y-91520000D03*
%TO.N,/PWM2*%
X124580000Y-104190000D03*
X129010000Y-92720000D03*
%TO.N,/PWM3*%
X127240000Y-95170000D03*
X127240000Y-102370000D03*
%TO.N,/TACH3*%
X127910000Y-101640000D03*
X127890000Y-93950000D03*
%TO.N,/TACH4*%
X124620000Y-98710000D03*
X124620000Y-96350000D03*
%TO.N,/PWM4*%
X124110000Y-97610000D03*
%TO.N,Net-(U1-SW)*%
X143880000Y-105510000D03*
X142450000Y-106370000D03*
X143900000Y-106370000D03*
X143900000Y-107210000D03*
X142430000Y-105510000D03*
X142450000Y-107210000D03*
%TO.N,/12V_LIM*%
X139700000Y-100770000D03*
X139440000Y-96590000D03*
X140330000Y-99830000D03*
X139460000Y-94610000D03*
X140190000Y-91750000D03*
X139460000Y-93870000D03*
X140260000Y-93280000D03*
X139440000Y-98520000D03*
X141640000Y-91750000D03*
X139440000Y-95850000D03*
X140970000Y-93280000D03*
X141160000Y-94610000D03*
X140330000Y-100780000D03*
X141140000Y-97780000D03*
X139700000Y-99820000D03*
X141140000Y-96590000D03*
X141140000Y-95850000D03*
X140930000Y-91750000D03*
X140970000Y-99810000D03*
X139520000Y-93280000D03*
X141140000Y-98520000D03*
X141160000Y-93870000D03*
X139440000Y-97780000D03*
X140970000Y-100760000D03*
%TO.N,Net-(U3-ILIM)*%
X143000000Y-91725000D03*
X147785000Y-89050000D03*
%TD*%
D20*
%TO.N,/5V*%
X133610000Y-92677142D02*
X134622858Y-92677142D01*
X134622858Y-92677142D02*
X134850000Y-92450000D01*
X134850000Y-92450000D02*
X148000000Y-92450000D01*
X148000000Y-92450000D02*
X148225000Y-92675000D01*
D21*
%TO.N,/PSU_SCL*%
X159662500Y-110325000D02*
X161985000Y-110325000D01*
X161985000Y-110325000D02*
X162020000Y-110360000D01*
X151977500Y-118010000D02*
X159662500Y-110325000D01*
X151950000Y-118010000D02*
X151977500Y-118010000D01*
%TO.N,/PSU_SDA*%
X158580000Y-112360000D02*
X162020000Y-112360000D01*
X152930000Y-118010000D02*
X158580000Y-112360000D01*
D22*
%TO.N,Net-(U1-BST)*%
X142282500Y-110500000D02*
X143093475Y-110500000D01*
X147104422Y-99990500D02*
X143527000Y-99990500D01*
X147375000Y-100261078D02*
X147104422Y-99990500D01*
X147375000Y-106218475D02*
X147375000Y-100261078D01*
X143527000Y-99990500D02*
X143342500Y-100175000D01*
X143093475Y-110500000D02*
X147375000Y-106218475D01*
D23*
%TO.N,/5V*%
X147490000Y-111300000D02*
X139118631Y-111300000D01*
D20*
X133620000Y-92667142D02*
X133610000Y-92677142D01*
D23*
X148220000Y-110570000D02*
X147490000Y-111300000D01*
D20*
X133580000Y-92707142D02*
X133580000Y-95098570D01*
X133610000Y-95128570D02*
X133610000Y-96340000D01*
D23*
X136981053Y-109162422D02*
X136981053Y-108418947D01*
D20*
X133610000Y-96340000D02*
X133600000Y-96350000D01*
X133580000Y-95098570D02*
X133610000Y-95128570D01*
X133600000Y-97570000D02*
X133610000Y-97580000D01*
D23*
X136981053Y-108418947D02*
X137000000Y-108400000D01*
D20*
X133610000Y-90225714D02*
X133620000Y-90235714D01*
X133610000Y-92677142D02*
X133580000Y-92707142D01*
X133600000Y-96350000D02*
X133600000Y-97570000D01*
D23*
X139118631Y-111300000D02*
X136981053Y-109162422D01*
D20*
X133620000Y-90235714D02*
X133620000Y-92667142D01*
D21*
%TO.N,/SDA*%
X120820000Y-101607107D02*
X121220000Y-101207107D01*
X121220000Y-101207107D02*
X121220000Y-100410000D01*
X159680000Y-119440000D02*
X159680000Y-119450000D01*
X133680000Y-118590000D02*
X120820000Y-105730000D01*
X154350000Y-118590000D02*
X133680000Y-118590000D01*
X158830000Y-118590000D02*
X159680000Y-119440000D01*
X161201320Y-120911320D02*
X161201320Y-120971320D01*
X154390000Y-118590000D02*
X158830000Y-118590000D01*
X120820000Y-105730000D02*
X120820000Y-101607107D01*
X159680000Y-119450000D02*
X161201320Y-120971320D01*
%TO.N,/SCL*%
X153370000Y-119170000D02*
X133400000Y-119170000D01*
X120310000Y-106080000D02*
X120310000Y-101410000D01*
X156860000Y-119170000D02*
X158661320Y-120971320D01*
X133400000Y-119170000D02*
X120310000Y-106080000D01*
X153370000Y-119170000D02*
X156860000Y-119170000D01*
X120310000Y-101410000D02*
X120630000Y-101090000D01*
%TO.N,/PSU_EN*%
X160385000Y-108625000D02*
X162950000Y-108625000D01*
X164020000Y-109695000D02*
X164020000Y-110360000D01*
X150970000Y-118040000D02*
X160385000Y-108625000D01*
X162950000Y-108625000D02*
X164020000Y-109695000D01*
%TO.N,/TACH1*%
X127880000Y-105830000D02*
X130700000Y-103010000D01*
X123930000Y-105840000D02*
X123940000Y-105830000D01*
X130700000Y-103010000D02*
X130700000Y-90640000D01*
X131165000Y-90175000D02*
X138760000Y-82580000D01*
X130700000Y-90640000D02*
X131165000Y-90175000D01*
X151920000Y-79740000D02*
X154440000Y-79740000D01*
X123940000Y-105830000D02*
X127880000Y-105830000D01*
X155070000Y-79110000D02*
X154440000Y-79740000D01*
X155070000Y-76830000D02*
X155070000Y-79110000D01*
X149080000Y-82580000D02*
X151920000Y-79740000D01*
X138760000Y-82580000D02*
X149080000Y-82580000D01*
%TO.N,/PWM1*%
X138533473Y-82100000D02*
X148890000Y-82100000D01*
X127480000Y-105300000D02*
X130126737Y-102653263D01*
X130126737Y-102653263D02*
X130126737Y-90506736D01*
X152530000Y-76830000D02*
X154440000Y-74920000D01*
X123330000Y-105300000D02*
X127480000Y-105300000D01*
X130126737Y-90506736D02*
X138533473Y-82100000D01*
X154440000Y-74920000D02*
X154440000Y-74240000D01*
X148890000Y-82100000D02*
X152530000Y-78460000D01*
X152530000Y-78460000D02*
X152530000Y-76830000D01*
%TO.N,/TACH2*%
X129570000Y-91520000D02*
X129570000Y-90290000D01*
X143490000Y-79260000D02*
X143490000Y-76976667D01*
X125300000Y-104670000D02*
X127160000Y-104670000D01*
X140120000Y-79740000D02*
X143010000Y-79740000D01*
X129570000Y-102260000D02*
X129570000Y-91520000D01*
X129570000Y-90290000D02*
X140120000Y-79740000D01*
X143490000Y-76976667D02*
X143636667Y-76830000D01*
X143010000Y-79740000D02*
X143490000Y-79260000D01*
X127160000Y-104670000D02*
X129570000Y-102260000D01*
%TO.N,/PWM2*%
X129010000Y-101900000D02*
X129010000Y-92720000D01*
X126740000Y-104170000D02*
X129010000Y-101900000D01*
X141096667Y-78013333D02*
X141096667Y-76830000D01*
X124600000Y-104170000D02*
X126740000Y-104170000D01*
X124580000Y-104190000D02*
X124600000Y-104170000D01*
X141096667Y-76830000D02*
X143010000Y-74916667D01*
X129010000Y-90100000D02*
X141096667Y-78013333D01*
X129010000Y-92720000D02*
X129010000Y-90100000D01*
X143010000Y-74916667D02*
X143010000Y-74240000D01*
%TO.N,/PWM3*%
X129663334Y-80816666D02*
X129663334Y-76830000D01*
X127240000Y-83240000D02*
X129663334Y-80816666D01*
X127240000Y-95170000D02*
X127240000Y-83240000D01*
X131580000Y-74913334D02*
X131580000Y-74240000D01*
X127240000Y-102370000D02*
X127240000Y-95170000D01*
X129663334Y-76830000D02*
X131580000Y-74913334D01*
%TO.N,/TACH3*%
X131580000Y-79740000D02*
X131580000Y-79650000D01*
X132203334Y-79026666D02*
X132203334Y-76830000D01*
X127910000Y-101640000D02*
X127890000Y-101620000D01*
X127890000Y-101620000D02*
X127890000Y-93950000D01*
X127890000Y-83430000D02*
X131580000Y-79740000D01*
X127890000Y-93950000D02*
X127890000Y-83430000D01*
X131580000Y-79650000D02*
X132203334Y-79026666D01*
%TO.N,/TACH4*%
X124620000Y-98710000D02*
X124620000Y-96350000D01*
X124620000Y-96350000D02*
X124620000Y-86330000D01*
X120150000Y-77450000D02*
X120770000Y-76830000D01*
X124620000Y-86330000D02*
X120150000Y-81860000D01*
X120150000Y-81860000D02*
X120150000Y-79740000D01*
X120150000Y-79740000D02*
X120150000Y-77450000D01*
%TO.N,/PWM4*%
X118230000Y-76830000D02*
X120150000Y-74910000D01*
X120150000Y-74910000D02*
X120150000Y-74240000D01*
X118230000Y-80710000D02*
X118230000Y-76830000D01*
X124110000Y-97610000D02*
X124110000Y-86590000D01*
X124110000Y-86590000D02*
X118230000Y-80710000D01*
%TO.N,Net-(U3-ILIM)*%
X147785000Y-89865000D02*
X145925000Y-91725000D01*
X145925000Y-91725000D02*
X143000000Y-91725000D01*
X147785000Y-89050000D02*
X147785000Y-89865000D01*
%TD*%
%TA.AperFunction,Conductor*%
%TO.N,GND*%
G36*
X138991621Y-99682424D02*
G01*
X139038114Y-99736080D01*
X139049500Y-99788422D01*
X139049500Y-99884067D01*
X139074499Y-100009745D01*
X139074500Y-100009746D01*
X139123535Y-100128127D01*
X139188262Y-100224999D01*
X139209476Y-100292752D01*
X139190692Y-100361219D01*
X139188262Y-100365001D01*
X139123535Y-100461872D01*
X139074500Y-100580253D01*
X139074499Y-100580254D01*
X139072626Y-100589671D01*
X139049500Y-100705931D01*
X139049500Y-100834069D01*
X139074499Y-100959744D01*
X139123535Y-101078127D01*
X139194724Y-101184669D01*
X139285331Y-101275276D01*
X139391873Y-101346465D01*
X139510256Y-101395501D01*
X139635931Y-101420500D01*
X139635936Y-101420500D01*
X139764064Y-101420500D01*
X139764069Y-101420500D01*
X139889744Y-101395501D01*
X139954709Y-101368590D01*
X140025295Y-101361001D01*
X140051144Y-101368590D01*
X140116114Y-101395501D01*
X140140256Y-101405501D01*
X140265931Y-101430500D01*
X140265936Y-101430500D01*
X140394064Y-101430500D01*
X140394069Y-101430500D01*
X140519744Y-101405501D01*
X140519750Y-101405498D01*
X140519755Y-101405497D01*
X140625923Y-101361520D01*
X140696512Y-101353930D01*
X140722356Y-101361518D01*
X140780256Y-101385501D01*
X140905931Y-101410500D01*
X140905936Y-101410500D01*
X141034064Y-101410500D01*
X141034069Y-101410500D01*
X141159744Y-101385501D01*
X141278127Y-101336465D01*
X141384669Y-101265276D01*
X141475276Y-101174669D01*
X141546465Y-101068127D01*
X141595501Y-100949744D01*
X141620500Y-100824069D01*
X141620500Y-100695931D01*
X141595501Y-100570256D01*
X141546465Y-100451873D01*
X141481738Y-100355002D01*
X141460523Y-100287249D01*
X141479306Y-100218782D01*
X141481738Y-100214998D01*
X141484189Y-100211329D01*
X141546465Y-100118127D01*
X141595501Y-99999744D01*
X141620500Y-99874069D01*
X141620500Y-99788422D01*
X141640502Y-99720301D01*
X141694158Y-99673808D01*
X141746500Y-99662422D01*
X142666916Y-99662422D01*
X142735037Y-99682424D01*
X142781530Y-99736080D01*
X142791634Y-99806354D01*
X142771681Y-99858422D01*
X142766035Y-99866873D01*
X142717000Y-99985253D01*
X142716999Y-99985254D01*
X142705509Y-100043017D01*
X142692000Y-100110931D01*
X142692000Y-100239069D01*
X142701584Y-100287249D01*
X142715126Y-100355331D01*
X142716999Y-100364744D01*
X142766035Y-100483127D01*
X142837224Y-100589669D01*
X142927831Y-100680276D01*
X143034373Y-100751465D01*
X143152756Y-100800501D01*
X143278431Y-100825500D01*
X143278436Y-100825500D01*
X143406564Y-100825500D01*
X143406569Y-100825500D01*
X143532244Y-100800501D01*
X143650627Y-100751465D01*
X143757169Y-100680276D01*
X143847776Y-100589669D01*
X143858246Y-100573998D01*
X143912723Y-100528471D01*
X143963012Y-100518000D01*
X146721500Y-100518000D01*
X146789621Y-100538002D01*
X146836114Y-100591658D01*
X146847500Y-100644000D01*
X146847500Y-105947787D01*
X146827498Y-106015908D01*
X146810595Y-106036882D01*
X144246960Y-108600517D01*
X144184648Y-108634543D01*
X144157865Y-108637422D01*
X137739603Y-108637422D01*
X137671482Y-108617420D01*
X137624989Y-108563764D01*
X137614885Y-108493490D01*
X137616020Y-108486859D01*
X137630500Y-108414069D01*
X137630500Y-108285931D01*
X137605501Y-108160256D01*
X137556465Y-108041873D01*
X137485276Y-107935331D01*
X137394669Y-107844724D01*
X137288127Y-107773535D01*
X137169745Y-107724499D01*
X137123363Y-107715273D01*
X137044069Y-107699500D01*
X136915931Y-107699500D01*
X136874039Y-107707833D01*
X136790254Y-107724499D01*
X136790253Y-107724500D01*
X136671871Y-107773536D01*
X136565335Y-107844721D01*
X136565328Y-107844726D01*
X136474726Y-107935328D01*
X136474721Y-107935335D01*
X136403536Y-108041871D01*
X136354500Y-108160253D01*
X136354499Y-108160254D01*
X136354499Y-108160256D01*
X136329500Y-108285931D01*
X136329500Y-108414069D01*
X136343975Y-108486841D01*
X136337648Y-108557554D01*
X136294094Y-108613622D01*
X136227142Y-108637241D01*
X136220397Y-108637422D01*
X135907053Y-108637422D01*
X135838932Y-108617420D01*
X135792439Y-108563764D01*
X135781053Y-108511422D01*
X135781053Y-105445932D01*
X141779500Y-105445932D01*
X141779500Y-105574067D01*
X141799982Y-105677039D01*
X141804499Y-105699744D01*
X141853535Y-105818127D01*
X141853536Y-105818128D01*
X141898194Y-105884964D01*
X141919409Y-105952717D01*
X141900626Y-106021184D01*
X141898194Y-106024967D01*
X141873537Y-106061868D01*
X141873536Y-106061869D01*
X141824500Y-106180253D01*
X141824499Y-106180254D01*
X141811686Y-106244669D01*
X141799500Y-106305931D01*
X141799500Y-106434069D01*
X141809697Y-106485331D01*
X141821042Y-106542368D01*
X141824499Y-106559744D01*
X141857983Y-106640581D01*
X141873535Y-106678127D01*
X141901513Y-106719999D01*
X141922727Y-106787752D01*
X141903944Y-106856219D01*
X141901513Y-106860001D01*
X141873535Y-106901872D01*
X141824500Y-107020253D01*
X141824499Y-107020254D01*
X141810677Y-107089744D01*
X141799500Y-107145931D01*
X141799500Y-107274069D01*
X141824499Y-107399744D01*
X141873535Y-107518127D01*
X141944724Y-107624669D01*
X142035331Y-107715276D01*
X142141873Y-107786465D01*
X142260256Y-107835501D01*
X142385931Y-107860500D01*
X142385936Y-107860500D01*
X142514064Y-107860500D01*
X142514069Y-107860500D01*
X142639744Y-107835501D01*
X142758127Y-107786465D01*
X142864669Y-107715276D01*
X142955276Y-107624669D01*
X143026465Y-107518127D01*
X143058591Y-107440567D01*
X143103139Y-107385287D01*
X143170503Y-107362866D01*
X143239294Y-107380424D01*
X143287672Y-107432386D01*
X143291408Y-107440565D01*
X143323535Y-107518127D01*
X143394724Y-107624669D01*
X143485331Y-107715276D01*
X143591873Y-107786465D01*
X143710256Y-107835501D01*
X143835931Y-107860500D01*
X143835936Y-107860500D01*
X143964064Y-107860500D01*
X143964069Y-107860500D01*
X144089744Y-107835501D01*
X144208127Y-107786465D01*
X144314669Y-107715276D01*
X144405276Y-107624669D01*
X144476465Y-107518127D01*
X144525501Y-107399744D01*
X144550500Y-107274069D01*
X144550500Y-107145931D01*
X144525501Y-107020256D01*
X144476465Y-106901873D01*
X144448485Y-106859999D01*
X144427272Y-106792250D01*
X144446054Y-106723783D01*
X144448451Y-106720051D01*
X144476465Y-106678127D01*
X144525501Y-106559744D01*
X144550500Y-106434069D01*
X144550500Y-106305931D01*
X144525501Y-106180256D01*
X144476465Y-106061873D01*
X144431804Y-105995034D01*
X144410590Y-105927282D01*
X144429373Y-105858815D01*
X144431758Y-105855103D01*
X144456465Y-105818127D01*
X144505501Y-105699744D01*
X144530500Y-105574069D01*
X144530500Y-105445931D01*
X144505501Y-105320256D01*
X144456465Y-105201873D01*
X144385276Y-105095331D01*
X144294669Y-105004724D01*
X144188127Y-104933535D01*
X144069745Y-104884499D01*
X144027852Y-104876166D01*
X143944069Y-104859500D01*
X143815931Y-104859500D01*
X143774039Y-104867833D01*
X143690254Y-104884499D01*
X143690253Y-104884500D01*
X143571871Y-104933536D01*
X143465335Y-105004721D01*
X143465328Y-105004726D01*
X143374726Y-105095328D01*
X143374721Y-105095335D01*
X143303536Y-105201871D01*
X143271409Y-105279432D01*
X143226860Y-105334712D01*
X143159497Y-105357133D01*
X143090705Y-105339574D01*
X143042327Y-105287612D01*
X143038591Y-105279432D01*
X143006465Y-105201873D01*
X142935276Y-105095331D01*
X142844669Y-105004724D01*
X142738127Y-104933535D01*
X142619745Y-104884499D01*
X142577852Y-104876166D01*
X142494069Y-104859500D01*
X142365931Y-104859500D01*
X142324039Y-104867833D01*
X142240254Y-104884499D01*
X142240253Y-104884500D01*
X142121871Y-104933536D01*
X142015335Y-105004721D01*
X142015328Y-105004726D01*
X141924726Y-105095328D01*
X141924721Y-105095335D01*
X141853536Y-105201871D01*
X141804500Y-105320253D01*
X141804499Y-105320254D01*
X141779500Y-105445932D01*
X135781053Y-105445932D01*
X135781053Y-99788422D01*
X135801055Y-99720301D01*
X135854711Y-99673808D01*
X135907053Y-99662422D01*
X138923500Y-99662422D01*
X138991621Y-99682424D01*
G37*
%TD.AperFunction*%
%TD*%
M02*
