%TF.GenerationSoftware,KiCad,Pcbnew,8.0.1*%
%TF.CreationDate,2024-04-04T15:13:07-04:00*%
%TF.ProjectId,AntHat,416e7448-6174-42e6-9b69-6361645f7063,rev?*%
%TF.SameCoordinates,Original*%
%TF.FileFunction,Soldermask,Bot*%
%TF.FilePolarity,Negative*%
%FSLAX46Y46*%
G04 Gerber Fmt 4.6, Leading zero omitted, Abs format (unit mm)*
G04 Created by KiCad (PCBNEW 8.0.1) date 2024-04-04 15:13:07*
%MOMM*%
%LPD*%
G01*
G04 APERTURE LIST*
%ADD10C,2.300000*%
%ADD11C,6.100000*%
%ADD12C,1.549400*%
%ADD13R,1.400000X1.400000*%
%ADD14C,1.400000*%
%ADD15C,3.050000*%
%ADD16C,2.775000*%
%ADD17R,1.700000X1.700000*%
%ADD18O,1.700000X1.700000*%
G04 APERTURE END LIST*
D10*
%TO.C,J8*%
X158640000Y-74240000D03*
X158640000Y-79740000D03*
X154440000Y-79740000D03*
X154440000Y-74240000D03*
%TD*%
%TO.C,J9*%
X147210000Y-74240000D03*
X147210000Y-79740000D03*
X143010000Y-79740000D03*
X143010000Y-74240000D03*
%TD*%
%TO.C,J10*%
X135780000Y-74240000D03*
X135780000Y-79740000D03*
X131580000Y-79740000D03*
X131580000Y-74240000D03*
%TD*%
%TO.C,J11*%
X124350000Y-74240000D03*
X124350000Y-79740000D03*
X120150000Y-79740000D03*
X120150000Y-74240000D03*
%TD*%
D11*
%TO.C,H1*%
X168641320Y-122311320D03*
%TD*%
D12*
%TO.C,J5*%
X148716667Y-76830000D03*
X146176667Y-76830000D03*
X143636667Y-76830000D03*
X141096667Y-76830000D03*
%TD*%
D13*
%TO.C,J3*%
X165740000Y-86130000D03*
D14*
X165740000Y-84130000D03*
X165740000Y-82130000D03*
X167740000Y-86130000D03*
X167740000Y-84130000D03*
X167740000Y-82130000D03*
%TD*%
D11*
%TO.C,H4*%
X110641320Y-72811320D03*
%TD*%
D15*
%TO.C,J2*%
X168210000Y-95330000D03*
X168210000Y-103730000D03*
D16*
X160910000Y-95330000D03*
X160910000Y-99530000D03*
X160910000Y-103730000D03*
X156710000Y-95330000D03*
X156710000Y-99530000D03*
X156710000Y-103730000D03*
%TD*%
D12*
%TO.C,J4*%
X160150000Y-76830000D03*
X157610000Y-76830000D03*
X155070000Y-76830000D03*
X152530000Y-76830000D03*
%TD*%
%TO.C,J6*%
X137283334Y-76830000D03*
X134743334Y-76830000D03*
X132203334Y-76830000D03*
X129663334Y-76830000D03*
%TD*%
D11*
%TO.C,H2*%
X110641320Y-122311320D03*
%TD*%
%TO.C,H3*%
X168641320Y-72811320D03*
%TD*%
D12*
%TO.C,J7*%
X125850000Y-76830000D03*
X123310000Y-76830000D03*
X120770000Y-76830000D03*
X118230000Y-76830000D03*
%TD*%
D17*
%TO.C,J1*%
X163741320Y-123511320D03*
D18*
X163741320Y-120971320D03*
X161201320Y-123511320D03*
X161201320Y-120971320D03*
X158661320Y-123511320D03*
X158661320Y-120971320D03*
X156121320Y-123511320D03*
X156121320Y-120971320D03*
X153581320Y-123511320D03*
X153581320Y-120971320D03*
X151041320Y-123511320D03*
X151041320Y-120971320D03*
X148501320Y-123511320D03*
X148501320Y-120971320D03*
X145961320Y-123511320D03*
X145961320Y-120971320D03*
X143421320Y-123511320D03*
X143421320Y-120971320D03*
X140881320Y-123511320D03*
X140881320Y-120971320D03*
X138341320Y-123511320D03*
X138341320Y-120971320D03*
X135801320Y-123511320D03*
X135801320Y-120971320D03*
X133261320Y-123511320D03*
X133261320Y-120971320D03*
X130721320Y-123511320D03*
X130721320Y-120971320D03*
X128181320Y-123511320D03*
X128181320Y-120971320D03*
X125641320Y-123511320D03*
X125641320Y-120971320D03*
X123101320Y-123511320D03*
X123101320Y-120971320D03*
X120561320Y-123511320D03*
X120561320Y-120971320D03*
X118021320Y-123511320D03*
X118021320Y-120971320D03*
X115481320Y-123511320D03*
X115481320Y-120971320D03*
%TD*%
M02*
