%TF.GenerationSoftware,KiCad,Pcbnew,8.0.1*%
%TF.CreationDate,2024-04-04T15:13:06-04:00*%
%TF.ProjectId,AntHat,416e7448-6174-42e6-9b69-6361645f7063,rev?*%
%TF.SameCoordinates,Original*%
%TF.FileFunction,Copper,L4,Bot*%
%TF.FilePolarity,Positive*%
%FSLAX46Y46*%
G04 Gerber Fmt 4.6, Leading zero omitted, Abs format (unit mm)*
G04 Created by KiCad (PCBNEW 8.0.1) date 2024-04-04 15:13:06*
%MOMM*%
%LPD*%
G01*
G04 APERTURE LIST*
%TA.AperFunction,ComponentPad*%
%ADD10C,2.300000*%
%TD*%
%TA.AperFunction,HeatsinkPad*%
%ADD11C,0.500000*%
%TD*%
%TA.AperFunction,HeatsinkPad*%
%ADD12R,4.400000X1.800000*%
%TD*%
%TA.AperFunction,ComponentPad*%
%ADD13C,1.549400*%
%TD*%
%TA.AperFunction,ComponentPad*%
%ADD14R,1.400000X1.400000*%
%TD*%
%TA.AperFunction,ComponentPad*%
%ADD15C,1.400000*%
%TD*%
%TA.AperFunction,ComponentPad*%
%ADD16C,2.775000*%
%TD*%
%TA.AperFunction,ComponentPad*%
%ADD17R,1.700000X1.700000*%
%TD*%
%TA.AperFunction,ComponentPad*%
%ADD18O,1.700000X1.700000*%
%TD*%
%TA.AperFunction,ViaPad*%
%ADD19C,0.500000*%
%TD*%
%TA.AperFunction,Conductor*%
%ADD20C,0.254000*%
%TD*%
%TA.AperFunction,Conductor*%
%ADD21C,0.508000*%
%TD*%
%TA.AperFunction,Conductor*%
%ADD22C,0.230000*%
%TD*%
%TA.AperFunction,Conductor*%
%ADD23C,0.200000*%
%TD*%
G04 APERTURE END LIST*
D10*
%TO.P,J8,1,Pin_1*%
%TO.N,GND*%
X158640000Y-74240000D03*
%TO.P,J8,2,Pin_2*%
%TO.N,/12V*%
X158640000Y-79740000D03*
%TO.P,J8,3,Pin_3*%
%TO.N,/TACH1*%
X154440000Y-79740000D03*
%TO.P,J8,4,Pin_4*%
%TO.N,/PWM1*%
X154440000Y-74240000D03*
%TD*%
%TO.P,J9,1,Pin_1*%
%TO.N,GND*%
X147210000Y-74240000D03*
%TO.P,J9,2,Pin_2*%
%TO.N,/12V*%
X147210000Y-79740000D03*
%TO.P,J9,3,Pin_3*%
%TO.N,/TACH2*%
X143010000Y-79740000D03*
%TO.P,J9,4,Pin_4*%
%TO.N,/PWM2*%
X143010000Y-74240000D03*
%TD*%
%TO.P,J10,1,Pin_1*%
%TO.N,GND*%
X135780000Y-74240000D03*
%TO.P,J10,2,Pin_2*%
%TO.N,/12V*%
X135780000Y-79740000D03*
%TO.P,J10,3,Pin_3*%
%TO.N,/TACH3*%
X131580000Y-79740000D03*
%TO.P,J10,4,Pin_4*%
%TO.N,/PWM3*%
X131580000Y-74240000D03*
%TD*%
%TO.P,J11,1,Pin_1*%
%TO.N,GND*%
X124350000Y-74240000D03*
%TO.P,J11,2,Pin_2*%
%TO.N,/12V*%
X124350000Y-79740000D03*
%TO.P,J11,3,Pin_3*%
%TO.N,/TACH4*%
X120150000Y-79740000D03*
%TO.P,J11,4,Pin_4*%
%TO.N,/PWM4*%
X120150000Y-74240000D03*
%TD*%
D11*
%TO.P,U1,9,EP*%
%TO.N,GND*%
X142228553Y-100757422D03*
X140928553Y-100757422D03*
X139628553Y-100757422D03*
X138328553Y-100757422D03*
D12*
X140278553Y-101407422D03*
D11*
X142228553Y-102057422D03*
X140928553Y-102057422D03*
X139628553Y-102057422D03*
X138328553Y-102057422D03*
%TD*%
D13*
%TO.P,J5,1,Pin_1*%
%TO.N,GND*%
X148716667Y-76830000D03*
%TO.P,J5,2,Pin_2*%
%TO.N,/12V*%
X146176667Y-76830000D03*
%TO.P,J5,3,Pin_3*%
%TO.N,/TACH2*%
X143636667Y-76830000D03*
%TO.P,J5,4,Pin_4*%
%TO.N,/PWM2*%
X141096667Y-76830000D03*
%TD*%
D14*
%TO.P,J3,1,Pin_1*%
%TO.N,unconnected-(J3-Pin_1-Pad1)*%
X165740000Y-86130000D03*
D15*
%TO.P,J3,2,Pin_2*%
%TO.N,GND*%
X165740000Y-84130000D03*
%TO.P,J3,3,Pin_3*%
%TO.N,/SDA*%
X165740000Y-82130000D03*
%TO.P,J3,4,Pin_4*%
%TO.N,unconnected-(J3-Pin_4-Pad4)*%
X167740000Y-86130000D03*
%TO.P,J3,5,Pin_5*%
%TO.N,/PSU_EN*%
X167740000Y-84130000D03*
%TO.P,J3,6,Pin_6*%
%TO.N,/SCL*%
X167740000Y-82130000D03*
%TD*%
D16*
%TO.P,J2,1,1*%
%TO.N,/VIN*%
X160910000Y-95330000D03*
%TO.P,J2,2,2*%
X160910000Y-99530000D03*
%TO.P,J2,3,3*%
X160910000Y-103730000D03*
%TO.P,J2,4,4*%
%TO.N,GND*%
X156710000Y-95330000D03*
%TO.P,J2,5,5*%
X156710000Y-99530000D03*
%TO.P,J2,6,6*%
X156710000Y-103730000D03*
%TD*%
D13*
%TO.P,J4,1,Pin_1*%
%TO.N,GND*%
X160150000Y-76830000D03*
%TO.P,J4,2,Pin_2*%
%TO.N,/12V*%
X157610000Y-76830000D03*
%TO.P,J4,3,Pin_3*%
%TO.N,/TACH1*%
X155070000Y-76830000D03*
%TO.P,J4,4,Pin_4*%
%TO.N,/PWM1*%
X152530000Y-76830000D03*
%TD*%
%TO.P,J6,1,Pin_1*%
%TO.N,GND*%
X137283334Y-76830000D03*
%TO.P,J6,2,Pin_2*%
%TO.N,/12V*%
X134743334Y-76830000D03*
%TO.P,J6,3,Pin_3*%
%TO.N,/TACH3*%
X132203334Y-76830000D03*
%TO.P,J6,4,Pin_4*%
%TO.N,/PWM3*%
X129663334Y-76830000D03*
%TD*%
%TO.P,J7,1,Pin_1*%
%TO.N,GND*%
X125850000Y-76830000D03*
%TO.P,J7,2,Pin_2*%
%TO.N,/12V*%
X123310000Y-76830000D03*
%TO.P,J7,3,Pin_3*%
%TO.N,/TACH4*%
X120770000Y-76830000D03*
%TO.P,J7,4,Pin_4*%
%TO.N,/PWM4*%
X118230000Y-76830000D03*
%TD*%
D17*
%TO.P,J1,1,3V3*%
%TO.N,/3V3*%
X163741320Y-123511320D03*
D18*
%TO.P,J1,2,5V*%
%TO.N,/5V*%
X163741320Y-120971320D03*
%TO.P,J1,3,SDA/GPIO2*%
%TO.N,/SDA*%
X161201320Y-123511320D03*
%TO.P,J1,4,5V*%
%TO.N,/5V*%
X161201320Y-120971320D03*
%TO.P,J1,5,SCL/GPIO3*%
%TO.N,/SCL*%
X158661320Y-123511320D03*
%TO.P,J1,6,GND*%
%TO.N,GND*%
X158661320Y-120971320D03*
%TO.P,J1,7,GCLK0/GPIO4*%
%TO.N,unconnected-(J1-GCLK0{slash}GPIO4-Pad7)*%
X156121320Y-123511320D03*
%TO.P,J1,8,GPIO14/TXD*%
%TO.N,unconnected-(J1-GPIO14{slash}TXD-Pad8)*%
X156121320Y-120971320D03*
%TO.P,J1,9,GND*%
%TO.N,GND*%
X153581320Y-123511320D03*
%TO.P,J1,10,GPIO15/RXD*%
%TO.N,unconnected-(J1-GPIO15{slash}RXD-Pad10)*%
X153581320Y-120971320D03*
%TO.P,J1,11,GPIO17*%
%TO.N,/PSU_EN*%
X151041320Y-123511320D03*
%TO.P,J1,12,GPIO18/PWM0*%
%TO.N,unconnected-(J1-GPIO18{slash}PWM0-Pad12)*%
X151041320Y-120971320D03*
%TO.P,J1,13,GPIO27*%
%TO.N,unconnected-(J1-GPIO27-Pad13)*%
X148501320Y-123511320D03*
%TO.P,J1,14,GND*%
%TO.N,GND*%
X148501320Y-120971320D03*
%TO.P,J1,15,GPIO22*%
%TO.N,unconnected-(J1-GPIO22-Pad15)*%
X145961320Y-123511320D03*
%TO.P,J1,16,GPIO23*%
%TO.N,unconnected-(J1-GPIO23-Pad16)*%
X145961320Y-120971320D03*
%TO.P,J1,17,3V3*%
%TO.N,/3V3*%
X143421320Y-123511320D03*
%TO.P,J1,18,GPIO24*%
%TO.N,unconnected-(J1-GPIO24-Pad18)*%
X143421320Y-120971320D03*
%TO.P,J1,19,MOSI0/GPIO10*%
%TO.N,unconnected-(J1-MOSI0{slash}GPIO10-Pad19)*%
X140881320Y-123511320D03*
%TO.P,J1,20,GND*%
%TO.N,GND*%
X140881320Y-120971320D03*
%TO.P,J1,21,MISO0/GPIO9*%
%TO.N,unconnected-(J1-MISO0{slash}GPIO9-Pad21)*%
X138341320Y-123511320D03*
%TO.P,J1,22,GPIO25*%
%TO.N,unconnected-(J1-GPIO25-Pad22)*%
X138341320Y-120971320D03*
%TO.P,J1,23,SCLK0/GPIO11*%
%TO.N,unconnected-(J1-SCLK0{slash}GPIO11-Pad23)*%
X135801320Y-123511320D03*
%TO.P,J1,24,~{CE0}/GPIO8*%
%TO.N,unconnected-(J1-~{CE0}{slash}GPIO8-Pad24)*%
X135801320Y-120971320D03*
%TO.P,J1,25,GND*%
%TO.N,GND*%
X133261320Y-123511320D03*
%TO.P,J1,26,~{CE1}/GPIO7*%
%TO.N,unconnected-(J1-~{CE1}{slash}GPIO7-Pad26)*%
X133261320Y-120971320D03*
%TO.P,J1,27,ID_SD/GPIO0*%
%TO.N,unconnected-(J1-ID_SD{slash}GPIO0-Pad27)*%
X130721320Y-123511320D03*
%TO.P,J1,28,ID_SC/GPIO1*%
%TO.N,unconnected-(J1-ID_SC{slash}GPIO1-Pad28)*%
X130721320Y-120971320D03*
%TO.P,J1,29,GCLK1/GPIO5*%
%TO.N,unconnected-(J1-GCLK1{slash}GPIO5-Pad29)*%
X128181320Y-123511320D03*
%TO.P,J1,30,GND*%
%TO.N,GND*%
X128181320Y-120971320D03*
%TO.P,J1,31,GCLK2/GPIO6*%
%TO.N,unconnected-(J1-GCLK2{slash}GPIO6-Pad31)*%
X125641320Y-123511320D03*
%TO.P,J1,32,PWM0/GPIO12*%
%TO.N,unconnected-(J1-PWM0{slash}GPIO12-Pad32)*%
X125641320Y-120971320D03*
%TO.P,J1,33,PWM1/GPIO13*%
%TO.N,unconnected-(J1-PWM1{slash}GPIO13-Pad33)*%
X123101320Y-123511320D03*
%TO.P,J1,34,GND*%
%TO.N,GND*%
X123101320Y-120971320D03*
%TO.P,J1,35,GPIO19/MISO1*%
%TO.N,unconnected-(J1-GPIO19{slash}MISO1-Pad35)*%
X120561320Y-123511320D03*
%TO.P,J1,36,GPIO16*%
%TO.N,/FAN_ALERT*%
X120561320Y-120971320D03*
%TO.P,J1,37,GPIO26*%
%TO.N,unconnected-(J1-GPIO26-Pad37)*%
X118021320Y-123511320D03*
%TO.P,J1,38,GPIO20/MOSI1*%
%TO.N,unconnected-(J1-GPIO20{slash}MOSI1-Pad38)*%
X118021320Y-120971320D03*
%TO.P,J1,39,GND*%
%TO.N,GND*%
X115481320Y-123511320D03*
%TO.P,J1,40,GPIO21/SCLK1*%
%TO.N,unconnected-(J1-GPIO21{slash}SCLK1-Pad40)*%
X115481320Y-120971320D03*
%TD*%
D19*
%TO.N,GND*%
X144910000Y-102570000D03*
X144910000Y-99082500D03*
X150980000Y-89900000D03*
X144910000Y-100245000D03*
X145678553Y-100232422D03*
X145678553Y-99069922D03*
X125180000Y-100540000D03*
X145678553Y-97907422D03*
X119410000Y-105110000D03*
X136590000Y-97000000D03*
X137443553Y-99992422D03*
X144190000Y-101387500D03*
X144190000Y-102550000D03*
X145678553Y-102557422D03*
X144190000Y-100225000D03*
X142830000Y-114120000D03*
X137478553Y-101357422D03*
X137463553Y-102872422D03*
X136540000Y-93539990D03*
X136120000Y-101350000D03*
X136540000Y-95850000D03*
X143078553Y-97897412D03*
X136590000Y-94600000D03*
X144190000Y-97900000D03*
X163140000Y-87660000D03*
X143078553Y-100157422D03*
X143078553Y-101407422D03*
X136790000Y-100730000D03*
X136540000Y-92350000D03*
X143078553Y-102757422D03*
X124370000Y-101380000D03*
X123430000Y-102240000D03*
X144910000Y-97920000D03*
X123430000Y-100530000D03*
X144190000Y-99062500D03*
X145678553Y-101394922D03*
X136750000Y-102100000D03*
X144910000Y-101407500D03*
X125190000Y-102230000D03*
%TO.N,Net-(U1-BST)*%
X143078553Y-109007422D03*
X143290000Y-98720000D03*
%TO.N,/5V*%
X134620000Y-95150000D03*
X136928553Y-107707422D03*
X148250000Y-109480000D03*
X134620000Y-90230000D03*
X134620000Y-92670000D03*
X134620000Y-97540000D03*
X148210000Y-92260000D03*
%TO.N,/3V3*%
X118420000Y-99570000D03*
X121270000Y-93920000D03*
X121270000Y-96400000D03*
X118440000Y-105110000D03*
X133730000Y-105980000D03*
X121270000Y-89020000D03*
X121270000Y-91400000D03*
X121420000Y-101800000D03*
X129980000Y-106000000D03*
%TO.N,/SDA*%
X121220000Y-100410000D03*
%TO.N,/SCL*%
X120630000Y-101090000D03*
X153370000Y-117510000D03*
X153370000Y-119170000D03*
%TO.N,/PSU_EN*%
X152620000Y-117510000D03*
%TO.N,/TACH1*%
X123930000Y-105840000D03*
X131165000Y-90175000D03*
%TO.N,/PWM1*%
X123330000Y-105300000D03*
X130126737Y-90506736D03*
%TO.N,/TACH2*%
X125300000Y-104670000D03*
X129570000Y-91520000D03*
%TO.N,/PWM2*%
X124580000Y-104190000D03*
X129010000Y-92720000D03*
%TO.N,/PWM3*%
X127240000Y-95170000D03*
X127240000Y-102370000D03*
%TO.N,/TACH3*%
X127910000Y-101640000D03*
X127890000Y-93950000D03*
%TO.N,/TACH4*%
X124620000Y-98710000D03*
X124620000Y-96350000D03*
%TO.N,/PWM4*%
X124110000Y-97610000D03*
%TD*%
D20*
%TO.N,Net-(U1-BST)*%
X143663000Y-99093000D02*
X143663000Y-108422975D01*
X143663000Y-108422975D02*
X143078553Y-109007422D01*
X143290000Y-98720000D02*
X143663000Y-99093000D01*
D21*
%TO.N,/5V*%
X135530000Y-88760000D02*
X147350000Y-88760000D01*
D22*
X139478553Y-110257422D02*
X136928553Y-107707422D01*
D21*
X148210000Y-89620000D02*
X148210000Y-92260000D01*
X134620000Y-97540000D02*
X134620000Y-95150000D01*
D22*
X147472578Y-110257422D02*
X139478553Y-110257422D01*
X148250000Y-109480000D02*
X147472578Y-110257422D01*
D21*
X134620000Y-95150000D02*
X134620000Y-92670000D01*
X147350000Y-88760000D02*
X148210000Y-89620000D01*
X134620000Y-90230000D02*
X134620000Y-89670000D01*
X134620000Y-89670000D02*
X135530000Y-88760000D01*
X134620000Y-92670000D02*
X134620000Y-90230000D01*
D23*
%TO.N,/SDA*%
X120820000Y-101607107D02*
X121220000Y-101207107D01*
X159920000Y-122230000D02*
X161201320Y-123511320D01*
X157511600Y-120081600D02*
X157511600Y-121561600D01*
X121220000Y-101207107D02*
X121220000Y-100410000D01*
X154160000Y-118570000D02*
X154160000Y-93030000D01*
X157511600Y-121561600D02*
X158180000Y-122230000D01*
X133680000Y-118590000D02*
X120820000Y-105730000D01*
X154350000Y-118590000D02*
X133680000Y-118590000D01*
X154390000Y-118590000D02*
X156020000Y-118590000D01*
X156020000Y-118590000D02*
X157511600Y-120081600D01*
X158180000Y-122230000D02*
X159920000Y-122230000D01*
X120820000Y-105730000D02*
X120820000Y-101607107D01*
X165060000Y-82130000D02*
X165740000Y-82130000D01*
X154160000Y-93030000D02*
X165060000Y-82130000D01*
%TO.N,/SCL*%
X157210000Y-122060000D02*
X157210000Y-120350000D01*
X157210000Y-120350000D02*
X156030000Y-119170000D01*
X153370000Y-119170000D02*
X133400000Y-119170000D01*
X120310000Y-106080000D02*
X120310000Y-101410000D01*
X158661320Y-123511320D02*
X157210000Y-122060000D01*
X133400000Y-119170000D02*
X120310000Y-106080000D01*
X167050000Y-80900000D02*
X165210000Y-80900000D01*
X153370000Y-92740000D02*
X153370000Y-117510000D01*
X165210000Y-80900000D02*
X153370000Y-92740000D01*
X156030000Y-119170000D02*
X153370000Y-119170000D01*
X120310000Y-101410000D02*
X120630000Y-101090000D01*
X167740000Y-82130000D02*
X167740000Y-81590000D01*
X167740000Y-81590000D02*
X167050000Y-80900000D01*
%TO.N,/PSU_EN*%
X167940000Y-80280000D02*
X169220000Y-81560000D01*
X169220000Y-81560000D02*
X169220000Y-82650000D01*
X152630000Y-117500000D02*
X152630000Y-92580000D01*
X164930000Y-80280000D02*
X167940000Y-80280000D01*
X169220000Y-82650000D02*
X167740000Y-84130000D01*
X152630000Y-92580000D02*
X164930000Y-80280000D01*
X152620000Y-117510000D02*
X152630000Y-117500000D01*
%TO.N,/TACH1*%
X127880000Y-105830000D02*
X130700000Y-103010000D01*
X123930000Y-105840000D02*
X123940000Y-105830000D01*
X130700000Y-103010000D02*
X130700000Y-90640000D01*
X131165000Y-90175000D02*
X138760000Y-82580000D01*
X130700000Y-90640000D02*
X131165000Y-90175000D01*
X151920000Y-79740000D02*
X154440000Y-79740000D01*
X123940000Y-105830000D02*
X127880000Y-105830000D01*
X155070000Y-79110000D02*
X154440000Y-79740000D01*
X155070000Y-76830000D02*
X155070000Y-79110000D01*
X149080000Y-82580000D02*
X151920000Y-79740000D01*
X138760000Y-82580000D02*
X149080000Y-82580000D01*
%TO.N,/PWM1*%
X138533473Y-82100000D02*
X148890000Y-82100000D01*
X127480000Y-105300000D02*
X130126737Y-102653263D01*
X130126737Y-102653263D02*
X130126737Y-90506736D01*
X152530000Y-76830000D02*
X154440000Y-74920000D01*
X123330000Y-105300000D02*
X127480000Y-105300000D01*
X130126737Y-90506736D02*
X138533473Y-82100000D01*
X154440000Y-74920000D02*
X154440000Y-74240000D01*
X148890000Y-82100000D02*
X152530000Y-78460000D01*
X152530000Y-78460000D02*
X152530000Y-76830000D01*
%TO.N,/TACH2*%
X129570000Y-91520000D02*
X129570000Y-90290000D01*
X143490000Y-79260000D02*
X143490000Y-76976667D01*
X125300000Y-104670000D02*
X127160000Y-104670000D01*
X140120000Y-79740000D02*
X143010000Y-79740000D01*
X129570000Y-102260000D02*
X129570000Y-91520000D01*
X129570000Y-90290000D02*
X140120000Y-79740000D01*
X143490000Y-76976667D02*
X143636667Y-76830000D01*
X143010000Y-79740000D02*
X143490000Y-79260000D01*
X127160000Y-104670000D02*
X129570000Y-102260000D01*
%TO.N,/PWM2*%
X129010000Y-101900000D02*
X129010000Y-92720000D01*
X126740000Y-104170000D02*
X129010000Y-101900000D01*
X141096667Y-78013333D02*
X141096667Y-76830000D01*
X124600000Y-104170000D02*
X126740000Y-104170000D01*
X124580000Y-104190000D02*
X124600000Y-104170000D01*
X141096667Y-76830000D02*
X143010000Y-74916667D01*
X129010000Y-90100000D02*
X141096667Y-78013333D01*
X129010000Y-92720000D02*
X129010000Y-90100000D01*
X143010000Y-74916667D02*
X143010000Y-74240000D01*
%TO.N,/PWM3*%
X129663334Y-80816666D02*
X129663334Y-76830000D01*
X127240000Y-83240000D02*
X129663334Y-80816666D01*
X127240000Y-95170000D02*
X127240000Y-83240000D01*
X131580000Y-74913334D02*
X131580000Y-74240000D01*
X127240000Y-102370000D02*
X127240000Y-95170000D01*
X129663334Y-76830000D02*
X131580000Y-74913334D01*
%TO.N,/TACH3*%
X131580000Y-79740000D02*
X131580000Y-79650000D01*
X132203334Y-79026666D02*
X132203334Y-76830000D01*
X127910000Y-101640000D02*
X127890000Y-101620000D01*
X127890000Y-101620000D02*
X127890000Y-93950000D01*
X127890000Y-83430000D02*
X131580000Y-79740000D01*
X127890000Y-93950000D02*
X127890000Y-83430000D01*
X131580000Y-79650000D02*
X132203334Y-79026666D01*
%TO.N,/TACH4*%
X124620000Y-98710000D02*
X124620000Y-96350000D01*
X124620000Y-96350000D02*
X124620000Y-86330000D01*
X120150000Y-77450000D02*
X120770000Y-76830000D01*
X124620000Y-86330000D02*
X120150000Y-81860000D01*
X120150000Y-81860000D02*
X120150000Y-79740000D01*
X120150000Y-79740000D02*
X120150000Y-77450000D01*
%TO.N,/PWM4*%
X118230000Y-76830000D02*
X120150000Y-74910000D01*
X120150000Y-74910000D02*
X120150000Y-74240000D01*
X118230000Y-80710000D02*
X118230000Y-76830000D01*
X124110000Y-97610000D02*
X124110000Y-86590000D01*
X124110000Y-86590000D02*
X118230000Y-80710000D01*
%TD*%
%TA.AperFunction,Conductor*%
%TO.N,GND*%
G36*
X143077621Y-99827424D02*
G01*
X143124114Y-99881080D01*
X143135500Y-99933422D01*
X143135500Y-103081422D01*
X143115498Y-103149543D01*
X143061842Y-103196036D01*
X143009500Y-103207422D01*
X137354553Y-103207422D01*
X137286432Y-103187420D01*
X137239939Y-103133764D01*
X137228553Y-103081422D01*
X137228553Y-99933422D01*
X137248555Y-99865301D01*
X137302211Y-99818808D01*
X137354553Y-99807422D01*
X143009500Y-99807422D01*
X143077621Y-99827424D01*
G37*
%TD.AperFunction*%
%TD*%
M02*
