%TF.GenerationSoftware,KiCad,Pcbnew,8.0.1*%
%TF.CreationDate,2024-04-04T15:13:06-04:00*%
%TF.ProjectId,AntHat,416e7448-6174-42e6-9b69-6361645f7063,rev?*%
%TF.SameCoordinates,Original*%
%TF.FileFunction,Copper,L2,Inr*%
%TF.FilePolarity,Positive*%
%FSLAX46Y46*%
G04 Gerber Fmt 4.6, Leading zero omitted, Abs format (unit mm)*
G04 Created by KiCad (PCBNEW 8.0.1) date 2024-04-04 15:13:06*
%MOMM*%
%LPD*%
G01*
G04 APERTURE LIST*
%TA.AperFunction,ComponentPad*%
%ADD10C,2.300000*%
%TD*%
%TA.AperFunction,HeatsinkPad*%
%ADD11C,0.500000*%
%TD*%
%TA.AperFunction,ComponentPad*%
%ADD12C,1.549400*%
%TD*%
%TA.AperFunction,ComponentPad*%
%ADD13R,1.400000X1.400000*%
%TD*%
%TA.AperFunction,ComponentPad*%
%ADD14C,1.400000*%
%TD*%
%TA.AperFunction,ComponentPad*%
%ADD15C,2.775000*%
%TD*%
%TA.AperFunction,ComponentPad*%
%ADD16R,1.700000X1.700000*%
%TD*%
%TA.AperFunction,ComponentPad*%
%ADD17O,1.700000X1.700000*%
%TD*%
%TA.AperFunction,ViaPad*%
%ADD18C,0.500000*%
%TD*%
G04 APERTURE END LIST*
D10*
%TO.N,GND*%
%TO.C,J8*%
X158640000Y-74240000D03*
%TO.N,/12V*%
X158640000Y-79740000D03*
%TO.N,/TACH1*%
X154440000Y-79740000D03*
%TO.N,/PWM1*%
X154440000Y-74240000D03*
%TD*%
%TO.N,GND*%
%TO.C,J9*%
X147210000Y-74240000D03*
%TO.N,/12V*%
X147210000Y-79740000D03*
%TO.N,/TACH2*%
X143010000Y-79740000D03*
%TO.N,/PWM2*%
X143010000Y-74240000D03*
%TD*%
%TO.N,GND*%
%TO.C,J10*%
X135780000Y-74240000D03*
%TO.N,/12V*%
X135780000Y-79740000D03*
%TO.N,/TACH3*%
X131580000Y-79740000D03*
%TO.N,/PWM3*%
X131580000Y-74240000D03*
%TD*%
%TO.N,GND*%
%TO.C,J11*%
X124350000Y-74240000D03*
%TO.N,/12V*%
X124350000Y-79740000D03*
%TO.N,/TACH4*%
X120150000Y-79740000D03*
%TO.N,/PWM4*%
X120150000Y-74240000D03*
%TD*%
D11*
%TO.N,GND*%
%TO.C,U1*%
X142228553Y-100757422D03*
X140928553Y-100757422D03*
X139628553Y-100757422D03*
X138328553Y-100757422D03*
X142228553Y-102057422D03*
X140928553Y-102057422D03*
X139628553Y-102057422D03*
X138328553Y-102057422D03*
%TD*%
D12*
%TO.N,GND*%
%TO.C,J5*%
X148716667Y-76830000D03*
%TO.N,/12V*%
X146176667Y-76830000D03*
%TO.N,/TACH2*%
X143636667Y-76830000D03*
%TO.N,/PWM2*%
X141096667Y-76830000D03*
%TD*%
D13*
%TO.N,unconnected-(J3-Pin_1-Pad1)*%
%TO.C,J3*%
X165740000Y-86130000D03*
D14*
%TO.N,GND*%
X165740000Y-84130000D03*
%TO.N,/SDA*%
X165740000Y-82130000D03*
%TO.N,unconnected-(J3-Pin_4-Pad4)*%
X167740000Y-86130000D03*
%TO.N,/PSU_EN*%
X167740000Y-84130000D03*
%TO.N,/SCL*%
X167740000Y-82130000D03*
%TD*%
D15*
%TO.N,/VIN*%
%TO.C,J2*%
X160910000Y-95330000D03*
X160910000Y-99530000D03*
X160910000Y-103730000D03*
%TO.N,GND*%
X156710000Y-95330000D03*
X156710000Y-99530000D03*
X156710000Y-103730000D03*
%TD*%
D12*
%TO.N,GND*%
%TO.C,J4*%
X160150000Y-76830000D03*
%TO.N,/12V*%
X157610000Y-76830000D03*
%TO.N,/TACH1*%
X155070000Y-76830000D03*
%TO.N,/PWM1*%
X152530000Y-76830000D03*
%TD*%
%TO.N,GND*%
%TO.C,J6*%
X137283334Y-76830000D03*
%TO.N,/12V*%
X134743334Y-76830000D03*
%TO.N,/TACH3*%
X132203334Y-76830000D03*
%TO.N,/PWM3*%
X129663334Y-76830000D03*
%TD*%
%TO.N,GND*%
%TO.C,J7*%
X125850000Y-76830000D03*
%TO.N,/12V*%
X123310000Y-76830000D03*
%TO.N,/TACH4*%
X120770000Y-76830000D03*
%TO.N,/PWM4*%
X118230000Y-76830000D03*
%TD*%
D16*
%TO.N,/3V3*%
%TO.C,J1*%
X163741320Y-123511320D03*
D17*
%TO.N,/5V*%
X163741320Y-120971320D03*
%TO.N,/SDA*%
X161201320Y-123511320D03*
%TO.N,/5V*%
X161201320Y-120971320D03*
%TO.N,/SCL*%
X158661320Y-123511320D03*
%TO.N,GND*%
X158661320Y-120971320D03*
%TO.N,unconnected-(J1-GCLK0{slash}GPIO4-Pad7)*%
X156121320Y-123511320D03*
%TO.N,unconnected-(J1-GPIO14{slash}TXD-Pad8)*%
X156121320Y-120971320D03*
%TO.N,GND*%
X153581320Y-123511320D03*
%TO.N,unconnected-(J1-GPIO15{slash}RXD-Pad10)*%
X153581320Y-120971320D03*
%TO.N,/PSU_EN*%
X151041320Y-123511320D03*
%TO.N,unconnected-(J1-GPIO18{slash}PWM0-Pad12)*%
X151041320Y-120971320D03*
%TO.N,unconnected-(J1-GPIO27-Pad13)*%
X148501320Y-123511320D03*
%TO.N,GND*%
X148501320Y-120971320D03*
%TO.N,unconnected-(J1-GPIO22-Pad15)*%
X145961320Y-123511320D03*
%TO.N,unconnected-(J1-GPIO23-Pad16)*%
X145961320Y-120971320D03*
%TO.N,/3V3*%
X143421320Y-123511320D03*
%TO.N,unconnected-(J1-GPIO24-Pad18)*%
X143421320Y-120971320D03*
%TO.N,unconnected-(J1-MOSI0{slash}GPIO10-Pad19)*%
X140881320Y-123511320D03*
%TO.N,GND*%
X140881320Y-120971320D03*
%TO.N,unconnected-(J1-MISO0{slash}GPIO9-Pad21)*%
X138341320Y-123511320D03*
%TO.N,unconnected-(J1-GPIO25-Pad22)*%
X138341320Y-120971320D03*
%TO.N,unconnected-(J1-SCLK0{slash}GPIO11-Pad23)*%
X135801320Y-123511320D03*
%TO.N,unconnected-(J1-~{CE0}{slash}GPIO8-Pad24)*%
X135801320Y-120971320D03*
%TO.N,GND*%
X133261320Y-123511320D03*
%TO.N,unconnected-(J1-~{CE1}{slash}GPIO7-Pad26)*%
X133261320Y-120971320D03*
%TO.N,unconnected-(J1-ID_SD{slash}GPIO0-Pad27)*%
X130721320Y-123511320D03*
%TO.N,unconnected-(J1-ID_SC{slash}GPIO1-Pad28)*%
X130721320Y-120971320D03*
%TO.N,unconnected-(J1-GCLK1{slash}GPIO5-Pad29)*%
X128181320Y-123511320D03*
%TO.N,GND*%
X128181320Y-120971320D03*
%TO.N,unconnected-(J1-GCLK2{slash}GPIO6-Pad31)*%
X125641320Y-123511320D03*
%TO.N,unconnected-(J1-PWM0{slash}GPIO12-Pad32)*%
X125641320Y-120971320D03*
%TO.N,unconnected-(J1-PWM1{slash}GPIO13-Pad33)*%
X123101320Y-123511320D03*
%TO.N,GND*%
X123101320Y-120971320D03*
%TO.N,unconnected-(J1-GPIO19{slash}MISO1-Pad35)*%
X120561320Y-123511320D03*
%TO.N,/FAN_ALERT*%
X120561320Y-120971320D03*
%TO.N,unconnected-(J1-GPIO26-Pad37)*%
X118021320Y-123511320D03*
%TO.N,unconnected-(J1-GPIO20{slash}MOSI1-Pad38)*%
X118021320Y-120971320D03*
%TO.N,GND*%
X115481320Y-123511320D03*
%TO.N,unconnected-(J1-GPIO21{slash}SCLK1-Pad40)*%
X115481320Y-120971320D03*
%TD*%
D18*
%TO.N,GND*%
X144910000Y-102570000D03*
X144910000Y-99082500D03*
X150980000Y-89900000D03*
X144910000Y-100245000D03*
X145678553Y-100232422D03*
X145678553Y-99069922D03*
X125180000Y-100540000D03*
X145678553Y-97907422D03*
X119410000Y-105110000D03*
X136590000Y-97000000D03*
X137443553Y-99992422D03*
X144190000Y-101387500D03*
X144190000Y-102550000D03*
X145678553Y-102557422D03*
X144190000Y-100225000D03*
X142830000Y-114120000D03*
X137478553Y-101357422D03*
X137463553Y-102872422D03*
X136540000Y-93539990D03*
X136120000Y-101350000D03*
X136540000Y-95850000D03*
X143078553Y-97897412D03*
X136590000Y-94600000D03*
X144190000Y-97900000D03*
X163140000Y-87660000D03*
X143078553Y-100157422D03*
X143078553Y-101407422D03*
X136790000Y-100730000D03*
X136540000Y-92350000D03*
X143078553Y-102757422D03*
X124370000Y-101380000D03*
X123430000Y-102240000D03*
X144910000Y-97920000D03*
X123430000Y-100530000D03*
X144190000Y-99062500D03*
X145678553Y-101394922D03*
X136750000Y-102100000D03*
X144910000Y-101407500D03*
X125190000Y-102230000D03*
%TO.N,Net-(U1-BST)*%
X143078553Y-109007422D03*
X143290000Y-98720000D03*
%TO.N,/5V*%
X134620000Y-95150000D03*
X136928553Y-107707422D03*
X148250000Y-109480000D03*
X134620000Y-90230000D03*
X134620000Y-92670000D03*
X134620000Y-97540000D03*
X148210000Y-92260000D03*
%TO.N,/3V3*%
X118420000Y-99570000D03*
X121270000Y-93920000D03*
X121270000Y-96400000D03*
X118440000Y-105110000D03*
X133730000Y-105980000D03*
X121270000Y-89020000D03*
X121270000Y-91400000D03*
X121420000Y-101800000D03*
X129980000Y-106000000D03*
%TO.N,/SDA*%
X121220000Y-100410000D03*
%TO.N,/SCL*%
X120630000Y-101090000D03*
X153370000Y-117510000D03*
X153370000Y-119170000D03*
%TO.N,/PSU_EN*%
X152620000Y-117510000D03*
%TO.N,/TACH1*%
X123930000Y-105840000D03*
X131165000Y-90175000D03*
%TO.N,/PWM1*%
X123330000Y-105300000D03*
X130126737Y-90506736D03*
%TO.N,/TACH2*%
X125300000Y-104670000D03*
X129570000Y-91520000D03*
%TO.N,/PWM2*%
X124580000Y-104190000D03*
X129010000Y-92720000D03*
%TO.N,/PWM3*%
X127240000Y-95170000D03*
X127240000Y-102370000D03*
%TO.N,/TACH3*%
X127910000Y-101640000D03*
X127890000Y-93950000D03*
%TO.N,/TACH4*%
X124620000Y-98710000D03*
X124620000Y-96350000D03*
%TO.N,/PWM4*%
X124110000Y-97610000D03*
%TD*%
%TA.AperFunction,Conductor*%
%TO.N,GND*%
G36*
X168660840Y-69300010D02*
G01*
X168837619Y-69302323D01*
X168848938Y-69302990D01*
X169201445Y-69340040D01*
X169214252Y-69342070D01*
X169560130Y-69415588D01*
X169572665Y-69418947D01*
X169908965Y-69528218D01*
X169921082Y-69532869D01*
X170244131Y-69676698D01*
X170255679Y-69682583D01*
X170457633Y-69799181D01*
X170561918Y-69859390D01*
X170572800Y-69866457D01*
X170858877Y-70074304D01*
X170868957Y-70082466D01*
X171131742Y-70319079D01*
X171140920Y-70328257D01*
X171377530Y-70591039D01*
X171385698Y-70601126D01*
X171593540Y-70887196D01*
X171600609Y-70898081D01*
X171777412Y-71204312D01*
X171783305Y-71215877D01*
X171927130Y-71538917D01*
X171931781Y-71551034D01*
X172041052Y-71887334D01*
X172044411Y-71899871D01*
X172117928Y-72245741D01*
X172119959Y-72258560D01*
X172157008Y-72611051D01*
X172157676Y-72622391D01*
X172159989Y-72799159D01*
X172160000Y-72800781D01*
X172160000Y-122299218D01*
X172159989Y-122300840D01*
X172157676Y-122477608D01*
X172157008Y-122488948D01*
X172119959Y-122841439D01*
X172117928Y-122854258D01*
X172044411Y-123200128D01*
X172041052Y-123212665D01*
X171931781Y-123548965D01*
X171927130Y-123561082D01*
X171783305Y-123884122D01*
X171777412Y-123895687D01*
X171600609Y-124201918D01*
X171593540Y-124212803D01*
X171385698Y-124498873D01*
X171377530Y-124508960D01*
X171140920Y-124771742D01*
X171131742Y-124780920D01*
X170868960Y-125017530D01*
X170858873Y-125025698D01*
X170572803Y-125233540D01*
X170561918Y-125240609D01*
X170255687Y-125417412D01*
X170244122Y-125423305D01*
X169921082Y-125567130D01*
X169908965Y-125571781D01*
X169572665Y-125681052D01*
X169560128Y-125684411D01*
X169214258Y-125757928D01*
X169201439Y-125759959D01*
X168848948Y-125797008D01*
X168837608Y-125797676D01*
X168660841Y-125799989D01*
X168659219Y-125800000D01*
X110640781Y-125800000D01*
X110639159Y-125799989D01*
X110462391Y-125797676D01*
X110451051Y-125797008D01*
X110098560Y-125759959D01*
X110085741Y-125757928D01*
X109739871Y-125684411D01*
X109727334Y-125681052D01*
X109391034Y-125571781D01*
X109378917Y-125567130D01*
X109055877Y-125423305D01*
X109044312Y-125417412D01*
X108738081Y-125240609D01*
X108727196Y-125233540D01*
X108441126Y-125025698D01*
X108431039Y-125017530D01*
X108168257Y-124780920D01*
X108159079Y-124771742D01*
X107922469Y-124508960D01*
X107914301Y-124498873D01*
X107884830Y-124458310D01*
X107706457Y-124212800D01*
X107699390Y-124201918D01*
X107625972Y-124074754D01*
X107522583Y-123895679D01*
X107516698Y-123884131D01*
X107372869Y-123561082D01*
X107368218Y-123548965D01*
X107258947Y-123212665D01*
X107255588Y-123200128D01*
X107206001Y-122966840D01*
X107182070Y-122854252D01*
X107180040Y-122841439D01*
X107178113Y-122823102D01*
X107142990Y-122488938D01*
X107142619Y-122482638D01*
X107590820Y-122482638D01*
X107629178Y-122823088D01*
X107629180Y-122823100D01*
X107629181Y-122823103D01*
X107645186Y-122893223D01*
X107705422Y-123157136D01*
X107705423Y-123157138D01*
X107818584Y-123480536D01*
X107967242Y-123789227D01*
X107967244Y-123789230D01*
X108149531Y-124079338D01*
X108247285Y-124201918D01*
X108330237Y-124305937D01*
X108363154Y-124347213D01*
X108605427Y-124589486D01*
X108873302Y-124803109D01*
X109163410Y-124985396D01*
X109472105Y-125134056D01*
X109795503Y-125247217D01*
X110129537Y-125323459D01*
X110129546Y-125323460D01*
X110129551Y-125323461D01*
X110356517Y-125349033D01*
X110470002Y-125361819D01*
X110470005Y-125361820D01*
X110470008Y-125361820D01*
X110812635Y-125361820D01*
X110812636Y-125361819D01*
X110986631Y-125342215D01*
X111153088Y-125323461D01*
X111153091Y-125323460D01*
X111153103Y-125323459D01*
X111487137Y-125247217D01*
X111810535Y-125134056D01*
X112119230Y-124985396D01*
X112409338Y-124803109D01*
X112677213Y-124589486D01*
X112919486Y-124347213D01*
X113133109Y-124079338D01*
X113315396Y-123789230D01*
X113464056Y-123480535D01*
X113577217Y-123157137D01*
X113653459Y-122823103D01*
X113691820Y-122482632D01*
X113691820Y-122140008D01*
X113653459Y-121799537D01*
X113577217Y-121465503D01*
X113464056Y-121142105D01*
X113381810Y-120971320D01*
X114245116Y-120971320D01*
X114263896Y-121185980D01*
X114263898Y-121185990D01*
X114319665Y-121394119D01*
X114319667Y-121394123D01*
X114319668Y-121394127D01*
X114352951Y-121465503D01*
X114410735Y-121589421D01*
X114410736Y-121589423D01*
X114534329Y-121765932D01*
X114534334Y-121765938D01*
X114686701Y-121918305D01*
X114686707Y-121918310D01*
X114863216Y-122041903D01*
X114863218Y-122041904D01*
X115058513Y-122132972D01*
X115058519Y-122132973D01*
X115058520Y-122132974D01*
X115084746Y-122140001D01*
X115266655Y-122188743D01*
X115438387Y-122203767D01*
X115481319Y-122207524D01*
X115481320Y-122207524D01*
X115481321Y-122207524D01*
X115517097Y-122204393D01*
X115695985Y-122188743D01*
X115904127Y-122132972D01*
X116099422Y-122041904D01*
X116275937Y-121918307D01*
X116428307Y-121765937D01*
X116551904Y-121589422D01*
X116638938Y-121402775D01*
X116685110Y-121350338D01*
X116752304Y-121331186D01*
X116819185Y-121351402D01*
X116863701Y-121402775D01*
X116892951Y-121465503D01*
X116950735Y-121589421D01*
X116950736Y-121589423D01*
X117074329Y-121765932D01*
X117074334Y-121765938D01*
X117226701Y-121918305D01*
X117226707Y-121918310D01*
X117403216Y-122041903D01*
X117403218Y-122041904D01*
X117589862Y-122128938D01*
X117642301Y-122175110D01*
X117661453Y-122242304D01*
X117641237Y-122309185D01*
X117589862Y-122353702D01*
X117403218Y-122440735D01*
X117403216Y-122440736D01*
X117226707Y-122564329D01*
X117226701Y-122564334D01*
X117074334Y-122716701D01*
X117074329Y-122716707D01*
X116950736Y-122893216D01*
X116950735Y-122893218D01*
X116859669Y-123088511D01*
X116859665Y-123088520D01*
X116803898Y-123296649D01*
X116803896Y-123296659D01*
X116785116Y-123511319D01*
X116785116Y-123511320D01*
X116803896Y-123725980D01*
X116803898Y-123725990D01*
X116859665Y-123934119D01*
X116859667Y-123934123D01*
X116859668Y-123934127D01*
X116863702Y-123942777D01*
X116950735Y-124129421D01*
X116950736Y-124129423D01*
X117074329Y-124305932D01*
X117074334Y-124305938D01*
X117226701Y-124458305D01*
X117226707Y-124458310D01*
X117403216Y-124581903D01*
X117403218Y-124581904D01*
X117598513Y-124672972D01*
X117806655Y-124728743D01*
X117967554Y-124742820D01*
X118021319Y-124747524D01*
X118021320Y-124747524D01*
X118021321Y-124747524D01*
X118075086Y-124742820D01*
X118235985Y-124728743D01*
X118444127Y-124672972D01*
X118639422Y-124581904D01*
X118815937Y-124458307D01*
X118968307Y-124305937D01*
X119091904Y-124129422D01*
X119178938Y-123942775D01*
X119225110Y-123890338D01*
X119292304Y-123871186D01*
X119359185Y-123891402D01*
X119403702Y-123942777D01*
X119490735Y-124129421D01*
X119490736Y-124129423D01*
X119614329Y-124305932D01*
X119614334Y-124305938D01*
X119766701Y-124458305D01*
X119766707Y-124458310D01*
X119943216Y-124581903D01*
X119943218Y-124581904D01*
X120138513Y-124672972D01*
X120346655Y-124728743D01*
X120507554Y-124742820D01*
X120561319Y-124747524D01*
X120561320Y-124747524D01*
X120561321Y-124747524D01*
X120615086Y-124742820D01*
X120775985Y-124728743D01*
X120984127Y-124672972D01*
X121179422Y-124581904D01*
X121355937Y-124458307D01*
X121508307Y-124305937D01*
X121631904Y-124129422D01*
X121718938Y-123942775D01*
X121765110Y-123890338D01*
X121832304Y-123871186D01*
X121899185Y-123891402D01*
X121943702Y-123942777D01*
X122030735Y-124129421D01*
X122030736Y-124129423D01*
X122154329Y-124305932D01*
X122154334Y-124305938D01*
X122306701Y-124458305D01*
X122306707Y-124458310D01*
X122483216Y-124581903D01*
X122483218Y-124581904D01*
X122678513Y-124672972D01*
X122886655Y-124728743D01*
X123047554Y-124742820D01*
X123101319Y-124747524D01*
X123101320Y-124747524D01*
X123101321Y-124747524D01*
X123155086Y-124742820D01*
X123315985Y-124728743D01*
X123524127Y-124672972D01*
X123719422Y-124581904D01*
X123895937Y-124458307D01*
X124048307Y-124305937D01*
X124171904Y-124129422D01*
X124258938Y-123942775D01*
X124305110Y-123890338D01*
X124372304Y-123871186D01*
X124439185Y-123891402D01*
X124483702Y-123942777D01*
X124570735Y-124129421D01*
X124570736Y-124129423D01*
X124694329Y-124305932D01*
X124694334Y-124305938D01*
X124846701Y-124458305D01*
X124846707Y-124458310D01*
X125023216Y-124581903D01*
X125023218Y-124581904D01*
X125218513Y-124672972D01*
X125426655Y-124728743D01*
X125587554Y-124742820D01*
X125641319Y-124747524D01*
X125641320Y-124747524D01*
X125641321Y-124747524D01*
X125695086Y-124742820D01*
X125855985Y-124728743D01*
X126064127Y-124672972D01*
X126259422Y-124581904D01*
X126435937Y-124458307D01*
X126588307Y-124305937D01*
X126711904Y-124129422D01*
X126798938Y-123942775D01*
X126845110Y-123890338D01*
X126912304Y-123871186D01*
X126979185Y-123891402D01*
X127023702Y-123942777D01*
X127110735Y-124129421D01*
X127110736Y-124129423D01*
X127234329Y-124305932D01*
X127234334Y-124305938D01*
X127386701Y-124458305D01*
X127386707Y-124458310D01*
X127563216Y-124581903D01*
X127563218Y-124581904D01*
X127758513Y-124672972D01*
X127966655Y-124728743D01*
X128127554Y-124742820D01*
X128181319Y-124747524D01*
X128181320Y-124747524D01*
X128181321Y-124747524D01*
X128235086Y-124742820D01*
X128395985Y-124728743D01*
X128604127Y-124672972D01*
X128799422Y-124581904D01*
X128975937Y-124458307D01*
X129128307Y-124305937D01*
X129251904Y-124129422D01*
X129338938Y-123942775D01*
X129385110Y-123890338D01*
X129452304Y-123871186D01*
X129519185Y-123891402D01*
X129563702Y-123942777D01*
X129650735Y-124129421D01*
X129650736Y-124129423D01*
X129774329Y-124305932D01*
X129774334Y-124305938D01*
X129926701Y-124458305D01*
X129926707Y-124458310D01*
X130103216Y-124581903D01*
X130103218Y-124581904D01*
X130298513Y-124672972D01*
X130506655Y-124728743D01*
X130667554Y-124742820D01*
X130721319Y-124747524D01*
X130721320Y-124747524D01*
X130721321Y-124747524D01*
X130775086Y-124742820D01*
X130935985Y-124728743D01*
X131144127Y-124672972D01*
X131339422Y-124581904D01*
X131515937Y-124458307D01*
X131668307Y-124305937D01*
X131791904Y-124129422D01*
X131882972Y-123934127D01*
X131938743Y-123725985D01*
X131957524Y-123511320D01*
X131938743Y-123296655D01*
X131882972Y-123088513D01*
X131791904Y-122893218D01*
X131742808Y-122823102D01*
X131668310Y-122716707D01*
X131668305Y-122716701D01*
X131515938Y-122564334D01*
X131515932Y-122564329D01*
X131339423Y-122440736D01*
X131339421Y-122440735D01*
X131234865Y-122391980D01*
X131152775Y-122353701D01*
X131100338Y-122307530D01*
X131081186Y-122240336D01*
X131101402Y-122173455D01*
X131152775Y-122128938D01*
X131339422Y-122041904D01*
X131515937Y-121918307D01*
X131668307Y-121765937D01*
X131791904Y-121589422D01*
X131878938Y-121402775D01*
X131925110Y-121350338D01*
X131992304Y-121331186D01*
X132059185Y-121351402D01*
X132103701Y-121402775D01*
X132132951Y-121465503D01*
X132190735Y-121589421D01*
X132190736Y-121589423D01*
X132314329Y-121765932D01*
X132314334Y-121765938D01*
X132466701Y-121918305D01*
X132466707Y-121918310D01*
X132643216Y-122041903D01*
X132643218Y-122041904D01*
X132838513Y-122132972D01*
X132838519Y-122132973D01*
X132838520Y-122132974D01*
X132864746Y-122140001D01*
X133046655Y-122188743D01*
X133218387Y-122203767D01*
X133261319Y-122207524D01*
X133261320Y-122207524D01*
X133261321Y-122207524D01*
X133297097Y-122204393D01*
X133475985Y-122188743D01*
X133684127Y-122132972D01*
X133879422Y-122041904D01*
X134055937Y-121918307D01*
X134208307Y-121765937D01*
X134331904Y-121589422D01*
X134418938Y-121402775D01*
X134465110Y-121350338D01*
X134532304Y-121331186D01*
X134599185Y-121351402D01*
X134643701Y-121402775D01*
X134672951Y-121465503D01*
X134730735Y-121589421D01*
X134730736Y-121589423D01*
X134854329Y-121765932D01*
X134854334Y-121765938D01*
X135006701Y-121918305D01*
X135006707Y-121918310D01*
X135183216Y-122041903D01*
X135183218Y-122041904D01*
X135369862Y-122128938D01*
X135422301Y-122175110D01*
X135441453Y-122242304D01*
X135421237Y-122309185D01*
X135369862Y-122353702D01*
X135183218Y-122440735D01*
X135183216Y-122440736D01*
X135006707Y-122564329D01*
X135006701Y-122564334D01*
X134854334Y-122716701D01*
X134854329Y-122716707D01*
X134730736Y-122893216D01*
X134730735Y-122893218D01*
X134639669Y-123088511D01*
X134639665Y-123088520D01*
X134583898Y-123296649D01*
X134583896Y-123296659D01*
X134565116Y-123511319D01*
X134565116Y-123511320D01*
X134583896Y-123725980D01*
X134583898Y-123725990D01*
X134639665Y-123934119D01*
X134639667Y-123934123D01*
X134639668Y-123934127D01*
X134643702Y-123942777D01*
X134730735Y-124129421D01*
X134730736Y-124129423D01*
X134854329Y-124305932D01*
X134854334Y-124305938D01*
X135006701Y-124458305D01*
X135006707Y-124458310D01*
X135183216Y-124581903D01*
X135183218Y-124581904D01*
X135378513Y-124672972D01*
X135586655Y-124728743D01*
X135747554Y-124742820D01*
X135801319Y-124747524D01*
X135801320Y-124747524D01*
X135801321Y-124747524D01*
X135855086Y-124742820D01*
X136015985Y-124728743D01*
X136224127Y-124672972D01*
X136419422Y-124581904D01*
X136595937Y-124458307D01*
X136748307Y-124305937D01*
X136871904Y-124129422D01*
X136958938Y-123942775D01*
X137005110Y-123890338D01*
X137072304Y-123871186D01*
X137139185Y-123891402D01*
X137183702Y-123942777D01*
X137270735Y-124129421D01*
X137270736Y-124129423D01*
X137394329Y-124305932D01*
X137394334Y-124305938D01*
X137546701Y-124458305D01*
X137546707Y-124458310D01*
X137723216Y-124581903D01*
X137723218Y-124581904D01*
X137918513Y-124672972D01*
X138126655Y-124728743D01*
X138287554Y-124742820D01*
X138341319Y-124747524D01*
X138341320Y-124747524D01*
X138341321Y-124747524D01*
X138395086Y-124742820D01*
X138555985Y-124728743D01*
X138764127Y-124672972D01*
X138959422Y-124581904D01*
X139135937Y-124458307D01*
X139288307Y-124305937D01*
X139411904Y-124129422D01*
X139498938Y-123942775D01*
X139545110Y-123890338D01*
X139612304Y-123871186D01*
X139679185Y-123891402D01*
X139723702Y-123942777D01*
X139810735Y-124129421D01*
X139810736Y-124129423D01*
X139934329Y-124305932D01*
X139934334Y-124305938D01*
X140086701Y-124458305D01*
X140086707Y-124458310D01*
X140263216Y-124581903D01*
X140263218Y-124581904D01*
X140458513Y-124672972D01*
X140666655Y-124728743D01*
X140827554Y-124742820D01*
X140881319Y-124747524D01*
X140881320Y-124747524D01*
X140881321Y-124747524D01*
X140935086Y-124742820D01*
X141095985Y-124728743D01*
X141304127Y-124672972D01*
X141499422Y-124581904D01*
X141675937Y-124458307D01*
X141828307Y-124305937D01*
X141951904Y-124129422D01*
X142038938Y-123942775D01*
X142085110Y-123890338D01*
X142152304Y-123871186D01*
X142219185Y-123891402D01*
X142263702Y-123942777D01*
X142350735Y-124129421D01*
X142350736Y-124129423D01*
X142474329Y-124305932D01*
X142474334Y-124305938D01*
X142626701Y-124458305D01*
X142626707Y-124458310D01*
X142803216Y-124581903D01*
X142803218Y-124581904D01*
X142998513Y-124672972D01*
X143206655Y-124728743D01*
X143367554Y-124742820D01*
X143421319Y-124747524D01*
X143421320Y-124747524D01*
X143421321Y-124747524D01*
X143475086Y-124742820D01*
X143635985Y-124728743D01*
X143844127Y-124672972D01*
X144039422Y-124581904D01*
X144215937Y-124458307D01*
X144368307Y-124305937D01*
X144491904Y-124129422D01*
X144578938Y-123942775D01*
X144625110Y-123890338D01*
X144692304Y-123871186D01*
X144759185Y-123891402D01*
X144803702Y-123942777D01*
X144890735Y-124129421D01*
X144890736Y-124129423D01*
X145014329Y-124305932D01*
X145014334Y-124305938D01*
X145166701Y-124458305D01*
X145166707Y-124458310D01*
X145343216Y-124581903D01*
X145343218Y-124581904D01*
X145538513Y-124672972D01*
X145746655Y-124728743D01*
X145907554Y-124742820D01*
X145961319Y-124747524D01*
X145961320Y-124747524D01*
X145961321Y-124747524D01*
X146015086Y-124742820D01*
X146175985Y-124728743D01*
X146384127Y-124672972D01*
X146579422Y-124581904D01*
X146755937Y-124458307D01*
X146908307Y-124305937D01*
X147031904Y-124129422D01*
X147118938Y-123942775D01*
X147165110Y-123890338D01*
X147232304Y-123871186D01*
X147299185Y-123891402D01*
X147343702Y-123942777D01*
X147430735Y-124129421D01*
X147430736Y-124129423D01*
X147554329Y-124305932D01*
X147554334Y-124305938D01*
X147706701Y-124458305D01*
X147706707Y-124458310D01*
X147883216Y-124581903D01*
X147883218Y-124581904D01*
X148078513Y-124672972D01*
X148286655Y-124728743D01*
X148447554Y-124742820D01*
X148501319Y-124747524D01*
X148501320Y-124747524D01*
X148501321Y-124747524D01*
X148555086Y-124742820D01*
X148715985Y-124728743D01*
X148924127Y-124672972D01*
X149119422Y-124581904D01*
X149295937Y-124458307D01*
X149448307Y-124305937D01*
X149571904Y-124129422D01*
X149658938Y-123942775D01*
X149705110Y-123890338D01*
X149772304Y-123871186D01*
X149839185Y-123891402D01*
X149883702Y-123942777D01*
X149970735Y-124129421D01*
X149970736Y-124129423D01*
X150094329Y-124305932D01*
X150094334Y-124305938D01*
X150246701Y-124458305D01*
X150246707Y-124458310D01*
X150423216Y-124581903D01*
X150423218Y-124581904D01*
X150618513Y-124672972D01*
X150826655Y-124728743D01*
X150987554Y-124742820D01*
X151041319Y-124747524D01*
X151041320Y-124747524D01*
X151041321Y-124747524D01*
X151095086Y-124742820D01*
X151255985Y-124728743D01*
X151464127Y-124672972D01*
X151659422Y-124581904D01*
X151835937Y-124458307D01*
X151988307Y-124305937D01*
X152111904Y-124129422D01*
X152202972Y-123934127D01*
X152258743Y-123725985D01*
X152277524Y-123511320D01*
X152258743Y-123296655D01*
X152202972Y-123088513D01*
X152111904Y-122893218D01*
X152062808Y-122823102D01*
X151988310Y-122716707D01*
X151988305Y-122716701D01*
X151835938Y-122564334D01*
X151835932Y-122564329D01*
X151659423Y-122440736D01*
X151659421Y-122440735D01*
X151554865Y-122391980D01*
X151472775Y-122353701D01*
X151420338Y-122307530D01*
X151401186Y-122240336D01*
X151421402Y-122173455D01*
X151472775Y-122128938D01*
X151659422Y-122041904D01*
X151835937Y-121918307D01*
X151988307Y-121765937D01*
X152111904Y-121589422D01*
X152198938Y-121402775D01*
X152245110Y-121350338D01*
X152312304Y-121331186D01*
X152379185Y-121351402D01*
X152423701Y-121402775D01*
X152452951Y-121465503D01*
X152510735Y-121589421D01*
X152510736Y-121589423D01*
X152634329Y-121765932D01*
X152634334Y-121765938D01*
X152786701Y-121918305D01*
X152786707Y-121918310D01*
X152963216Y-122041903D01*
X152963218Y-122041904D01*
X153158513Y-122132972D01*
X153158519Y-122132973D01*
X153158520Y-122132974D01*
X153184746Y-122140001D01*
X153366655Y-122188743D01*
X153538387Y-122203767D01*
X153581319Y-122207524D01*
X153581320Y-122207524D01*
X153581321Y-122207524D01*
X153617097Y-122204393D01*
X153795985Y-122188743D01*
X154004127Y-122132972D01*
X154199422Y-122041904D01*
X154375937Y-121918307D01*
X154528307Y-121765937D01*
X154651904Y-121589422D01*
X154738938Y-121402775D01*
X154785110Y-121350338D01*
X154852304Y-121331186D01*
X154919185Y-121351402D01*
X154963701Y-121402775D01*
X154992951Y-121465503D01*
X155050735Y-121589421D01*
X155050736Y-121589423D01*
X155174329Y-121765932D01*
X155174334Y-121765938D01*
X155326701Y-121918305D01*
X155326707Y-121918310D01*
X155503216Y-122041903D01*
X155503218Y-122041904D01*
X155689862Y-122128938D01*
X155742301Y-122175110D01*
X155761453Y-122242304D01*
X155741237Y-122309185D01*
X155689862Y-122353702D01*
X155503218Y-122440735D01*
X155503216Y-122440736D01*
X155326707Y-122564329D01*
X155326701Y-122564334D01*
X155174334Y-122716701D01*
X155174329Y-122716707D01*
X155050736Y-122893216D01*
X155050735Y-122893218D01*
X154959669Y-123088511D01*
X154959665Y-123088520D01*
X154903898Y-123296649D01*
X154903896Y-123296659D01*
X154885116Y-123511319D01*
X154885116Y-123511320D01*
X154903896Y-123725980D01*
X154903898Y-123725990D01*
X154959665Y-123934119D01*
X154959667Y-123934123D01*
X154959668Y-123934127D01*
X154963702Y-123942777D01*
X155050735Y-124129421D01*
X155050736Y-124129423D01*
X155174329Y-124305932D01*
X155174334Y-124305938D01*
X155326701Y-124458305D01*
X155326707Y-124458310D01*
X155503216Y-124581903D01*
X155503218Y-124581904D01*
X155698513Y-124672972D01*
X155906655Y-124728743D01*
X156067554Y-124742820D01*
X156121319Y-124747524D01*
X156121320Y-124747524D01*
X156121321Y-124747524D01*
X156175086Y-124742820D01*
X156335985Y-124728743D01*
X156544127Y-124672972D01*
X156739422Y-124581904D01*
X156915937Y-124458307D01*
X157068307Y-124305937D01*
X157191904Y-124129422D01*
X157278938Y-123942775D01*
X157325110Y-123890338D01*
X157392304Y-123871186D01*
X157459185Y-123891402D01*
X157503702Y-123942777D01*
X157590735Y-124129421D01*
X157590736Y-124129423D01*
X157714329Y-124305932D01*
X157714334Y-124305938D01*
X157866701Y-124458305D01*
X157866707Y-124458310D01*
X158043216Y-124581903D01*
X158043218Y-124581904D01*
X158238513Y-124672972D01*
X158446655Y-124728743D01*
X158607554Y-124742820D01*
X158661319Y-124747524D01*
X158661320Y-124747524D01*
X158661321Y-124747524D01*
X158715086Y-124742820D01*
X158875985Y-124728743D01*
X159084127Y-124672972D01*
X159279422Y-124581904D01*
X159455937Y-124458307D01*
X159608307Y-124305937D01*
X159731904Y-124129422D01*
X159818938Y-123942775D01*
X159865110Y-123890338D01*
X159932304Y-123871186D01*
X159999185Y-123891402D01*
X160043702Y-123942777D01*
X160130735Y-124129421D01*
X160130736Y-124129423D01*
X160254329Y-124305932D01*
X160254334Y-124305938D01*
X160406701Y-124458305D01*
X160406707Y-124458310D01*
X160583216Y-124581903D01*
X160583218Y-124581904D01*
X160778513Y-124672972D01*
X160986655Y-124728743D01*
X161147554Y-124742820D01*
X161201319Y-124747524D01*
X161201320Y-124747524D01*
X161201321Y-124747524D01*
X161255086Y-124742820D01*
X161415985Y-124728743D01*
X161624127Y-124672972D01*
X161819422Y-124581904D01*
X161995937Y-124458307D01*
X162148307Y-124305937D01*
X162271904Y-124129422D01*
X162273436Y-124126135D01*
X162274497Y-124124930D01*
X162274612Y-124124732D01*
X162274651Y-124124755D01*
X162319607Y-124073695D01*
X162386800Y-124054541D01*
X162453682Y-124074754D01*
X162499018Y-124127918D01*
X162509820Y-124178537D01*
X162509820Y-124397526D01*
X162520624Y-124471681D01*
X162520624Y-124471682D01*
X162520625Y-124471684D01*
X162576541Y-124586063D01*
X162576543Y-124586066D01*
X162666573Y-124676096D01*
X162666576Y-124676098D01*
X162774260Y-124728741D01*
X162780959Y-124732016D01*
X162855114Y-124742820D01*
X162855120Y-124742820D01*
X164627520Y-124742820D01*
X164627526Y-124742820D01*
X164701681Y-124732016D01*
X164758873Y-124704056D01*
X164816063Y-124676098D01*
X164816066Y-124676096D01*
X164906096Y-124586066D01*
X164906098Y-124586063D01*
X164943791Y-124508960D01*
X164962016Y-124471681D01*
X164972820Y-124397526D01*
X164972820Y-122625114D01*
X164962016Y-122550959D01*
X164959681Y-122546183D01*
X164928616Y-122482638D01*
X165590820Y-122482638D01*
X165629178Y-122823088D01*
X165629180Y-122823100D01*
X165629181Y-122823103D01*
X165645186Y-122893223D01*
X165705422Y-123157136D01*
X165705423Y-123157138D01*
X165818584Y-123480536D01*
X165967242Y-123789227D01*
X165967244Y-123789230D01*
X166149531Y-124079338D01*
X166247285Y-124201918D01*
X166330237Y-124305937D01*
X166363154Y-124347213D01*
X166605427Y-124589486D01*
X166873302Y-124803109D01*
X167163410Y-124985396D01*
X167472105Y-125134056D01*
X167795503Y-125247217D01*
X168129537Y-125323459D01*
X168129546Y-125323460D01*
X168129551Y-125323461D01*
X168356517Y-125349033D01*
X168470002Y-125361819D01*
X168470005Y-125361820D01*
X168470008Y-125361820D01*
X168812635Y-125361820D01*
X168812636Y-125361819D01*
X168986631Y-125342215D01*
X169153088Y-125323461D01*
X169153091Y-125323460D01*
X169153103Y-125323459D01*
X169487137Y-125247217D01*
X169810535Y-125134056D01*
X170119230Y-124985396D01*
X170409338Y-124803109D01*
X170677213Y-124589486D01*
X170919486Y-124347213D01*
X171133109Y-124079338D01*
X171315396Y-123789230D01*
X171464056Y-123480535D01*
X171577217Y-123157137D01*
X171653459Y-122823103D01*
X171691820Y-122482632D01*
X171691820Y-122140008D01*
X171653459Y-121799537D01*
X171577217Y-121465503D01*
X171464056Y-121142105D01*
X171315396Y-120833410D01*
X171133109Y-120543302D01*
X170919486Y-120275427D01*
X170677213Y-120033154D01*
X170409338Y-119819531D01*
X170119230Y-119637244D01*
X170119227Y-119637242D01*
X169810536Y-119488584D01*
X169487138Y-119375423D01*
X169487136Y-119375422D01*
X169229344Y-119316582D01*
X169153103Y-119299181D01*
X169153100Y-119299180D01*
X169153088Y-119299178D01*
X168812638Y-119260820D01*
X168812632Y-119260820D01*
X168470008Y-119260820D01*
X168470001Y-119260820D01*
X168129551Y-119299178D01*
X168129537Y-119299181D01*
X167795503Y-119375422D01*
X167795501Y-119375423D01*
X167472103Y-119488584D01*
X167163412Y-119637242D01*
X166873303Y-119819530D01*
X166605427Y-120033153D01*
X166363153Y-120275427D01*
X166149530Y-120543303D01*
X165967242Y-120833412D01*
X165818584Y-121142103D01*
X165705423Y-121465501D01*
X165705422Y-121465503D01*
X165629181Y-121799537D01*
X165629178Y-121799551D01*
X165590820Y-122140001D01*
X165590820Y-122482638D01*
X164928616Y-122482638D01*
X164906098Y-122436576D01*
X164906096Y-122436573D01*
X164816066Y-122346543D01*
X164816063Y-122346541D01*
X164701684Y-122290625D01*
X164701682Y-122290624D01*
X164701681Y-122290624D01*
X164627526Y-122279820D01*
X164408538Y-122279820D01*
X164341499Y-122260135D01*
X164295744Y-122207331D01*
X164285800Y-122138173D01*
X164314825Y-122074617D01*
X164356132Y-122043439D01*
X164359416Y-122041907D01*
X164359417Y-122041905D01*
X164359422Y-122041904D01*
X164535937Y-121918307D01*
X164688307Y-121765937D01*
X164811904Y-121589422D01*
X164902972Y-121394127D01*
X164958743Y-121185985D01*
X164977524Y-120971320D01*
X164958743Y-120756655D01*
X164902972Y-120548513D01*
X164811904Y-120353218D01*
X164757434Y-120275427D01*
X164688310Y-120176707D01*
X164688305Y-120176701D01*
X164535938Y-120024334D01*
X164535932Y-120024329D01*
X164359423Y-119900736D01*
X164359421Y-119900735D01*
X164261774Y-119855202D01*
X164164127Y-119809668D01*
X164164123Y-119809667D01*
X164164119Y-119809665D01*
X163955990Y-119753898D01*
X163955980Y-119753896D01*
X163741321Y-119735116D01*
X163741319Y-119735116D01*
X163526659Y-119753896D01*
X163526649Y-119753898D01*
X163318520Y-119809665D01*
X163318511Y-119809669D01*
X163123218Y-119900735D01*
X163123216Y-119900736D01*
X162946707Y-120024329D01*
X162946701Y-120024334D01*
X162794334Y-120176701D01*
X162794329Y-120176707D01*
X162670736Y-120353216D01*
X162670735Y-120353218D01*
X162583702Y-120539862D01*
X162537530Y-120592301D01*
X162470336Y-120611453D01*
X162403455Y-120591237D01*
X162358938Y-120539862D01*
X162271904Y-120353218D01*
X162271903Y-120353216D01*
X162148310Y-120176707D01*
X162148305Y-120176701D01*
X161995938Y-120024334D01*
X161995932Y-120024329D01*
X161819423Y-119900736D01*
X161819421Y-119900735D01*
X161721774Y-119855202D01*
X161624127Y-119809668D01*
X161624123Y-119809667D01*
X161624119Y-119809665D01*
X161415990Y-119753898D01*
X161415980Y-119753896D01*
X161201321Y-119735116D01*
X161201319Y-119735116D01*
X160986659Y-119753896D01*
X160986649Y-119753898D01*
X160778520Y-119809665D01*
X160778511Y-119809669D01*
X160583218Y-119900735D01*
X160583216Y-119900736D01*
X160406707Y-120024329D01*
X160406701Y-120024334D01*
X160254334Y-120176701D01*
X160254329Y-120176707D01*
X160130736Y-120353216D01*
X160130735Y-120353218D01*
X160045417Y-120536182D01*
X160042098Y-120543303D01*
X160039669Y-120548511D01*
X160039665Y-120548520D01*
X159983898Y-120756649D01*
X159983896Y-120756659D01*
X159965116Y-120971319D01*
X159965116Y-120971320D01*
X159983896Y-121185980D01*
X159983898Y-121185990D01*
X160039665Y-121394119D01*
X160039667Y-121394123D01*
X160039668Y-121394127D01*
X160072951Y-121465503D01*
X160130735Y-121589421D01*
X160130736Y-121589423D01*
X160254329Y-121765932D01*
X160254334Y-121765938D01*
X160406701Y-121918305D01*
X160406707Y-121918310D01*
X160583216Y-122041903D01*
X160583218Y-122041904D01*
X160769862Y-122128938D01*
X160822301Y-122175110D01*
X160841453Y-122242304D01*
X160821237Y-122309185D01*
X160769862Y-122353702D01*
X160583218Y-122440735D01*
X160583216Y-122440736D01*
X160406707Y-122564329D01*
X160406701Y-122564334D01*
X160254334Y-122716701D01*
X160254329Y-122716707D01*
X160130736Y-122893216D01*
X160130735Y-122893218D01*
X160043702Y-123079862D01*
X159997530Y-123132301D01*
X159930336Y-123151453D01*
X159863455Y-123131237D01*
X159818938Y-123079862D01*
X159731904Y-122893218D01*
X159731903Y-122893216D01*
X159608310Y-122716707D01*
X159608305Y-122716701D01*
X159455938Y-122564334D01*
X159455932Y-122564329D01*
X159279423Y-122440736D01*
X159279421Y-122440735D01*
X159181774Y-122395202D01*
X159084127Y-122349668D01*
X159084123Y-122349667D01*
X159084119Y-122349665D01*
X158875990Y-122293898D01*
X158875980Y-122293896D01*
X158661321Y-122275116D01*
X158661319Y-122275116D01*
X158446659Y-122293896D01*
X158446649Y-122293898D01*
X158238520Y-122349665D01*
X158238511Y-122349669D01*
X158043218Y-122440735D01*
X158043216Y-122440736D01*
X157866707Y-122564329D01*
X157866701Y-122564334D01*
X157714334Y-122716701D01*
X157714329Y-122716707D01*
X157590736Y-122893216D01*
X157590735Y-122893218D01*
X157503702Y-123079862D01*
X157457530Y-123132301D01*
X157390336Y-123151453D01*
X157323455Y-123131237D01*
X157278938Y-123079862D01*
X157191904Y-122893218D01*
X157191903Y-122893216D01*
X157068310Y-122716707D01*
X157068305Y-122716701D01*
X156915938Y-122564334D01*
X156915932Y-122564329D01*
X156739423Y-122440736D01*
X156739421Y-122440735D01*
X156634865Y-122391980D01*
X156552775Y-122353701D01*
X156500338Y-122307530D01*
X156481186Y-122240336D01*
X156501402Y-122173455D01*
X156552775Y-122128938D01*
X156739422Y-122041904D01*
X156915937Y-121918307D01*
X157068307Y-121765937D01*
X157191904Y-121589422D01*
X157282972Y-121394127D01*
X157338743Y-121185985D01*
X157357524Y-120971320D01*
X157338743Y-120756655D01*
X157282972Y-120548513D01*
X157191904Y-120353218D01*
X157137434Y-120275427D01*
X157068310Y-120176707D01*
X157068305Y-120176701D01*
X156915938Y-120024334D01*
X156915932Y-120024329D01*
X156739423Y-119900736D01*
X156739421Y-119900735D01*
X156641774Y-119855202D01*
X156544127Y-119809668D01*
X156544123Y-119809667D01*
X156544119Y-119809665D01*
X156335990Y-119753898D01*
X156335980Y-119753896D01*
X156121321Y-119735116D01*
X156121319Y-119735116D01*
X155906659Y-119753896D01*
X155906649Y-119753898D01*
X155698520Y-119809665D01*
X155698511Y-119809669D01*
X155503218Y-119900735D01*
X155503216Y-119900736D01*
X155326707Y-120024329D01*
X155326701Y-120024334D01*
X155174334Y-120176701D01*
X155174329Y-120176707D01*
X155050736Y-120353216D01*
X155050735Y-120353218D01*
X154963702Y-120539862D01*
X154917530Y-120592301D01*
X154850336Y-120611453D01*
X154783455Y-120591237D01*
X154738938Y-120539862D01*
X154651904Y-120353218D01*
X154651903Y-120353216D01*
X154528310Y-120176707D01*
X154528305Y-120176701D01*
X154375938Y-120024334D01*
X154375932Y-120024329D01*
X154199423Y-119900736D01*
X154199421Y-119900735D01*
X154101774Y-119855202D01*
X154004127Y-119809668D01*
X154004123Y-119809667D01*
X154004119Y-119809665D01*
X153913764Y-119785455D01*
X153854103Y-119749090D01*
X153823574Y-119686243D01*
X153831869Y-119616867D01*
X153843807Y-119595240D01*
X153846153Y-119591839D01*
X153846156Y-119591838D01*
X153933272Y-119465628D01*
X153987653Y-119322238D01*
X154006138Y-119170000D01*
X153987653Y-119017762D01*
X153933272Y-118874372D01*
X153846156Y-118748162D01*
X153846154Y-118748160D01*
X153731369Y-118646469D01*
X153666540Y-118612444D01*
X153595578Y-118575201D01*
X153595575Y-118575200D01*
X153446679Y-118538500D01*
X153446678Y-118538500D01*
X153293322Y-118538500D01*
X153293321Y-118538500D01*
X153144424Y-118575200D01*
X153008630Y-118646469D01*
X152893845Y-118748160D01*
X152806729Y-118874369D01*
X152752347Y-119017761D01*
X152752346Y-119017764D01*
X152733862Y-119169999D01*
X152733862Y-119170000D01*
X152752346Y-119322235D01*
X152752347Y-119322238D01*
X152806729Y-119465630D01*
X152893845Y-119591839D01*
X153004739Y-119690083D01*
X153041866Y-119749272D01*
X153041098Y-119819138D01*
X153002680Y-119877497D01*
X152974919Y-119895279D01*
X152963220Y-119900734D01*
X152963216Y-119900736D01*
X152786707Y-120024329D01*
X152786701Y-120024334D01*
X152634334Y-120176701D01*
X152634329Y-120176707D01*
X152510736Y-120353216D01*
X152510735Y-120353218D01*
X152423702Y-120539862D01*
X152377530Y-120592301D01*
X152310336Y-120611453D01*
X152243455Y-120591237D01*
X152198938Y-120539862D01*
X152111904Y-120353218D01*
X152111903Y-120353216D01*
X151988310Y-120176707D01*
X151988305Y-120176701D01*
X151835938Y-120024334D01*
X151835932Y-120024329D01*
X151659423Y-119900736D01*
X151659421Y-119900735D01*
X151561774Y-119855202D01*
X151464127Y-119809668D01*
X151464123Y-119809667D01*
X151464119Y-119809665D01*
X151255990Y-119753898D01*
X151255980Y-119753896D01*
X151041321Y-119735116D01*
X151041319Y-119735116D01*
X150826659Y-119753896D01*
X150826649Y-119753898D01*
X150618520Y-119809665D01*
X150618511Y-119809669D01*
X150423218Y-119900735D01*
X150423216Y-119900736D01*
X150246707Y-120024329D01*
X150246701Y-120024334D01*
X150094334Y-120176701D01*
X150094329Y-120176707D01*
X149970736Y-120353216D01*
X149970735Y-120353218D01*
X149885417Y-120536182D01*
X149882098Y-120543303D01*
X149879669Y-120548511D01*
X149879665Y-120548520D01*
X149823898Y-120756649D01*
X149823896Y-120756659D01*
X149805116Y-120971319D01*
X149805116Y-120971320D01*
X149823896Y-121185980D01*
X149823898Y-121185990D01*
X149879665Y-121394119D01*
X149879667Y-121394123D01*
X149879668Y-121394127D01*
X149912951Y-121465503D01*
X149970735Y-121589421D01*
X149970736Y-121589423D01*
X150094329Y-121765932D01*
X150094334Y-121765938D01*
X150246701Y-121918305D01*
X150246707Y-121918310D01*
X150423216Y-122041903D01*
X150423218Y-122041904D01*
X150609862Y-122128938D01*
X150662301Y-122175110D01*
X150681453Y-122242304D01*
X150661237Y-122309185D01*
X150609862Y-122353702D01*
X150423218Y-122440735D01*
X150423216Y-122440736D01*
X150246707Y-122564329D01*
X150246701Y-122564334D01*
X150094334Y-122716701D01*
X150094329Y-122716707D01*
X149970736Y-122893216D01*
X149970735Y-122893218D01*
X149883702Y-123079862D01*
X149837530Y-123132301D01*
X149770336Y-123151453D01*
X149703455Y-123131237D01*
X149658938Y-123079862D01*
X149571904Y-122893218D01*
X149571903Y-122893216D01*
X149448310Y-122716707D01*
X149448305Y-122716701D01*
X149295938Y-122564334D01*
X149295932Y-122564329D01*
X149119423Y-122440736D01*
X149119421Y-122440735D01*
X149021774Y-122395202D01*
X148924127Y-122349668D01*
X148924123Y-122349667D01*
X148924119Y-122349665D01*
X148715990Y-122293898D01*
X148715980Y-122293896D01*
X148501321Y-122275116D01*
X148501319Y-122275116D01*
X148286659Y-122293896D01*
X148286649Y-122293898D01*
X148078520Y-122349665D01*
X148078511Y-122349669D01*
X147883218Y-122440735D01*
X147883216Y-122440736D01*
X147706707Y-122564329D01*
X147706701Y-122564334D01*
X147554334Y-122716701D01*
X147554329Y-122716707D01*
X147430736Y-122893216D01*
X147430735Y-122893218D01*
X147343702Y-123079862D01*
X147297530Y-123132301D01*
X147230336Y-123151453D01*
X147163455Y-123131237D01*
X147118938Y-123079862D01*
X147031904Y-122893218D01*
X147031903Y-122893216D01*
X146908310Y-122716707D01*
X146908305Y-122716701D01*
X146755938Y-122564334D01*
X146755932Y-122564329D01*
X146579423Y-122440736D01*
X146579421Y-122440735D01*
X146474865Y-122391980D01*
X146392775Y-122353701D01*
X146340338Y-122307530D01*
X146321186Y-122240336D01*
X146341402Y-122173455D01*
X146392775Y-122128938D01*
X146579422Y-122041904D01*
X146755937Y-121918307D01*
X146908307Y-121765937D01*
X147031904Y-121589422D01*
X147122972Y-121394127D01*
X147178743Y-121185985D01*
X147197524Y-120971320D01*
X147178743Y-120756655D01*
X147122972Y-120548513D01*
X147031904Y-120353218D01*
X146977434Y-120275427D01*
X146908310Y-120176707D01*
X146908305Y-120176701D01*
X146755938Y-120024334D01*
X146755932Y-120024329D01*
X146579423Y-119900736D01*
X146579421Y-119900735D01*
X146481774Y-119855202D01*
X146384127Y-119809668D01*
X146384123Y-119809667D01*
X146384119Y-119809665D01*
X146175990Y-119753898D01*
X146175980Y-119753896D01*
X145961321Y-119735116D01*
X145961319Y-119735116D01*
X145746659Y-119753896D01*
X145746649Y-119753898D01*
X145538520Y-119809665D01*
X145538511Y-119809669D01*
X145343218Y-119900735D01*
X145343216Y-119900736D01*
X145166707Y-120024329D01*
X145166701Y-120024334D01*
X145014334Y-120176701D01*
X145014329Y-120176707D01*
X144890736Y-120353216D01*
X144890735Y-120353218D01*
X144803702Y-120539862D01*
X144757530Y-120592301D01*
X144690336Y-120611453D01*
X144623455Y-120591237D01*
X144578938Y-120539862D01*
X144491904Y-120353218D01*
X144491903Y-120353216D01*
X144368310Y-120176707D01*
X144368305Y-120176701D01*
X144215938Y-120024334D01*
X144215932Y-120024329D01*
X144039423Y-119900736D01*
X144039421Y-119900735D01*
X143941774Y-119855202D01*
X143844127Y-119809668D01*
X143844123Y-119809667D01*
X143844119Y-119809665D01*
X143635990Y-119753898D01*
X143635980Y-119753896D01*
X143421321Y-119735116D01*
X143421319Y-119735116D01*
X143206659Y-119753896D01*
X143206649Y-119753898D01*
X142998520Y-119809665D01*
X142998511Y-119809669D01*
X142803218Y-119900735D01*
X142803216Y-119900736D01*
X142626707Y-120024329D01*
X142626701Y-120024334D01*
X142474334Y-120176701D01*
X142474329Y-120176707D01*
X142350736Y-120353216D01*
X142350735Y-120353218D01*
X142265417Y-120536182D01*
X142262098Y-120543303D01*
X142259669Y-120548511D01*
X142259665Y-120548520D01*
X142203898Y-120756649D01*
X142203896Y-120756659D01*
X142185116Y-120971319D01*
X142185116Y-120971320D01*
X142203896Y-121185980D01*
X142203898Y-121185990D01*
X142259665Y-121394119D01*
X142259667Y-121394123D01*
X142259668Y-121394127D01*
X142292951Y-121465503D01*
X142350735Y-121589421D01*
X142350736Y-121589423D01*
X142474329Y-121765932D01*
X142474334Y-121765938D01*
X142626701Y-121918305D01*
X142626707Y-121918310D01*
X142803216Y-122041903D01*
X142803218Y-122041904D01*
X142989862Y-122128938D01*
X143042301Y-122175110D01*
X143061453Y-122242304D01*
X143041237Y-122309185D01*
X142989862Y-122353702D01*
X142803218Y-122440735D01*
X142803216Y-122440736D01*
X142626707Y-122564329D01*
X142626701Y-122564334D01*
X142474334Y-122716701D01*
X142474329Y-122716707D01*
X142350736Y-122893216D01*
X142350735Y-122893218D01*
X142263702Y-123079862D01*
X142217530Y-123132301D01*
X142150336Y-123151453D01*
X142083455Y-123131237D01*
X142038938Y-123079862D01*
X141951904Y-122893218D01*
X141951903Y-122893216D01*
X141828310Y-122716707D01*
X141828305Y-122716701D01*
X141675938Y-122564334D01*
X141675932Y-122564329D01*
X141499423Y-122440736D01*
X141499421Y-122440735D01*
X141401774Y-122395202D01*
X141304127Y-122349668D01*
X141304123Y-122349667D01*
X141304119Y-122349665D01*
X141095990Y-122293898D01*
X141095980Y-122293896D01*
X140881321Y-122275116D01*
X140881319Y-122275116D01*
X140666659Y-122293896D01*
X140666649Y-122293898D01*
X140458520Y-122349665D01*
X140458511Y-122349669D01*
X140263218Y-122440735D01*
X140263216Y-122440736D01*
X140086707Y-122564329D01*
X140086701Y-122564334D01*
X139934334Y-122716701D01*
X139934329Y-122716707D01*
X139810736Y-122893216D01*
X139810735Y-122893218D01*
X139723702Y-123079862D01*
X139677530Y-123132301D01*
X139610336Y-123151453D01*
X139543455Y-123131237D01*
X139498938Y-123079862D01*
X139411904Y-122893218D01*
X139411903Y-122893216D01*
X139288310Y-122716707D01*
X139288305Y-122716701D01*
X139135938Y-122564334D01*
X139135932Y-122564329D01*
X138959423Y-122440736D01*
X138959421Y-122440735D01*
X138854865Y-122391980D01*
X138772775Y-122353701D01*
X138720338Y-122307530D01*
X138701186Y-122240336D01*
X138721402Y-122173455D01*
X138772775Y-122128938D01*
X138959422Y-122041904D01*
X139135937Y-121918307D01*
X139288307Y-121765937D01*
X139411904Y-121589422D01*
X139502972Y-121394127D01*
X139558743Y-121185985D01*
X139577524Y-120971320D01*
X139558743Y-120756655D01*
X139502972Y-120548513D01*
X139411904Y-120353218D01*
X139357434Y-120275427D01*
X139288310Y-120176707D01*
X139288305Y-120176701D01*
X139135938Y-120024334D01*
X139135932Y-120024329D01*
X138959423Y-119900736D01*
X138959421Y-119900735D01*
X138861774Y-119855202D01*
X138764127Y-119809668D01*
X138764123Y-119809667D01*
X138764119Y-119809665D01*
X138555990Y-119753898D01*
X138555980Y-119753896D01*
X138341321Y-119735116D01*
X138341319Y-119735116D01*
X138126659Y-119753896D01*
X138126649Y-119753898D01*
X137918520Y-119809665D01*
X137918511Y-119809669D01*
X137723218Y-119900735D01*
X137723216Y-119900736D01*
X137546707Y-120024329D01*
X137546701Y-120024334D01*
X137394334Y-120176701D01*
X137394329Y-120176707D01*
X137270736Y-120353216D01*
X137270735Y-120353218D01*
X137183702Y-120539862D01*
X137137530Y-120592301D01*
X137070336Y-120611453D01*
X137003455Y-120591237D01*
X136958938Y-120539862D01*
X136871904Y-120353218D01*
X136871903Y-120353216D01*
X136748310Y-120176707D01*
X136748305Y-120176701D01*
X136595938Y-120024334D01*
X136595932Y-120024329D01*
X136419423Y-119900736D01*
X136419421Y-119900735D01*
X136321774Y-119855202D01*
X136224127Y-119809668D01*
X136224123Y-119809667D01*
X136224119Y-119809665D01*
X136015990Y-119753898D01*
X136015980Y-119753896D01*
X135801321Y-119735116D01*
X135801319Y-119735116D01*
X135586659Y-119753896D01*
X135586649Y-119753898D01*
X135378520Y-119809665D01*
X135378511Y-119809669D01*
X135183218Y-119900735D01*
X135183216Y-119900736D01*
X135006707Y-120024329D01*
X135006701Y-120024334D01*
X134854334Y-120176701D01*
X134854329Y-120176707D01*
X134730736Y-120353216D01*
X134730735Y-120353218D01*
X134643702Y-120539862D01*
X134597530Y-120592301D01*
X134530336Y-120611453D01*
X134463455Y-120591237D01*
X134418938Y-120539862D01*
X134331904Y-120353218D01*
X134331903Y-120353216D01*
X134208310Y-120176707D01*
X134208305Y-120176701D01*
X134055938Y-120024334D01*
X134055932Y-120024329D01*
X133879423Y-119900736D01*
X133879421Y-119900735D01*
X133781774Y-119855202D01*
X133684127Y-119809668D01*
X133684123Y-119809667D01*
X133684119Y-119809665D01*
X133475990Y-119753898D01*
X133475980Y-119753896D01*
X133261321Y-119735116D01*
X133261319Y-119735116D01*
X133046659Y-119753896D01*
X133046649Y-119753898D01*
X132838520Y-119809665D01*
X132838511Y-119809669D01*
X132643218Y-119900735D01*
X132643216Y-119900736D01*
X132466707Y-120024329D01*
X132466701Y-120024334D01*
X132314334Y-120176701D01*
X132314329Y-120176707D01*
X132190736Y-120353216D01*
X132190735Y-120353218D01*
X132103702Y-120539862D01*
X132057530Y-120592301D01*
X131990336Y-120611453D01*
X131923455Y-120591237D01*
X131878938Y-120539862D01*
X131791904Y-120353218D01*
X131791903Y-120353216D01*
X131668310Y-120176707D01*
X131668305Y-120176701D01*
X131515938Y-120024334D01*
X131515932Y-120024329D01*
X131339423Y-119900736D01*
X131339421Y-119900735D01*
X131241774Y-119855202D01*
X131144127Y-119809668D01*
X131144123Y-119809667D01*
X131144119Y-119809665D01*
X130935990Y-119753898D01*
X130935980Y-119753896D01*
X130721321Y-119735116D01*
X130721319Y-119735116D01*
X130506659Y-119753896D01*
X130506649Y-119753898D01*
X130298520Y-119809665D01*
X130298511Y-119809669D01*
X130103218Y-119900735D01*
X130103216Y-119900736D01*
X129926707Y-120024329D01*
X129926701Y-120024334D01*
X129774334Y-120176701D01*
X129774329Y-120176707D01*
X129650736Y-120353216D01*
X129650735Y-120353218D01*
X129565417Y-120536182D01*
X129562098Y-120543303D01*
X129559669Y-120548511D01*
X129559665Y-120548520D01*
X129503898Y-120756649D01*
X129503896Y-120756659D01*
X129485116Y-120971319D01*
X129485116Y-120971320D01*
X129503896Y-121185980D01*
X129503898Y-121185990D01*
X129559665Y-121394119D01*
X129559667Y-121394123D01*
X129559668Y-121394127D01*
X129592951Y-121465503D01*
X129650735Y-121589421D01*
X129650736Y-121589423D01*
X129774329Y-121765932D01*
X129774334Y-121765938D01*
X129926701Y-121918305D01*
X129926707Y-121918310D01*
X130103216Y-122041903D01*
X130103218Y-122041904D01*
X130289862Y-122128938D01*
X130342301Y-122175110D01*
X130361453Y-122242304D01*
X130341237Y-122309185D01*
X130289862Y-122353702D01*
X130103218Y-122440735D01*
X130103216Y-122440736D01*
X129926707Y-122564329D01*
X129926701Y-122564334D01*
X129774334Y-122716701D01*
X129774329Y-122716707D01*
X129650736Y-122893216D01*
X129650735Y-122893218D01*
X129563702Y-123079862D01*
X129517530Y-123132301D01*
X129450336Y-123151453D01*
X129383455Y-123131237D01*
X129338938Y-123079862D01*
X129251904Y-122893218D01*
X129251903Y-122893216D01*
X129128310Y-122716707D01*
X129128305Y-122716701D01*
X128975938Y-122564334D01*
X128975932Y-122564329D01*
X128799423Y-122440736D01*
X128799421Y-122440735D01*
X128701774Y-122395202D01*
X128604127Y-122349668D01*
X128604123Y-122349667D01*
X128604119Y-122349665D01*
X128395990Y-122293898D01*
X128395980Y-122293896D01*
X128181321Y-122275116D01*
X128181319Y-122275116D01*
X127966659Y-122293896D01*
X127966649Y-122293898D01*
X127758520Y-122349665D01*
X127758511Y-122349669D01*
X127563218Y-122440735D01*
X127563216Y-122440736D01*
X127386707Y-122564329D01*
X127386701Y-122564334D01*
X127234334Y-122716701D01*
X127234329Y-122716707D01*
X127110736Y-122893216D01*
X127110735Y-122893218D01*
X127023702Y-123079862D01*
X126977530Y-123132301D01*
X126910336Y-123151453D01*
X126843455Y-123131237D01*
X126798938Y-123079862D01*
X126711904Y-122893218D01*
X126711903Y-122893216D01*
X126588310Y-122716707D01*
X126588305Y-122716701D01*
X126435938Y-122564334D01*
X126435932Y-122564329D01*
X126259423Y-122440736D01*
X126259421Y-122440735D01*
X126154865Y-122391980D01*
X126072775Y-122353701D01*
X126020338Y-122307530D01*
X126001186Y-122240336D01*
X126021402Y-122173455D01*
X126072775Y-122128938D01*
X126259422Y-122041904D01*
X126435937Y-121918307D01*
X126588307Y-121765937D01*
X126711904Y-121589422D01*
X126802972Y-121394127D01*
X126858743Y-121185985D01*
X126877524Y-120971320D01*
X126858743Y-120756655D01*
X126802972Y-120548513D01*
X126711904Y-120353218D01*
X126657434Y-120275427D01*
X126588310Y-120176707D01*
X126588305Y-120176701D01*
X126435938Y-120024334D01*
X126435932Y-120024329D01*
X126259423Y-119900736D01*
X126259421Y-119900735D01*
X126161774Y-119855202D01*
X126064127Y-119809668D01*
X126064123Y-119809667D01*
X126064119Y-119809665D01*
X125855990Y-119753898D01*
X125855980Y-119753896D01*
X125641321Y-119735116D01*
X125641319Y-119735116D01*
X125426659Y-119753896D01*
X125426649Y-119753898D01*
X125218520Y-119809665D01*
X125218511Y-119809669D01*
X125023218Y-119900735D01*
X125023216Y-119900736D01*
X124846707Y-120024329D01*
X124846701Y-120024334D01*
X124694334Y-120176701D01*
X124694329Y-120176707D01*
X124570736Y-120353216D01*
X124570735Y-120353218D01*
X124485417Y-120536182D01*
X124482098Y-120543303D01*
X124479669Y-120548511D01*
X124479665Y-120548520D01*
X124423898Y-120756649D01*
X124423896Y-120756659D01*
X124405116Y-120971319D01*
X124405116Y-120971320D01*
X124423896Y-121185980D01*
X124423898Y-121185990D01*
X124479665Y-121394119D01*
X124479667Y-121394123D01*
X124479668Y-121394127D01*
X124512951Y-121465503D01*
X124570735Y-121589421D01*
X124570736Y-121589423D01*
X124694329Y-121765932D01*
X124694334Y-121765938D01*
X124846701Y-121918305D01*
X124846707Y-121918310D01*
X125023216Y-122041903D01*
X125023218Y-122041904D01*
X125209862Y-122128938D01*
X125262301Y-122175110D01*
X125281453Y-122242304D01*
X125261237Y-122309185D01*
X125209862Y-122353702D01*
X125023218Y-122440735D01*
X125023216Y-122440736D01*
X124846707Y-122564329D01*
X124846701Y-122564334D01*
X124694334Y-122716701D01*
X124694329Y-122716707D01*
X124570736Y-122893216D01*
X124570735Y-122893218D01*
X124483702Y-123079862D01*
X124437530Y-123132301D01*
X124370336Y-123151453D01*
X124303455Y-123131237D01*
X124258938Y-123079862D01*
X124171904Y-122893218D01*
X124171903Y-122893216D01*
X124048310Y-122716707D01*
X124048305Y-122716701D01*
X123895938Y-122564334D01*
X123895932Y-122564329D01*
X123719423Y-122440736D01*
X123719421Y-122440735D01*
X123621774Y-122395202D01*
X123524127Y-122349668D01*
X123524123Y-122349667D01*
X123524119Y-122349665D01*
X123315990Y-122293898D01*
X123315980Y-122293896D01*
X123101321Y-122275116D01*
X123101319Y-122275116D01*
X122886659Y-122293896D01*
X122886649Y-122293898D01*
X122678520Y-122349665D01*
X122678511Y-122349669D01*
X122483218Y-122440735D01*
X122483216Y-122440736D01*
X122306707Y-122564329D01*
X122306701Y-122564334D01*
X122154334Y-122716701D01*
X122154329Y-122716707D01*
X122030736Y-122893216D01*
X122030735Y-122893218D01*
X121943702Y-123079862D01*
X121897530Y-123132301D01*
X121830336Y-123151453D01*
X121763455Y-123131237D01*
X121718938Y-123079862D01*
X121631904Y-122893218D01*
X121631903Y-122893216D01*
X121508310Y-122716707D01*
X121508305Y-122716701D01*
X121355938Y-122564334D01*
X121355932Y-122564329D01*
X121179423Y-122440736D01*
X121179421Y-122440735D01*
X121074865Y-122391980D01*
X120992775Y-122353701D01*
X120940338Y-122307530D01*
X120921186Y-122240336D01*
X120941402Y-122173455D01*
X120992775Y-122128938D01*
X121179422Y-122041904D01*
X121355937Y-121918307D01*
X121508307Y-121765937D01*
X121631904Y-121589422D01*
X121722972Y-121394127D01*
X121778743Y-121185985D01*
X121797524Y-120971320D01*
X121778743Y-120756655D01*
X121722972Y-120548513D01*
X121631904Y-120353218D01*
X121577434Y-120275427D01*
X121508310Y-120176707D01*
X121508305Y-120176701D01*
X121355938Y-120024334D01*
X121355932Y-120024329D01*
X121179423Y-119900736D01*
X121179421Y-119900735D01*
X121081774Y-119855202D01*
X120984127Y-119809668D01*
X120984123Y-119809667D01*
X120984119Y-119809665D01*
X120775990Y-119753898D01*
X120775980Y-119753896D01*
X120561321Y-119735116D01*
X120561319Y-119735116D01*
X120346659Y-119753896D01*
X120346649Y-119753898D01*
X120138520Y-119809665D01*
X120138511Y-119809669D01*
X119943218Y-119900735D01*
X119943216Y-119900736D01*
X119766707Y-120024329D01*
X119766701Y-120024334D01*
X119614334Y-120176701D01*
X119614329Y-120176707D01*
X119490736Y-120353216D01*
X119490735Y-120353218D01*
X119403702Y-120539862D01*
X119357530Y-120592301D01*
X119290336Y-120611453D01*
X119223455Y-120591237D01*
X119178938Y-120539862D01*
X119091904Y-120353218D01*
X119091903Y-120353216D01*
X118968310Y-120176707D01*
X118968305Y-120176701D01*
X118815938Y-120024334D01*
X118815932Y-120024329D01*
X118639423Y-119900736D01*
X118639421Y-119900735D01*
X118541774Y-119855202D01*
X118444127Y-119809668D01*
X118444123Y-119809667D01*
X118444119Y-119809665D01*
X118235990Y-119753898D01*
X118235980Y-119753896D01*
X118021321Y-119735116D01*
X118021319Y-119735116D01*
X117806659Y-119753896D01*
X117806649Y-119753898D01*
X117598520Y-119809665D01*
X117598511Y-119809669D01*
X117403218Y-119900735D01*
X117403216Y-119900736D01*
X117226707Y-120024329D01*
X117226701Y-120024334D01*
X117074334Y-120176701D01*
X117074329Y-120176707D01*
X116950736Y-120353216D01*
X116950735Y-120353218D01*
X116863702Y-120539862D01*
X116817530Y-120592301D01*
X116750336Y-120611453D01*
X116683455Y-120591237D01*
X116638938Y-120539862D01*
X116551904Y-120353218D01*
X116551903Y-120353216D01*
X116428310Y-120176707D01*
X116428305Y-120176701D01*
X116275938Y-120024334D01*
X116275932Y-120024329D01*
X116099423Y-119900736D01*
X116099421Y-119900735D01*
X116001774Y-119855202D01*
X115904127Y-119809668D01*
X115904123Y-119809667D01*
X115904119Y-119809665D01*
X115695990Y-119753898D01*
X115695980Y-119753896D01*
X115481321Y-119735116D01*
X115481319Y-119735116D01*
X115266659Y-119753896D01*
X115266649Y-119753898D01*
X115058520Y-119809665D01*
X115058511Y-119809669D01*
X114863218Y-119900735D01*
X114863216Y-119900736D01*
X114686707Y-120024329D01*
X114686701Y-120024334D01*
X114534334Y-120176701D01*
X114534329Y-120176707D01*
X114410736Y-120353216D01*
X114410735Y-120353218D01*
X114325417Y-120536182D01*
X114322098Y-120543303D01*
X114319669Y-120548511D01*
X114319665Y-120548520D01*
X114263898Y-120756649D01*
X114263896Y-120756659D01*
X114245116Y-120971319D01*
X114245116Y-120971320D01*
X113381810Y-120971320D01*
X113315396Y-120833410D01*
X113133109Y-120543302D01*
X112919486Y-120275427D01*
X112677213Y-120033154D01*
X112409338Y-119819531D01*
X112119230Y-119637244D01*
X112119227Y-119637242D01*
X111810536Y-119488584D01*
X111487138Y-119375423D01*
X111487136Y-119375422D01*
X111229344Y-119316582D01*
X111153103Y-119299181D01*
X111153100Y-119299180D01*
X111153088Y-119299178D01*
X110812638Y-119260820D01*
X110812632Y-119260820D01*
X110470008Y-119260820D01*
X110470001Y-119260820D01*
X110129551Y-119299178D01*
X110129537Y-119299181D01*
X109795503Y-119375422D01*
X109795501Y-119375423D01*
X109472103Y-119488584D01*
X109163412Y-119637242D01*
X108873303Y-119819530D01*
X108605427Y-120033153D01*
X108363153Y-120275427D01*
X108149530Y-120543303D01*
X107967242Y-120833412D01*
X107818584Y-121142103D01*
X107705423Y-121465501D01*
X107705422Y-121465503D01*
X107629181Y-121799537D01*
X107629178Y-121799551D01*
X107590820Y-122140001D01*
X107590820Y-122482638D01*
X107142619Y-122482638D01*
X107142323Y-122477619D01*
X107140011Y-122300840D01*
X107140000Y-122299218D01*
X107140000Y-117510000D01*
X151983862Y-117510000D01*
X152002346Y-117662235D01*
X152002347Y-117662238D01*
X152056729Y-117805630D01*
X152143845Y-117931839D01*
X152258630Y-118033530D01*
X152258632Y-118033531D01*
X152394422Y-118104799D01*
X152493688Y-118129266D01*
X152543321Y-118141500D01*
X152543322Y-118141500D01*
X152696679Y-118141500D01*
X152733903Y-118132324D01*
X152845578Y-118104799D01*
X152937375Y-118056619D01*
X153005883Y-118042895D01*
X153052623Y-118056619D01*
X153144422Y-118104799D01*
X153243688Y-118129266D01*
X153293321Y-118141500D01*
X153293322Y-118141500D01*
X153446679Y-118141500D01*
X153483903Y-118132324D01*
X153595578Y-118104799D01*
X153731368Y-118033531D01*
X153846156Y-117931838D01*
X153933272Y-117805628D01*
X153987653Y-117662238D01*
X154006138Y-117510000D01*
X153987653Y-117357762D01*
X153933272Y-117214372D01*
X153846156Y-117088162D01*
X153846154Y-117088160D01*
X153731369Y-116986469D01*
X153666540Y-116952444D01*
X153595578Y-116915201D01*
X153595575Y-116915200D01*
X153446679Y-116878500D01*
X153446678Y-116878500D01*
X153293322Y-116878500D01*
X153293321Y-116878500D01*
X153144424Y-116915200D01*
X153144422Y-116915200D01*
X153144422Y-116915201D01*
X153052624Y-116963380D01*
X152984117Y-116977105D01*
X152937376Y-116963380D01*
X152845578Y-116915201D01*
X152845575Y-116915200D01*
X152696679Y-116878500D01*
X152696678Y-116878500D01*
X152543322Y-116878500D01*
X152543321Y-116878500D01*
X152394424Y-116915200D01*
X152258630Y-116986469D01*
X152143845Y-117088160D01*
X152056729Y-117214369D01*
X152002347Y-117357761D01*
X152002346Y-117357764D01*
X151983862Y-117509999D01*
X151983862Y-117510000D01*
X107140000Y-117510000D01*
X107140000Y-109007422D01*
X142442415Y-109007422D01*
X142460899Y-109159657D01*
X142460900Y-109159660D01*
X142515282Y-109303052D01*
X142602398Y-109429261D01*
X142717183Y-109530952D01*
X142717185Y-109530953D01*
X142852975Y-109602221D01*
X142952241Y-109626688D01*
X143001874Y-109638922D01*
X143001875Y-109638922D01*
X143155232Y-109638922D01*
X143192456Y-109629746D01*
X143304131Y-109602221D01*
X143439921Y-109530953D01*
X143497435Y-109480000D01*
X147613862Y-109480000D01*
X147632346Y-109632235D01*
X147632347Y-109632238D01*
X147686729Y-109775630D01*
X147773845Y-109901839D01*
X147888630Y-110003530D01*
X147888632Y-110003531D01*
X148024422Y-110074799D01*
X148123688Y-110099266D01*
X148173321Y-110111500D01*
X148173322Y-110111500D01*
X148326679Y-110111500D01*
X148363903Y-110102324D01*
X148475578Y-110074799D01*
X148611368Y-110003531D01*
X148726156Y-109901838D01*
X148813272Y-109775628D01*
X148867653Y-109632238D01*
X148886138Y-109480000D01*
X148867653Y-109327762D01*
X148813272Y-109184372D01*
X148726156Y-109058162D01*
X148726154Y-109058160D01*
X148611369Y-108956469D01*
X148546540Y-108922444D01*
X148475578Y-108885201D01*
X148475575Y-108885200D01*
X148326679Y-108848500D01*
X148326678Y-108848500D01*
X148173322Y-108848500D01*
X148173321Y-108848500D01*
X148024424Y-108885200D01*
X147888630Y-108956469D01*
X147773845Y-109058160D01*
X147686729Y-109184369D01*
X147632347Y-109327761D01*
X147632346Y-109327764D01*
X147613862Y-109479999D01*
X147613862Y-109480000D01*
X143497435Y-109480000D01*
X143554709Y-109429260D01*
X143641825Y-109303050D01*
X143696206Y-109159660D01*
X143714691Y-109007422D01*
X143696206Y-108855184D01*
X143641825Y-108711794D01*
X143554709Y-108585584D01*
X143554707Y-108585582D01*
X143439922Y-108483891D01*
X143375093Y-108449866D01*
X143304131Y-108412623D01*
X143304128Y-108412622D01*
X143155232Y-108375922D01*
X143155231Y-108375922D01*
X143001875Y-108375922D01*
X143001874Y-108375922D01*
X142852977Y-108412622D01*
X142717183Y-108483891D01*
X142602398Y-108585582D01*
X142515282Y-108711791D01*
X142460900Y-108855183D01*
X142460899Y-108855186D01*
X142442415Y-109007421D01*
X142442415Y-109007422D01*
X107140000Y-109007422D01*
X107140000Y-107707422D01*
X136292415Y-107707422D01*
X136310899Y-107859657D01*
X136310900Y-107859660D01*
X136365282Y-108003052D01*
X136452398Y-108129261D01*
X136567183Y-108230952D01*
X136567185Y-108230953D01*
X136702975Y-108302221D01*
X136802241Y-108326688D01*
X136851874Y-108338922D01*
X136851875Y-108338922D01*
X137005232Y-108338922D01*
X137042456Y-108329746D01*
X137154131Y-108302221D01*
X137289921Y-108230953D01*
X137404709Y-108129260D01*
X137491825Y-108003050D01*
X137546206Y-107859660D01*
X137564691Y-107707422D01*
X137546206Y-107555184D01*
X137491825Y-107411794D01*
X137404709Y-107285584D01*
X137404707Y-107285582D01*
X137289922Y-107183891D01*
X137225093Y-107149866D01*
X137154131Y-107112623D01*
X137154128Y-107112622D01*
X137005232Y-107075922D01*
X137005231Y-107075922D01*
X136851875Y-107075922D01*
X136851874Y-107075922D01*
X136702977Y-107112622D01*
X136567183Y-107183891D01*
X136452398Y-107285582D01*
X136365282Y-107411791D01*
X136310900Y-107555183D01*
X136310899Y-107555186D01*
X136292415Y-107707421D01*
X136292415Y-107707422D01*
X107140000Y-107707422D01*
X107140000Y-105110000D01*
X117803862Y-105110000D01*
X117822346Y-105262235D01*
X117822347Y-105262238D01*
X117876729Y-105405630D01*
X117963845Y-105531839D01*
X118078630Y-105633530D01*
X118078632Y-105633531D01*
X118214422Y-105704799D01*
X118313688Y-105729266D01*
X118363321Y-105741500D01*
X118363322Y-105741500D01*
X118516679Y-105741500D01*
X118553903Y-105732324D01*
X118665578Y-105704799D01*
X118801368Y-105633531D01*
X118916156Y-105531838D01*
X119003272Y-105405628D01*
X119043332Y-105300000D01*
X122693862Y-105300000D01*
X122712346Y-105452235D01*
X122712347Y-105452238D01*
X122766728Y-105595628D01*
X122830322Y-105687761D01*
X122853845Y-105721839D01*
X122968630Y-105823530D01*
X122976697Y-105827764D01*
X123104422Y-105894799D01*
X123229834Y-105925710D01*
X123290214Y-105960866D01*
X123316100Y-106002135D01*
X123365442Y-106132238D01*
X123366729Y-106135630D01*
X123453845Y-106261839D01*
X123568630Y-106363530D01*
X123568632Y-106363531D01*
X123704422Y-106434799D01*
X123803688Y-106459266D01*
X123853321Y-106471500D01*
X123853322Y-106471500D01*
X124006679Y-106471500D01*
X124043903Y-106462324D01*
X124155578Y-106434799D01*
X124291368Y-106363531D01*
X124406156Y-106261838D01*
X124493272Y-106135628D01*
X124544709Y-106000000D01*
X129343862Y-106000000D01*
X129362346Y-106152235D01*
X129362347Y-106152238D01*
X129403913Y-106261839D01*
X129416729Y-106295630D01*
X129503845Y-106421839D01*
X129618630Y-106523530D01*
X129618632Y-106523531D01*
X129754422Y-106594799D01*
X129822180Y-106611500D01*
X129903321Y-106631500D01*
X129903322Y-106631500D01*
X130056679Y-106631500D01*
X130093903Y-106622324D01*
X130205578Y-106594799D01*
X130341368Y-106523531D01*
X130456156Y-106421838D01*
X130543272Y-106295628D01*
X130597653Y-106152238D01*
X130616138Y-106000000D01*
X130613709Y-105980000D01*
X133093862Y-105980000D01*
X133112346Y-106132235D01*
X133112347Y-106132238D01*
X133161498Y-106261839D01*
X133166729Y-106275630D01*
X133253845Y-106401839D01*
X133368630Y-106503530D01*
X133368632Y-106503531D01*
X133504422Y-106574799D01*
X133603688Y-106599266D01*
X133653321Y-106611500D01*
X133653322Y-106611500D01*
X133806679Y-106611500D01*
X133843903Y-106602324D01*
X133955578Y-106574799D01*
X134091368Y-106503531D01*
X134206156Y-106401838D01*
X134293272Y-106275628D01*
X134347653Y-106132238D01*
X134366138Y-105980000D01*
X134347653Y-105827762D01*
X134293272Y-105684372D01*
X134206156Y-105558162D01*
X134206154Y-105558160D01*
X134091369Y-105456469D01*
X133994498Y-105405628D01*
X133955578Y-105385201D01*
X133955575Y-105385200D01*
X133806679Y-105348500D01*
X133806678Y-105348500D01*
X133653322Y-105348500D01*
X133653321Y-105348500D01*
X133504424Y-105385200D01*
X133368630Y-105456469D01*
X133253845Y-105558160D01*
X133166729Y-105684369D01*
X133112347Y-105827761D01*
X133112346Y-105827764D01*
X133093862Y-105979999D01*
X133093862Y-105980000D01*
X130613709Y-105980000D01*
X130613709Y-105979999D01*
X130597653Y-105847764D01*
X130597653Y-105847762D01*
X130543272Y-105704372D01*
X130456156Y-105578162D01*
X130433581Y-105558162D01*
X130341369Y-105476469D01*
X130276540Y-105442444D01*
X130205578Y-105405201D01*
X130205575Y-105405200D01*
X130056679Y-105368500D01*
X130056678Y-105368500D01*
X129903322Y-105368500D01*
X129903321Y-105368500D01*
X129754424Y-105405200D01*
X129754422Y-105405200D01*
X129754422Y-105405201D01*
X129753605Y-105405630D01*
X129618630Y-105476469D01*
X129503845Y-105578160D01*
X129416729Y-105704369D01*
X129362347Y-105847761D01*
X129362346Y-105847764D01*
X129343862Y-105999999D01*
X129343862Y-106000000D01*
X124544709Y-106000000D01*
X124547653Y-105992238D01*
X124566138Y-105840000D01*
X124547653Y-105687762D01*
X124493272Y-105544372D01*
X124406156Y-105418162D01*
X124402454Y-105414882D01*
X124291369Y-105316469D01*
X124155576Y-105245200D01*
X124030165Y-105214289D01*
X123969785Y-105179132D01*
X123943899Y-105137864D01*
X123935963Y-105116938D01*
X123893272Y-105004372D01*
X123806156Y-104878162D01*
X123806154Y-104878160D01*
X123691369Y-104776469D01*
X123580993Y-104718540D01*
X123555578Y-104705201D01*
X123555575Y-104705200D01*
X123406679Y-104668500D01*
X123406678Y-104668500D01*
X123253322Y-104668500D01*
X123253321Y-104668500D01*
X123104424Y-104705200D01*
X122968630Y-104776469D01*
X122853845Y-104878160D01*
X122766729Y-105004369D01*
X122712347Y-105147761D01*
X122712346Y-105147764D01*
X122693862Y-105299999D01*
X122693862Y-105300000D01*
X119043332Y-105300000D01*
X119057653Y-105262238D01*
X119076138Y-105110000D01*
X119057653Y-104957762D01*
X119003272Y-104814372D01*
X118916156Y-104688162D01*
X118916154Y-104688160D01*
X118801369Y-104586469D01*
X118736540Y-104552444D01*
X118665578Y-104515201D01*
X118665575Y-104515200D01*
X118516679Y-104478500D01*
X118516678Y-104478500D01*
X118363322Y-104478500D01*
X118363321Y-104478500D01*
X118214424Y-104515200D01*
X118078630Y-104586469D01*
X117963845Y-104688160D01*
X117876729Y-104814369D01*
X117822347Y-104957761D01*
X117822346Y-104957764D01*
X117803862Y-105109999D01*
X117803862Y-105110000D01*
X107140000Y-105110000D01*
X107140000Y-104190000D01*
X123943862Y-104190000D01*
X123962346Y-104342235D01*
X123962347Y-104342238D01*
X124016729Y-104485630D01*
X124103845Y-104611839D01*
X124218630Y-104713530D01*
X124218632Y-104713531D01*
X124354422Y-104784799D01*
X124453688Y-104809266D01*
X124503321Y-104821500D01*
X124596476Y-104821500D01*
X124663515Y-104841185D01*
X124709270Y-104893989D01*
X124712417Y-104901525D01*
X124736728Y-104965628D01*
X124807221Y-105067756D01*
X124823845Y-105091839D01*
X124938630Y-105193530D01*
X124938632Y-105193531D01*
X125074422Y-105264799D01*
X125173688Y-105289266D01*
X125223321Y-105301500D01*
X125223322Y-105301500D01*
X125376679Y-105301500D01*
X125413903Y-105292324D01*
X125525578Y-105264799D01*
X125661368Y-105193531D01*
X125776156Y-105091838D01*
X125863272Y-104965628D01*
X125917653Y-104822238D01*
X125936138Y-104670000D01*
X125917653Y-104517762D01*
X125863272Y-104374372D01*
X125776156Y-104248162D01*
X125776154Y-104248160D01*
X125661369Y-104146469D01*
X125596540Y-104112444D01*
X125525578Y-104075201D01*
X125525575Y-104075200D01*
X125376679Y-104038500D01*
X125376678Y-104038500D01*
X125283524Y-104038500D01*
X125216485Y-104018815D01*
X125170730Y-103966011D01*
X125167582Y-103958472D01*
X125143272Y-103894372D01*
X125056156Y-103768162D01*
X125056154Y-103768160D01*
X125013085Y-103730004D01*
X159136040Y-103730004D01*
X159155853Y-103994393D01*
X159155853Y-103994395D01*
X159214848Y-104252870D01*
X159214850Y-104252879D01*
X159214852Y-104252884D01*
X159311717Y-104499692D01*
X159444285Y-104729307D01*
X159517807Y-104821500D01*
X159609598Y-104936603D01*
X159723691Y-105042465D01*
X159803954Y-105116938D01*
X160023020Y-105266294D01*
X160261900Y-105381333D01*
X160515257Y-105459483D01*
X160777432Y-105499000D01*
X160777433Y-105499000D01*
X161042567Y-105499000D01*
X161042568Y-105499000D01*
X161304743Y-105459483D01*
X161558100Y-105381333D01*
X161796980Y-105266294D01*
X162016046Y-105116938D01*
X162210405Y-104936599D01*
X162375715Y-104729307D01*
X162508283Y-104499692D01*
X162605148Y-104252884D01*
X162664146Y-103994395D01*
X162675240Y-103846365D01*
X166434500Y-103846365D01*
X166434501Y-103846382D01*
X166464625Y-104075201D01*
X166464879Y-104077126D01*
X166511973Y-104252884D01*
X166525120Y-104301947D01*
X166614180Y-104516960D01*
X166614188Y-104516976D01*
X166730553Y-104718524D01*
X166730564Y-104718540D01*
X166872242Y-104903179D01*
X166872248Y-104903186D01*
X167036813Y-105067751D01*
X167036820Y-105067757D01*
X167128186Y-105137864D01*
X167221468Y-105209442D01*
X167221475Y-105209446D01*
X167423023Y-105325811D01*
X167423039Y-105325819D01*
X167638052Y-105414879D01*
X167638054Y-105414879D01*
X167638060Y-105414882D01*
X167862874Y-105475121D01*
X168093628Y-105505500D01*
X168093635Y-105505500D01*
X168326365Y-105505500D01*
X168326372Y-105505500D01*
X168557126Y-105475121D01*
X168781940Y-105414882D01*
X168942202Y-105348500D01*
X168996960Y-105325819D01*
X168996963Y-105325817D01*
X168996969Y-105325815D01*
X169198532Y-105209442D01*
X169383181Y-105067756D01*
X169547756Y-104903181D01*
X169689442Y-104718532D01*
X169805815Y-104516969D01*
X169806548Y-104515201D01*
X169894879Y-104301947D01*
X169894878Y-104301947D01*
X169894882Y-104301940D01*
X169955121Y-104077126D01*
X169985500Y-103846372D01*
X169985500Y-103613628D01*
X169955121Y-103382874D01*
X169894882Y-103158060D01*
X169894879Y-103158052D01*
X169805819Y-102943039D01*
X169805811Y-102943023D01*
X169689446Y-102741475D01*
X169689442Y-102741468D01*
X169547756Y-102556819D01*
X169547751Y-102556813D01*
X169383186Y-102392248D01*
X169383179Y-102392242D01*
X169198540Y-102250564D01*
X169198538Y-102250562D01*
X169198532Y-102250558D01*
X169198527Y-102250555D01*
X169198524Y-102250553D01*
X168996976Y-102134188D01*
X168996960Y-102134180D01*
X168781947Y-102045120D01*
X168615487Y-102000517D01*
X168557126Y-101984879D01*
X168557125Y-101984878D01*
X168557122Y-101984878D01*
X168326382Y-101954501D01*
X168326377Y-101954500D01*
X168326372Y-101954500D01*
X168093628Y-101954500D01*
X168093622Y-101954500D01*
X168093617Y-101954501D01*
X167862877Y-101984878D01*
X167638052Y-102045120D01*
X167423039Y-102134180D01*
X167423023Y-102134188D01*
X167221475Y-102250553D01*
X167221459Y-102250564D01*
X167036820Y-102392242D01*
X167036813Y-102392248D01*
X166872248Y-102556813D01*
X166872242Y-102556820D01*
X166730564Y-102741459D01*
X166730553Y-102741475D01*
X166614188Y-102943023D01*
X166614180Y-102943039D01*
X166525120Y-103158052D01*
X166464878Y-103382877D01*
X166434501Y-103613617D01*
X166434500Y-103613634D01*
X166434500Y-103846365D01*
X162675240Y-103846365D01*
X162683960Y-103730000D01*
X162675239Y-103613634D01*
X162664146Y-103465606D01*
X162664146Y-103465604D01*
X162605151Y-103207129D01*
X162605150Y-103207128D01*
X162605148Y-103207116D01*
X162508283Y-102960308D01*
X162375715Y-102730693D01*
X162210405Y-102523401D01*
X162210404Y-102523400D01*
X162210401Y-102523396D01*
X162069056Y-102392248D01*
X162016046Y-102343062D01*
X161796980Y-102193706D01*
X161673373Y-102134180D01*
X161558100Y-102078667D01*
X161304751Y-102000519D01*
X161304747Y-102000518D01*
X161304743Y-102000517D01*
X161178632Y-101981508D01*
X161042573Y-101961000D01*
X161042568Y-101961000D01*
X160777432Y-101961000D01*
X160777426Y-101961000D01*
X160619014Y-101984878D01*
X160515257Y-102000517D01*
X160515254Y-102000518D01*
X160515248Y-102000519D01*
X160261899Y-102078667D01*
X160023023Y-102193704D01*
X160023019Y-102193706D01*
X159803956Y-102343060D01*
X159609598Y-102523396D01*
X159444285Y-102730693D01*
X159311717Y-102960307D01*
X159214854Y-103207110D01*
X159214848Y-103207129D01*
X159155853Y-103465604D01*
X159155853Y-103465606D01*
X159136040Y-103729995D01*
X159136040Y-103730004D01*
X125013085Y-103730004D01*
X124941369Y-103666469D01*
X124840699Y-103613634D01*
X124805578Y-103595201D01*
X124805575Y-103595200D01*
X124656679Y-103558500D01*
X124656678Y-103558500D01*
X124503322Y-103558500D01*
X124503321Y-103558500D01*
X124354424Y-103595200D01*
X124218630Y-103666469D01*
X124103845Y-103768160D01*
X124016729Y-103894369D01*
X123962347Y-104037761D01*
X123962346Y-104037764D01*
X123943862Y-104189999D01*
X123943862Y-104190000D01*
X107140000Y-104190000D01*
X107140000Y-101090000D01*
X119993862Y-101090000D01*
X120012346Y-101242235D01*
X120012347Y-101242238D01*
X120051080Y-101344369D01*
X120066729Y-101385630D01*
X120153845Y-101511839D01*
X120268630Y-101613530D01*
X120268632Y-101613531D01*
X120404422Y-101684799D01*
X120463928Y-101699466D01*
X120553321Y-101721500D01*
X120664476Y-101721500D01*
X120731515Y-101741185D01*
X120777270Y-101793989D01*
X120787572Y-101830554D01*
X120802346Y-101952235D01*
X120802347Y-101952238D01*
X120848665Y-102074369D01*
X120856729Y-102095630D01*
X120943845Y-102221839D01*
X121058630Y-102323530D01*
X121058632Y-102323531D01*
X121194422Y-102394799D01*
X121293688Y-102419266D01*
X121343321Y-102431500D01*
X121343322Y-102431500D01*
X121496679Y-102431500D01*
X121533903Y-102422324D01*
X121645578Y-102394799D01*
X121692829Y-102370000D01*
X126603862Y-102370000D01*
X126622346Y-102522235D01*
X126622347Y-102522238D01*
X126676729Y-102665630D01*
X126763845Y-102791839D01*
X126878630Y-102893530D01*
X126878632Y-102893531D01*
X127014422Y-102964799D01*
X127113688Y-102989266D01*
X127163321Y-103001500D01*
X127163322Y-103001500D01*
X127316679Y-103001500D01*
X127353903Y-102992324D01*
X127465578Y-102964799D01*
X127601368Y-102893531D01*
X127716156Y-102791838D01*
X127803272Y-102665628D01*
X127857653Y-102522238D01*
X127874913Y-102380089D01*
X127902535Y-102315911D01*
X127960469Y-102276854D01*
X127983064Y-102271939D01*
X127986677Y-102271500D01*
X127986678Y-102271500D01*
X128135578Y-102234799D01*
X128271368Y-102163531D01*
X128386156Y-102061838D01*
X128473272Y-101935628D01*
X128527653Y-101792238D01*
X128546138Y-101640000D01*
X128527653Y-101487762D01*
X128473272Y-101344372D01*
X128386156Y-101218162D01*
X128371525Y-101205200D01*
X128271369Y-101116469D01*
X128175765Y-101066293D01*
X128135578Y-101045201D01*
X128135575Y-101045200D01*
X127986679Y-101008500D01*
X127986678Y-101008500D01*
X127833322Y-101008500D01*
X127833321Y-101008500D01*
X127684424Y-101045200D01*
X127548630Y-101116469D01*
X127433845Y-101218160D01*
X127346729Y-101344369D01*
X127292347Y-101487761D01*
X127292346Y-101487764D01*
X127275086Y-101629911D01*
X127247464Y-101694089D01*
X127189529Y-101733145D01*
X127166947Y-101738059D01*
X127163325Y-101738499D01*
X127014424Y-101775200D01*
X126878630Y-101846469D01*
X126763845Y-101948160D01*
X126676729Y-102074369D01*
X126622347Y-102217761D01*
X126622346Y-102217764D01*
X126603862Y-102369999D01*
X126603862Y-102370000D01*
X121692829Y-102370000D01*
X121781368Y-102323531D01*
X121896156Y-102221838D01*
X121983272Y-102095628D01*
X122037653Y-101952238D01*
X122056138Y-101800000D01*
X122037653Y-101647762D01*
X121983272Y-101504372D01*
X121896156Y-101378162D01*
X121858015Y-101344372D01*
X121781369Y-101276469D01*
X121645576Y-101205200D01*
X121567131Y-101185865D01*
X121506751Y-101150708D01*
X121474963Y-101088488D01*
X121481859Y-101018960D01*
X121525251Y-100964197D01*
X121539178Y-100955673D01*
X121581368Y-100933531D01*
X121696156Y-100831838D01*
X121783272Y-100705628D01*
X121837653Y-100562238D01*
X121856138Y-100410000D01*
X121837653Y-100257762D01*
X121783272Y-100114372D01*
X121696156Y-99988162D01*
X121696154Y-99988160D01*
X121581369Y-99886469D01*
X121516540Y-99852444D01*
X121445578Y-99815201D01*
X121445575Y-99815200D01*
X121296679Y-99778500D01*
X121296678Y-99778500D01*
X121143322Y-99778500D01*
X121143321Y-99778500D01*
X120994424Y-99815200D01*
X120858630Y-99886469D01*
X120743845Y-99988160D01*
X120656729Y-100114369D01*
X120602347Y-100257761D01*
X120602346Y-100257764D01*
X120589050Y-100367269D01*
X120561428Y-100431447D01*
X120503494Y-100470503D01*
X120495631Y-100472718D01*
X120404426Y-100495199D01*
X120404425Y-100495199D01*
X120268630Y-100566469D01*
X120153845Y-100668160D01*
X120066729Y-100794369D01*
X120012347Y-100937761D01*
X120012346Y-100937764D01*
X119993862Y-101089999D01*
X119993862Y-101090000D01*
X107140000Y-101090000D01*
X107140000Y-99570000D01*
X117783862Y-99570000D01*
X117802346Y-99722235D01*
X117802347Y-99722238D01*
X117856728Y-99865628D01*
X117941305Y-99988160D01*
X117943845Y-99991839D01*
X118058630Y-100093530D01*
X118058632Y-100093531D01*
X118194422Y-100164799D01*
X118293688Y-100189266D01*
X118343321Y-100201500D01*
X118343322Y-100201500D01*
X118496679Y-100201500D01*
X118533903Y-100192324D01*
X118645578Y-100164799D01*
X118781368Y-100093531D01*
X118896156Y-99991838D01*
X118983272Y-99865628D01*
X119037653Y-99722238D01*
X119056138Y-99570000D01*
X119051282Y-99530004D01*
X159136040Y-99530004D01*
X159155853Y-99794393D01*
X159155853Y-99794395D01*
X159214848Y-100052870D01*
X159214850Y-100052879D01*
X159214852Y-100052884D01*
X159311717Y-100299692D01*
X159444285Y-100529307D01*
X159470547Y-100562238D01*
X159609598Y-100736603D01*
X159671856Y-100794369D01*
X159803954Y-100916938D01*
X160023020Y-101066294D01*
X160261900Y-101181333D01*
X160515257Y-101259483D01*
X160777432Y-101299000D01*
X160777433Y-101299000D01*
X161042567Y-101299000D01*
X161042568Y-101299000D01*
X161304743Y-101259483D01*
X161558100Y-101181333D01*
X161796980Y-101066294D01*
X162016046Y-100916938D01*
X162210405Y-100736599D01*
X162375715Y-100529307D01*
X162508283Y-100299692D01*
X162605148Y-100052884D01*
X162664146Y-99794395D01*
X162670750Y-99706263D01*
X162683960Y-99530004D01*
X162683960Y-99529995D01*
X162664146Y-99265606D01*
X162664146Y-99265604D01*
X162605151Y-99007129D01*
X162605150Y-99007128D01*
X162605148Y-99007116D01*
X162508283Y-98760308D01*
X162375715Y-98530693D01*
X162210405Y-98323401D01*
X162210404Y-98323400D01*
X162210401Y-98323396D01*
X162073605Y-98196469D01*
X162016046Y-98143062D01*
X161796980Y-97993706D01*
X161558100Y-97878667D01*
X161304751Y-97800519D01*
X161304747Y-97800518D01*
X161304743Y-97800517D01*
X161178632Y-97781508D01*
X161042573Y-97761000D01*
X161042568Y-97761000D01*
X160777432Y-97761000D01*
X160777426Y-97761000D01*
X160614155Y-97785610D01*
X160515257Y-97800517D01*
X160515254Y-97800518D01*
X160515248Y-97800519D01*
X160261899Y-97878667D01*
X160023023Y-97993704D01*
X160023019Y-97993706D01*
X159803956Y-98143060D01*
X159609598Y-98323396D01*
X159444285Y-98530693D01*
X159311717Y-98760307D01*
X159214854Y-99007110D01*
X159214848Y-99007129D01*
X159155853Y-99265604D01*
X159155853Y-99265606D01*
X159136040Y-99529995D01*
X159136040Y-99530004D01*
X119051282Y-99530004D01*
X119037653Y-99417762D01*
X118983272Y-99274372D01*
X118896156Y-99148162D01*
X118877730Y-99131838D01*
X118781369Y-99046469D01*
X118706387Y-99007116D01*
X118645578Y-98975201D01*
X118645575Y-98975200D01*
X118496679Y-98938500D01*
X118496678Y-98938500D01*
X118343322Y-98938500D01*
X118343321Y-98938500D01*
X118194424Y-98975200D01*
X118058630Y-99046469D01*
X117943845Y-99148160D01*
X117856729Y-99274369D01*
X117802347Y-99417761D01*
X117802346Y-99417764D01*
X117783862Y-99569999D01*
X117783862Y-99570000D01*
X107140000Y-99570000D01*
X107140000Y-97610000D01*
X123473862Y-97610000D01*
X123492346Y-97762235D01*
X123492347Y-97762238D01*
X123546729Y-97905630D01*
X123633845Y-98031839D01*
X123748630Y-98133530D01*
X123748632Y-98133531D01*
X123884422Y-98204799D01*
X123980876Y-98228573D01*
X124041256Y-98263730D01*
X124073044Y-98325949D01*
X124066148Y-98395478D01*
X124059695Y-98407455D01*
X124060215Y-98407728D01*
X124056729Y-98414368D01*
X124002347Y-98557761D01*
X124002346Y-98557764D01*
X123983862Y-98709999D01*
X123983862Y-98710000D01*
X124002346Y-98862235D01*
X124002347Y-98862238D01*
X124045188Y-98975201D01*
X124056729Y-99005630D01*
X124143845Y-99131839D01*
X124258630Y-99233530D01*
X124258632Y-99233531D01*
X124394422Y-99304799D01*
X124493688Y-99329266D01*
X124543321Y-99341500D01*
X124543322Y-99341500D01*
X124696679Y-99341500D01*
X124733903Y-99332324D01*
X124845578Y-99304799D01*
X124981368Y-99233531D01*
X125096156Y-99131838D01*
X125183272Y-99005628D01*
X125237653Y-98862238D01*
X125254924Y-98720000D01*
X142653862Y-98720000D01*
X142672346Y-98872235D01*
X142672347Y-98872238D01*
X142722935Y-99005628D01*
X142726729Y-99015630D01*
X142813845Y-99141839D01*
X142928630Y-99243530D01*
X142928632Y-99243531D01*
X143064422Y-99314799D01*
X143163688Y-99339266D01*
X143213321Y-99351500D01*
X143213322Y-99351500D01*
X143366679Y-99351500D01*
X143407249Y-99341500D01*
X143515578Y-99314799D01*
X143651368Y-99243531D01*
X143766156Y-99141838D01*
X143853272Y-99015628D01*
X143907653Y-98872238D01*
X143926138Y-98720000D01*
X143907653Y-98567762D01*
X143853272Y-98424372D01*
X143766156Y-98298162D01*
X143766154Y-98298160D01*
X143651369Y-98196469D01*
X143549609Y-98143062D01*
X143515578Y-98125201D01*
X143515575Y-98125200D01*
X143366679Y-98088500D01*
X143366678Y-98088500D01*
X143213322Y-98088500D01*
X143213321Y-98088500D01*
X143064424Y-98125200D01*
X142928630Y-98196469D01*
X142813845Y-98298160D01*
X142726729Y-98424369D01*
X142672347Y-98567761D01*
X142672346Y-98567764D01*
X142653862Y-98719999D01*
X142653862Y-98720000D01*
X125254924Y-98720000D01*
X125256138Y-98710000D01*
X125237653Y-98557762D01*
X125183272Y-98414372D01*
X125096156Y-98288162D01*
X125068578Y-98263730D01*
X124981369Y-98186469D01*
X124845574Y-98115199D01*
X124845571Y-98115198D01*
X124749123Y-98091425D01*
X124688742Y-98056269D01*
X124656954Y-97994049D01*
X124663851Y-97924520D01*
X124670309Y-97912547D01*
X124669785Y-97912272D01*
X124673270Y-97905631D01*
X124673270Y-97905630D01*
X124673272Y-97905628D01*
X124727653Y-97762238D01*
X124746138Y-97610000D01*
X124737638Y-97540000D01*
X133983862Y-97540000D01*
X134002346Y-97692235D01*
X134002347Y-97692238D01*
X134043412Y-97800518D01*
X134056729Y-97835630D01*
X134143845Y-97961839D01*
X134258630Y-98063530D01*
X134258632Y-98063531D01*
X134394422Y-98134799D01*
X134493688Y-98159266D01*
X134543321Y-98171500D01*
X134543322Y-98171500D01*
X134696679Y-98171500D01*
X134733903Y-98162324D01*
X134845578Y-98134799D01*
X134981368Y-98063531D01*
X135096156Y-97961838D01*
X135183272Y-97835628D01*
X135237653Y-97692238D01*
X135256138Y-97540000D01*
X135237653Y-97387762D01*
X135183272Y-97244372D01*
X135096156Y-97118162D01*
X135081864Y-97105500D01*
X134981369Y-97016469D01*
X134909011Y-96978493D01*
X134845578Y-96945201D01*
X134845575Y-96945200D01*
X134696679Y-96908500D01*
X134696678Y-96908500D01*
X134543322Y-96908500D01*
X134543321Y-96908500D01*
X134394424Y-96945200D01*
X134258630Y-97016469D01*
X134143845Y-97118160D01*
X134056729Y-97244369D01*
X134002347Y-97387761D01*
X134002346Y-97387764D01*
X133983862Y-97539999D01*
X133983862Y-97540000D01*
X124737638Y-97540000D01*
X124727653Y-97457762D01*
X124673272Y-97314372D01*
X124586156Y-97188162D01*
X124586152Y-97188158D01*
X124585771Y-97187728D01*
X124585588Y-97187340D01*
X124581895Y-97181989D01*
X124582784Y-97181374D01*
X124556049Y-97124495D01*
X124565232Y-97055231D01*
X124610404Y-97001928D01*
X124677223Y-96981507D01*
X124678586Y-96981500D01*
X124696679Y-96981500D01*
X124733903Y-96972324D01*
X124845578Y-96944799D01*
X124981368Y-96873531D01*
X125096156Y-96771838D01*
X125183272Y-96645628D01*
X125237653Y-96502238D01*
X125256138Y-96350000D01*
X125237653Y-96197762D01*
X125183272Y-96054372D01*
X125096156Y-95928162D01*
X125096154Y-95928160D01*
X124981369Y-95826469D01*
X124916540Y-95792444D01*
X124845578Y-95755201D01*
X124845575Y-95755200D01*
X124696679Y-95718500D01*
X124696678Y-95718500D01*
X124543322Y-95718500D01*
X124543321Y-95718500D01*
X124394424Y-95755200D01*
X124258630Y-95826469D01*
X124143845Y-95928160D01*
X124056729Y-96054369D01*
X124002347Y-96197761D01*
X124002346Y-96197764D01*
X123983862Y-96349999D01*
X123983862Y-96350000D01*
X124002346Y-96502235D01*
X124002347Y-96502238D01*
X124021308Y-96552235D01*
X124056729Y-96645630D01*
X124105949Y-96716938D01*
X124143844Y-96771838D01*
X124143847Y-96771840D01*
X124144229Y-96772272D01*
X124144411Y-96772659D01*
X124148105Y-96778011D01*
X124147215Y-96778625D01*
X124173951Y-96835505D01*
X124164768Y-96904769D01*
X124119596Y-96958072D01*
X124052777Y-96978493D01*
X124051414Y-96978500D01*
X124033321Y-96978500D01*
X123884424Y-97015200D01*
X123748630Y-97086469D01*
X123633845Y-97188160D01*
X123546729Y-97314369D01*
X123492347Y-97457761D01*
X123492346Y-97457764D01*
X123473862Y-97609999D01*
X123473862Y-97610000D01*
X107140000Y-97610000D01*
X107140000Y-96400000D01*
X120633862Y-96400000D01*
X120652346Y-96552235D01*
X120652347Y-96552238D01*
X120706728Y-96695628D01*
X120785290Y-96809446D01*
X120793845Y-96821839D01*
X120908630Y-96923530D01*
X120908632Y-96923531D01*
X121044422Y-96994799D01*
X121125889Y-97014879D01*
X121193321Y-97031500D01*
X121193322Y-97031500D01*
X121346679Y-97031500D01*
X121407660Y-97016469D01*
X121495578Y-96994799D01*
X121631368Y-96923531D01*
X121746156Y-96821838D01*
X121833272Y-96695628D01*
X121887653Y-96552238D01*
X121906138Y-96400000D01*
X121887653Y-96247762D01*
X121833272Y-96104372D01*
X121746156Y-95978162D01*
X121689718Y-95928162D01*
X121631369Y-95876469D01*
X121566540Y-95842444D01*
X121495578Y-95805201D01*
X121495575Y-95805200D01*
X121346679Y-95768500D01*
X121346678Y-95768500D01*
X121193322Y-95768500D01*
X121193321Y-95768500D01*
X121044424Y-95805200D01*
X120908630Y-95876469D01*
X120793845Y-95978160D01*
X120706729Y-96104369D01*
X120652347Y-96247761D01*
X120652346Y-96247764D01*
X120633862Y-96399999D01*
X120633862Y-96400000D01*
X107140000Y-96400000D01*
X107140000Y-95170000D01*
X126603862Y-95170000D01*
X126622346Y-95322235D01*
X126622347Y-95322238D01*
X126669422Y-95446365D01*
X126676729Y-95465630D01*
X126763845Y-95591839D01*
X126878630Y-95693530D01*
X126878632Y-95693531D01*
X127014422Y-95764799D01*
X127082180Y-95781500D01*
X127163321Y-95801500D01*
X127163322Y-95801500D01*
X127316679Y-95801500D01*
X127353903Y-95792324D01*
X127465578Y-95764799D01*
X127601368Y-95693531D01*
X127716156Y-95591838D01*
X127803272Y-95465628D01*
X127857653Y-95322238D01*
X127876138Y-95170000D01*
X127873709Y-95150000D01*
X133983862Y-95150000D01*
X134002346Y-95302235D01*
X134002347Y-95302238D01*
X134056729Y-95445630D01*
X134143845Y-95571839D01*
X134258630Y-95673530D01*
X134258632Y-95673531D01*
X134394422Y-95744799D01*
X134490580Y-95768500D01*
X134543321Y-95781500D01*
X134543322Y-95781500D01*
X134696679Y-95781500D01*
X134749420Y-95768500D01*
X134845578Y-95744799D01*
X134981368Y-95673531D01*
X135096156Y-95571838D01*
X135183272Y-95445628D01*
X135227123Y-95330004D01*
X159136040Y-95330004D01*
X159155853Y-95594393D01*
X159155853Y-95594395D01*
X159214848Y-95852870D01*
X159214850Y-95852879D01*
X159214852Y-95852884D01*
X159311717Y-96099692D01*
X159444285Y-96329307D01*
X159500660Y-96399999D01*
X159609598Y-96536603D01*
X159723691Y-96642465D01*
X159803954Y-96716938D01*
X160023020Y-96866294D01*
X160261900Y-96981333D01*
X160515257Y-97059483D01*
X160777432Y-97099000D01*
X160777433Y-97099000D01*
X161042567Y-97099000D01*
X161042568Y-97099000D01*
X161304743Y-97059483D01*
X161558100Y-96981333D01*
X161796980Y-96866294D01*
X162016046Y-96716938D01*
X162193550Y-96552238D01*
X162210401Y-96536603D01*
X162210401Y-96536601D01*
X162210405Y-96536599D01*
X162375715Y-96329307D01*
X162508283Y-96099692D01*
X162605148Y-95852884D01*
X162664146Y-95594395D01*
X162675240Y-95446365D01*
X166434500Y-95446365D01*
X166434501Y-95446382D01*
X166464405Y-95673531D01*
X166464879Y-95677126D01*
X166511973Y-95852884D01*
X166525120Y-95901947D01*
X166614180Y-96116960D01*
X166614188Y-96116976D01*
X166730553Y-96318524D01*
X166730564Y-96318540D01*
X166872242Y-96503179D01*
X166872248Y-96503186D01*
X167036813Y-96667751D01*
X167036820Y-96667757D01*
X167168303Y-96768647D01*
X167221468Y-96809442D01*
X167221475Y-96809446D01*
X167423023Y-96925811D01*
X167423039Y-96925819D01*
X167638052Y-97014879D01*
X167638054Y-97014879D01*
X167638060Y-97014882D01*
X167862874Y-97075121D01*
X168093628Y-97105500D01*
X168093635Y-97105500D01*
X168326365Y-97105500D01*
X168326372Y-97105500D01*
X168557126Y-97075121D01*
X168781940Y-97014882D01*
X168950169Y-96945200D01*
X168996960Y-96925819D01*
X168996963Y-96925817D01*
X168996969Y-96925815D01*
X169198532Y-96809442D01*
X169383181Y-96667756D01*
X169547756Y-96503181D01*
X169689442Y-96318532D01*
X169805815Y-96116969D01*
X169812972Y-96099692D01*
X169894879Y-95901947D01*
X169894878Y-95901947D01*
X169894882Y-95901940D01*
X169955121Y-95677126D01*
X169985500Y-95446372D01*
X169985500Y-95213628D01*
X169955121Y-94982874D01*
X169894882Y-94758060D01*
X169890782Y-94748162D01*
X169805819Y-94543039D01*
X169805811Y-94543023D01*
X169689446Y-94341475D01*
X169689442Y-94341468D01*
X169615903Y-94245630D01*
X169547757Y-94156820D01*
X169547751Y-94156813D01*
X169383186Y-93992248D01*
X169383179Y-93992242D01*
X169198540Y-93850564D01*
X169198538Y-93850562D01*
X169198532Y-93850558D01*
X169198527Y-93850555D01*
X169198524Y-93850553D01*
X168996976Y-93734188D01*
X168996960Y-93734180D01*
X168781947Y-93645120D01*
X168615487Y-93600517D01*
X168557126Y-93584879D01*
X168557125Y-93584878D01*
X168557122Y-93584878D01*
X168326382Y-93554501D01*
X168326377Y-93554500D01*
X168326372Y-93554500D01*
X168093628Y-93554500D01*
X168093622Y-93554500D01*
X168093617Y-93554501D01*
X167862877Y-93584878D01*
X167638052Y-93645120D01*
X167423039Y-93734180D01*
X167423023Y-93734188D01*
X167221475Y-93850553D01*
X167221459Y-93850564D01*
X167036820Y-93992242D01*
X167036813Y-93992248D01*
X166872248Y-94156813D01*
X166872242Y-94156820D01*
X166730564Y-94341459D01*
X166730553Y-94341475D01*
X166614188Y-94543023D01*
X166614180Y-94543039D01*
X166525120Y-94758052D01*
X166464878Y-94982877D01*
X166434501Y-95213617D01*
X166434500Y-95213634D01*
X166434500Y-95446365D01*
X162675240Y-95446365D01*
X162683960Y-95330000D01*
X162683378Y-95322238D01*
X162664146Y-95065606D01*
X162664146Y-95065604D01*
X162605151Y-94807129D01*
X162605150Y-94807128D01*
X162605148Y-94807116D01*
X162508283Y-94560308D01*
X162375715Y-94330693D01*
X162210405Y-94123401D01*
X162210404Y-94123400D01*
X162210401Y-94123396D01*
X162069056Y-93992248D01*
X162016046Y-93943062D01*
X161796980Y-93793706D01*
X161673373Y-93734180D01*
X161558100Y-93678667D01*
X161304751Y-93600519D01*
X161304747Y-93600518D01*
X161304743Y-93600517D01*
X161178632Y-93581508D01*
X161042573Y-93561000D01*
X161042568Y-93561000D01*
X160777432Y-93561000D01*
X160777426Y-93561000D01*
X160619014Y-93584878D01*
X160515257Y-93600517D01*
X160515254Y-93600518D01*
X160515248Y-93600519D01*
X160261899Y-93678667D01*
X160023023Y-93793704D01*
X160023019Y-93793706D01*
X159803956Y-93943060D01*
X159609598Y-94123396D01*
X159444285Y-94330693D01*
X159311717Y-94560307D01*
X159214854Y-94807110D01*
X159214848Y-94807129D01*
X159155853Y-95065604D01*
X159155853Y-95065606D01*
X159136040Y-95329995D01*
X159136040Y-95330004D01*
X135227123Y-95330004D01*
X135237653Y-95302238D01*
X135256138Y-95150000D01*
X135237653Y-94997762D01*
X135183272Y-94854372D01*
X135096156Y-94728162D01*
X135075187Y-94709585D01*
X134981369Y-94626469D01*
X134916540Y-94592444D01*
X134845578Y-94555201D01*
X134845575Y-94555200D01*
X134696679Y-94518500D01*
X134696678Y-94518500D01*
X134543322Y-94518500D01*
X134543321Y-94518500D01*
X134394424Y-94555200D01*
X134258630Y-94626469D01*
X134143845Y-94728160D01*
X134056729Y-94854369D01*
X134002347Y-94997761D01*
X134002346Y-94997764D01*
X133983862Y-95149999D01*
X133983862Y-95150000D01*
X127873709Y-95150000D01*
X127873709Y-95149999D01*
X127857653Y-95017764D01*
X127857653Y-95017762D01*
X127803272Y-94874372D01*
X127735330Y-94775940D01*
X127713447Y-94709585D01*
X127730913Y-94641933D01*
X127782181Y-94594464D01*
X127837380Y-94581500D01*
X127966679Y-94581500D01*
X128003903Y-94572324D01*
X128115578Y-94544799D01*
X128251368Y-94473531D01*
X128366156Y-94371838D01*
X128453272Y-94245628D01*
X128507653Y-94102238D01*
X128526138Y-93950000D01*
X128507653Y-93797762D01*
X128453272Y-93654372D01*
X128366156Y-93528162D01*
X128332291Y-93498160D01*
X128251369Y-93426469D01*
X128186540Y-93392444D01*
X128115578Y-93355201D01*
X128115575Y-93355200D01*
X127966679Y-93318500D01*
X127966678Y-93318500D01*
X127813322Y-93318500D01*
X127813321Y-93318500D01*
X127664424Y-93355200D01*
X127528630Y-93426469D01*
X127413845Y-93528160D01*
X127326729Y-93654369D01*
X127272347Y-93797761D01*
X127272346Y-93797764D01*
X127253862Y-93949999D01*
X127253862Y-93950000D01*
X127272346Y-94102235D01*
X127272347Y-94102238D01*
X127315350Y-94215628D01*
X127326729Y-94245630D01*
X127394670Y-94344060D01*
X127416553Y-94410415D01*
X127399087Y-94478067D01*
X127347819Y-94525536D01*
X127292620Y-94538500D01*
X127163321Y-94538500D01*
X127014424Y-94575200D01*
X126878630Y-94646469D01*
X126763845Y-94748160D01*
X126676729Y-94874369D01*
X126622347Y-95017761D01*
X126622346Y-95017764D01*
X126603862Y-95169999D01*
X126603862Y-95170000D01*
X107140000Y-95170000D01*
X107140000Y-93920000D01*
X120633862Y-93920000D01*
X120652346Y-94072235D01*
X120652347Y-94072238D01*
X120706728Y-94215628D01*
X120793593Y-94341475D01*
X120793845Y-94341839D01*
X120908630Y-94443530D01*
X120908632Y-94443531D01*
X121044422Y-94514799D01*
X121140580Y-94538500D01*
X121193321Y-94551500D01*
X121193322Y-94551500D01*
X121346679Y-94551500D01*
X121399420Y-94538500D01*
X121495578Y-94514799D01*
X121631368Y-94443531D01*
X121746156Y-94341838D01*
X121833272Y-94215628D01*
X121887653Y-94072238D01*
X121906138Y-93920000D01*
X121887653Y-93767762D01*
X121833272Y-93624372D01*
X121746156Y-93498162D01*
X121746154Y-93498160D01*
X121631369Y-93396469D01*
X121552736Y-93355200D01*
X121495578Y-93325201D01*
X121495575Y-93325200D01*
X121346679Y-93288500D01*
X121346678Y-93288500D01*
X121193322Y-93288500D01*
X121193321Y-93288500D01*
X121044424Y-93325200D01*
X120908630Y-93396469D01*
X120793845Y-93498160D01*
X120706729Y-93624369D01*
X120652347Y-93767761D01*
X120652346Y-93767764D01*
X120633862Y-93919999D01*
X120633862Y-93920000D01*
X107140000Y-93920000D01*
X107140000Y-92720000D01*
X128373862Y-92720000D01*
X128392346Y-92872235D01*
X128392347Y-92872238D01*
X128427765Y-92965628D01*
X128446729Y-93015630D01*
X128533845Y-93141839D01*
X128648630Y-93243530D01*
X128648632Y-93243531D01*
X128784422Y-93314799D01*
X128883688Y-93339266D01*
X128933321Y-93351500D01*
X128933322Y-93351500D01*
X129086679Y-93351500D01*
X129123903Y-93342324D01*
X129235578Y-93314799D01*
X129371368Y-93243531D01*
X129486156Y-93141838D01*
X129573272Y-93015628D01*
X129627653Y-92872238D01*
X129646138Y-92720000D01*
X129640067Y-92670000D01*
X133983862Y-92670000D01*
X134002346Y-92822235D01*
X134002347Y-92822238D01*
X134021308Y-92872235D01*
X134056729Y-92965630D01*
X134143845Y-93091839D01*
X134258630Y-93193530D01*
X134258632Y-93193531D01*
X134394422Y-93264799D01*
X134490580Y-93288500D01*
X134543321Y-93301500D01*
X134543322Y-93301500D01*
X134696679Y-93301500D01*
X134749420Y-93288500D01*
X134845578Y-93264799D01*
X134981368Y-93193531D01*
X135096156Y-93091838D01*
X135183272Y-92965628D01*
X135237653Y-92822238D01*
X135256138Y-92670000D01*
X135237653Y-92517762D01*
X135183272Y-92374372D01*
X135104327Y-92260000D01*
X147573862Y-92260000D01*
X147592346Y-92412235D01*
X147592347Y-92412238D01*
X147646729Y-92555630D01*
X147733845Y-92681839D01*
X147848630Y-92783530D01*
X147848632Y-92783531D01*
X147984422Y-92854799D01*
X148083688Y-92879266D01*
X148133321Y-92891500D01*
X148133322Y-92891500D01*
X148286679Y-92891500D01*
X148323903Y-92882324D01*
X148435578Y-92854799D01*
X148571368Y-92783531D01*
X148686156Y-92681838D01*
X148773272Y-92555628D01*
X148827653Y-92412238D01*
X148846138Y-92260000D01*
X148827653Y-92107762D01*
X148773272Y-91964372D01*
X148686156Y-91838162D01*
X148660723Y-91815630D01*
X148571369Y-91736469D01*
X148506540Y-91702444D01*
X148435578Y-91665201D01*
X148435575Y-91665200D01*
X148286679Y-91628500D01*
X148286678Y-91628500D01*
X148133322Y-91628500D01*
X148133321Y-91628500D01*
X147984424Y-91665200D01*
X147848630Y-91736469D01*
X147733845Y-91838160D01*
X147646729Y-91964369D01*
X147592347Y-92107761D01*
X147592346Y-92107764D01*
X147573862Y-92259999D01*
X147573862Y-92260000D01*
X135104327Y-92260000D01*
X135096156Y-92248162D01*
X135055262Y-92211933D01*
X134981369Y-92146469D01*
X134907616Y-92107761D01*
X134845578Y-92075201D01*
X134845575Y-92075200D01*
X134696679Y-92038500D01*
X134696678Y-92038500D01*
X134543322Y-92038500D01*
X134543321Y-92038500D01*
X134394424Y-92075200D01*
X134258630Y-92146469D01*
X134143845Y-92248160D01*
X134056729Y-92374369D01*
X134002347Y-92517761D01*
X134002346Y-92517764D01*
X133983862Y-92669999D01*
X133983862Y-92670000D01*
X129640067Y-92670000D01*
X129627653Y-92567762D01*
X129573272Y-92424372D01*
X129564897Y-92412238D01*
X129519135Y-92345940D01*
X129497252Y-92279585D01*
X129514718Y-92211933D01*
X129565986Y-92164464D01*
X129621185Y-92151500D01*
X129646679Y-92151500D01*
X129683903Y-92142324D01*
X129795578Y-92114799D01*
X129931368Y-92043531D01*
X130046156Y-91941838D01*
X130133272Y-91815628D01*
X130187653Y-91672238D01*
X130206138Y-91520000D01*
X130187653Y-91367762D01*
X130187652Y-91367759D01*
X130187651Y-91367754D01*
X130159027Y-91292282D01*
X130153659Y-91222619D01*
X130186805Y-91161113D01*
X130245292Y-91127914D01*
X130352315Y-91101535D01*
X130488105Y-91030267D01*
X130602893Y-90928574D01*
X130690009Y-90802364D01*
X130692079Y-90796905D01*
X130734254Y-90741203D01*
X130799851Y-90717144D01*
X130865643Y-90731077D01*
X130939422Y-90769799D01*
X130939424Y-90769799D01*
X130939425Y-90769800D01*
X131088321Y-90806500D01*
X131088322Y-90806500D01*
X131241679Y-90806500D01*
X131280598Y-90796907D01*
X131390578Y-90769799D01*
X131526368Y-90698531D01*
X131641156Y-90596838D01*
X131728272Y-90470628D01*
X131782653Y-90327238D01*
X131794460Y-90230000D01*
X133983862Y-90230000D01*
X134002346Y-90382235D01*
X134002347Y-90382238D01*
X134056729Y-90525630D01*
X134143845Y-90651839D01*
X134258630Y-90753530D01*
X134258632Y-90753531D01*
X134394422Y-90824799D01*
X134493688Y-90849266D01*
X134543321Y-90861500D01*
X134543322Y-90861500D01*
X134696679Y-90861500D01*
X134733903Y-90852324D01*
X134845578Y-90824799D01*
X134981368Y-90753531D01*
X135096156Y-90651838D01*
X135183272Y-90525628D01*
X135237653Y-90382238D01*
X135256138Y-90230000D01*
X135237653Y-90077762D01*
X135183272Y-89934372D01*
X135096156Y-89808162D01*
X135034074Y-89753162D01*
X134981369Y-89706469D01*
X134876574Y-89651469D01*
X134845578Y-89635201D01*
X134845575Y-89635200D01*
X134696679Y-89598500D01*
X134696678Y-89598500D01*
X134543322Y-89598500D01*
X134543321Y-89598500D01*
X134394424Y-89635200D01*
X134258630Y-89706469D01*
X134143845Y-89808160D01*
X134056729Y-89934369D01*
X134002347Y-90077761D01*
X134002346Y-90077764D01*
X133983862Y-90229999D01*
X133983862Y-90230000D01*
X131794460Y-90230000D01*
X131801138Y-90175000D01*
X131782653Y-90022762D01*
X131728272Y-89879372D01*
X131641156Y-89753162D01*
X131641154Y-89753160D01*
X131526369Y-89651469D01*
X131456499Y-89614799D01*
X131390578Y-89580201D01*
X131390575Y-89580200D01*
X131241679Y-89543500D01*
X131241678Y-89543500D01*
X131088322Y-89543500D01*
X131088321Y-89543500D01*
X130939424Y-89580200D01*
X130803630Y-89651469D01*
X130688845Y-89753160D01*
X130601729Y-89879370D01*
X130601726Y-89879374D01*
X130599654Y-89884839D01*
X130557472Y-89940539D01*
X130491873Y-89964591D01*
X130426090Y-89950657D01*
X130352313Y-89911936D01*
X130203416Y-89875236D01*
X130203415Y-89875236D01*
X130050059Y-89875236D01*
X130050058Y-89875236D01*
X129901161Y-89911936D01*
X129765367Y-89983205D01*
X129650582Y-90084896D01*
X129563466Y-90211105D01*
X129509084Y-90354497D01*
X129509083Y-90354500D01*
X129490599Y-90506735D01*
X129490599Y-90506736D01*
X129509083Y-90658971D01*
X129509084Y-90658974D01*
X129537710Y-90734453D01*
X129543077Y-90804117D01*
X129509930Y-90865623D01*
X129451444Y-90898822D01*
X129344423Y-90925200D01*
X129208630Y-90996469D01*
X129093845Y-91098160D01*
X129006729Y-91224369D01*
X128952347Y-91367761D01*
X128952346Y-91367764D01*
X128933862Y-91519999D01*
X128933862Y-91520000D01*
X128952346Y-91672235D01*
X128952347Y-91672238D01*
X128961218Y-91695630D01*
X129006729Y-91815630D01*
X129060865Y-91894060D01*
X129082748Y-91960415D01*
X129065282Y-92028067D01*
X129014014Y-92075536D01*
X128958815Y-92088500D01*
X128933321Y-92088500D01*
X128784424Y-92125200D01*
X128648630Y-92196469D01*
X128533845Y-92298160D01*
X128446729Y-92424369D01*
X128392347Y-92567761D01*
X128392346Y-92567764D01*
X128373862Y-92719999D01*
X128373862Y-92720000D01*
X107140000Y-92720000D01*
X107140000Y-91400000D01*
X120633862Y-91400000D01*
X120652346Y-91552235D01*
X120652347Y-91552238D01*
X120695188Y-91665201D01*
X120706729Y-91695630D01*
X120793845Y-91821839D01*
X120908630Y-91923530D01*
X120908632Y-91923531D01*
X121044422Y-91994799D01*
X121143688Y-92019266D01*
X121193321Y-92031500D01*
X121193322Y-92031500D01*
X121346679Y-92031500D01*
X121383903Y-92022324D01*
X121495578Y-91994799D01*
X121631368Y-91923531D01*
X121746156Y-91821838D01*
X121833272Y-91695628D01*
X121887653Y-91552238D01*
X121906138Y-91400000D01*
X121902223Y-91367761D01*
X121887653Y-91247764D01*
X121887653Y-91247762D01*
X121833272Y-91104372D01*
X121746156Y-90978162D01*
X121690183Y-90928574D01*
X121631369Y-90876469D01*
X121566540Y-90842444D01*
X121495578Y-90805201D01*
X121495575Y-90805200D01*
X121346679Y-90768500D01*
X121346678Y-90768500D01*
X121193322Y-90768500D01*
X121193321Y-90768500D01*
X121044424Y-90805200D01*
X120908630Y-90876469D01*
X120793845Y-90978160D01*
X120706729Y-91104369D01*
X120652347Y-91247761D01*
X120652346Y-91247764D01*
X120633862Y-91399999D01*
X120633862Y-91400000D01*
X107140000Y-91400000D01*
X107140000Y-89020000D01*
X120633862Y-89020000D01*
X120652346Y-89172235D01*
X120652347Y-89172238D01*
X120706729Y-89315630D01*
X120793845Y-89441839D01*
X120908630Y-89543530D01*
X120908632Y-89543531D01*
X121044422Y-89614799D01*
X121127191Y-89635200D01*
X121193321Y-89651500D01*
X121193322Y-89651500D01*
X121346679Y-89651500D01*
X121383903Y-89642324D01*
X121495578Y-89614799D01*
X121631368Y-89543531D01*
X121746156Y-89441838D01*
X121833272Y-89315628D01*
X121887653Y-89172238D01*
X121906138Y-89020000D01*
X121887653Y-88867762D01*
X121833272Y-88724372D01*
X121746156Y-88598162D01*
X121746154Y-88598160D01*
X121631369Y-88496469D01*
X121566540Y-88462444D01*
X121495578Y-88425201D01*
X121495575Y-88425200D01*
X121346679Y-88388500D01*
X121346678Y-88388500D01*
X121193322Y-88388500D01*
X121193321Y-88388500D01*
X121044424Y-88425200D01*
X120908630Y-88496469D01*
X120793845Y-88598160D01*
X120706729Y-88724369D01*
X120652347Y-88867761D01*
X120652346Y-88867764D01*
X120633862Y-89019999D01*
X120633862Y-89020000D01*
X107140000Y-89020000D01*
X107140000Y-82130000D01*
X164653867Y-82130000D01*
X164672359Y-82329575D01*
X164727210Y-82522353D01*
X164727215Y-82522366D01*
X164816551Y-82701775D01*
X164937339Y-82861725D01*
X165085458Y-82996752D01*
X165085460Y-82996754D01*
X165255865Y-83102264D01*
X165255867Y-83102265D01*
X165255869Y-83102266D01*
X165442766Y-83174671D01*
X165639784Y-83211500D01*
X165639786Y-83211500D01*
X165840214Y-83211500D01*
X165840216Y-83211500D01*
X166037234Y-83174671D01*
X166224131Y-83102266D01*
X166394541Y-82996753D01*
X166542662Y-82861723D01*
X166641046Y-82731440D01*
X166697155Y-82689805D01*
X166766867Y-82685114D01*
X166828049Y-82718856D01*
X166838954Y-82731441D01*
X166937339Y-82861725D01*
X167064762Y-82977885D01*
X167085459Y-82996753D01*
X167129843Y-83024234D01*
X167130390Y-83024573D01*
X167177025Y-83076601D01*
X167188129Y-83145583D01*
X167160176Y-83209617D01*
X167130390Y-83235427D01*
X167085457Y-83263248D01*
X166937339Y-83398274D01*
X166816551Y-83558224D01*
X166727215Y-83737633D01*
X166727210Y-83737646D01*
X166672359Y-83930424D01*
X166653867Y-84129999D01*
X166653867Y-84130000D01*
X166672359Y-84329575D01*
X166727210Y-84522353D01*
X166727215Y-84522366D01*
X166816551Y-84701775D01*
X166937339Y-84861725D01*
X167064762Y-84977885D01*
X167085459Y-84996753D01*
X167129843Y-85024234D01*
X167130390Y-85024573D01*
X167177025Y-85076601D01*
X167188129Y-85145583D01*
X167160176Y-85209617D01*
X167130390Y-85235427D01*
X167085460Y-85263246D01*
X166998600Y-85342429D01*
X166935795Y-85373045D01*
X166866408Y-85364847D01*
X166812468Y-85320437D01*
X166803667Y-85305262D01*
X166754776Y-85205254D01*
X166754775Y-85205253D01*
X166754775Y-85205252D01*
X166664746Y-85115223D01*
X166664743Y-85115221D01*
X166550364Y-85059305D01*
X166550362Y-85059304D01*
X166550361Y-85059304D01*
X166476206Y-85048500D01*
X165003794Y-85048500D01*
X164929639Y-85059304D01*
X164929637Y-85059304D01*
X164929635Y-85059305D01*
X164815256Y-85115221D01*
X164815253Y-85115223D01*
X164725223Y-85205253D01*
X164725221Y-85205256D01*
X164669305Y-85319635D01*
X164669304Y-85319637D01*
X164669304Y-85319639D01*
X164658500Y-85393794D01*
X164658500Y-86866206D01*
X164669304Y-86940361D01*
X164669304Y-86940362D01*
X164669305Y-86940364D01*
X164725221Y-87054743D01*
X164725223Y-87054746D01*
X164815253Y-87144776D01*
X164815256Y-87144778D01*
X164924863Y-87198361D01*
X164929639Y-87200696D01*
X165003794Y-87211500D01*
X165003800Y-87211500D01*
X166476200Y-87211500D01*
X166476206Y-87211500D01*
X166550361Y-87200696D01*
X166607553Y-87172736D01*
X166664743Y-87144778D01*
X166664746Y-87144776D01*
X166754776Y-87054746D01*
X166754777Y-87054743D01*
X166803663Y-86954746D01*
X166850788Y-86903166D01*
X166918322Y-86885251D01*
X166984821Y-86906691D01*
X166998600Y-86917571D01*
X167085458Y-86996752D01*
X167085460Y-86996754D01*
X167255865Y-87102264D01*
X167255867Y-87102265D01*
X167255869Y-87102266D01*
X167442766Y-87174671D01*
X167639784Y-87211500D01*
X167639786Y-87211500D01*
X167840214Y-87211500D01*
X167840216Y-87211500D01*
X168037234Y-87174671D01*
X168224131Y-87102266D01*
X168394541Y-86996753D01*
X168520411Y-86882007D01*
X168542660Y-86861725D01*
X168542662Y-86861723D01*
X168663449Y-86701775D01*
X168752789Y-86522356D01*
X168807640Y-86329576D01*
X168826133Y-86130000D01*
X168807640Y-85930424D01*
X168752789Y-85737644D01*
X168663449Y-85558225D01*
X168542662Y-85398277D01*
X168542660Y-85398274D01*
X168394541Y-85263247D01*
X168394539Y-85263245D01*
X168349610Y-85235427D01*
X168302974Y-85183400D01*
X168291870Y-85114418D01*
X168319822Y-85050384D01*
X168349610Y-85024573D01*
X168394539Y-84996754D01*
X168394538Y-84996754D01*
X168394541Y-84996753D01*
X168542662Y-84861723D01*
X168663449Y-84701775D01*
X168752789Y-84522356D01*
X168807640Y-84329576D01*
X168826133Y-84130000D01*
X168807640Y-83930424D01*
X168752789Y-83737644D01*
X168663449Y-83558225D01*
X168542662Y-83398277D01*
X168542660Y-83398274D01*
X168394541Y-83263247D01*
X168394539Y-83263245D01*
X168349610Y-83235427D01*
X168302974Y-83183400D01*
X168291870Y-83114418D01*
X168319822Y-83050384D01*
X168349610Y-83024573D01*
X168394539Y-82996754D01*
X168394538Y-82996754D01*
X168394541Y-82996753D01*
X168542662Y-82861723D01*
X168663449Y-82701775D01*
X168752789Y-82522356D01*
X168807640Y-82329576D01*
X168826133Y-82130000D01*
X168807640Y-81930424D01*
X168752789Y-81737644D01*
X168663449Y-81558225D01*
X168542662Y-81398277D01*
X168542660Y-81398274D01*
X168394541Y-81263247D01*
X168394539Y-81263245D01*
X168224134Y-81157735D01*
X168224127Y-81157732D01*
X168037238Y-81085330D01*
X168037235Y-81085329D01*
X168037234Y-81085329D01*
X167840216Y-81048500D01*
X167639784Y-81048500D01*
X167442766Y-81085329D01*
X167442761Y-81085330D01*
X167255872Y-81157732D01*
X167255865Y-81157735D01*
X167085460Y-81263245D01*
X167085458Y-81263247D01*
X166937339Y-81398275D01*
X166838954Y-81528558D01*
X166782845Y-81570194D01*
X166713133Y-81574885D01*
X166651951Y-81541143D01*
X166641046Y-81528558D01*
X166542660Y-81398275D01*
X166394541Y-81263247D01*
X166394539Y-81263245D01*
X166224134Y-81157735D01*
X166224127Y-81157732D01*
X166037238Y-81085330D01*
X166037235Y-81085329D01*
X166037234Y-81085329D01*
X165840216Y-81048500D01*
X165639784Y-81048500D01*
X165442766Y-81085329D01*
X165442761Y-81085330D01*
X165255872Y-81157732D01*
X165255865Y-81157735D01*
X165085460Y-81263245D01*
X165085458Y-81263247D01*
X164937339Y-81398274D01*
X164816551Y-81558224D01*
X164727215Y-81737633D01*
X164727210Y-81737646D01*
X164672359Y-81930424D01*
X164653867Y-82129999D01*
X164653867Y-82130000D01*
X107140000Y-82130000D01*
X107140000Y-79740000D01*
X118613764Y-79740000D01*
X118632678Y-79980323D01*
X118688952Y-80214723D01*
X118781203Y-80437437D01*
X118907155Y-80642972D01*
X118907156Y-80642974D01*
X118907159Y-80642977D01*
X119063717Y-80826283D01*
X119205613Y-80947474D01*
X119247025Y-80982843D01*
X119247027Y-80982844D01*
X119452562Y-81108796D01*
X119675276Y-81201047D01*
X119876423Y-81249337D01*
X119909680Y-81257322D01*
X120150000Y-81276236D01*
X120390320Y-81257322D01*
X120624723Y-81201047D01*
X120847437Y-81108796D01*
X121052977Y-80982841D01*
X121236283Y-80826283D01*
X121392841Y-80642977D01*
X121518796Y-80437437D01*
X121611047Y-80214723D01*
X121667322Y-79980320D01*
X121686236Y-79740000D01*
X122813764Y-79740000D01*
X122832678Y-79980323D01*
X122888952Y-80214723D01*
X122981203Y-80437437D01*
X123107155Y-80642972D01*
X123107156Y-80642974D01*
X123107159Y-80642977D01*
X123263717Y-80826283D01*
X123405613Y-80947474D01*
X123447025Y-80982843D01*
X123447027Y-80982844D01*
X123652562Y-81108796D01*
X123875276Y-81201047D01*
X124076423Y-81249337D01*
X124109680Y-81257322D01*
X124350000Y-81276236D01*
X124590320Y-81257322D01*
X124824723Y-81201047D01*
X125047437Y-81108796D01*
X125252977Y-80982841D01*
X125436283Y-80826283D01*
X125592841Y-80642977D01*
X125718796Y-80437437D01*
X125811047Y-80214723D01*
X125867322Y-79980320D01*
X125886236Y-79740000D01*
X130043764Y-79740000D01*
X130062678Y-79980323D01*
X130118952Y-80214723D01*
X130211203Y-80437437D01*
X130337155Y-80642972D01*
X130337156Y-80642974D01*
X130337159Y-80642977D01*
X130493717Y-80826283D01*
X130635613Y-80947474D01*
X130677025Y-80982843D01*
X130677027Y-80982844D01*
X130882562Y-81108796D01*
X131105276Y-81201047D01*
X131306423Y-81249337D01*
X131339680Y-81257322D01*
X131580000Y-81276236D01*
X131820320Y-81257322D01*
X132054723Y-81201047D01*
X132277437Y-81108796D01*
X132482977Y-80982841D01*
X132666283Y-80826283D01*
X132822841Y-80642977D01*
X132948796Y-80437437D01*
X133041047Y-80214723D01*
X133097322Y-79980320D01*
X133116236Y-79740000D01*
X134243764Y-79740000D01*
X134262678Y-79980323D01*
X134318952Y-80214723D01*
X134411203Y-80437437D01*
X134537155Y-80642972D01*
X134537156Y-80642974D01*
X134537159Y-80642977D01*
X134693717Y-80826283D01*
X134835613Y-80947474D01*
X134877025Y-80982843D01*
X134877027Y-80982844D01*
X135082562Y-81108796D01*
X135305276Y-81201047D01*
X135506423Y-81249337D01*
X135539680Y-81257322D01*
X135780000Y-81276236D01*
X136020320Y-81257322D01*
X136254723Y-81201047D01*
X136477437Y-81108796D01*
X136682977Y-80982841D01*
X136866283Y-80826283D01*
X137022841Y-80642977D01*
X137148796Y-80437437D01*
X137241047Y-80214723D01*
X137297322Y-79980320D01*
X137316236Y-79740000D01*
X141473764Y-79740000D01*
X141492678Y-79980323D01*
X141548952Y-80214723D01*
X141641203Y-80437437D01*
X141767155Y-80642972D01*
X141767156Y-80642974D01*
X141767159Y-80642977D01*
X141923717Y-80826283D01*
X142065613Y-80947474D01*
X142107025Y-80982843D01*
X142107027Y-80982844D01*
X142312562Y-81108796D01*
X142535276Y-81201047D01*
X142736423Y-81249337D01*
X142769680Y-81257322D01*
X143010000Y-81276236D01*
X143250320Y-81257322D01*
X143484723Y-81201047D01*
X143707437Y-81108796D01*
X143912977Y-80982841D01*
X144096283Y-80826283D01*
X144252841Y-80642977D01*
X144378796Y-80437437D01*
X144471047Y-80214723D01*
X144527322Y-79980320D01*
X144546236Y-79740000D01*
X145673764Y-79740000D01*
X145692678Y-79980323D01*
X145748952Y-80214723D01*
X145841203Y-80437437D01*
X145967155Y-80642972D01*
X145967156Y-80642974D01*
X145967159Y-80642977D01*
X146123717Y-80826283D01*
X146265613Y-80947474D01*
X146307025Y-80982843D01*
X146307027Y-80982844D01*
X146512562Y-81108796D01*
X146735276Y-81201047D01*
X146936423Y-81249337D01*
X146969680Y-81257322D01*
X147210000Y-81276236D01*
X147450320Y-81257322D01*
X147684723Y-81201047D01*
X147907437Y-81108796D01*
X148112977Y-80982841D01*
X148296283Y-80826283D01*
X148452841Y-80642977D01*
X148578796Y-80437437D01*
X148671047Y-80214723D01*
X148727322Y-79980320D01*
X148746236Y-79740000D01*
X152903764Y-79740000D01*
X152922678Y-79980323D01*
X152978952Y-80214723D01*
X153071203Y-80437437D01*
X153197155Y-80642972D01*
X153197156Y-80642974D01*
X153197159Y-80642977D01*
X153353717Y-80826283D01*
X153495613Y-80947474D01*
X153537025Y-80982843D01*
X153537027Y-80982844D01*
X153742562Y-81108796D01*
X153965276Y-81201047D01*
X154166423Y-81249337D01*
X154199680Y-81257322D01*
X154440000Y-81276236D01*
X154680320Y-81257322D01*
X154914723Y-81201047D01*
X155137437Y-81108796D01*
X155342977Y-80982841D01*
X155526283Y-80826283D01*
X155682841Y-80642977D01*
X155808796Y-80437437D01*
X155901047Y-80214723D01*
X155957322Y-79980320D01*
X155976236Y-79740000D01*
X157103764Y-79740000D01*
X157122678Y-79980323D01*
X157178952Y-80214723D01*
X157271203Y-80437437D01*
X157397155Y-80642972D01*
X157397156Y-80642974D01*
X157397159Y-80642977D01*
X157553717Y-80826283D01*
X157695613Y-80947474D01*
X157737025Y-80982843D01*
X157737027Y-80982844D01*
X157942562Y-81108796D01*
X158165276Y-81201047D01*
X158366423Y-81249337D01*
X158399680Y-81257322D01*
X158640000Y-81276236D01*
X158880320Y-81257322D01*
X159114723Y-81201047D01*
X159337437Y-81108796D01*
X159542977Y-80982841D01*
X159726283Y-80826283D01*
X159882841Y-80642977D01*
X160008796Y-80437437D01*
X160101047Y-80214723D01*
X160157322Y-79980320D01*
X160176236Y-79740000D01*
X160157322Y-79499680D01*
X160101047Y-79265277D01*
X160008796Y-79042563D01*
X160008796Y-79042562D01*
X159882844Y-78837027D01*
X159882843Y-78837025D01*
X159847474Y-78795613D01*
X159726283Y-78653717D01*
X159605090Y-78550209D01*
X159542974Y-78497156D01*
X159542972Y-78497155D01*
X159337437Y-78371203D01*
X159114723Y-78278952D01*
X158880323Y-78222678D01*
X158640000Y-78203764D01*
X158399676Y-78222678D01*
X158165276Y-78278952D01*
X157942562Y-78371203D01*
X157737027Y-78497155D01*
X157737025Y-78497156D01*
X157553717Y-78653717D01*
X157397156Y-78837025D01*
X157397155Y-78837027D01*
X157271203Y-79042562D01*
X157178952Y-79265276D01*
X157122678Y-79499676D01*
X157103764Y-79740000D01*
X155976236Y-79740000D01*
X155957322Y-79499680D01*
X155901047Y-79265277D01*
X155808796Y-79042563D01*
X155808796Y-79042562D01*
X155682844Y-78837027D01*
X155682843Y-78837025D01*
X155647474Y-78795613D01*
X155526283Y-78653717D01*
X155405090Y-78550209D01*
X155342974Y-78497156D01*
X155342972Y-78497155D01*
X155137437Y-78371203D01*
X154914723Y-78278952D01*
X154680323Y-78222678D01*
X154440000Y-78203764D01*
X154199676Y-78222678D01*
X153965276Y-78278952D01*
X153742562Y-78371203D01*
X153537027Y-78497155D01*
X153537025Y-78497156D01*
X153353717Y-78653717D01*
X153197156Y-78837025D01*
X153197155Y-78837027D01*
X153071203Y-79042562D01*
X152978952Y-79265276D01*
X152922678Y-79499676D01*
X152903764Y-79740000D01*
X148746236Y-79740000D01*
X148727322Y-79499680D01*
X148671047Y-79265277D01*
X148578796Y-79042563D01*
X148578796Y-79042562D01*
X148452844Y-78837027D01*
X148452843Y-78837025D01*
X148417474Y-78795613D01*
X148296283Y-78653717D01*
X148175090Y-78550209D01*
X148112974Y-78497156D01*
X148112972Y-78497155D01*
X147907437Y-78371203D01*
X147684723Y-78278952D01*
X147450323Y-78222678D01*
X147210000Y-78203764D01*
X146969676Y-78222678D01*
X146735276Y-78278952D01*
X146512562Y-78371203D01*
X146307027Y-78497155D01*
X146307025Y-78497156D01*
X146123717Y-78653717D01*
X145967156Y-78837025D01*
X145967155Y-78837027D01*
X145841203Y-79042562D01*
X145748952Y-79265276D01*
X145692678Y-79499676D01*
X145673764Y-79740000D01*
X144546236Y-79740000D01*
X144527322Y-79499680D01*
X144471047Y-79265277D01*
X144378796Y-79042563D01*
X144378796Y-79042562D01*
X144252844Y-78837027D01*
X144252843Y-78837025D01*
X144217474Y-78795613D01*
X144096283Y-78653717D01*
X143975090Y-78550209D01*
X143912974Y-78497156D01*
X143912972Y-78497155D01*
X143707437Y-78371203D01*
X143484723Y-78278952D01*
X143250323Y-78222678D01*
X143010000Y-78203764D01*
X142769676Y-78222678D01*
X142535276Y-78278952D01*
X142312562Y-78371203D01*
X142107027Y-78497155D01*
X142107025Y-78497156D01*
X141923717Y-78653717D01*
X141767156Y-78837025D01*
X141767155Y-78837027D01*
X141641203Y-79042562D01*
X141548952Y-79265276D01*
X141492678Y-79499676D01*
X141473764Y-79740000D01*
X137316236Y-79740000D01*
X137297322Y-79499680D01*
X137241047Y-79265277D01*
X137148796Y-79042563D01*
X137148796Y-79042562D01*
X137022844Y-78837027D01*
X137022843Y-78837025D01*
X136987474Y-78795613D01*
X136866283Y-78653717D01*
X136745090Y-78550209D01*
X136682974Y-78497156D01*
X136682972Y-78497155D01*
X136477437Y-78371203D01*
X136254723Y-78278952D01*
X136020323Y-78222678D01*
X135780000Y-78203764D01*
X135539676Y-78222678D01*
X135305276Y-78278952D01*
X135082562Y-78371203D01*
X134877027Y-78497155D01*
X134877025Y-78497156D01*
X134693717Y-78653717D01*
X134537156Y-78837025D01*
X134537155Y-78837027D01*
X134411203Y-79042562D01*
X134318952Y-79265276D01*
X134262678Y-79499676D01*
X134243764Y-79740000D01*
X133116236Y-79740000D01*
X133097322Y-79499680D01*
X133041047Y-79265277D01*
X132948796Y-79042563D01*
X132948796Y-79042562D01*
X132822844Y-78837027D01*
X132822843Y-78837025D01*
X132787474Y-78795613D01*
X132666283Y-78653717D01*
X132545090Y-78550209D01*
X132482974Y-78497156D01*
X132482972Y-78497155D01*
X132277437Y-78371203D01*
X132054723Y-78278952D01*
X131820323Y-78222678D01*
X131580000Y-78203764D01*
X131339676Y-78222678D01*
X131105276Y-78278952D01*
X130882562Y-78371203D01*
X130677027Y-78497155D01*
X130677025Y-78497156D01*
X130493717Y-78653717D01*
X130337156Y-78837025D01*
X130337155Y-78837027D01*
X130211203Y-79042562D01*
X130118952Y-79265276D01*
X130062678Y-79499676D01*
X130043764Y-79740000D01*
X125886236Y-79740000D01*
X125867322Y-79499680D01*
X125811047Y-79265277D01*
X125718796Y-79042563D01*
X125718796Y-79042562D01*
X125592844Y-78837027D01*
X125592843Y-78837025D01*
X125557474Y-78795613D01*
X125436283Y-78653717D01*
X125315090Y-78550209D01*
X125252974Y-78497156D01*
X125252972Y-78497155D01*
X125047437Y-78371203D01*
X124824723Y-78278952D01*
X124590323Y-78222678D01*
X124350000Y-78203764D01*
X124109676Y-78222678D01*
X123875276Y-78278952D01*
X123652562Y-78371203D01*
X123447027Y-78497155D01*
X123447025Y-78497156D01*
X123263717Y-78653717D01*
X123107156Y-78837025D01*
X123107155Y-78837027D01*
X122981203Y-79042562D01*
X122888952Y-79265276D01*
X122832678Y-79499676D01*
X122813764Y-79740000D01*
X121686236Y-79740000D01*
X121667322Y-79499680D01*
X121611047Y-79265277D01*
X121518796Y-79042563D01*
X121518796Y-79042562D01*
X121392844Y-78837027D01*
X121392843Y-78837025D01*
X121357474Y-78795613D01*
X121236283Y-78653717D01*
X121115090Y-78550209D01*
X121052974Y-78497156D01*
X121052972Y-78497155D01*
X120847437Y-78371203D01*
X120624723Y-78278952D01*
X120390323Y-78222678D01*
X120150000Y-78203764D01*
X119909676Y-78222678D01*
X119675276Y-78278952D01*
X119452562Y-78371203D01*
X119247027Y-78497155D01*
X119247025Y-78497156D01*
X119063717Y-78653717D01*
X118907156Y-78837025D01*
X118907155Y-78837027D01*
X118781203Y-79042562D01*
X118688952Y-79265276D01*
X118632678Y-79499676D01*
X118613764Y-79740000D01*
X107140000Y-79740000D01*
X107140000Y-76830000D01*
X117068847Y-76830000D01*
X117088617Y-77043356D01*
X117147258Y-77249460D01*
X117242764Y-77441262D01*
X117242769Y-77441270D01*
X117371899Y-77612266D01*
X117508123Y-77736449D01*
X117530249Y-77756620D01*
X117712430Y-77869422D01*
X117912235Y-77946827D01*
X118122862Y-77986200D01*
X118122864Y-77986200D01*
X118337136Y-77986200D01*
X118337138Y-77986200D01*
X118547765Y-77946827D01*
X118747570Y-77869422D01*
X118929751Y-77756620D01*
X119088102Y-77612264D01*
X119217232Y-77441268D01*
X119312743Y-77249457D01*
X119371382Y-77043361D01*
X119376529Y-76987815D01*
X119402315Y-76922879D01*
X119459116Y-76882191D01*
X119528897Y-76878671D01*
X119589503Y-76913436D01*
X119621693Y-76975449D01*
X119623471Y-76987816D01*
X119628617Y-77043356D01*
X119687258Y-77249460D01*
X119782764Y-77441262D01*
X119782769Y-77441270D01*
X119911899Y-77612266D01*
X120048123Y-77736449D01*
X120070249Y-77756620D01*
X120252430Y-77869422D01*
X120452235Y-77946827D01*
X120662862Y-77986200D01*
X120662864Y-77986200D01*
X120877136Y-77986200D01*
X120877138Y-77986200D01*
X121087765Y-77946827D01*
X121287570Y-77869422D01*
X121469751Y-77756620D01*
X121628102Y-77612264D01*
X121757232Y-77441268D01*
X121852743Y-77249457D01*
X121911382Y-77043361D01*
X121916529Y-76987815D01*
X121942315Y-76922879D01*
X121999116Y-76882191D01*
X122068897Y-76878671D01*
X122129503Y-76913436D01*
X122161693Y-76975449D01*
X122163471Y-76987816D01*
X122168617Y-77043356D01*
X122227258Y-77249460D01*
X122322764Y-77441262D01*
X122322769Y-77441270D01*
X122451899Y-77612266D01*
X122588123Y-77736449D01*
X122610249Y-77756620D01*
X122792430Y-77869422D01*
X122992235Y-77946827D01*
X123202862Y-77986200D01*
X123202864Y-77986200D01*
X123417136Y-77986200D01*
X123417138Y-77986200D01*
X123627765Y-77946827D01*
X123827570Y-77869422D01*
X124009751Y-77756620D01*
X124168102Y-77612264D01*
X124297232Y-77441268D01*
X124392743Y-77249457D01*
X124451382Y-77043361D01*
X124471153Y-76830000D01*
X128502181Y-76830000D01*
X128521951Y-77043356D01*
X128580592Y-77249460D01*
X128676098Y-77441262D01*
X128676103Y-77441270D01*
X128805233Y-77612266D01*
X128941457Y-77736449D01*
X128963583Y-77756620D01*
X129145764Y-77869422D01*
X129345569Y-77946827D01*
X129556196Y-77986200D01*
X129556198Y-77986200D01*
X129770470Y-77986200D01*
X129770472Y-77986200D01*
X129981099Y-77946827D01*
X130180904Y-77869422D01*
X130363085Y-77756620D01*
X130521436Y-77612264D01*
X130650566Y-77441268D01*
X130746077Y-77249457D01*
X130804716Y-77043361D01*
X130809863Y-76987815D01*
X130835649Y-76922879D01*
X130892450Y-76882191D01*
X130962231Y-76878671D01*
X131022837Y-76913436D01*
X131055027Y-76975449D01*
X131056805Y-76987816D01*
X131061951Y-77043356D01*
X131120592Y-77249460D01*
X131216098Y-77441262D01*
X131216103Y-77441270D01*
X131345233Y-77612266D01*
X131481457Y-77736449D01*
X131503583Y-77756620D01*
X131685764Y-77869422D01*
X131885569Y-77946827D01*
X132096196Y-77986200D01*
X132096198Y-77986200D01*
X132310470Y-77986200D01*
X132310472Y-77986200D01*
X132521099Y-77946827D01*
X132720904Y-77869422D01*
X132903085Y-77756620D01*
X133061436Y-77612264D01*
X133190566Y-77441268D01*
X133286077Y-77249457D01*
X133344716Y-77043361D01*
X133349863Y-76987815D01*
X133375649Y-76922879D01*
X133432450Y-76882191D01*
X133502231Y-76878671D01*
X133562837Y-76913436D01*
X133595027Y-76975449D01*
X133596805Y-76987816D01*
X133601951Y-77043356D01*
X133660592Y-77249460D01*
X133756098Y-77441262D01*
X133756103Y-77441270D01*
X133885233Y-77612266D01*
X134021457Y-77736449D01*
X134043583Y-77756620D01*
X134225764Y-77869422D01*
X134425569Y-77946827D01*
X134636196Y-77986200D01*
X134636198Y-77986200D01*
X134850470Y-77986200D01*
X134850472Y-77986200D01*
X135061099Y-77946827D01*
X135260904Y-77869422D01*
X135443085Y-77756620D01*
X135601436Y-77612264D01*
X135730566Y-77441268D01*
X135826077Y-77249457D01*
X135884716Y-77043361D01*
X135904487Y-76830000D01*
X139935514Y-76830000D01*
X139955284Y-77043356D01*
X140013925Y-77249460D01*
X140109431Y-77441262D01*
X140109436Y-77441270D01*
X140238566Y-77612266D01*
X140374790Y-77736449D01*
X140396916Y-77756620D01*
X140579097Y-77869422D01*
X140778902Y-77946827D01*
X140989529Y-77986200D01*
X140989531Y-77986200D01*
X141203803Y-77986200D01*
X141203805Y-77986200D01*
X141414432Y-77946827D01*
X141614237Y-77869422D01*
X141796418Y-77756620D01*
X141954769Y-77612264D01*
X142083899Y-77441268D01*
X142179410Y-77249457D01*
X142238049Y-77043361D01*
X142243196Y-76987815D01*
X142268982Y-76922879D01*
X142325783Y-76882191D01*
X142395564Y-76878671D01*
X142456170Y-76913436D01*
X142488360Y-76975449D01*
X142490138Y-76987816D01*
X142495284Y-77043356D01*
X142553925Y-77249460D01*
X142649431Y-77441262D01*
X142649436Y-77441270D01*
X142778566Y-77612266D01*
X142914790Y-77736449D01*
X142936916Y-77756620D01*
X143119097Y-77869422D01*
X143318902Y-77946827D01*
X143529529Y-77986200D01*
X143529531Y-77986200D01*
X143743803Y-77986200D01*
X143743805Y-77986200D01*
X143954432Y-77946827D01*
X144154237Y-77869422D01*
X144336418Y-77756620D01*
X144494769Y-77612264D01*
X144623899Y-77441268D01*
X144719410Y-77249457D01*
X144778049Y-77043361D01*
X144783196Y-76987815D01*
X144808982Y-76922879D01*
X144865783Y-76882191D01*
X144935564Y-76878671D01*
X144996170Y-76913436D01*
X145028360Y-76975449D01*
X145030138Y-76987816D01*
X145035284Y-77043356D01*
X145093925Y-77249460D01*
X145189431Y-77441262D01*
X145189436Y-77441270D01*
X145318566Y-77612266D01*
X145454790Y-77736449D01*
X145476916Y-77756620D01*
X145659097Y-77869422D01*
X145858902Y-77946827D01*
X146069529Y-77986200D01*
X146069531Y-77986200D01*
X146283803Y-77986200D01*
X146283805Y-77986200D01*
X146494432Y-77946827D01*
X146694237Y-77869422D01*
X146876418Y-77756620D01*
X147034769Y-77612264D01*
X147163899Y-77441268D01*
X147259410Y-77249457D01*
X147318049Y-77043361D01*
X147337820Y-76830000D01*
X151368847Y-76830000D01*
X151388617Y-77043356D01*
X151447258Y-77249460D01*
X151542764Y-77441262D01*
X151542769Y-77441270D01*
X151671899Y-77612266D01*
X151808123Y-77736449D01*
X151830249Y-77756620D01*
X152012430Y-77869422D01*
X152212235Y-77946827D01*
X152422862Y-77986200D01*
X152422864Y-77986200D01*
X152637136Y-77986200D01*
X152637138Y-77986200D01*
X152847765Y-77946827D01*
X153047570Y-77869422D01*
X153229751Y-77756620D01*
X153388102Y-77612264D01*
X153517232Y-77441268D01*
X153612743Y-77249457D01*
X153671382Y-77043361D01*
X153676529Y-76987815D01*
X153702315Y-76922879D01*
X153759116Y-76882191D01*
X153828897Y-76878671D01*
X153889503Y-76913436D01*
X153921693Y-76975449D01*
X153923471Y-76987816D01*
X153928617Y-77043356D01*
X153987258Y-77249460D01*
X154082764Y-77441262D01*
X154082769Y-77441270D01*
X154211899Y-77612266D01*
X154348123Y-77736449D01*
X154370249Y-77756620D01*
X154552430Y-77869422D01*
X154752235Y-77946827D01*
X154962862Y-77986200D01*
X154962864Y-77986200D01*
X155177136Y-77986200D01*
X155177138Y-77986200D01*
X155387765Y-77946827D01*
X155587570Y-77869422D01*
X155769751Y-77756620D01*
X155928102Y-77612264D01*
X156057232Y-77441268D01*
X156152743Y-77249457D01*
X156211382Y-77043361D01*
X156216529Y-76987815D01*
X156242315Y-76922879D01*
X156299116Y-76882191D01*
X156368897Y-76878671D01*
X156429503Y-76913436D01*
X156461693Y-76975449D01*
X156463471Y-76987816D01*
X156468617Y-77043356D01*
X156527258Y-77249460D01*
X156622764Y-77441262D01*
X156622769Y-77441270D01*
X156751899Y-77612266D01*
X156888123Y-77736449D01*
X156910249Y-77756620D01*
X157092430Y-77869422D01*
X157292235Y-77946827D01*
X157502862Y-77986200D01*
X157502864Y-77986200D01*
X157717136Y-77986200D01*
X157717138Y-77986200D01*
X157927765Y-77946827D01*
X158127570Y-77869422D01*
X158309751Y-77756620D01*
X158468102Y-77612264D01*
X158597232Y-77441268D01*
X158692743Y-77249457D01*
X158751382Y-77043361D01*
X158771153Y-76830000D01*
X158751382Y-76616639D01*
X158692743Y-76410543D01*
X158691225Y-76407495D01*
X158597235Y-76218737D01*
X158597230Y-76218729D01*
X158468100Y-76047733D01*
X158309752Y-75903381D01*
X158309751Y-75903380D01*
X158240373Y-75860422D01*
X158127571Y-75790578D01*
X158127569Y-75790577D01*
X158039346Y-75756399D01*
X157927765Y-75713173D01*
X157717138Y-75673800D01*
X157502862Y-75673800D01*
X157292235Y-75713173D01*
X157236444Y-75734786D01*
X157092430Y-75790577D01*
X157092428Y-75790578D01*
X156910247Y-75903381D01*
X156751899Y-76047733D01*
X156622769Y-76218729D01*
X156622764Y-76218737D01*
X156527258Y-76410539D01*
X156468617Y-76616643D01*
X156463471Y-76672183D01*
X156437685Y-76737121D01*
X156380884Y-76777808D01*
X156311103Y-76781328D01*
X156250497Y-76746563D01*
X156218307Y-76684550D01*
X156216529Y-76672183D01*
X156211382Y-76616643D01*
X156211382Y-76616639D01*
X156152743Y-76410543D01*
X156151225Y-76407495D01*
X156057235Y-76218737D01*
X156057230Y-76218729D01*
X155928100Y-76047733D01*
X155769752Y-75903381D01*
X155769751Y-75903380D01*
X155700373Y-75860422D01*
X155587571Y-75790578D01*
X155587569Y-75790577D01*
X155499346Y-75756399D01*
X155387765Y-75713173D01*
X155387759Y-75713172D01*
X155387753Y-75713170D01*
X155382235Y-75712139D01*
X155319954Y-75680471D01*
X155284682Y-75620159D01*
X155287616Y-75550351D01*
X155327825Y-75493211D01*
X155340235Y-75484521D01*
X155342977Y-75482841D01*
X155526283Y-75326283D01*
X155682841Y-75142977D01*
X155808796Y-74937437D01*
X155901047Y-74714723D01*
X155957322Y-74480320D01*
X155976236Y-74240000D01*
X155957322Y-73999680D01*
X155901047Y-73765277D01*
X155856255Y-73657138D01*
X155808796Y-73542562D01*
X155682844Y-73337027D01*
X155682843Y-73337025D01*
X155647474Y-73295613D01*
X155526283Y-73153717D01*
X155405090Y-73050209D01*
X155342974Y-72997156D01*
X155342972Y-72997155D01*
X155319282Y-72982638D01*
X165590820Y-72982638D01*
X165629178Y-73323088D01*
X165629181Y-73323102D01*
X165705422Y-73657136D01*
X165705423Y-73657138D01*
X165818584Y-73980536D01*
X165967242Y-74289227D01*
X165967244Y-74289230D01*
X166149531Y-74579338D01*
X166363154Y-74847213D01*
X166605427Y-75089486D01*
X166873302Y-75303109D01*
X167163410Y-75485396D01*
X167472105Y-75634056D01*
X167795503Y-75747217D01*
X168129537Y-75823459D01*
X168129546Y-75823460D01*
X168129551Y-75823461D01*
X168356517Y-75849033D01*
X168470002Y-75861819D01*
X168470005Y-75861820D01*
X168470008Y-75861820D01*
X168812635Y-75861820D01*
X168812636Y-75861819D01*
X169008939Y-75839702D01*
X169153088Y-75823461D01*
X169153091Y-75823460D01*
X169153103Y-75823459D01*
X169487137Y-75747217D01*
X169810535Y-75634056D01*
X170119230Y-75485396D01*
X170409338Y-75303109D01*
X170677213Y-75089486D01*
X170919486Y-74847213D01*
X171133109Y-74579338D01*
X171315396Y-74289230D01*
X171464056Y-73980535D01*
X171577217Y-73657137D01*
X171653459Y-73323103D01*
X171691820Y-72982632D01*
X171691820Y-72640008D01*
X171653459Y-72299537D01*
X171577217Y-71965503D01*
X171464056Y-71642105D01*
X171315396Y-71333410D01*
X171133109Y-71043302D01*
X170919486Y-70775427D01*
X170677213Y-70533154D01*
X170409338Y-70319531D01*
X170119230Y-70137244D01*
X170119227Y-70137242D01*
X169810536Y-69988584D01*
X169487138Y-69875423D01*
X169487136Y-69875422D01*
X169229344Y-69816582D01*
X169153103Y-69799181D01*
X169153100Y-69799180D01*
X169153088Y-69799178D01*
X168812638Y-69760820D01*
X168812632Y-69760820D01*
X168470008Y-69760820D01*
X168470001Y-69760820D01*
X168129551Y-69799178D01*
X168129537Y-69799181D01*
X167795503Y-69875422D01*
X167795501Y-69875423D01*
X167472103Y-69988584D01*
X167163412Y-70137242D01*
X166873303Y-70319530D01*
X166605427Y-70533153D01*
X166363153Y-70775427D01*
X166149530Y-71043303D01*
X165967242Y-71333412D01*
X165818584Y-71642103D01*
X165705423Y-71965501D01*
X165705422Y-71965503D01*
X165629181Y-72299537D01*
X165629178Y-72299551D01*
X165590820Y-72640001D01*
X165590820Y-72982638D01*
X155319282Y-72982638D01*
X155137437Y-72871203D01*
X154914723Y-72778952D01*
X154680323Y-72722678D01*
X154440000Y-72703764D01*
X154199676Y-72722678D01*
X153965276Y-72778952D01*
X153742562Y-72871203D01*
X153537027Y-72997155D01*
X153537025Y-72997156D01*
X153353717Y-73153717D01*
X153197156Y-73337025D01*
X153197155Y-73337027D01*
X153071203Y-73542562D01*
X152978952Y-73765276D01*
X152922678Y-73999676D01*
X152903764Y-74240000D01*
X152922678Y-74480323D01*
X152978952Y-74714723D01*
X153071203Y-74937437D01*
X153197155Y-75142972D01*
X153197156Y-75142974D01*
X153197159Y-75142977D01*
X153353717Y-75326283D01*
X153495613Y-75447474D01*
X153537025Y-75482843D01*
X153537027Y-75482844D01*
X153742562Y-75608796D01*
X153965276Y-75701047D01*
X154073528Y-75727035D01*
X154199680Y-75757322D01*
X154218878Y-75758832D01*
X154284165Y-75783716D01*
X154325636Y-75839947D01*
X154330123Y-75909672D01*
X154296201Y-75970755D01*
X154292687Y-75974087D01*
X154211897Y-76047736D01*
X154082769Y-76218729D01*
X154082764Y-76218737D01*
X153987258Y-76410539D01*
X153928617Y-76616643D01*
X153923471Y-76672183D01*
X153897685Y-76737121D01*
X153840884Y-76777808D01*
X153771103Y-76781328D01*
X153710497Y-76746563D01*
X153678307Y-76684550D01*
X153676529Y-76672183D01*
X153671382Y-76616643D01*
X153671382Y-76616639D01*
X153612743Y-76410543D01*
X153611225Y-76407495D01*
X153517235Y-76218737D01*
X153517230Y-76218729D01*
X153388100Y-76047733D01*
X153229752Y-75903381D01*
X153229751Y-75903380D01*
X153160373Y-75860422D01*
X153047571Y-75790578D01*
X153047569Y-75790577D01*
X152959346Y-75756399D01*
X152847765Y-75713173D01*
X152637138Y-75673800D01*
X152422862Y-75673800D01*
X152212235Y-75713173D01*
X152156444Y-75734786D01*
X152012430Y-75790577D01*
X152012428Y-75790578D01*
X151830247Y-75903381D01*
X151671899Y-76047733D01*
X151542769Y-76218729D01*
X151542764Y-76218737D01*
X151447258Y-76410539D01*
X151388617Y-76616643D01*
X151368847Y-76829999D01*
X151368847Y-76830000D01*
X147337820Y-76830000D01*
X147318049Y-76616639D01*
X147259410Y-76410543D01*
X147257892Y-76407495D01*
X147163902Y-76218737D01*
X147163897Y-76218729D01*
X147034767Y-76047733D01*
X146876419Y-75903381D01*
X146876418Y-75903380D01*
X146807040Y-75860422D01*
X146694238Y-75790578D01*
X146694236Y-75790577D01*
X146606013Y-75756399D01*
X146494432Y-75713173D01*
X146283805Y-75673800D01*
X146069529Y-75673800D01*
X145858902Y-75713173D01*
X145803111Y-75734786D01*
X145659097Y-75790577D01*
X145659095Y-75790578D01*
X145476914Y-75903381D01*
X145318566Y-76047733D01*
X145189436Y-76218729D01*
X145189431Y-76218737D01*
X145093925Y-76410539D01*
X145035284Y-76616643D01*
X145030138Y-76672183D01*
X145004352Y-76737121D01*
X144947551Y-76777808D01*
X144877770Y-76781328D01*
X144817164Y-76746563D01*
X144784974Y-76684550D01*
X144783196Y-76672183D01*
X144778049Y-76616643D01*
X144778049Y-76616639D01*
X144719410Y-76410543D01*
X144717892Y-76407495D01*
X144623902Y-76218737D01*
X144623897Y-76218729D01*
X144494767Y-76047733D01*
X144336419Y-75903381D01*
X144336418Y-75903380D01*
X144267040Y-75860422D01*
X144154238Y-75790578D01*
X144154236Y-75790577D01*
X144066013Y-75756399D01*
X143954432Y-75713173D01*
X143954425Y-75713171D01*
X143954419Y-75713170D01*
X143951450Y-75712615D01*
X143950156Y-75711957D01*
X143948915Y-75711604D01*
X143948984Y-75711361D01*
X143889171Y-75680944D01*
X143853901Y-75620630D01*
X143856839Y-75550822D01*
X143897051Y-75493684D01*
X143909449Y-75485002D01*
X143912977Y-75482841D01*
X144096283Y-75326283D01*
X144252841Y-75142977D01*
X144378796Y-74937437D01*
X144471047Y-74714723D01*
X144527322Y-74480320D01*
X144546236Y-74240000D01*
X144527322Y-73999680D01*
X144471047Y-73765277D01*
X144426255Y-73657138D01*
X144378796Y-73542562D01*
X144252844Y-73337027D01*
X144252843Y-73337025D01*
X144217474Y-73295613D01*
X144096283Y-73153717D01*
X143975090Y-73050209D01*
X143912974Y-72997156D01*
X143912972Y-72997155D01*
X143707437Y-72871203D01*
X143484723Y-72778952D01*
X143250323Y-72722678D01*
X143010000Y-72703764D01*
X142769676Y-72722678D01*
X142535276Y-72778952D01*
X142312562Y-72871203D01*
X142107027Y-72997155D01*
X142107025Y-72997156D01*
X141923717Y-73153717D01*
X141767156Y-73337025D01*
X141767155Y-73337027D01*
X141641203Y-73542562D01*
X141548952Y-73765276D01*
X141492678Y-73999676D01*
X141473764Y-74240000D01*
X141492678Y-74480323D01*
X141548952Y-74714723D01*
X141641203Y-74937437D01*
X141767155Y-75142972D01*
X141767156Y-75142974D01*
X141767159Y-75142977D01*
X141923717Y-75326283D01*
X142065613Y-75447474D01*
X142107025Y-75482843D01*
X142107027Y-75482844D01*
X142312562Y-75608796D01*
X142535276Y-75701047D01*
X142609329Y-75718825D01*
X142769680Y-75757322D01*
X142785808Y-75758591D01*
X142851094Y-75783472D01*
X142892567Y-75839702D01*
X142897056Y-75909427D01*
X142863136Y-75970510D01*
X142859619Y-75973845D01*
X142778564Y-76047736D01*
X142649436Y-76218729D01*
X142649431Y-76218737D01*
X142553925Y-76410539D01*
X142495284Y-76616643D01*
X142490138Y-76672183D01*
X142464352Y-76737121D01*
X142407551Y-76777808D01*
X142337770Y-76781328D01*
X142277164Y-76746563D01*
X142244974Y-76684550D01*
X142243196Y-76672183D01*
X142238049Y-76616643D01*
X142238049Y-76616639D01*
X142179410Y-76410543D01*
X142177892Y-76407495D01*
X142083902Y-76218737D01*
X142083897Y-76218729D01*
X141954767Y-76047733D01*
X141796419Y-75903381D01*
X141796418Y-75903380D01*
X141727040Y-75860422D01*
X141614238Y-75790578D01*
X141614236Y-75790577D01*
X141526013Y-75756399D01*
X141414432Y-75713173D01*
X141203805Y-75673800D01*
X140989529Y-75673800D01*
X140778902Y-75713173D01*
X140723111Y-75734786D01*
X140579097Y-75790577D01*
X140579095Y-75790578D01*
X140396914Y-75903381D01*
X140238566Y-76047733D01*
X140109436Y-76218729D01*
X140109431Y-76218737D01*
X140013925Y-76410539D01*
X139955284Y-76616643D01*
X139935514Y-76829999D01*
X139935514Y-76830000D01*
X135904487Y-76830000D01*
X135884716Y-76616639D01*
X135826077Y-76410543D01*
X135824559Y-76407495D01*
X135730569Y-76218737D01*
X135730564Y-76218729D01*
X135601434Y-76047733D01*
X135443086Y-75903381D01*
X135443085Y-75903380D01*
X135373707Y-75860422D01*
X135260905Y-75790578D01*
X135260903Y-75790577D01*
X135172680Y-75756399D01*
X135061099Y-75713173D01*
X134850472Y-75673800D01*
X134636196Y-75673800D01*
X134425569Y-75713173D01*
X134369778Y-75734786D01*
X134225764Y-75790577D01*
X134225762Y-75790578D01*
X134043581Y-75903381D01*
X133885233Y-76047733D01*
X133756103Y-76218729D01*
X133756098Y-76218737D01*
X133660592Y-76410539D01*
X133601951Y-76616643D01*
X133596805Y-76672183D01*
X133571019Y-76737121D01*
X133514218Y-76777808D01*
X133444437Y-76781328D01*
X133383831Y-76746563D01*
X133351641Y-76684550D01*
X133349863Y-76672183D01*
X133344716Y-76616643D01*
X133344716Y-76616639D01*
X133286077Y-76410543D01*
X133284559Y-76407495D01*
X133190569Y-76218737D01*
X133190564Y-76218729D01*
X133061434Y-76047733D01*
X132903086Y-75903381D01*
X132903085Y-75903380D01*
X132833707Y-75860422D01*
X132720905Y-75790578D01*
X132720903Y-75790577D01*
X132632680Y-75756399D01*
X132521099Y-75713173D01*
X132521094Y-75713172D01*
X132521081Y-75713168D01*
X132520660Y-75713090D01*
X132520476Y-75712996D01*
X132515582Y-75711604D01*
X132515854Y-75710645D01*
X132458384Y-75681413D01*
X132423119Y-75621095D01*
X132426064Y-75551288D01*
X132466281Y-75494154D01*
X132478678Y-75485474D01*
X132482977Y-75482841D01*
X132666283Y-75326283D01*
X132822841Y-75142977D01*
X132948796Y-74937437D01*
X133041047Y-74714723D01*
X133097322Y-74480320D01*
X133116236Y-74240000D01*
X133097322Y-73999680D01*
X133041047Y-73765277D01*
X132996255Y-73657138D01*
X132948796Y-73542562D01*
X132822844Y-73337027D01*
X132822843Y-73337025D01*
X132787474Y-73295613D01*
X132666283Y-73153717D01*
X132545090Y-73050209D01*
X132482974Y-72997156D01*
X132482972Y-72997155D01*
X132277437Y-72871203D01*
X132054723Y-72778952D01*
X131820323Y-72722678D01*
X131580000Y-72703764D01*
X131339676Y-72722678D01*
X131105276Y-72778952D01*
X130882562Y-72871203D01*
X130677027Y-72997155D01*
X130677025Y-72997156D01*
X130493717Y-73153717D01*
X130337156Y-73337025D01*
X130337155Y-73337027D01*
X130211203Y-73542562D01*
X130118952Y-73765276D01*
X130062678Y-73999676D01*
X130043764Y-74240000D01*
X130062678Y-74480323D01*
X130118952Y-74714723D01*
X130211203Y-74937437D01*
X130337155Y-75142972D01*
X130337156Y-75142974D01*
X130337159Y-75142977D01*
X130493717Y-75326283D01*
X130635613Y-75447474D01*
X130677025Y-75482843D01*
X130677027Y-75482844D01*
X130882562Y-75608796D01*
X131105276Y-75701047D01*
X131213528Y-75727035D01*
X131339680Y-75757322D01*
X131352742Y-75758350D01*
X131418028Y-75783232D01*
X131459500Y-75839463D01*
X131463987Y-75909188D01*
X131430066Y-75970271D01*
X131426550Y-75973604D01*
X131345233Y-76047733D01*
X131216103Y-76218729D01*
X131216098Y-76218737D01*
X131120592Y-76410539D01*
X131061951Y-76616643D01*
X131056805Y-76672183D01*
X131031019Y-76737121D01*
X130974218Y-76777808D01*
X130904437Y-76781328D01*
X130843831Y-76746563D01*
X130811641Y-76684550D01*
X130809863Y-76672183D01*
X130804716Y-76616643D01*
X130804716Y-76616639D01*
X130746077Y-76410543D01*
X130744559Y-76407495D01*
X130650569Y-76218737D01*
X130650564Y-76218729D01*
X130521434Y-76047733D01*
X130363086Y-75903381D01*
X130363085Y-75903380D01*
X130293707Y-75860422D01*
X130180905Y-75790578D01*
X130180903Y-75790577D01*
X130092680Y-75756399D01*
X129981099Y-75713173D01*
X129770472Y-75673800D01*
X129556196Y-75673800D01*
X129345569Y-75713173D01*
X129289778Y-75734786D01*
X129145764Y-75790577D01*
X129145762Y-75790578D01*
X128963581Y-75903381D01*
X128805233Y-76047733D01*
X128676103Y-76218729D01*
X128676098Y-76218737D01*
X128580592Y-76410539D01*
X128521951Y-76616643D01*
X128502181Y-76829999D01*
X128502181Y-76830000D01*
X124471153Y-76830000D01*
X124451382Y-76616639D01*
X124392743Y-76410543D01*
X124391225Y-76407495D01*
X124297235Y-76218737D01*
X124297230Y-76218729D01*
X124168100Y-76047733D01*
X124009752Y-75903381D01*
X124009751Y-75903380D01*
X123940373Y-75860422D01*
X123827571Y-75790578D01*
X123827569Y-75790577D01*
X123739346Y-75756399D01*
X123627765Y-75713173D01*
X123417138Y-75673800D01*
X123202862Y-75673800D01*
X122992235Y-75713173D01*
X122936444Y-75734786D01*
X122792430Y-75790577D01*
X122792428Y-75790578D01*
X122610247Y-75903381D01*
X122451899Y-76047733D01*
X122322769Y-76218729D01*
X122322764Y-76218737D01*
X122227258Y-76410539D01*
X122168617Y-76616643D01*
X122163471Y-76672183D01*
X122137685Y-76737121D01*
X122080884Y-76777808D01*
X122011103Y-76781328D01*
X121950497Y-76746563D01*
X121918307Y-76684550D01*
X121916529Y-76672183D01*
X121911382Y-76616643D01*
X121911382Y-76616639D01*
X121852743Y-76410543D01*
X121851225Y-76407495D01*
X121757235Y-76218737D01*
X121757230Y-76218729D01*
X121628100Y-76047733D01*
X121469752Y-75903381D01*
X121469751Y-75903380D01*
X121400373Y-75860422D01*
X121287571Y-75790578D01*
X121287569Y-75790577D01*
X121199346Y-75756399D01*
X121087765Y-75713173D01*
X121087759Y-75713171D01*
X121082248Y-75711604D01*
X121082725Y-75709927D01*
X121027608Y-75681895D01*
X120992341Y-75621579D01*
X120995282Y-75551772D01*
X121035496Y-75494635D01*
X121047890Y-75485957D01*
X121052977Y-75482841D01*
X121236283Y-75326283D01*
X121392841Y-75142977D01*
X121518796Y-74937437D01*
X121611047Y-74714723D01*
X121667322Y-74480320D01*
X121686236Y-74240000D01*
X121667322Y-73999680D01*
X121611047Y-73765277D01*
X121566255Y-73657138D01*
X121518796Y-73542562D01*
X121392844Y-73337027D01*
X121392843Y-73337025D01*
X121357474Y-73295613D01*
X121236283Y-73153717D01*
X121115090Y-73050209D01*
X121052974Y-72997156D01*
X121052972Y-72997155D01*
X120847437Y-72871203D01*
X120624723Y-72778952D01*
X120390323Y-72722678D01*
X120150000Y-72703764D01*
X119909676Y-72722678D01*
X119675276Y-72778952D01*
X119452562Y-72871203D01*
X119247027Y-72997155D01*
X119247025Y-72997156D01*
X119063717Y-73153717D01*
X118907156Y-73337025D01*
X118907155Y-73337027D01*
X118781203Y-73542562D01*
X118688952Y-73765276D01*
X118632678Y-73999676D01*
X118613764Y-74240000D01*
X118632678Y-74480323D01*
X118688952Y-74714723D01*
X118781203Y-74937437D01*
X118907155Y-75142972D01*
X118907156Y-75142974D01*
X118907159Y-75142977D01*
X119063717Y-75326283D01*
X119205613Y-75447474D01*
X119247025Y-75482843D01*
X119247027Y-75482844D01*
X119452562Y-75608796D01*
X119675276Y-75701047D01*
X119749329Y-75718825D01*
X119909680Y-75757322D01*
X119919670Y-75758108D01*
X119984956Y-75782988D01*
X120026429Y-75839217D01*
X120030919Y-75908942D01*
X119997000Y-75970026D01*
X119993482Y-75973362D01*
X119911897Y-76047736D01*
X119782769Y-76218729D01*
X119782764Y-76218737D01*
X119687258Y-76410539D01*
X119628617Y-76616643D01*
X119623471Y-76672183D01*
X119597685Y-76737121D01*
X119540884Y-76777808D01*
X119471103Y-76781328D01*
X119410497Y-76746563D01*
X119378307Y-76684550D01*
X119376529Y-76672183D01*
X119371382Y-76616643D01*
X119371382Y-76616639D01*
X119312743Y-76410543D01*
X119311225Y-76407495D01*
X119217235Y-76218737D01*
X119217230Y-76218729D01*
X119088100Y-76047733D01*
X118929752Y-75903381D01*
X118929751Y-75903380D01*
X118860373Y-75860422D01*
X118747571Y-75790578D01*
X118747569Y-75790577D01*
X118659346Y-75756399D01*
X118547765Y-75713173D01*
X118337138Y-75673800D01*
X118122862Y-75673800D01*
X117912235Y-75713173D01*
X117856444Y-75734786D01*
X117712430Y-75790577D01*
X117712428Y-75790578D01*
X117530247Y-75903381D01*
X117371899Y-76047733D01*
X117242769Y-76218729D01*
X117242764Y-76218737D01*
X117147258Y-76410539D01*
X117088617Y-76616643D01*
X117068847Y-76829999D01*
X117068847Y-76830000D01*
X107140000Y-76830000D01*
X107140000Y-72982638D01*
X107590820Y-72982638D01*
X107629178Y-73323088D01*
X107629181Y-73323102D01*
X107705422Y-73657136D01*
X107705423Y-73657138D01*
X107818584Y-73980536D01*
X107967242Y-74289227D01*
X107967244Y-74289230D01*
X108149531Y-74579338D01*
X108363154Y-74847213D01*
X108605427Y-75089486D01*
X108873302Y-75303109D01*
X109163410Y-75485396D01*
X109472105Y-75634056D01*
X109795503Y-75747217D01*
X110129537Y-75823459D01*
X110129546Y-75823460D01*
X110129551Y-75823461D01*
X110356517Y-75849033D01*
X110470002Y-75861819D01*
X110470005Y-75861820D01*
X110470008Y-75861820D01*
X110812635Y-75861820D01*
X110812636Y-75861819D01*
X111008939Y-75839702D01*
X111153088Y-75823461D01*
X111153091Y-75823460D01*
X111153103Y-75823459D01*
X111487137Y-75747217D01*
X111810535Y-75634056D01*
X112119230Y-75485396D01*
X112409338Y-75303109D01*
X112677213Y-75089486D01*
X112919486Y-74847213D01*
X113133109Y-74579338D01*
X113315396Y-74289230D01*
X113464056Y-73980535D01*
X113577217Y-73657137D01*
X113653459Y-73323103D01*
X113691820Y-72982632D01*
X113691820Y-72640008D01*
X113653459Y-72299537D01*
X113577217Y-71965503D01*
X113464056Y-71642105D01*
X113315396Y-71333410D01*
X113133109Y-71043302D01*
X112919486Y-70775427D01*
X112677213Y-70533154D01*
X112409338Y-70319531D01*
X112119230Y-70137244D01*
X112119227Y-70137242D01*
X111810536Y-69988584D01*
X111487138Y-69875423D01*
X111487136Y-69875422D01*
X111229344Y-69816582D01*
X111153103Y-69799181D01*
X111153100Y-69799180D01*
X111153088Y-69799178D01*
X110812638Y-69760820D01*
X110812632Y-69760820D01*
X110470008Y-69760820D01*
X110470001Y-69760820D01*
X110129551Y-69799178D01*
X110129537Y-69799181D01*
X109795503Y-69875422D01*
X109795501Y-69875423D01*
X109472103Y-69988584D01*
X109163412Y-70137242D01*
X108873303Y-70319530D01*
X108605427Y-70533153D01*
X108363153Y-70775427D01*
X108149530Y-71043303D01*
X107967242Y-71333412D01*
X107818584Y-71642103D01*
X107705423Y-71965501D01*
X107705422Y-71965503D01*
X107629181Y-72299537D01*
X107629178Y-72299551D01*
X107590820Y-72640001D01*
X107590820Y-72982638D01*
X107140000Y-72982638D01*
X107140000Y-72800781D01*
X107140011Y-72799159D01*
X107140275Y-72778952D01*
X107142323Y-72622379D01*
X107142990Y-72611062D01*
X107180041Y-72258551D01*
X107182071Y-72245741D01*
X107241638Y-71965503D01*
X107255589Y-71899864D01*
X107258947Y-71887334D01*
X107368218Y-71551034D01*
X107372869Y-71538917D01*
X107464365Y-71333412D01*
X107516702Y-71215860D01*
X107522579Y-71204327D01*
X107699397Y-70898069D01*
X107706451Y-70887207D01*
X107914311Y-70601112D01*
X107922458Y-70591051D01*
X108159088Y-70328247D01*
X108168247Y-70319088D01*
X108431051Y-70082458D01*
X108441112Y-70074311D01*
X108727207Y-69866451D01*
X108738069Y-69859397D01*
X109044327Y-69682579D01*
X109055860Y-69676702D01*
X109378923Y-69532866D01*
X109391028Y-69528220D01*
X109727340Y-69418945D01*
X109739864Y-69415589D01*
X110085750Y-69342069D01*
X110098551Y-69340041D01*
X110451062Y-69302990D01*
X110462379Y-69302323D01*
X110639159Y-69300010D01*
X110640781Y-69300000D01*
X168659219Y-69300000D01*
X168660840Y-69300010D01*
G37*
%TD.AperFunction*%
%TD*%
M02*
