%TF.GenerationSoftware,KiCad,Pcbnew,8.0.1*%
%TF.CreationDate,2024-04-04T15:13:07-04:00*%
%TF.ProjectId,AntHat,416e7448-6174-42e6-9b69-6361645f7063,rev?*%
%TF.SameCoordinates,Original*%
%TF.FileFunction,Soldermask,Top*%
%TF.FilePolarity,Negative*%
%FSLAX46Y46*%
G04 Gerber Fmt 4.6, Leading zero omitted, Abs format (unit mm)*
G04 Created by KiCad (PCBNEW 8.0.1) date 2024-04-04 15:13:07*
%MOMM*%
%LPD*%
G01*
G04 APERTURE LIST*
G04 Aperture macros list*
%AMRoundRect*
0 Rectangle with rounded corners*
0 $1 Rounding radius*
0 $2 $3 $4 $5 $6 $7 $8 $9 X,Y pos of 4 corners*
0 Add a 4 corners polygon primitive as box body*
4,1,4,$2,$3,$4,$5,$6,$7,$8,$9,$2,$3,0*
0 Add four circle primitives for the rounded corners*
1,1,$1+$1,$2,$3*
1,1,$1+$1,$4,$5*
1,1,$1+$1,$6,$7*
1,1,$1+$1,$8,$9*
0 Add four rect primitives between the rounded corners*
20,1,$1+$1,$2,$3,$4,$5,0*
20,1,$1+$1,$4,$5,$6,$7,0*
20,1,$1+$1,$6,$7,$8,$9,0*
20,1,$1+$1,$8,$9,$2,$3,0*%
%AMFreePoly0*
4,1,17,1.395000,0.765000,0.855000,0.765000,0.855000,0.535000,1.395000,0.535000,1.395000,0.115000,0.855000,0.115000,0.855000,-0.115000,1.395000,-0.115000,1.395000,-0.535000,0.855000,-0.535000,0.855000,-0.765000,1.395000,-0.765000,1.395000,-1.185000,-0.855000,-1.185000,-0.855000,1.185000,1.395000,1.185000,1.395000,0.765000,1.395000,0.765000,$1*%
G04 Aperture macros list end*
%ADD10C,2.300000*%
%ADD11RoundRect,0.135000X-0.185000X0.135000X-0.185000X-0.135000X0.185000X-0.135000X0.185000X0.135000X0*%
%ADD12RoundRect,0.140000X0.170000X-0.140000X0.170000X0.140000X-0.170000X0.140000X-0.170000X-0.140000X0*%
%ADD13R,0.711200X0.304800*%
%ADD14R,0.304800X0.711200*%
%ADD15R,2.692400X2.692400*%
%ADD16C,6.100000*%
%ADD17R,3.400000X2.710000*%
%ADD18RoundRect,0.150000X-0.150000X0.737500X-0.150000X-0.737500X0.150000X-0.737500X0.150000X0.737500X0*%
%ADD19C,1.500000*%
%ADD20C,1.549400*%
%ADD21RoundRect,0.135000X0.135000X0.185000X-0.135000X0.185000X-0.135000X-0.185000X0.135000X-0.185000X0*%
%ADD22R,1.400000X1.400000*%
%ADD23C,1.400000*%
%ADD24R,0.800000X0.900000*%
%ADD25RoundRect,0.243750X0.243750X0.456250X-0.243750X0.456250X-0.243750X-0.456250X0.243750X-0.456250X0*%
%ADD26RoundRect,0.140000X-0.170000X0.140000X-0.170000X-0.140000X0.170000X-0.140000X0.170000X0.140000X0*%
%ADD27RoundRect,0.135000X-0.135000X-0.185000X0.135000X-0.185000X0.135000X0.185000X-0.135000X0.185000X0*%
%ADD28RoundRect,0.243750X-0.243750X-0.456250X0.243750X-0.456250X0.243750X0.456250X-0.243750X0.456250X0*%
%ADD29R,2.000000X1.800000*%
%ADD30C,3.050000*%
%ADD31C,2.775000*%
%ADD32RoundRect,0.250000X-0.475000X0.250000X-0.475000X-0.250000X0.475000X-0.250000X0.475000X0.250000X0*%
%ADD33RoundRect,0.135000X0.185000X-0.135000X0.185000X0.135000X-0.185000X0.135000X-0.185000X-0.135000X0*%
%ADD34RoundRect,0.105000X-0.105000X0.245000X-0.105000X-0.245000X0.105000X-0.245000X0.105000X0.245000X0*%
%ADD35FreePoly0,270.000000*%
%ADD36RoundRect,0.140000X-0.140000X-0.170000X0.140000X-0.170000X0.140000X0.170000X-0.140000X0.170000X0*%
%ADD37RoundRect,0.250000X0.787500X1.025000X-0.787500X1.025000X-0.787500X-1.025000X0.787500X-1.025000X0*%
%ADD38R,1.700000X1.700000*%
%ADD39O,1.700000X1.700000*%
G04 APERTURE END LIST*
D10*
%TO.C,J8*%
X158640000Y-74240000D03*
X158640000Y-79740000D03*
X154440000Y-79740000D03*
X154440000Y-74240000D03*
%TD*%
%TO.C,J9*%
X147210000Y-74240000D03*
X147210000Y-79740000D03*
X143010000Y-79740000D03*
X143010000Y-74240000D03*
%TD*%
%TO.C,J10*%
X135780000Y-74240000D03*
X135780000Y-79740000D03*
X131580000Y-79740000D03*
X131580000Y-74240000D03*
%TD*%
%TO.C,J11*%
X124350000Y-74240000D03*
X124350000Y-79740000D03*
X120150000Y-79740000D03*
X120150000Y-74240000D03*
%TD*%
D11*
%TO.C,R3*%
X139670000Y-107295000D03*
X139670000Y-108315000D03*
%TD*%
D12*
%TO.C,C5*%
X163150000Y-89390000D03*
X163150000Y-88430000D03*
%TD*%
D13*
%TO.C,U2*%
X122325800Y-100415800D03*
X122325800Y-101065798D03*
X122325800Y-101715800D03*
X122325800Y-102365798D03*
D14*
X123300002Y-103340000D03*
X123950000Y-103340000D03*
X124600002Y-103340000D03*
X125250000Y-103340000D03*
D13*
X126224202Y-102365798D03*
X126224202Y-101715800D03*
X126224202Y-101065798D03*
X126224202Y-100415800D03*
D14*
X125250000Y-99441598D03*
X124600002Y-99441598D03*
X123950000Y-99441598D03*
X123300002Y-99441598D03*
D15*
X124275001Y-101390799D03*
%TD*%
D16*
%TO.C,H1*%
X168641320Y-122311320D03*
%TD*%
D17*
%TO.C,U1*%
X140278553Y-101407422D03*
D18*
X142183553Y-98844922D03*
X140913553Y-98844922D03*
X139643553Y-98844922D03*
X138373553Y-98844922D03*
X138373553Y-103969922D03*
X139643553Y-103969922D03*
X140913553Y-103969922D03*
X142183553Y-103969922D03*
%TD*%
D19*
%TO.C,TP1*%
X145150000Y-85470000D03*
%TD*%
D20*
%TO.C,J5*%
X148716667Y-76830000D03*
X146176667Y-76830000D03*
X143636667Y-76830000D03*
X141096667Y-76830000D03*
%TD*%
D21*
%TO.C,R13*%
X133610000Y-90225714D03*
X132590000Y-90225714D03*
%TD*%
D22*
%TO.C,J3*%
X165740000Y-86130000D03*
D23*
X165740000Y-84130000D03*
X165740000Y-82130000D03*
X167740000Y-86130000D03*
X167740000Y-84130000D03*
X167740000Y-82130000D03*
%TD*%
D24*
%TO.C,D1*%
X153600000Y-88900000D03*
X155500000Y-88900000D03*
X154550000Y-86900000D03*
%TD*%
D25*
%TO.C,C16*%
X148387500Y-97220000D03*
X146512500Y-97220000D03*
%TD*%
%TO.C,C3*%
X139416053Y-96707422D03*
X137541053Y-96707422D03*
%TD*%
D19*
%TO.C,TP3*%
X146090000Y-91350000D03*
%TD*%
D16*
%TO.C,H4*%
X110641320Y-72811320D03*
%TD*%
D12*
%TO.C,C13*%
X140850000Y-108295000D03*
X140850000Y-107335000D03*
%TD*%
D26*
%TO.C,C8*%
X142230000Y-108085000D03*
X142230000Y-109045000D03*
%TD*%
D27*
%TO.C,R12*%
X122100000Y-96394284D03*
X123120000Y-96394284D03*
%TD*%
D11*
%TO.C,R2*%
X142230000Y-106005000D03*
X142230000Y-107025000D03*
%TD*%
D21*
%TO.C,R17*%
X119430000Y-100570000D03*
X118410000Y-100570000D03*
%TD*%
D28*
%TO.C,C7*%
X141091053Y-96707422D03*
X142966053Y-96707422D03*
%TD*%
D25*
%TO.C,C18*%
X148416053Y-101357422D03*
X146541053Y-101357422D03*
%TD*%
D29*
%TO.C,L1*%
X144628553Y-105807422D03*
X149028553Y-105807422D03*
%TD*%
D11*
%TO.C,R6*%
X132740000Y-104950000D03*
X132740000Y-105970000D03*
%TD*%
D25*
%TO.C,C17*%
X148416053Y-99207422D03*
X146541053Y-99207422D03*
%TD*%
D30*
%TO.C,J2*%
X168210000Y-95330000D03*
X168210000Y-103730000D03*
D31*
X160910000Y-95330000D03*
X160910000Y-99530000D03*
X160910000Y-103730000D03*
X156710000Y-95330000D03*
X156710000Y-99530000D03*
X156710000Y-103730000D03*
%TD*%
D21*
%TO.C,R15*%
X133610000Y-95128570D03*
X132590000Y-95128570D03*
%TD*%
D25*
%TO.C,C2*%
X139416053Y-94857422D03*
X137541053Y-94857422D03*
%TD*%
D32*
%TO.C,C11*%
X150470000Y-86790000D03*
X150470000Y-88690000D03*
%TD*%
D11*
%TO.C,R8*%
X130800000Y-104970000D03*
X130800000Y-105990000D03*
%TD*%
D20*
%TO.C,J4*%
X160150000Y-76830000D03*
X157610000Y-76830000D03*
X155070000Y-76830000D03*
X152530000Y-76830000D03*
%TD*%
%TO.C,J6*%
X137283334Y-76830000D03*
X134743334Y-76830000D03*
X132203334Y-76830000D03*
X129663334Y-76830000D03*
%TD*%
D27*
%TO.C,R9*%
X122100000Y-89040000D03*
X123120000Y-89040000D03*
%TD*%
D33*
%TO.C,R5*%
X136680000Y-103865000D03*
X136680000Y-102845000D03*
%TD*%
D21*
%TO.C,R7*%
X119430000Y-103016666D03*
X118410000Y-103016666D03*
%TD*%
D34*
%TO.C,Q1*%
X160240000Y-88320000D03*
X159590000Y-88320000D03*
X158940000Y-88320000D03*
X158290000Y-88320000D03*
D35*
X159265000Y-90275000D03*
%TD*%
D36*
%TO.C,C20*%
X118440000Y-104230000D03*
X119400000Y-104230000D03*
%TD*%
D25*
%TO.C,C1*%
X139416053Y-93007422D03*
X137541053Y-93007422D03*
%TD*%
D16*
%TO.C,H2*%
X110641320Y-122311320D03*
%TD*%
D33*
%TO.C,R4*%
X136940000Y-106945000D03*
X136940000Y-105925000D03*
%TD*%
D26*
%TO.C,C10*%
X152100000Y-87000000D03*
X152100000Y-87960000D03*
%TD*%
D21*
%TO.C,R18*%
X119430000Y-101793333D03*
X118410000Y-101793333D03*
%TD*%
D16*
%TO.C,H3*%
X168641320Y-72811320D03*
%TD*%
D37*
%TO.C,C19*%
X149072500Y-112020000D03*
X142847500Y-112020000D03*
%TD*%
D27*
%TO.C,R10*%
X122100000Y-91491428D03*
X123120000Y-91491428D03*
%TD*%
D12*
%TO.C,C14*%
X138370000Y-106865000D03*
X138370000Y-105905000D03*
%TD*%
D27*
%TO.C,R11*%
X122100000Y-93942856D03*
X123120000Y-93942856D03*
%TD*%
D36*
%TO.C,C12*%
X139750000Y-106035000D03*
X140710000Y-106035000D03*
%TD*%
D28*
%TO.C,C6*%
X141091053Y-94857422D03*
X142966053Y-94857422D03*
%TD*%
D21*
%TO.C,R16*%
X133610000Y-97580000D03*
X132590000Y-97580000D03*
%TD*%
%TO.C,R14*%
X133610000Y-92677142D03*
X132590000Y-92677142D03*
%TD*%
D25*
%TO.C,C15*%
X148400000Y-95070000D03*
X146525000Y-95070000D03*
%TD*%
D20*
%TO.C,J7*%
X125850000Y-76830000D03*
X123310000Y-76830000D03*
X120770000Y-76830000D03*
X118230000Y-76830000D03*
%TD*%
D19*
%TO.C,TP2*%
X149690000Y-92790000D03*
%TD*%
D26*
%TO.C,C9*%
X136680000Y-99015000D03*
X136680000Y-99975000D03*
%TD*%
D11*
%TO.C,R1*%
X152090000Y-88940000D03*
X152090000Y-89960000D03*
%TD*%
D28*
%TO.C,C4*%
X141091053Y-93007422D03*
X142966053Y-93007422D03*
%TD*%
D38*
%TO.C,J1*%
X163741320Y-123511320D03*
D39*
X163741320Y-120971320D03*
X161201320Y-123511320D03*
X161201320Y-120971320D03*
X158661320Y-123511320D03*
X158661320Y-120971320D03*
X156121320Y-123511320D03*
X156121320Y-120971320D03*
X153581320Y-123511320D03*
X153581320Y-120971320D03*
X151041320Y-123511320D03*
X151041320Y-120971320D03*
X148501320Y-123511320D03*
X148501320Y-120971320D03*
X145961320Y-123511320D03*
X145961320Y-120971320D03*
X143421320Y-123511320D03*
X143421320Y-120971320D03*
X140881320Y-123511320D03*
X140881320Y-120971320D03*
X138341320Y-123511320D03*
X138341320Y-120971320D03*
X135801320Y-123511320D03*
X135801320Y-120971320D03*
X133261320Y-123511320D03*
X133261320Y-120971320D03*
X130721320Y-123511320D03*
X130721320Y-120971320D03*
X128181320Y-123511320D03*
X128181320Y-120971320D03*
X125641320Y-123511320D03*
X125641320Y-120971320D03*
X123101320Y-123511320D03*
X123101320Y-120971320D03*
X120561320Y-123511320D03*
X120561320Y-120971320D03*
X118021320Y-123511320D03*
X118021320Y-120971320D03*
X115481320Y-123511320D03*
X115481320Y-120971320D03*
%TD*%
M02*
