%TF.GenerationSoftware,KiCad,Pcbnew,8.0.1*%
%TF.CreationDate,2024-04-04T15:13:06-04:00*%
%TF.ProjectId,AntHat,416e7448-6174-42e6-9b69-6361645f7063,rev?*%
%TF.SameCoordinates,Original*%
%TF.FileFunction,Legend,Top*%
%TF.FilePolarity,Positive*%
%FSLAX46Y46*%
G04 Gerber Fmt 4.6, Leading zero omitted, Abs format (unit mm)*
G04 Created by KiCad (PCBNEW 8.0.1) date 2024-04-04 15:13:06*
%MOMM*%
%LPD*%
G01*
G04 APERTURE LIST*
G04 Aperture macros list*
%AMRoundRect*
0 Rectangle with rounded corners*
0 $1 Rounding radius*
0 $2 $3 $4 $5 $6 $7 $8 $9 X,Y pos of 4 corners*
0 Add a 4 corners polygon primitive as box body*
4,1,4,$2,$3,$4,$5,$6,$7,$8,$9,$2,$3,0*
0 Add four circle primitives for the rounded corners*
1,1,$1+$1,$2,$3*
1,1,$1+$1,$4,$5*
1,1,$1+$1,$6,$7*
1,1,$1+$1,$8,$9*
0 Add four rect primitives between the rounded corners*
20,1,$1+$1,$2,$3,$4,$5,0*
20,1,$1+$1,$4,$5,$6,$7,0*
20,1,$1+$1,$6,$7,$8,$9,0*
20,1,$1+$1,$8,$9,$2,$3,0*%
%AMFreePoly0*
4,1,17,1.395000,0.765000,0.855000,0.765000,0.855000,0.535000,1.395000,0.535000,1.395000,0.115000,0.855000,0.115000,0.855000,-0.115000,1.395000,-0.115000,1.395000,-0.535000,0.855000,-0.535000,0.855000,-0.765000,1.395000,-0.765000,1.395000,-1.185000,-0.855000,-1.185000,-0.855000,1.185000,1.395000,1.185000,1.395000,0.765000,1.395000,0.765000,$1*%
G04 Aperture macros list end*
%ADD10C,0.150000*%
%ADD11C,0.127000*%
%ADD12C,0.120000*%
%ADD13C,0.152400*%
%ADD14C,0.260000*%
%ADD15C,0.000000*%
%ADD16C,0.100000*%
%ADD17C,2.300000*%
%ADD18RoundRect,0.135000X-0.185000X0.135000X-0.185000X-0.135000X0.185000X-0.135000X0.185000X0.135000X0*%
%ADD19RoundRect,0.140000X0.170000X-0.140000X0.170000X0.140000X-0.170000X0.140000X-0.170000X-0.140000X0*%
%ADD20R,0.711200X0.304800*%
%ADD21R,0.304800X0.711200*%
%ADD22R,2.692400X2.692400*%
%ADD23C,6.100000*%
%ADD24R,3.400000X2.710000*%
%ADD25RoundRect,0.150000X-0.150000X0.737500X-0.150000X-0.737500X0.150000X-0.737500X0.150000X0.737500X0*%
%ADD26C,1.500000*%
%ADD27C,1.549400*%
%ADD28RoundRect,0.135000X0.135000X0.185000X-0.135000X0.185000X-0.135000X-0.185000X0.135000X-0.185000X0*%
%ADD29R,1.400000X1.400000*%
%ADD30C,1.400000*%
%ADD31R,0.800000X0.900000*%
%ADD32RoundRect,0.243750X0.243750X0.456250X-0.243750X0.456250X-0.243750X-0.456250X0.243750X-0.456250X0*%
%ADD33RoundRect,0.140000X-0.170000X0.140000X-0.170000X-0.140000X0.170000X-0.140000X0.170000X0.140000X0*%
%ADD34RoundRect,0.135000X-0.135000X-0.185000X0.135000X-0.185000X0.135000X0.185000X-0.135000X0.185000X0*%
%ADD35RoundRect,0.243750X-0.243750X-0.456250X0.243750X-0.456250X0.243750X0.456250X-0.243750X0.456250X0*%
%ADD36R,2.000000X1.800000*%
%ADD37C,3.050000*%
%ADD38C,2.775000*%
%ADD39RoundRect,0.250000X-0.475000X0.250000X-0.475000X-0.250000X0.475000X-0.250000X0.475000X0.250000X0*%
%ADD40RoundRect,0.135000X0.185000X-0.135000X0.185000X0.135000X-0.185000X0.135000X-0.185000X-0.135000X0*%
%ADD41RoundRect,0.105000X-0.105000X0.245000X-0.105000X-0.245000X0.105000X-0.245000X0.105000X0.245000X0*%
%ADD42FreePoly0,270.000000*%
%ADD43RoundRect,0.140000X-0.140000X-0.170000X0.140000X-0.170000X0.140000X0.170000X-0.140000X0.170000X0*%
%ADD44RoundRect,0.250000X0.787500X1.025000X-0.787500X1.025000X-0.787500X-1.025000X0.787500X-1.025000X0*%
%ADD45R,1.700000X1.700000*%
%ADD46O,1.700000X1.700000*%
G04 APERTURE END LIST*
D10*
X120610112Y-81946009D02*
X120276779Y-81946009D01*
X120276779Y-82469819D02*
X120276779Y-81469819D01*
X120276779Y-81469819D02*
X120752969Y-81469819D01*
X121086303Y-82184104D02*
X121562493Y-82184104D01*
X120991065Y-82469819D02*
X121324398Y-81469819D01*
X121324398Y-81469819D02*
X121657731Y-82469819D01*
X121991065Y-82469819D02*
X121991065Y-81469819D01*
X121991065Y-81469819D02*
X122562493Y-82469819D01*
X122562493Y-82469819D02*
X122562493Y-81469819D01*
X124229160Y-81803152D02*
X124229160Y-82469819D01*
X123991065Y-81422200D02*
X123752970Y-82136485D01*
X123752970Y-82136485D02*
X124372017Y-82136485D01*
X131950112Y-81946009D02*
X131616779Y-81946009D01*
X131616779Y-82469819D02*
X131616779Y-81469819D01*
X131616779Y-81469819D02*
X132092969Y-81469819D01*
X132426303Y-82184104D02*
X132902493Y-82184104D01*
X132331065Y-82469819D02*
X132664398Y-81469819D01*
X132664398Y-81469819D02*
X132997731Y-82469819D01*
X133331065Y-82469819D02*
X133331065Y-81469819D01*
X133331065Y-81469819D02*
X133902493Y-82469819D01*
X133902493Y-82469819D02*
X133902493Y-81469819D01*
X135045351Y-81469819D02*
X135664398Y-81469819D01*
X135664398Y-81469819D02*
X135331065Y-81850771D01*
X135331065Y-81850771D02*
X135473922Y-81850771D01*
X135473922Y-81850771D02*
X135569160Y-81898390D01*
X135569160Y-81898390D02*
X135616779Y-81946009D01*
X135616779Y-81946009D02*
X135664398Y-82041247D01*
X135664398Y-82041247D02*
X135664398Y-82279342D01*
X135664398Y-82279342D02*
X135616779Y-82374580D01*
X135616779Y-82374580D02*
X135569160Y-82422200D01*
X135569160Y-82422200D02*
X135473922Y-82469819D01*
X135473922Y-82469819D02*
X135188208Y-82469819D01*
X135188208Y-82469819D02*
X135092970Y-82422200D01*
X135092970Y-82422200D02*
X135045351Y-82374580D01*
X108794104Y-93450839D02*
X108794104Y-92974649D01*
X109079819Y-93546077D02*
X108079819Y-93212744D01*
X108079819Y-93212744D02*
X109079819Y-92879411D01*
X108413152Y-92546077D02*
X109079819Y-92546077D01*
X108508390Y-92546077D02*
X108460771Y-92498458D01*
X108460771Y-92498458D02*
X108413152Y-92403220D01*
X108413152Y-92403220D02*
X108413152Y-92260363D01*
X108413152Y-92260363D02*
X108460771Y-92165125D01*
X108460771Y-92165125D02*
X108556009Y-92117506D01*
X108556009Y-92117506D02*
X109079819Y-92117506D01*
X108413152Y-91784172D02*
X108413152Y-91403220D01*
X108079819Y-91641315D02*
X108936961Y-91641315D01*
X108936961Y-91641315D02*
X109032200Y-91593696D01*
X109032200Y-91593696D02*
X109079819Y-91498458D01*
X109079819Y-91498458D02*
X109079819Y-91403220D01*
X109079819Y-91069886D02*
X108079819Y-91069886D01*
X108556009Y-91069886D02*
X108556009Y-90498458D01*
X109079819Y-90498458D02*
X108079819Y-90498458D01*
X109079819Y-89593696D02*
X108556009Y-89593696D01*
X108556009Y-89593696D02*
X108460771Y-89641315D01*
X108460771Y-89641315D02*
X108413152Y-89736553D01*
X108413152Y-89736553D02*
X108413152Y-89927029D01*
X108413152Y-89927029D02*
X108460771Y-90022267D01*
X109032200Y-89593696D02*
X109079819Y-89688934D01*
X109079819Y-89688934D02*
X109079819Y-89927029D01*
X109079819Y-89927029D02*
X109032200Y-90022267D01*
X109032200Y-90022267D02*
X108936961Y-90069886D01*
X108936961Y-90069886D02*
X108841723Y-90069886D01*
X108841723Y-90069886D02*
X108746485Y-90022267D01*
X108746485Y-90022267D02*
X108698866Y-89927029D01*
X108698866Y-89927029D02*
X108698866Y-89688934D01*
X108698866Y-89688934D02*
X108651247Y-89593696D01*
X108413152Y-89260362D02*
X108413152Y-88879410D01*
X108079819Y-89117505D02*
X108936961Y-89117505D01*
X108936961Y-89117505D02*
X109032200Y-89069886D01*
X109032200Y-89069886D02*
X109079819Y-88974648D01*
X109079819Y-88974648D02*
X109079819Y-88879410D01*
X108413152Y-87879409D02*
X109079819Y-87641314D01*
X109079819Y-87641314D02*
X108413152Y-87403219D01*
X109079819Y-86498457D02*
X109079819Y-87069885D01*
X109079819Y-86784171D02*
X108079819Y-86784171D01*
X108079819Y-86784171D02*
X108222676Y-86879409D01*
X108222676Y-86879409D02*
X108317914Y-86974647D01*
X108317914Y-86974647D02*
X108365533Y-87069885D01*
X154630112Y-81946009D02*
X154296779Y-81946009D01*
X154296779Y-82469819D02*
X154296779Y-81469819D01*
X154296779Y-81469819D02*
X154772969Y-81469819D01*
X155106303Y-82184104D02*
X155582493Y-82184104D01*
X155011065Y-82469819D02*
X155344398Y-81469819D01*
X155344398Y-81469819D02*
X155677731Y-82469819D01*
X156011065Y-82469819D02*
X156011065Y-81469819D01*
X156011065Y-81469819D02*
X156582493Y-82469819D01*
X156582493Y-82469819D02*
X156582493Y-81469819D01*
X158344398Y-82469819D02*
X157772970Y-82469819D01*
X158058684Y-82469819D02*
X158058684Y-81469819D01*
X158058684Y-81469819D02*
X157963446Y-81612676D01*
X157963446Y-81612676D02*
X157868208Y-81707914D01*
X157868208Y-81707914D02*
X157772970Y-81755533D01*
X143290112Y-81946009D02*
X142956779Y-81946009D01*
X142956779Y-82469819D02*
X142956779Y-81469819D01*
X142956779Y-81469819D02*
X143432969Y-81469819D01*
X143766303Y-82184104D02*
X144242493Y-82184104D01*
X143671065Y-82469819D02*
X144004398Y-81469819D01*
X144004398Y-81469819D02*
X144337731Y-82469819D01*
X144671065Y-82469819D02*
X144671065Y-81469819D01*
X144671065Y-81469819D02*
X145242493Y-82469819D01*
X145242493Y-82469819D02*
X145242493Y-81469819D01*
X146432970Y-81565057D02*
X146480589Y-81517438D01*
X146480589Y-81517438D02*
X146575827Y-81469819D01*
X146575827Y-81469819D02*
X146813922Y-81469819D01*
X146813922Y-81469819D02*
X146909160Y-81517438D01*
X146909160Y-81517438D02*
X146956779Y-81565057D01*
X146956779Y-81565057D02*
X147004398Y-81660295D01*
X147004398Y-81660295D02*
X147004398Y-81755533D01*
X147004398Y-81755533D02*
X146956779Y-81898390D01*
X146956779Y-81898390D02*
X146385351Y-82469819D01*
X146385351Y-82469819D02*
X147004398Y-82469819D01*
X141364819Y-109816666D02*
X140888628Y-110149999D01*
X141364819Y-110388094D02*
X140364819Y-110388094D01*
X140364819Y-110388094D02*
X140364819Y-110007142D01*
X140364819Y-110007142D02*
X140412438Y-109911904D01*
X140412438Y-109911904D02*
X140460057Y-109864285D01*
X140460057Y-109864285D02*
X140555295Y-109816666D01*
X140555295Y-109816666D02*
X140698152Y-109816666D01*
X140698152Y-109816666D02*
X140793390Y-109864285D01*
X140793390Y-109864285D02*
X140841009Y-109911904D01*
X140841009Y-109911904D02*
X140888628Y-110007142D01*
X140888628Y-110007142D02*
X140888628Y-110388094D01*
X140364819Y-109483332D02*
X140364819Y-108864285D01*
X140364819Y-108864285D02*
X140745771Y-109197618D01*
X140745771Y-109197618D02*
X140745771Y-109054761D01*
X140745771Y-109054761D02*
X140793390Y-108959523D01*
X140793390Y-108959523D02*
X140841009Y-108911904D01*
X140841009Y-108911904D02*
X140936247Y-108864285D01*
X140936247Y-108864285D02*
X141174342Y-108864285D01*
X141174342Y-108864285D02*
X141269580Y-108911904D01*
X141269580Y-108911904D02*
X141317200Y-108959523D01*
X141317200Y-108959523D02*
X141364819Y-109054761D01*
X141364819Y-109054761D02*
X141364819Y-109340475D01*
X141364819Y-109340475D02*
X141317200Y-109435713D01*
X141317200Y-109435713D02*
X141269580Y-109483332D01*
X163669580Y-90986666D02*
X163717200Y-91034285D01*
X163717200Y-91034285D02*
X163764819Y-91177142D01*
X163764819Y-91177142D02*
X163764819Y-91272380D01*
X163764819Y-91272380D02*
X163717200Y-91415237D01*
X163717200Y-91415237D02*
X163621961Y-91510475D01*
X163621961Y-91510475D02*
X163526723Y-91558094D01*
X163526723Y-91558094D02*
X163336247Y-91605713D01*
X163336247Y-91605713D02*
X163193390Y-91605713D01*
X163193390Y-91605713D02*
X163002914Y-91558094D01*
X163002914Y-91558094D02*
X162907676Y-91510475D01*
X162907676Y-91510475D02*
X162812438Y-91415237D01*
X162812438Y-91415237D02*
X162764819Y-91272380D01*
X162764819Y-91272380D02*
X162764819Y-91177142D01*
X162764819Y-91177142D02*
X162812438Y-91034285D01*
X162812438Y-91034285D02*
X162860057Y-90986666D01*
X162764819Y-90081904D02*
X162764819Y-90558094D01*
X162764819Y-90558094D02*
X163241009Y-90605713D01*
X163241009Y-90605713D02*
X163193390Y-90558094D01*
X163193390Y-90558094D02*
X163145771Y-90462856D01*
X163145771Y-90462856D02*
X163145771Y-90224761D01*
X163145771Y-90224761D02*
X163193390Y-90129523D01*
X163193390Y-90129523D02*
X163241009Y-90081904D01*
X163241009Y-90081904D02*
X163336247Y-90034285D01*
X163336247Y-90034285D02*
X163574342Y-90034285D01*
X163574342Y-90034285D02*
X163669580Y-90081904D01*
X163669580Y-90081904D02*
X163717200Y-90129523D01*
X163717200Y-90129523D02*
X163764819Y-90224761D01*
X163764819Y-90224761D02*
X163764819Y-90462856D01*
X163764819Y-90462856D02*
X163717200Y-90558094D01*
X163717200Y-90558094D02*
X163669580Y-90605713D01*
X126248095Y-104014819D02*
X126248095Y-104824342D01*
X126248095Y-104824342D02*
X126295714Y-104919580D01*
X126295714Y-104919580D02*
X126343333Y-104967200D01*
X126343333Y-104967200D02*
X126438571Y-105014819D01*
X126438571Y-105014819D02*
X126629047Y-105014819D01*
X126629047Y-105014819D02*
X126724285Y-104967200D01*
X126724285Y-104967200D02*
X126771904Y-104919580D01*
X126771904Y-104919580D02*
X126819523Y-104824342D01*
X126819523Y-104824342D02*
X126819523Y-104014819D01*
X127248095Y-104110057D02*
X127295714Y-104062438D01*
X127295714Y-104062438D02*
X127390952Y-104014819D01*
X127390952Y-104014819D02*
X127629047Y-104014819D01*
X127629047Y-104014819D02*
X127724285Y-104062438D01*
X127724285Y-104062438D02*
X127771904Y-104110057D01*
X127771904Y-104110057D02*
X127819523Y-104205295D01*
X127819523Y-104205295D02*
X127819523Y-104300533D01*
X127819523Y-104300533D02*
X127771904Y-104443390D01*
X127771904Y-104443390D02*
X127200476Y-105014819D01*
X127200476Y-105014819D02*
X127819523Y-105014819D01*
X135116648Y-100812241D02*
X135116648Y-101621764D01*
X135116648Y-101621764D02*
X135164267Y-101717002D01*
X135164267Y-101717002D02*
X135211886Y-101764622D01*
X135211886Y-101764622D02*
X135307124Y-101812241D01*
X135307124Y-101812241D02*
X135497600Y-101812241D01*
X135497600Y-101812241D02*
X135592838Y-101764622D01*
X135592838Y-101764622D02*
X135640457Y-101717002D01*
X135640457Y-101717002D02*
X135688076Y-101621764D01*
X135688076Y-101621764D02*
X135688076Y-100812241D01*
X136688076Y-101812241D02*
X136116648Y-101812241D01*
X136402362Y-101812241D02*
X136402362Y-100812241D01*
X136402362Y-100812241D02*
X136307124Y-100955098D01*
X136307124Y-100955098D02*
X136211886Y-101050336D01*
X136211886Y-101050336D02*
X136116648Y-101097955D01*
X143888095Y-83276819D02*
X144459523Y-83276819D01*
X144173809Y-84276819D02*
X144173809Y-83276819D01*
X144792857Y-84276819D02*
X144792857Y-83276819D01*
X144792857Y-83276819D02*
X145173809Y-83276819D01*
X145173809Y-83276819D02*
X145269047Y-83324438D01*
X145269047Y-83324438D02*
X145316666Y-83372057D01*
X145316666Y-83372057D02*
X145364285Y-83467295D01*
X145364285Y-83467295D02*
X145364285Y-83610152D01*
X145364285Y-83610152D02*
X145316666Y-83705390D01*
X145316666Y-83705390D02*
X145269047Y-83753009D01*
X145269047Y-83753009D02*
X145173809Y-83800628D01*
X145173809Y-83800628D02*
X144792857Y-83800628D01*
X146316666Y-84276819D02*
X145745238Y-84276819D01*
X146030952Y-84276819D02*
X146030952Y-83276819D01*
X146030952Y-83276819D02*
X145935714Y-83419676D01*
X145935714Y-83419676D02*
X145840476Y-83514914D01*
X145840476Y-83514914D02*
X145745238Y-83562533D01*
X132457142Y-89484819D02*
X132123809Y-89008628D01*
X131885714Y-89484819D02*
X131885714Y-88484819D01*
X131885714Y-88484819D02*
X132266666Y-88484819D01*
X132266666Y-88484819D02*
X132361904Y-88532438D01*
X132361904Y-88532438D02*
X132409523Y-88580057D01*
X132409523Y-88580057D02*
X132457142Y-88675295D01*
X132457142Y-88675295D02*
X132457142Y-88818152D01*
X132457142Y-88818152D02*
X132409523Y-88913390D01*
X132409523Y-88913390D02*
X132361904Y-88961009D01*
X132361904Y-88961009D02*
X132266666Y-89008628D01*
X132266666Y-89008628D02*
X131885714Y-89008628D01*
X133409523Y-89484819D02*
X132838095Y-89484819D01*
X133123809Y-89484819D02*
X133123809Y-88484819D01*
X133123809Y-88484819D02*
X133028571Y-88627676D01*
X133028571Y-88627676D02*
X132933333Y-88722914D01*
X132933333Y-88722914D02*
X132838095Y-88770533D01*
X133742857Y-88484819D02*
X134361904Y-88484819D01*
X134361904Y-88484819D02*
X134028571Y-88865771D01*
X134028571Y-88865771D02*
X134171428Y-88865771D01*
X134171428Y-88865771D02*
X134266666Y-88913390D01*
X134266666Y-88913390D02*
X134314285Y-88961009D01*
X134314285Y-88961009D02*
X134361904Y-89056247D01*
X134361904Y-89056247D02*
X134361904Y-89294342D01*
X134361904Y-89294342D02*
X134314285Y-89389580D01*
X134314285Y-89389580D02*
X134266666Y-89437200D01*
X134266666Y-89437200D02*
X134171428Y-89484819D01*
X134171428Y-89484819D02*
X133885714Y-89484819D01*
X133885714Y-89484819D02*
X133790476Y-89437200D01*
X133790476Y-89437200D02*
X133742857Y-89389580D01*
X168236666Y-88674819D02*
X168236666Y-89389104D01*
X168236666Y-89389104D02*
X168189047Y-89531961D01*
X168189047Y-89531961D02*
X168093809Y-89627200D01*
X168093809Y-89627200D02*
X167950952Y-89674819D01*
X167950952Y-89674819D02*
X167855714Y-89674819D01*
X168617619Y-88674819D02*
X169236666Y-88674819D01*
X169236666Y-88674819D02*
X168903333Y-89055771D01*
X168903333Y-89055771D02*
X169046190Y-89055771D01*
X169046190Y-89055771D02*
X169141428Y-89103390D01*
X169141428Y-89103390D02*
X169189047Y-89151009D01*
X169189047Y-89151009D02*
X169236666Y-89246247D01*
X169236666Y-89246247D02*
X169236666Y-89484342D01*
X169236666Y-89484342D02*
X169189047Y-89579580D01*
X169189047Y-89579580D02*
X169141428Y-89627200D01*
X169141428Y-89627200D02*
X169046190Y-89674819D01*
X169046190Y-89674819D02*
X168760476Y-89674819D01*
X168760476Y-89674819D02*
X168665238Y-89627200D01*
X168665238Y-89627200D02*
X168617619Y-89579580D01*
X155421905Y-86724819D02*
X155421905Y-85724819D01*
X155421905Y-85724819D02*
X155660000Y-85724819D01*
X155660000Y-85724819D02*
X155802857Y-85772438D01*
X155802857Y-85772438D02*
X155898095Y-85867676D01*
X155898095Y-85867676D02*
X155945714Y-85962914D01*
X155945714Y-85962914D02*
X155993333Y-86153390D01*
X155993333Y-86153390D02*
X155993333Y-86296247D01*
X155993333Y-86296247D02*
X155945714Y-86486723D01*
X155945714Y-86486723D02*
X155898095Y-86581961D01*
X155898095Y-86581961D02*
X155802857Y-86677200D01*
X155802857Y-86677200D02*
X155660000Y-86724819D01*
X155660000Y-86724819D02*
X155421905Y-86724819D01*
X156945714Y-86724819D02*
X156374286Y-86724819D01*
X156660000Y-86724819D02*
X156660000Y-85724819D01*
X156660000Y-85724819D02*
X156564762Y-85867676D01*
X156564762Y-85867676D02*
X156469524Y-85962914D01*
X156469524Y-85962914D02*
X156374286Y-86010533D01*
X149797142Y-97549580D02*
X149749523Y-97597200D01*
X149749523Y-97597200D02*
X149606666Y-97644819D01*
X149606666Y-97644819D02*
X149511428Y-97644819D01*
X149511428Y-97644819D02*
X149368571Y-97597200D01*
X149368571Y-97597200D02*
X149273333Y-97501961D01*
X149273333Y-97501961D02*
X149225714Y-97406723D01*
X149225714Y-97406723D02*
X149178095Y-97216247D01*
X149178095Y-97216247D02*
X149178095Y-97073390D01*
X149178095Y-97073390D02*
X149225714Y-96882914D01*
X149225714Y-96882914D02*
X149273333Y-96787676D01*
X149273333Y-96787676D02*
X149368571Y-96692438D01*
X149368571Y-96692438D02*
X149511428Y-96644819D01*
X149511428Y-96644819D02*
X149606666Y-96644819D01*
X149606666Y-96644819D02*
X149749523Y-96692438D01*
X149749523Y-96692438D02*
X149797142Y-96740057D01*
X150749523Y-97644819D02*
X150178095Y-97644819D01*
X150463809Y-97644819D02*
X150463809Y-96644819D01*
X150463809Y-96644819D02*
X150368571Y-96787676D01*
X150368571Y-96787676D02*
X150273333Y-96882914D01*
X150273333Y-96882914D02*
X150178095Y-96930533D01*
X151606666Y-96644819D02*
X151416190Y-96644819D01*
X151416190Y-96644819D02*
X151320952Y-96692438D01*
X151320952Y-96692438D02*
X151273333Y-96740057D01*
X151273333Y-96740057D02*
X151178095Y-96882914D01*
X151178095Y-96882914D02*
X151130476Y-97073390D01*
X151130476Y-97073390D02*
X151130476Y-97454342D01*
X151130476Y-97454342D02*
X151178095Y-97549580D01*
X151178095Y-97549580D02*
X151225714Y-97597200D01*
X151225714Y-97597200D02*
X151320952Y-97644819D01*
X151320952Y-97644819D02*
X151511428Y-97644819D01*
X151511428Y-97644819D02*
X151606666Y-97597200D01*
X151606666Y-97597200D02*
X151654285Y-97549580D01*
X151654285Y-97549580D02*
X151701904Y-97454342D01*
X151701904Y-97454342D02*
X151701904Y-97216247D01*
X151701904Y-97216247D02*
X151654285Y-97121009D01*
X151654285Y-97121009D02*
X151606666Y-97073390D01*
X151606666Y-97073390D02*
X151511428Y-97025771D01*
X151511428Y-97025771D02*
X151320952Y-97025771D01*
X151320952Y-97025771D02*
X151225714Y-97073390D01*
X151225714Y-97073390D02*
X151178095Y-97121009D01*
X151178095Y-97121009D02*
X151130476Y-97216247D01*
X135713333Y-97049580D02*
X135665714Y-97097200D01*
X135665714Y-97097200D02*
X135522857Y-97144819D01*
X135522857Y-97144819D02*
X135427619Y-97144819D01*
X135427619Y-97144819D02*
X135284762Y-97097200D01*
X135284762Y-97097200D02*
X135189524Y-97001961D01*
X135189524Y-97001961D02*
X135141905Y-96906723D01*
X135141905Y-96906723D02*
X135094286Y-96716247D01*
X135094286Y-96716247D02*
X135094286Y-96573390D01*
X135094286Y-96573390D02*
X135141905Y-96382914D01*
X135141905Y-96382914D02*
X135189524Y-96287676D01*
X135189524Y-96287676D02*
X135284762Y-96192438D01*
X135284762Y-96192438D02*
X135427619Y-96144819D01*
X135427619Y-96144819D02*
X135522857Y-96144819D01*
X135522857Y-96144819D02*
X135665714Y-96192438D01*
X135665714Y-96192438D02*
X135713333Y-96240057D01*
X136046667Y-96144819D02*
X136665714Y-96144819D01*
X136665714Y-96144819D02*
X136332381Y-96525771D01*
X136332381Y-96525771D02*
X136475238Y-96525771D01*
X136475238Y-96525771D02*
X136570476Y-96573390D01*
X136570476Y-96573390D02*
X136618095Y-96621009D01*
X136618095Y-96621009D02*
X136665714Y-96716247D01*
X136665714Y-96716247D02*
X136665714Y-96954342D01*
X136665714Y-96954342D02*
X136618095Y-97049580D01*
X136618095Y-97049580D02*
X136570476Y-97097200D01*
X136570476Y-97097200D02*
X136475238Y-97144819D01*
X136475238Y-97144819D02*
X136189524Y-97144819D01*
X136189524Y-97144819D02*
X136094286Y-97097200D01*
X136094286Y-97097200D02*
X136046667Y-97049580D01*
X144828095Y-89156819D02*
X145399523Y-89156819D01*
X145113809Y-90156819D02*
X145113809Y-89156819D01*
X145732857Y-90156819D02*
X145732857Y-89156819D01*
X145732857Y-89156819D02*
X146113809Y-89156819D01*
X146113809Y-89156819D02*
X146209047Y-89204438D01*
X146209047Y-89204438D02*
X146256666Y-89252057D01*
X146256666Y-89252057D02*
X146304285Y-89347295D01*
X146304285Y-89347295D02*
X146304285Y-89490152D01*
X146304285Y-89490152D02*
X146256666Y-89585390D01*
X146256666Y-89585390D02*
X146209047Y-89633009D01*
X146209047Y-89633009D02*
X146113809Y-89680628D01*
X146113809Y-89680628D02*
X145732857Y-89680628D01*
X146637619Y-89156819D02*
X147256666Y-89156819D01*
X147256666Y-89156819D02*
X146923333Y-89537771D01*
X146923333Y-89537771D02*
X147066190Y-89537771D01*
X147066190Y-89537771D02*
X147161428Y-89585390D01*
X147161428Y-89585390D02*
X147209047Y-89633009D01*
X147209047Y-89633009D02*
X147256666Y-89728247D01*
X147256666Y-89728247D02*
X147256666Y-89966342D01*
X147256666Y-89966342D02*
X147209047Y-90061580D01*
X147209047Y-90061580D02*
X147161428Y-90109200D01*
X147161428Y-90109200D02*
X147066190Y-90156819D01*
X147066190Y-90156819D02*
X146780476Y-90156819D01*
X146780476Y-90156819D02*
X146685238Y-90109200D01*
X146685238Y-90109200D02*
X146637619Y-90061580D01*
X139959580Y-110802857D02*
X140007200Y-110850476D01*
X140007200Y-110850476D02*
X140054819Y-110993333D01*
X140054819Y-110993333D02*
X140054819Y-111088571D01*
X140054819Y-111088571D02*
X140007200Y-111231428D01*
X140007200Y-111231428D02*
X139911961Y-111326666D01*
X139911961Y-111326666D02*
X139816723Y-111374285D01*
X139816723Y-111374285D02*
X139626247Y-111421904D01*
X139626247Y-111421904D02*
X139483390Y-111421904D01*
X139483390Y-111421904D02*
X139292914Y-111374285D01*
X139292914Y-111374285D02*
X139197676Y-111326666D01*
X139197676Y-111326666D02*
X139102438Y-111231428D01*
X139102438Y-111231428D02*
X139054819Y-111088571D01*
X139054819Y-111088571D02*
X139054819Y-110993333D01*
X139054819Y-110993333D02*
X139102438Y-110850476D01*
X139102438Y-110850476D02*
X139150057Y-110802857D01*
X140054819Y-109850476D02*
X140054819Y-110421904D01*
X140054819Y-110136190D02*
X139054819Y-110136190D01*
X139054819Y-110136190D02*
X139197676Y-110231428D01*
X139197676Y-110231428D02*
X139292914Y-110326666D01*
X139292914Y-110326666D02*
X139340533Y-110421904D01*
X139054819Y-109517142D02*
X139054819Y-108898095D01*
X139054819Y-108898095D02*
X139435771Y-109231428D01*
X139435771Y-109231428D02*
X139435771Y-109088571D01*
X139435771Y-109088571D02*
X139483390Y-108993333D01*
X139483390Y-108993333D02*
X139531009Y-108945714D01*
X139531009Y-108945714D02*
X139626247Y-108898095D01*
X139626247Y-108898095D02*
X139864342Y-108898095D01*
X139864342Y-108898095D02*
X139959580Y-108945714D01*
X139959580Y-108945714D02*
X140007200Y-108993333D01*
X140007200Y-108993333D02*
X140054819Y-109088571D01*
X140054819Y-109088571D02*
X140054819Y-109374285D01*
X140054819Y-109374285D02*
X140007200Y-109469523D01*
X140007200Y-109469523D02*
X139959580Y-109517142D01*
X141339580Y-113636666D02*
X141387200Y-113684285D01*
X141387200Y-113684285D02*
X141434819Y-113827142D01*
X141434819Y-113827142D02*
X141434819Y-113922380D01*
X141434819Y-113922380D02*
X141387200Y-114065237D01*
X141387200Y-114065237D02*
X141291961Y-114160475D01*
X141291961Y-114160475D02*
X141196723Y-114208094D01*
X141196723Y-114208094D02*
X141006247Y-114255713D01*
X141006247Y-114255713D02*
X140863390Y-114255713D01*
X140863390Y-114255713D02*
X140672914Y-114208094D01*
X140672914Y-114208094D02*
X140577676Y-114160475D01*
X140577676Y-114160475D02*
X140482438Y-114065237D01*
X140482438Y-114065237D02*
X140434819Y-113922380D01*
X140434819Y-113922380D02*
X140434819Y-113827142D01*
X140434819Y-113827142D02*
X140482438Y-113684285D01*
X140482438Y-113684285D02*
X140530057Y-113636666D01*
X140863390Y-113065237D02*
X140815771Y-113160475D01*
X140815771Y-113160475D02*
X140768152Y-113208094D01*
X140768152Y-113208094D02*
X140672914Y-113255713D01*
X140672914Y-113255713D02*
X140625295Y-113255713D01*
X140625295Y-113255713D02*
X140530057Y-113208094D01*
X140530057Y-113208094D02*
X140482438Y-113160475D01*
X140482438Y-113160475D02*
X140434819Y-113065237D01*
X140434819Y-113065237D02*
X140434819Y-112874761D01*
X140434819Y-112874761D02*
X140482438Y-112779523D01*
X140482438Y-112779523D02*
X140530057Y-112731904D01*
X140530057Y-112731904D02*
X140625295Y-112684285D01*
X140625295Y-112684285D02*
X140672914Y-112684285D01*
X140672914Y-112684285D02*
X140768152Y-112731904D01*
X140768152Y-112731904D02*
X140815771Y-112779523D01*
X140815771Y-112779523D02*
X140863390Y-112874761D01*
X140863390Y-112874761D02*
X140863390Y-113065237D01*
X140863390Y-113065237D02*
X140911009Y-113160475D01*
X140911009Y-113160475D02*
X140958628Y-113208094D01*
X140958628Y-113208094D02*
X141053866Y-113255713D01*
X141053866Y-113255713D02*
X141244342Y-113255713D01*
X141244342Y-113255713D02*
X141339580Y-113208094D01*
X141339580Y-113208094D02*
X141387200Y-113160475D01*
X141387200Y-113160475D02*
X141434819Y-113065237D01*
X141434819Y-113065237D02*
X141434819Y-112874761D01*
X141434819Y-112874761D02*
X141387200Y-112779523D01*
X141387200Y-112779523D02*
X141339580Y-112731904D01*
X141339580Y-112731904D02*
X141244342Y-112684285D01*
X141244342Y-112684285D02*
X141053866Y-112684285D01*
X141053866Y-112684285D02*
X140958628Y-112731904D01*
X140958628Y-112731904D02*
X140911009Y-112779523D01*
X140911009Y-112779523D02*
X140863390Y-112874761D01*
X121987142Y-95694819D02*
X121653809Y-95218628D01*
X121415714Y-95694819D02*
X121415714Y-94694819D01*
X121415714Y-94694819D02*
X121796666Y-94694819D01*
X121796666Y-94694819D02*
X121891904Y-94742438D01*
X121891904Y-94742438D02*
X121939523Y-94790057D01*
X121939523Y-94790057D02*
X121987142Y-94885295D01*
X121987142Y-94885295D02*
X121987142Y-95028152D01*
X121987142Y-95028152D02*
X121939523Y-95123390D01*
X121939523Y-95123390D02*
X121891904Y-95171009D01*
X121891904Y-95171009D02*
X121796666Y-95218628D01*
X121796666Y-95218628D02*
X121415714Y-95218628D01*
X122939523Y-95694819D02*
X122368095Y-95694819D01*
X122653809Y-95694819D02*
X122653809Y-94694819D01*
X122653809Y-94694819D02*
X122558571Y-94837676D01*
X122558571Y-94837676D02*
X122463333Y-94932914D01*
X122463333Y-94932914D02*
X122368095Y-94980533D01*
X123320476Y-94790057D02*
X123368095Y-94742438D01*
X123368095Y-94742438D02*
X123463333Y-94694819D01*
X123463333Y-94694819D02*
X123701428Y-94694819D01*
X123701428Y-94694819D02*
X123796666Y-94742438D01*
X123796666Y-94742438D02*
X123844285Y-94790057D01*
X123844285Y-94790057D02*
X123891904Y-94885295D01*
X123891904Y-94885295D02*
X123891904Y-94980533D01*
X123891904Y-94980533D02*
X123844285Y-95123390D01*
X123844285Y-95123390D02*
X123272857Y-95694819D01*
X123272857Y-95694819D02*
X123891904Y-95694819D01*
X141404819Y-111686666D02*
X140928628Y-112019999D01*
X141404819Y-112258094D02*
X140404819Y-112258094D01*
X140404819Y-112258094D02*
X140404819Y-111877142D01*
X140404819Y-111877142D02*
X140452438Y-111781904D01*
X140452438Y-111781904D02*
X140500057Y-111734285D01*
X140500057Y-111734285D02*
X140595295Y-111686666D01*
X140595295Y-111686666D02*
X140738152Y-111686666D01*
X140738152Y-111686666D02*
X140833390Y-111734285D01*
X140833390Y-111734285D02*
X140881009Y-111781904D01*
X140881009Y-111781904D02*
X140928628Y-111877142D01*
X140928628Y-111877142D02*
X140928628Y-112258094D01*
X140500057Y-111305713D02*
X140452438Y-111258094D01*
X140452438Y-111258094D02*
X140404819Y-111162856D01*
X140404819Y-111162856D02*
X140404819Y-110924761D01*
X140404819Y-110924761D02*
X140452438Y-110829523D01*
X140452438Y-110829523D02*
X140500057Y-110781904D01*
X140500057Y-110781904D02*
X140595295Y-110734285D01*
X140595295Y-110734285D02*
X140690533Y-110734285D01*
X140690533Y-110734285D02*
X140833390Y-110781904D01*
X140833390Y-110781904D02*
X141404819Y-111353332D01*
X141404819Y-111353332D02*
X141404819Y-110734285D01*
X116047142Y-100814819D02*
X115713809Y-100338628D01*
X115475714Y-100814819D02*
X115475714Y-99814819D01*
X115475714Y-99814819D02*
X115856666Y-99814819D01*
X115856666Y-99814819D02*
X115951904Y-99862438D01*
X115951904Y-99862438D02*
X115999523Y-99910057D01*
X115999523Y-99910057D02*
X116047142Y-100005295D01*
X116047142Y-100005295D02*
X116047142Y-100148152D01*
X116047142Y-100148152D02*
X115999523Y-100243390D01*
X115999523Y-100243390D02*
X115951904Y-100291009D01*
X115951904Y-100291009D02*
X115856666Y-100338628D01*
X115856666Y-100338628D02*
X115475714Y-100338628D01*
X116999523Y-100814819D02*
X116428095Y-100814819D01*
X116713809Y-100814819D02*
X116713809Y-99814819D01*
X116713809Y-99814819D02*
X116618571Y-99957676D01*
X116618571Y-99957676D02*
X116523333Y-100052914D01*
X116523333Y-100052914D02*
X116428095Y-100100533D01*
X117332857Y-99814819D02*
X117999523Y-99814819D01*
X117999523Y-99814819D02*
X117570952Y-100814819D01*
X144443333Y-97059580D02*
X144395714Y-97107200D01*
X144395714Y-97107200D02*
X144252857Y-97154819D01*
X144252857Y-97154819D02*
X144157619Y-97154819D01*
X144157619Y-97154819D02*
X144014762Y-97107200D01*
X144014762Y-97107200D02*
X143919524Y-97011961D01*
X143919524Y-97011961D02*
X143871905Y-96916723D01*
X143871905Y-96916723D02*
X143824286Y-96726247D01*
X143824286Y-96726247D02*
X143824286Y-96583390D01*
X143824286Y-96583390D02*
X143871905Y-96392914D01*
X143871905Y-96392914D02*
X143919524Y-96297676D01*
X143919524Y-96297676D02*
X144014762Y-96202438D01*
X144014762Y-96202438D02*
X144157619Y-96154819D01*
X144157619Y-96154819D02*
X144252857Y-96154819D01*
X144252857Y-96154819D02*
X144395714Y-96202438D01*
X144395714Y-96202438D02*
X144443333Y-96250057D01*
X144776667Y-96154819D02*
X145443333Y-96154819D01*
X145443333Y-96154819D02*
X145014762Y-97154819D01*
X149897142Y-101667002D02*
X149849523Y-101714622D01*
X149849523Y-101714622D02*
X149706666Y-101762241D01*
X149706666Y-101762241D02*
X149611428Y-101762241D01*
X149611428Y-101762241D02*
X149468571Y-101714622D01*
X149468571Y-101714622D02*
X149373333Y-101619383D01*
X149373333Y-101619383D02*
X149325714Y-101524145D01*
X149325714Y-101524145D02*
X149278095Y-101333669D01*
X149278095Y-101333669D02*
X149278095Y-101190812D01*
X149278095Y-101190812D02*
X149325714Y-101000336D01*
X149325714Y-101000336D02*
X149373333Y-100905098D01*
X149373333Y-100905098D02*
X149468571Y-100809860D01*
X149468571Y-100809860D02*
X149611428Y-100762241D01*
X149611428Y-100762241D02*
X149706666Y-100762241D01*
X149706666Y-100762241D02*
X149849523Y-100809860D01*
X149849523Y-100809860D02*
X149897142Y-100857479D01*
X150849523Y-101762241D02*
X150278095Y-101762241D01*
X150563809Y-101762241D02*
X150563809Y-100762241D01*
X150563809Y-100762241D02*
X150468571Y-100905098D01*
X150468571Y-100905098D02*
X150373333Y-101000336D01*
X150373333Y-101000336D02*
X150278095Y-101047955D01*
X151420952Y-101190812D02*
X151325714Y-101143193D01*
X151325714Y-101143193D02*
X151278095Y-101095574D01*
X151278095Y-101095574D02*
X151230476Y-101000336D01*
X151230476Y-101000336D02*
X151230476Y-100952717D01*
X151230476Y-100952717D02*
X151278095Y-100857479D01*
X151278095Y-100857479D02*
X151325714Y-100809860D01*
X151325714Y-100809860D02*
X151420952Y-100762241D01*
X151420952Y-100762241D02*
X151611428Y-100762241D01*
X151611428Y-100762241D02*
X151706666Y-100809860D01*
X151706666Y-100809860D02*
X151754285Y-100857479D01*
X151754285Y-100857479D02*
X151801904Y-100952717D01*
X151801904Y-100952717D02*
X151801904Y-101000336D01*
X151801904Y-101000336D02*
X151754285Y-101095574D01*
X151754285Y-101095574D02*
X151706666Y-101143193D01*
X151706666Y-101143193D02*
X151611428Y-101190812D01*
X151611428Y-101190812D02*
X151420952Y-101190812D01*
X151420952Y-101190812D02*
X151325714Y-101238431D01*
X151325714Y-101238431D02*
X151278095Y-101286050D01*
X151278095Y-101286050D02*
X151230476Y-101381288D01*
X151230476Y-101381288D02*
X151230476Y-101571764D01*
X151230476Y-101571764D02*
X151278095Y-101667002D01*
X151278095Y-101667002D02*
X151325714Y-101714622D01*
X151325714Y-101714622D02*
X151420952Y-101762241D01*
X151420952Y-101762241D02*
X151611428Y-101762241D01*
X151611428Y-101762241D02*
X151706666Y-101714622D01*
X151706666Y-101714622D02*
X151754285Y-101667002D01*
X151754285Y-101667002D02*
X151801904Y-101571764D01*
X151801904Y-101571764D02*
X151801904Y-101381288D01*
X151801904Y-101381288D02*
X151754285Y-101286050D01*
X151754285Y-101286050D02*
X151706666Y-101238431D01*
X151706666Y-101238431D02*
X151611428Y-101190812D01*
X150693333Y-108274819D02*
X150217143Y-108274819D01*
X150217143Y-108274819D02*
X150217143Y-107274819D01*
X151550476Y-108274819D02*
X150979048Y-108274819D01*
X151264762Y-108274819D02*
X151264762Y-107274819D01*
X151264762Y-107274819D02*
X151169524Y-107417676D01*
X151169524Y-107417676D02*
X151074286Y-107512914D01*
X151074286Y-107512914D02*
X150979048Y-107560533D01*
X133114819Y-107676666D02*
X132638628Y-108009999D01*
X133114819Y-108248094D02*
X132114819Y-108248094D01*
X132114819Y-108248094D02*
X132114819Y-107867142D01*
X132114819Y-107867142D02*
X132162438Y-107771904D01*
X132162438Y-107771904D02*
X132210057Y-107724285D01*
X132210057Y-107724285D02*
X132305295Y-107676666D01*
X132305295Y-107676666D02*
X132448152Y-107676666D01*
X132448152Y-107676666D02*
X132543390Y-107724285D01*
X132543390Y-107724285D02*
X132591009Y-107771904D01*
X132591009Y-107771904D02*
X132638628Y-107867142D01*
X132638628Y-107867142D02*
X132638628Y-108248094D01*
X132114819Y-106819523D02*
X132114819Y-107009999D01*
X132114819Y-107009999D02*
X132162438Y-107105237D01*
X132162438Y-107105237D02*
X132210057Y-107152856D01*
X132210057Y-107152856D02*
X132352914Y-107248094D01*
X132352914Y-107248094D02*
X132543390Y-107295713D01*
X132543390Y-107295713D02*
X132924342Y-107295713D01*
X132924342Y-107295713D02*
X133019580Y-107248094D01*
X133019580Y-107248094D02*
X133067200Y-107200475D01*
X133067200Y-107200475D02*
X133114819Y-107105237D01*
X133114819Y-107105237D02*
X133114819Y-106914761D01*
X133114819Y-106914761D02*
X133067200Y-106819523D01*
X133067200Y-106819523D02*
X133019580Y-106771904D01*
X133019580Y-106771904D02*
X132924342Y-106724285D01*
X132924342Y-106724285D02*
X132686247Y-106724285D01*
X132686247Y-106724285D02*
X132591009Y-106771904D01*
X132591009Y-106771904D02*
X132543390Y-106819523D01*
X132543390Y-106819523D02*
X132495771Y-106914761D01*
X132495771Y-106914761D02*
X132495771Y-107105237D01*
X132495771Y-107105237D02*
X132543390Y-107200475D01*
X132543390Y-107200475D02*
X132591009Y-107248094D01*
X132591009Y-107248094D02*
X132686247Y-107295713D01*
X149837142Y-99449580D02*
X149789523Y-99497200D01*
X149789523Y-99497200D02*
X149646666Y-99544819D01*
X149646666Y-99544819D02*
X149551428Y-99544819D01*
X149551428Y-99544819D02*
X149408571Y-99497200D01*
X149408571Y-99497200D02*
X149313333Y-99401961D01*
X149313333Y-99401961D02*
X149265714Y-99306723D01*
X149265714Y-99306723D02*
X149218095Y-99116247D01*
X149218095Y-99116247D02*
X149218095Y-98973390D01*
X149218095Y-98973390D02*
X149265714Y-98782914D01*
X149265714Y-98782914D02*
X149313333Y-98687676D01*
X149313333Y-98687676D02*
X149408571Y-98592438D01*
X149408571Y-98592438D02*
X149551428Y-98544819D01*
X149551428Y-98544819D02*
X149646666Y-98544819D01*
X149646666Y-98544819D02*
X149789523Y-98592438D01*
X149789523Y-98592438D02*
X149837142Y-98640057D01*
X150789523Y-99544819D02*
X150218095Y-99544819D01*
X150503809Y-99544819D02*
X150503809Y-98544819D01*
X150503809Y-98544819D02*
X150408571Y-98687676D01*
X150408571Y-98687676D02*
X150313333Y-98782914D01*
X150313333Y-98782914D02*
X150218095Y-98830533D01*
X151122857Y-98544819D02*
X151789523Y-98544819D01*
X151789523Y-98544819D02*
X151360952Y-99544819D01*
X162696666Y-106964819D02*
X162696666Y-107679104D01*
X162696666Y-107679104D02*
X162649047Y-107821961D01*
X162649047Y-107821961D02*
X162553809Y-107917200D01*
X162553809Y-107917200D02*
X162410952Y-107964819D01*
X162410952Y-107964819D02*
X162315714Y-107964819D01*
X163125238Y-107060057D02*
X163172857Y-107012438D01*
X163172857Y-107012438D02*
X163268095Y-106964819D01*
X163268095Y-106964819D02*
X163506190Y-106964819D01*
X163506190Y-106964819D02*
X163601428Y-107012438D01*
X163601428Y-107012438D02*
X163649047Y-107060057D01*
X163649047Y-107060057D02*
X163696666Y-107155295D01*
X163696666Y-107155295D02*
X163696666Y-107250533D01*
X163696666Y-107250533D02*
X163649047Y-107393390D01*
X163649047Y-107393390D02*
X163077619Y-107964819D01*
X163077619Y-107964819D02*
X163696666Y-107964819D01*
X132347142Y-94434819D02*
X132013809Y-93958628D01*
X131775714Y-94434819D02*
X131775714Y-93434819D01*
X131775714Y-93434819D02*
X132156666Y-93434819D01*
X132156666Y-93434819D02*
X132251904Y-93482438D01*
X132251904Y-93482438D02*
X132299523Y-93530057D01*
X132299523Y-93530057D02*
X132347142Y-93625295D01*
X132347142Y-93625295D02*
X132347142Y-93768152D01*
X132347142Y-93768152D02*
X132299523Y-93863390D01*
X132299523Y-93863390D02*
X132251904Y-93911009D01*
X132251904Y-93911009D02*
X132156666Y-93958628D01*
X132156666Y-93958628D02*
X131775714Y-93958628D01*
X133299523Y-94434819D02*
X132728095Y-94434819D01*
X133013809Y-94434819D02*
X133013809Y-93434819D01*
X133013809Y-93434819D02*
X132918571Y-93577676D01*
X132918571Y-93577676D02*
X132823333Y-93672914D01*
X132823333Y-93672914D02*
X132728095Y-93720533D01*
X134204285Y-93434819D02*
X133728095Y-93434819D01*
X133728095Y-93434819D02*
X133680476Y-93911009D01*
X133680476Y-93911009D02*
X133728095Y-93863390D01*
X133728095Y-93863390D02*
X133823333Y-93815771D01*
X133823333Y-93815771D02*
X134061428Y-93815771D01*
X134061428Y-93815771D02*
X134156666Y-93863390D01*
X134156666Y-93863390D02*
X134204285Y-93911009D01*
X134204285Y-93911009D02*
X134251904Y-94006247D01*
X134251904Y-94006247D02*
X134251904Y-94244342D01*
X134251904Y-94244342D02*
X134204285Y-94339580D01*
X134204285Y-94339580D02*
X134156666Y-94387200D01*
X134156666Y-94387200D02*
X134061428Y-94434819D01*
X134061428Y-94434819D02*
X133823333Y-94434819D01*
X133823333Y-94434819D02*
X133728095Y-94387200D01*
X133728095Y-94387200D02*
X133680476Y-94339580D01*
X135763333Y-95249580D02*
X135715714Y-95297200D01*
X135715714Y-95297200D02*
X135572857Y-95344819D01*
X135572857Y-95344819D02*
X135477619Y-95344819D01*
X135477619Y-95344819D02*
X135334762Y-95297200D01*
X135334762Y-95297200D02*
X135239524Y-95201961D01*
X135239524Y-95201961D02*
X135191905Y-95106723D01*
X135191905Y-95106723D02*
X135144286Y-94916247D01*
X135144286Y-94916247D02*
X135144286Y-94773390D01*
X135144286Y-94773390D02*
X135191905Y-94582914D01*
X135191905Y-94582914D02*
X135239524Y-94487676D01*
X135239524Y-94487676D02*
X135334762Y-94392438D01*
X135334762Y-94392438D02*
X135477619Y-94344819D01*
X135477619Y-94344819D02*
X135572857Y-94344819D01*
X135572857Y-94344819D02*
X135715714Y-94392438D01*
X135715714Y-94392438D02*
X135763333Y-94440057D01*
X136144286Y-94440057D02*
X136191905Y-94392438D01*
X136191905Y-94392438D02*
X136287143Y-94344819D01*
X136287143Y-94344819D02*
X136525238Y-94344819D01*
X136525238Y-94344819D02*
X136620476Y-94392438D01*
X136620476Y-94392438D02*
X136668095Y-94440057D01*
X136668095Y-94440057D02*
X136715714Y-94535295D01*
X136715714Y-94535295D02*
X136715714Y-94630533D01*
X136715714Y-94630533D02*
X136668095Y-94773390D01*
X136668095Y-94773390D02*
X136096667Y-95344819D01*
X136096667Y-95344819D02*
X136715714Y-95344819D01*
X149259580Y-88362857D02*
X149307200Y-88410476D01*
X149307200Y-88410476D02*
X149354819Y-88553333D01*
X149354819Y-88553333D02*
X149354819Y-88648571D01*
X149354819Y-88648571D02*
X149307200Y-88791428D01*
X149307200Y-88791428D02*
X149211961Y-88886666D01*
X149211961Y-88886666D02*
X149116723Y-88934285D01*
X149116723Y-88934285D02*
X148926247Y-88981904D01*
X148926247Y-88981904D02*
X148783390Y-88981904D01*
X148783390Y-88981904D02*
X148592914Y-88934285D01*
X148592914Y-88934285D02*
X148497676Y-88886666D01*
X148497676Y-88886666D02*
X148402438Y-88791428D01*
X148402438Y-88791428D02*
X148354819Y-88648571D01*
X148354819Y-88648571D02*
X148354819Y-88553333D01*
X148354819Y-88553333D02*
X148402438Y-88410476D01*
X148402438Y-88410476D02*
X148450057Y-88362857D01*
X149354819Y-87410476D02*
X149354819Y-87981904D01*
X149354819Y-87696190D02*
X148354819Y-87696190D01*
X148354819Y-87696190D02*
X148497676Y-87791428D01*
X148497676Y-87791428D02*
X148592914Y-87886666D01*
X148592914Y-87886666D02*
X148640533Y-87981904D01*
X149354819Y-86458095D02*
X149354819Y-87029523D01*
X149354819Y-86743809D02*
X148354819Y-86743809D01*
X148354819Y-86743809D02*
X148497676Y-86839047D01*
X148497676Y-86839047D02*
X148592914Y-86934285D01*
X148592914Y-86934285D02*
X148640533Y-87029523D01*
X131194819Y-107706666D02*
X130718628Y-108039999D01*
X131194819Y-108278094D02*
X130194819Y-108278094D01*
X130194819Y-108278094D02*
X130194819Y-107897142D01*
X130194819Y-107897142D02*
X130242438Y-107801904D01*
X130242438Y-107801904D02*
X130290057Y-107754285D01*
X130290057Y-107754285D02*
X130385295Y-107706666D01*
X130385295Y-107706666D02*
X130528152Y-107706666D01*
X130528152Y-107706666D02*
X130623390Y-107754285D01*
X130623390Y-107754285D02*
X130671009Y-107801904D01*
X130671009Y-107801904D02*
X130718628Y-107897142D01*
X130718628Y-107897142D02*
X130718628Y-108278094D01*
X130623390Y-107135237D02*
X130575771Y-107230475D01*
X130575771Y-107230475D02*
X130528152Y-107278094D01*
X130528152Y-107278094D02*
X130432914Y-107325713D01*
X130432914Y-107325713D02*
X130385295Y-107325713D01*
X130385295Y-107325713D02*
X130290057Y-107278094D01*
X130290057Y-107278094D02*
X130242438Y-107230475D01*
X130242438Y-107230475D02*
X130194819Y-107135237D01*
X130194819Y-107135237D02*
X130194819Y-106944761D01*
X130194819Y-106944761D02*
X130242438Y-106849523D01*
X130242438Y-106849523D02*
X130290057Y-106801904D01*
X130290057Y-106801904D02*
X130385295Y-106754285D01*
X130385295Y-106754285D02*
X130432914Y-106754285D01*
X130432914Y-106754285D02*
X130528152Y-106801904D01*
X130528152Y-106801904D02*
X130575771Y-106849523D01*
X130575771Y-106849523D02*
X130623390Y-106944761D01*
X130623390Y-106944761D02*
X130623390Y-107135237D01*
X130623390Y-107135237D02*
X130671009Y-107230475D01*
X130671009Y-107230475D02*
X130718628Y-107278094D01*
X130718628Y-107278094D02*
X130813866Y-107325713D01*
X130813866Y-107325713D02*
X131004342Y-107325713D01*
X131004342Y-107325713D02*
X131099580Y-107278094D01*
X131099580Y-107278094D02*
X131147200Y-107230475D01*
X131147200Y-107230475D02*
X131194819Y-107135237D01*
X131194819Y-107135237D02*
X131194819Y-106944761D01*
X131194819Y-106944761D02*
X131147200Y-106849523D01*
X131147200Y-106849523D02*
X131099580Y-106801904D01*
X131099580Y-106801904D02*
X131004342Y-106754285D01*
X131004342Y-106754285D02*
X130813866Y-106754285D01*
X130813866Y-106754285D02*
X130718628Y-106801904D01*
X130718628Y-106801904D02*
X130671009Y-106849523D01*
X130671009Y-106849523D02*
X130623390Y-106944761D01*
X122463333Y-88294819D02*
X122130000Y-87818628D01*
X121891905Y-88294819D02*
X121891905Y-87294819D01*
X121891905Y-87294819D02*
X122272857Y-87294819D01*
X122272857Y-87294819D02*
X122368095Y-87342438D01*
X122368095Y-87342438D02*
X122415714Y-87390057D01*
X122415714Y-87390057D02*
X122463333Y-87485295D01*
X122463333Y-87485295D02*
X122463333Y-87628152D01*
X122463333Y-87628152D02*
X122415714Y-87723390D01*
X122415714Y-87723390D02*
X122368095Y-87771009D01*
X122368095Y-87771009D02*
X122272857Y-87818628D01*
X122272857Y-87818628D02*
X121891905Y-87818628D01*
X122939524Y-88294819D02*
X123130000Y-88294819D01*
X123130000Y-88294819D02*
X123225238Y-88247200D01*
X123225238Y-88247200D02*
X123272857Y-88199580D01*
X123272857Y-88199580D02*
X123368095Y-88056723D01*
X123368095Y-88056723D02*
X123415714Y-87866247D01*
X123415714Y-87866247D02*
X123415714Y-87485295D01*
X123415714Y-87485295D02*
X123368095Y-87390057D01*
X123368095Y-87390057D02*
X123320476Y-87342438D01*
X123320476Y-87342438D02*
X123225238Y-87294819D01*
X123225238Y-87294819D02*
X123034762Y-87294819D01*
X123034762Y-87294819D02*
X122939524Y-87342438D01*
X122939524Y-87342438D02*
X122891905Y-87390057D01*
X122891905Y-87390057D02*
X122844286Y-87485295D01*
X122844286Y-87485295D02*
X122844286Y-87723390D01*
X122844286Y-87723390D02*
X122891905Y-87818628D01*
X122891905Y-87818628D02*
X122939524Y-87866247D01*
X122939524Y-87866247D02*
X123034762Y-87913866D01*
X123034762Y-87913866D02*
X123225238Y-87913866D01*
X123225238Y-87913866D02*
X123320476Y-87866247D01*
X123320476Y-87866247D02*
X123368095Y-87818628D01*
X123368095Y-87818628D02*
X123415714Y-87723390D01*
X135964819Y-103521666D02*
X135488628Y-103854999D01*
X135964819Y-104093094D02*
X134964819Y-104093094D01*
X134964819Y-104093094D02*
X134964819Y-103712142D01*
X134964819Y-103712142D02*
X135012438Y-103616904D01*
X135012438Y-103616904D02*
X135060057Y-103569285D01*
X135060057Y-103569285D02*
X135155295Y-103521666D01*
X135155295Y-103521666D02*
X135298152Y-103521666D01*
X135298152Y-103521666D02*
X135393390Y-103569285D01*
X135393390Y-103569285D02*
X135441009Y-103616904D01*
X135441009Y-103616904D02*
X135488628Y-103712142D01*
X135488628Y-103712142D02*
X135488628Y-104093094D01*
X134964819Y-102616904D02*
X134964819Y-103093094D01*
X134964819Y-103093094D02*
X135441009Y-103140713D01*
X135441009Y-103140713D02*
X135393390Y-103093094D01*
X135393390Y-103093094D02*
X135345771Y-102997856D01*
X135345771Y-102997856D02*
X135345771Y-102759761D01*
X135345771Y-102759761D02*
X135393390Y-102664523D01*
X135393390Y-102664523D02*
X135441009Y-102616904D01*
X135441009Y-102616904D02*
X135536247Y-102569285D01*
X135536247Y-102569285D02*
X135774342Y-102569285D01*
X135774342Y-102569285D02*
X135869580Y-102616904D01*
X135869580Y-102616904D02*
X135917200Y-102664523D01*
X135917200Y-102664523D02*
X135964819Y-102759761D01*
X135964819Y-102759761D02*
X135964819Y-102997856D01*
X135964819Y-102997856D02*
X135917200Y-103093094D01*
X135917200Y-103093094D02*
X135869580Y-103140713D01*
X116883333Y-103421485D02*
X116550000Y-102945294D01*
X116311905Y-103421485D02*
X116311905Y-102421485D01*
X116311905Y-102421485D02*
X116692857Y-102421485D01*
X116692857Y-102421485D02*
X116788095Y-102469104D01*
X116788095Y-102469104D02*
X116835714Y-102516723D01*
X116835714Y-102516723D02*
X116883333Y-102611961D01*
X116883333Y-102611961D02*
X116883333Y-102754818D01*
X116883333Y-102754818D02*
X116835714Y-102850056D01*
X116835714Y-102850056D02*
X116788095Y-102897675D01*
X116788095Y-102897675D02*
X116692857Y-102945294D01*
X116692857Y-102945294D02*
X116311905Y-102945294D01*
X117216667Y-102421485D02*
X117883333Y-102421485D01*
X117883333Y-102421485D02*
X117454762Y-103421485D01*
X157210057Y-90875238D02*
X157162438Y-90970476D01*
X157162438Y-90970476D02*
X157067200Y-91065714D01*
X157067200Y-91065714D02*
X156924342Y-91208571D01*
X156924342Y-91208571D02*
X156876723Y-91303809D01*
X156876723Y-91303809D02*
X156876723Y-91399047D01*
X157114819Y-91351428D02*
X157067200Y-91446666D01*
X157067200Y-91446666D02*
X156971961Y-91541904D01*
X156971961Y-91541904D02*
X156781485Y-91589523D01*
X156781485Y-91589523D02*
X156448152Y-91589523D01*
X156448152Y-91589523D02*
X156257676Y-91541904D01*
X156257676Y-91541904D02*
X156162438Y-91446666D01*
X156162438Y-91446666D02*
X156114819Y-91351428D01*
X156114819Y-91351428D02*
X156114819Y-91160952D01*
X156114819Y-91160952D02*
X156162438Y-91065714D01*
X156162438Y-91065714D02*
X156257676Y-90970476D01*
X156257676Y-90970476D02*
X156448152Y-90922857D01*
X156448152Y-90922857D02*
X156781485Y-90922857D01*
X156781485Y-90922857D02*
X156971961Y-90970476D01*
X156971961Y-90970476D02*
X157067200Y-91065714D01*
X157067200Y-91065714D02*
X157114819Y-91160952D01*
X157114819Y-91160952D02*
X157114819Y-91351428D01*
X157114819Y-89970476D02*
X157114819Y-90541904D01*
X157114819Y-90256190D02*
X156114819Y-90256190D01*
X156114819Y-90256190D02*
X156257676Y-90351428D01*
X156257676Y-90351428D02*
X156352914Y-90446666D01*
X156352914Y-90446666D02*
X156400533Y-90541904D01*
X115827142Y-104609580D02*
X115779523Y-104657200D01*
X115779523Y-104657200D02*
X115636666Y-104704819D01*
X115636666Y-104704819D02*
X115541428Y-104704819D01*
X115541428Y-104704819D02*
X115398571Y-104657200D01*
X115398571Y-104657200D02*
X115303333Y-104561961D01*
X115303333Y-104561961D02*
X115255714Y-104466723D01*
X115255714Y-104466723D02*
X115208095Y-104276247D01*
X115208095Y-104276247D02*
X115208095Y-104133390D01*
X115208095Y-104133390D02*
X115255714Y-103942914D01*
X115255714Y-103942914D02*
X115303333Y-103847676D01*
X115303333Y-103847676D02*
X115398571Y-103752438D01*
X115398571Y-103752438D02*
X115541428Y-103704819D01*
X115541428Y-103704819D02*
X115636666Y-103704819D01*
X115636666Y-103704819D02*
X115779523Y-103752438D01*
X115779523Y-103752438D02*
X115827142Y-103800057D01*
X116208095Y-103800057D02*
X116255714Y-103752438D01*
X116255714Y-103752438D02*
X116350952Y-103704819D01*
X116350952Y-103704819D02*
X116589047Y-103704819D01*
X116589047Y-103704819D02*
X116684285Y-103752438D01*
X116684285Y-103752438D02*
X116731904Y-103800057D01*
X116731904Y-103800057D02*
X116779523Y-103895295D01*
X116779523Y-103895295D02*
X116779523Y-103990533D01*
X116779523Y-103990533D02*
X116731904Y-104133390D01*
X116731904Y-104133390D02*
X116160476Y-104704819D01*
X116160476Y-104704819D02*
X116779523Y-104704819D01*
X117398571Y-103704819D02*
X117493809Y-103704819D01*
X117493809Y-103704819D02*
X117589047Y-103752438D01*
X117589047Y-103752438D02*
X117636666Y-103800057D01*
X117636666Y-103800057D02*
X117684285Y-103895295D01*
X117684285Y-103895295D02*
X117731904Y-104085771D01*
X117731904Y-104085771D02*
X117731904Y-104323866D01*
X117731904Y-104323866D02*
X117684285Y-104514342D01*
X117684285Y-104514342D02*
X117636666Y-104609580D01*
X117636666Y-104609580D02*
X117589047Y-104657200D01*
X117589047Y-104657200D02*
X117493809Y-104704819D01*
X117493809Y-104704819D02*
X117398571Y-104704819D01*
X117398571Y-104704819D02*
X117303333Y-104657200D01*
X117303333Y-104657200D02*
X117255714Y-104609580D01*
X117255714Y-104609580D02*
X117208095Y-104514342D01*
X117208095Y-104514342D02*
X117160476Y-104323866D01*
X117160476Y-104323866D02*
X117160476Y-104085771D01*
X117160476Y-104085771D02*
X117208095Y-103895295D01*
X117208095Y-103895295D02*
X117255714Y-103800057D01*
X117255714Y-103800057D02*
X117303333Y-103752438D01*
X117303333Y-103752438D02*
X117398571Y-103704819D01*
X135763333Y-93349580D02*
X135715714Y-93397200D01*
X135715714Y-93397200D02*
X135572857Y-93444819D01*
X135572857Y-93444819D02*
X135477619Y-93444819D01*
X135477619Y-93444819D02*
X135334762Y-93397200D01*
X135334762Y-93397200D02*
X135239524Y-93301961D01*
X135239524Y-93301961D02*
X135191905Y-93206723D01*
X135191905Y-93206723D02*
X135144286Y-93016247D01*
X135144286Y-93016247D02*
X135144286Y-92873390D01*
X135144286Y-92873390D02*
X135191905Y-92682914D01*
X135191905Y-92682914D02*
X135239524Y-92587676D01*
X135239524Y-92587676D02*
X135334762Y-92492438D01*
X135334762Y-92492438D02*
X135477619Y-92444819D01*
X135477619Y-92444819D02*
X135572857Y-92444819D01*
X135572857Y-92444819D02*
X135715714Y-92492438D01*
X135715714Y-92492438D02*
X135763333Y-92540057D01*
X136715714Y-93444819D02*
X136144286Y-93444819D01*
X136430000Y-93444819D02*
X136430000Y-92444819D01*
X136430000Y-92444819D02*
X136334762Y-92587676D01*
X136334762Y-92587676D02*
X136239524Y-92682914D01*
X136239524Y-92682914D02*
X136144286Y-92730533D01*
X136224819Y-106806666D02*
X135748628Y-107139999D01*
X136224819Y-107378094D02*
X135224819Y-107378094D01*
X135224819Y-107378094D02*
X135224819Y-106997142D01*
X135224819Y-106997142D02*
X135272438Y-106901904D01*
X135272438Y-106901904D02*
X135320057Y-106854285D01*
X135320057Y-106854285D02*
X135415295Y-106806666D01*
X135415295Y-106806666D02*
X135558152Y-106806666D01*
X135558152Y-106806666D02*
X135653390Y-106854285D01*
X135653390Y-106854285D02*
X135701009Y-106901904D01*
X135701009Y-106901904D02*
X135748628Y-106997142D01*
X135748628Y-106997142D02*
X135748628Y-107378094D01*
X135558152Y-105949523D02*
X136224819Y-105949523D01*
X135177200Y-106187618D02*
X135891485Y-106425713D01*
X135891485Y-106425713D02*
X135891485Y-105806666D01*
X152589580Y-85762857D02*
X152637200Y-85810476D01*
X152637200Y-85810476D02*
X152684819Y-85953333D01*
X152684819Y-85953333D02*
X152684819Y-86048571D01*
X152684819Y-86048571D02*
X152637200Y-86191428D01*
X152637200Y-86191428D02*
X152541961Y-86286666D01*
X152541961Y-86286666D02*
X152446723Y-86334285D01*
X152446723Y-86334285D02*
X152256247Y-86381904D01*
X152256247Y-86381904D02*
X152113390Y-86381904D01*
X152113390Y-86381904D02*
X151922914Y-86334285D01*
X151922914Y-86334285D02*
X151827676Y-86286666D01*
X151827676Y-86286666D02*
X151732438Y-86191428D01*
X151732438Y-86191428D02*
X151684819Y-86048571D01*
X151684819Y-86048571D02*
X151684819Y-85953333D01*
X151684819Y-85953333D02*
X151732438Y-85810476D01*
X151732438Y-85810476D02*
X151780057Y-85762857D01*
X152684819Y-84810476D02*
X152684819Y-85381904D01*
X152684819Y-85096190D02*
X151684819Y-85096190D01*
X151684819Y-85096190D02*
X151827676Y-85191428D01*
X151827676Y-85191428D02*
X151922914Y-85286666D01*
X151922914Y-85286666D02*
X151970533Y-85381904D01*
X151684819Y-84191428D02*
X151684819Y-84096190D01*
X151684819Y-84096190D02*
X151732438Y-84000952D01*
X151732438Y-84000952D02*
X151780057Y-83953333D01*
X151780057Y-83953333D02*
X151875295Y-83905714D01*
X151875295Y-83905714D02*
X152065771Y-83858095D01*
X152065771Y-83858095D02*
X152303866Y-83858095D01*
X152303866Y-83858095D02*
X152494342Y-83905714D01*
X152494342Y-83905714D02*
X152589580Y-83953333D01*
X152589580Y-83953333D02*
X152637200Y-84000952D01*
X152637200Y-84000952D02*
X152684819Y-84096190D01*
X152684819Y-84096190D02*
X152684819Y-84191428D01*
X152684819Y-84191428D02*
X152637200Y-84286666D01*
X152637200Y-84286666D02*
X152589580Y-84334285D01*
X152589580Y-84334285D02*
X152494342Y-84381904D01*
X152494342Y-84381904D02*
X152303866Y-84429523D01*
X152303866Y-84429523D02*
X152065771Y-84429523D01*
X152065771Y-84429523D02*
X151875295Y-84381904D01*
X151875295Y-84381904D02*
X151780057Y-84334285D01*
X151780057Y-84334285D02*
X151732438Y-84286666D01*
X151732438Y-84286666D02*
X151684819Y-84191428D01*
X115987142Y-102144819D02*
X115653809Y-101668628D01*
X115415714Y-102144819D02*
X115415714Y-101144819D01*
X115415714Y-101144819D02*
X115796666Y-101144819D01*
X115796666Y-101144819D02*
X115891904Y-101192438D01*
X115891904Y-101192438D02*
X115939523Y-101240057D01*
X115939523Y-101240057D02*
X115987142Y-101335295D01*
X115987142Y-101335295D02*
X115987142Y-101478152D01*
X115987142Y-101478152D02*
X115939523Y-101573390D01*
X115939523Y-101573390D02*
X115891904Y-101621009D01*
X115891904Y-101621009D02*
X115796666Y-101668628D01*
X115796666Y-101668628D02*
X115415714Y-101668628D01*
X116939523Y-102144819D02*
X116368095Y-102144819D01*
X116653809Y-102144819D02*
X116653809Y-101144819D01*
X116653809Y-101144819D02*
X116558571Y-101287676D01*
X116558571Y-101287676D02*
X116463333Y-101382914D01*
X116463333Y-101382914D02*
X116368095Y-101430533D01*
X117510952Y-101573390D02*
X117415714Y-101525771D01*
X117415714Y-101525771D02*
X117368095Y-101478152D01*
X117368095Y-101478152D02*
X117320476Y-101382914D01*
X117320476Y-101382914D02*
X117320476Y-101335295D01*
X117320476Y-101335295D02*
X117368095Y-101240057D01*
X117368095Y-101240057D02*
X117415714Y-101192438D01*
X117415714Y-101192438D02*
X117510952Y-101144819D01*
X117510952Y-101144819D02*
X117701428Y-101144819D01*
X117701428Y-101144819D02*
X117796666Y-101192438D01*
X117796666Y-101192438D02*
X117844285Y-101240057D01*
X117844285Y-101240057D02*
X117891904Y-101335295D01*
X117891904Y-101335295D02*
X117891904Y-101382914D01*
X117891904Y-101382914D02*
X117844285Y-101478152D01*
X117844285Y-101478152D02*
X117796666Y-101525771D01*
X117796666Y-101525771D02*
X117701428Y-101573390D01*
X117701428Y-101573390D02*
X117510952Y-101573390D01*
X117510952Y-101573390D02*
X117415714Y-101621009D01*
X117415714Y-101621009D02*
X117368095Y-101668628D01*
X117368095Y-101668628D02*
X117320476Y-101763866D01*
X117320476Y-101763866D02*
X117320476Y-101954342D01*
X117320476Y-101954342D02*
X117368095Y-102049580D01*
X117368095Y-102049580D02*
X117415714Y-102097200D01*
X117415714Y-102097200D02*
X117510952Y-102144819D01*
X117510952Y-102144819D02*
X117701428Y-102144819D01*
X117701428Y-102144819D02*
X117796666Y-102097200D01*
X117796666Y-102097200D02*
X117844285Y-102049580D01*
X117844285Y-102049580D02*
X117891904Y-101954342D01*
X117891904Y-101954342D02*
X117891904Y-101763866D01*
X117891904Y-101763866D02*
X117844285Y-101668628D01*
X117844285Y-101668628D02*
X117796666Y-101621009D01*
X117796666Y-101621009D02*
X117701428Y-101573390D01*
X151579580Y-112902857D02*
X151627200Y-112950476D01*
X151627200Y-112950476D02*
X151674819Y-113093333D01*
X151674819Y-113093333D02*
X151674819Y-113188571D01*
X151674819Y-113188571D02*
X151627200Y-113331428D01*
X151627200Y-113331428D02*
X151531961Y-113426666D01*
X151531961Y-113426666D02*
X151436723Y-113474285D01*
X151436723Y-113474285D02*
X151246247Y-113521904D01*
X151246247Y-113521904D02*
X151103390Y-113521904D01*
X151103390Y-113521904D02*
X150912914Y-113474285D01*
X150912914Y-113474285D02*
X150817676Y-113426666D01*
X150817676Y-113426666D02*
X150722438Y-113331428D01*
X150722438Y-113331428D02*
X150674819Y-113188571D01*
X150674819Y-113188571D02*
X150674819Y-113093333D01*
X150674819Y-113093333D02*
X150722438Y-112950476D01*
X150722438Y-112950476D02*
X150770057Y-112902857D01*
X151674819Y-111950476D02*
X151674819Y-112521904D01*
X151674819Y-112236190D02*
X150674819Y-112236190D01*
X150674819Y-112236190D02*
X150817676Y-112331428D01*
X150817676Y-112331428D02*
X150912914Y-112426666D01*
X150912914Y-112426666D02*
X150960533Y-112521904D01*
X151674819Y-111474285D02*
X151674819Y-111283809D01*
X151674819Y-111283809D02*
X151627200Y-111188571D01*
X151627200Y-111188571D02*
X151579580Y-111140952D01*
X151579580Y-111140952D02*
X151436723Y-111045714D01*
X151436723Y-111045714D02*
X151246247Y-110998095D01*
X151246247Y-110998095D02*
X150865295Y-110998095D01*
X150865295Y-110998095D02*
X150770057Y-111045714D01*
X150770057Y-111045714D02*
X150722438Y-111093333D01*
X150722438Y-111093333D02*
X150674819Y-111188571D01*
X150674819Y-111188571D02*
X150674819Y-111379047D01*
X150674819Y-111379047D02*
X150722438Y-111474285D01*
X150722438Y-111474285D02*
X150770057Y-111521904D01*
X150770057Y-111521904D02*
X150865295Y-111569523D01*
X150865295Y-111569523D02*
X151103390Y-111569523D01*
X151103390Y-111569523D02*
X151198628Y-111521904D01*
X151198628Y-111521904D02*
X151246247Y-111474285D01*
X151246247Y-111474285D02*
X151293866Y-111379047D01*
X151293866Y-111379047D02*
X151293866Y-111188571D01*
X151293866Y-111188571D02*
X151246247Y-111093333D01*
X151246247Y-111093333D02*
X151198628Y-111045714D01*
X151198628Y-111045714D02*
X151103390Y-110998095D01*
X122037142Y-90814819D02*
X121703809Y-90338628D01*
X121465714Y-90814819D02*
X121465714Y-89814819D01*
X121465714Y-89814819D02*
X121846666Y-89814819D01*
X121846666Y-89814819D02*
X121941904Y-89862438D01*
X121941904Y-89862438D02*
X121989523Y-89910057D01*
X121989523Y-89910057D02*
X122037142Y-90005295D01*
X122037142Y-90005295D02*
X122037142Y-90148152D01*
X122037142Y-90148152D02*
X121989523Y-90243390D01*
X121989523Y-90243390D02*
X121941904Y-90291009D01*
X121941904Y-90291009D02*
X121846666Y-90338628D01*
X121846666Y-90338628D02*
X121465714Y-90338628D01*
X122989523Y-90814819D02*
X122418095Y-90814819D01*
X122703809Y-90814819D02*
X122703809Y-89814819D01*
X122703809Y-89814819D02*
X122608571Y-89957676D01*
X122608571Y-89957676D02*
X122513333Y-90052914D01*
X122513333Y-90052914D02*
X122418095Y-90100533D01*
X123608571Y-89814819D02*
X123703809Y-89814819D01*
X123703809Y-89814819D02*
X123799047Y-89862438D01*
X123799047Y-89862438D02*
X123846666Y-89910057D01*
X123846666Y-89910057D02*
X123894285Y-90005295D01*
X123894285Y-90005295D02*
X123941904Y-90195771D01*
X123941904Y-90195771D02*
X123941904Y-90433866D01*
X123941904Y-90433866D02*
X123894285Y-90624342D01*
X123894285Y-90624342D02*
X123846666Y-90719580D01*
X123846666Y-90719580D02*
X123799047Y-90767200D01*
X123799047Y-90767200D02*
X123703809Y-90814819D01*
X123703809Y-90814819D02*
X123608571Y-90814819D01*
X123608571Y-90814819D02*
X123513333Y-90767200D01*
X123513333Y-90767200D02*
X123465714Y-90719580D01*
X123465714Y-90719580D02*
X123418095Y-90624342D01*
X123418095Y-90624342D02*
X123370476Y-90433866D01*
X123370476Y-90433866D02*
X123370476Y-90195771D01*
X123370476Y-90195771D02*
X123418095Y-90005295D01*
X123418095Y-90005295D02*
X123465714Y-89910057D01*
X123465714Y-89910057D02*
X123513333Y-89862438D01*
X123513333Y-89862438D02*
X123608571Y-89814819D01*
X135797142Y-105379580D02*
X135749523Y-105427200D01*
X135749523Y-105427200D02*
X135606666Y-105474819D01*
X135606666Y-105474819D02*
X135511428Y-105474819D01*
X135511428Y-105474819D02*
X135368571Y-105427200D01*
X135368571Y-105427200D02*
X135273333Y-105331961D01*
X135273333Y-105331961D02*
X135225714Y-105236723D01*
X135225714Y-105236723D02*
X135178095Y-105046247D01*
X135178095Y-105046247D02*
X135178095Y-104903390D01*
X135178095Y-104903390D02*
X135225714Y-104712914D01*
X135225714Y-104712914D02*
X135273333Y-104617676D01*
X135273333Y-104617676D02*
X135368571Y-104522438D01*
X135368571Y-104522438D02*
X135511428Y-104474819D01*
X135511428Y-104474819D02*
X135606666Y-104474819D01*
X135606666Y-104474819D02*
X135749523Y-104522438D01*
X135749523Y-104522438D02*
X135797142Y-104570057D01*
X136749523Y-105474819D02*
X136178095Y-105474819D01*
X136463809Y-105474819D02*
X136463809Y-104474819D01*
X136463809Y-104474819D02*
X136368571Y-104617676D01*
X136368571Y-104617676D02*
X136273333Y-104712914D01*
X136273333Y-104712914D02*
X136178095Y-104760533D01*
X137606666Y-104808152D02*
X137606666Y-105474819D01*
X137368571Y-104427200D02*
X137130476Y-105141485D01*
X137130476Y-105141485D02*
X137749523Y-105141485D01*
X122007142Y-93254819D02*
X121673809Y-92778628D01*
X121435714Y-93254819D02*
X121435714Y-92254819D01*
X121435714Y-92254819D02*
X121816666Y-92254819D01*
X121816666Y-92254819D02*
X121911904Y-92302438D01*
X121911904Y-92302438D02*
X121959523Y-92350057D01*
X121959523Y-92350057D02*
X122007142Y-92445295D01*
X122007142Y-92445295D02*
X122007142Y-92588152D01*
X122007142Y-92588152D02*
X121959523Y-92683390D01*
X121959523Y-92683390D02*
X121911904Y-92731009D01*
X121911904Y-92731009D02*
X121816666Y-92778628D01*
X121816666Y-92778628D02*
X121435714Y-92778628D01*
X122959523Y-93254819D02*
X122388095Y-93254819D01*
X122673809Y-93254819D02*
X122673809Y-92254819D01*
X122673809Y-92254819D02*
X122578571Y-92397676D01*
X122578571Y-92397676D02*
X122483333Y-92492914D01*
X122483333Y-92492914D02*
X122388095Y-92540533D01*
X123911904Y-93254819D02*
X123340476Y-93254819D01*
X123626190Y-93254819D02*
X123626190Y-92254819D01*
X123626190Y-92254819D02*
X123530952Y-92397676D01*
X123530952Y-92397676D02*
X123435714Y-92492914D01*
X123435714Y-92492914D02*
X123340476Y-92540533D01*
X137157142Y-108359580D02*
X137109523Y-108407200D01*
X137109523Y-108407200D02*
X136966666Y-108454819D01*
X136966666Y-108454819D02*
X136871428Y-108454819D01*
X136871428Y-108454819D02*
X136728571Y-108407200D01*
X136728571Y-108407200D02*
X136633333Y-108311961D01*
X136633333Y-108311961D02*
X136585714Y-108216723D01*
X136585714Y-108216723D02*
X136538095Y-108026247D01*
X136538095Y-108026247D02*
X136538095Y-107883390D01*
X136538095Y-107883390D02*
X136585714Y-107692914D01*
X136585714Y-107692914D02*
X136633333Y-107597676D01*
X136633333Y-107597676D02*
X136728571Y-107502438D01*
X136728571Y-107502438D02*
X136871428Y-107454819D01*
X136871428Y-107454819D02*
X136966666Y-107454819D01*
X136966666Y-107454819D02*
X137109523Y-107502438D01*
X137109523Y-107502438D02*
X137157142Y-107550057D01*
X138109523Y-108454819D02*
X137538095Y-108454819D01*
X137823809Y-108454819D02*
X137823809Y-107454819D01*
X137823809Y-107454819D02*
X137728571Y-107597676D01*
X137728571Y-107597676D02*
X137633333Y-107692914D01*
X137633333Y-107692914D02*
X137538095Y-107740533D01*
X138490476Y-107550057D02*
X138538095Y-107502438D01*
X138538095Y-107502438D02*
X138633333Y-107454819D01*
X138633333Y-107454819D02*
X138871428Y-107454819D01*
X138871428Y-107454819D02*
X138966666Y-107502438D01*
X138966666Y-107502438D02*
X139014285Y-107550057D01*
X139014285Y-107550057D02*
X139061904Y-107645295D01*
X139061904Y-107645295D02*
X139061904Y-107740533D01*
X139061904Y-107740533D02*
X139014285Y-107883390D01*
X139014285Y-107883390D02*
X138442857Y-108454819D01*
X138442857Y-108454819D02*
X139061904Y-108454819D01*
X144443333Y-95259580D02*
X144395714Y-95307200D01*
X144395714Y-95307200D02*
X144252857Y-95354819D01*
X144252857Y-95354819D02*
X144157619Y-95354819D01*
X144157619Y-95354819D02*
X144014762Y-95307200D01*
X144014762Y-95307200D02*
X143919524Y-95211961D01*
X143919524Y-95211961D02*
X143871905Y-95116723D01*
X143871905Y-95116723D02*
X143824286Y-94926247D01*
X143824286Y-94926247D02*
X143824286Y-94783390D01*
X143824286Y-94783390D02*
X143871905Y-94592914D01*
X143871905Y-94592914D02*
X143919524Y-94497676D01*
X143919524Y-94497676D02*
X144014762Y-94402438D01*
X144014762Y-94402438D02*
X144157619Y-94354819D01*
X144157619Y-94354819D02*
X144252857Y-94354819D01*
X144252857Y-94354819D02*
X144395714Y-94402438D01*
X144395714Y-94402438D02*
X144443333Y-94450057D01*
X145300476Y-94354819D02*
X145110000Y-94354819D01*
X145110000Y-94354819D02*
X145014762Y-94402438D01*
X145014762Y-94402438D02*
X144967143Y-94450057D01*
X144967143Y-94450057D02*
X144871905Y-94592914D01*
X144871905Y-94592914D02*
X144824286Y-94783390D01*
X144824286Y-94783390D02*
X144824286Y-95164342D01*
X144824286Y-95164342D02*
X144871905Y-95259580D01*
X144871905Y-95259580D02*
X144919524Y-95307200D01*
X144919524Y-95307200D02*
X145014762Y-95354819D01*
X145014762Y-95354819D02*
X145205238Y-95354819D01*
X145205238Y-95354819D02*
X145300476Y-95307200D01*
X145300476Y-95307200D02*
X145348095Y-95259580D01*
X145348095Y-95259580D02*
X145395714Y-95164342D01*
X145395714Y-95164342D02*
X145395714Y-94926247D01*
X145395714Y-94926247D02*
X145348095Y-94831009D01*
X145348095Y-94831009D02*
X145300476Y-94783390D01*
X145300476Y-94783390D02*
X145205238Y-94735771D01*
X145205238Y-94735771D02*
X145014762Y-94735771D01*
X145014762Y-94735771D02*
X144919524Y-94783390D01*
X144919524Y-94783390D02*
X144871905Y-94831009D01*
X144871905Y-94831009D02*
X144824286Y-94926247D01*
X132347142Y-96854819D02*
X132013809Y-96378628D01*
X131775714Y-96854819D02*
X131775714Y-95854819D01*
X131775714Y-95854819D02*
X132156666Y-95854819D01*
X132156666Y-95854819D02*
X132251904Y-95902438D01*
X132251904Y-95902438D02*
X132299523Y-95950057D01*
X132299523Y-95950057D02*
X132347142Y-96045295D01*
X132347142Y-96045295D02*
X132347142Y-96188152D01*
X132347142Y-96188152D02*
X132299523Y-96283390D01*
X132299523Y-96283390D02*
X132251904Y-96331009D01*
X132251904Y-96331009D02*
X132156666Y-96378628D01*
X132156666Y-96378628D02*
X131775714Y-96378628D01*
X133299523Y-96854819D02*
X132728095Y-96854819D01*
X133013809Y-96854819D02*
X133013809Y-95854819D01*
X133013809Y-95854819D02*
X132918571Y-95997676D01*
X132918571Y-95997676D02*
X132823333Y-96092914D01*
X132823333Y-96092914D02*
X132728095Y-96140533D01*
X134156666Y-95854819D02*
X133966190Y-95854819D01*
X133966190Y-95854819D02*
X133870952Y-95902438D01*
X133870952Y-95902438D02*
X133823333Y-95950057D01*
X133823333Y-95950057D02*
X133728095Y-96092914D01*
X133728095Y-96092914D02*
X133680476Y-96283390D01*
X133680476Y-96283390D02*
X133680476Y-96664342D01*
X133680476Y-96664342D02*
X133728095Y-96759580D01*
X133728095Y-96759580D02*
X133775714Y-96807200D01*
X133775714Y-96807200D02*
X133870952Y-96854819D01*
X133870952Y-96854819D02*
X134061428Y-96854819D01*
X134061428Y-96854819D02*
X134156666Y-96807200D01*
X134156666Y-96807200D02*
X134204285Y-96759580D01*
X134204285Y-96759580D02*
X134251904Y-96664342D01*
X134251904Y-96664342D02*
X134251904Y-96426247D01*
X134251904Y-96426247D02*
X134204285Y-96331009D01*
X134204285Y-96331009D02*
X134156666Y-96283390D01*
X134156666Y-96283390D02*
X134061428Y-96235771D01*
X134061428Y-96235771D02*
X133870952Y-96235771D01*
X133870952Y-96235771D02*
X133775714Y-96283390D01*
X133775714Y-96283390D02*
X133728095Y-96331009D01*
X133728095Y-96331009D02*
X133680476Y-96426247D01*
X132477142Y-91964819D02*
X132143809Y-91488628D01*
X131905714Y-91964819D02*
X131905714Y-90964819D01*
X131905714Y-90964819D02*
X132286666Y-90964819D01*
X132286666Y-90964819D02*
X132381904Y-91012438D01*
X132381904Y-91012438D02*
X132429523Y-91060057D01*
X132429523Y-91060057D02*
X132477142Y-91155295D01*
X132477142Y-91155295D02*
X132477142Y-91298152D01*
X132477142Y-91298152D02*
X132429523Y-91393390D01*
X132429523Y-91393390D02*
X132381904Y-91441009D01*
X132381904Y-91441009D02*
X132286666Y-91488628D01*
X132286666Y-91488628D02*
X131905714Y-91488628D01*
X133429523Y-91964819D02*
X132858095Y-91964819D01*
X133143809Y-91964819D02*
X133143809Y-90964819D01*
X133143809Y-90964819D02*
X133048571Y-91107676D01*
X133048571Y-91107676D02*
X132953333Y-91202914D01*
X132953333Y-91202914D02*
X132858095Y-91250533D01*
X134286666Y-91298152D02*
X134286666Y-91964819D01*
X134048571Y-90917200D02*
X133810476Y-91631485D01*
X133810476Y-91631485D02*
X134429523Y-91631485D01*
X149957142Y-95539580D02*
X149909523Y-95587200D01*
X149909523Y-95587200D02*
X149766666Y-95634819D01*
X149766666Y-95634819D02*
X149671428Y-95634819D01*
X149671428Y-95634819D02*
X149528571Y-95587200D01*
X149528571Y-95587200D02*
X149433333Y-95491961D01*
X149433333Y-95491961D02*
X149385714Y-95396723D01*
X149385714Y-95396723D02*
X149338095Y-95206247D01*
X149338095Y-95206247D02*
X149338095Y-95063390D01*
X149338095Y-95063390D02*
X149385714Y-94872914D01*
X149385714Y-94872914D02*
X149433333Y-94777676D01*
X149433333Y-94777676D02*
X149528571Y-94682438D01*
X149528571Y-94682438D02*
X149671428Y-94634819D01*
X149671428Y-94634819D02*
X149766666Y-94634819D01*
X149766666Y-94634819D02*
X149909523Y-94682438D01*
X149909523Y-94682438D02*
X149957142Y-94730057D01*
X150909523Y-95634819D02*
X150338095Y-95634819D01*
X150623809Y-95634819D02*
X150623809Y-94634819D01*
X150623809Y-94634819D02*
X150528571Y-94777676D01*
X150528571Y-94777676D02*
X150433333Y-94872914D01*
X150433333Y-94872914D02*
X150338095Y-94920533D01*
X151814285Y-94634819D02*
X151338095Y-94634819D01*
X151338095Y-94634819D02*
X151290476Y-95111009D01*
X151290476Y-95111009D02*
X151338095Y-95063390D01*
X151338095Y-95063390D02*
X151433333Y-95015771D01*
X151433333Y-95015771D02*
X151671428Y-95015771D01*
X151671428Y-95015771D02*
X151766666Y-95063390D01*
X151766666Y-95063390D02*
X151814285Y-95111009D01*
X151814285Y-95111009D02*
X151861904Y-95206247D01*
X151861904Y-95206247D02*
X151861904Y-95444342D01*
X151861904Y-95444342D02*
X151814285Y-95539580D01*
X151814285Y-95539580D02*
X151766666Y-95587200D01*
X151766666Y-95587200D02*
X151671428Y-95634819D01*
X151671428Y-95634819D02*
X151433333Y-95634819D01*
X151433333Y-95634819D02*
X151338095Y-95587200D01*
X151338095Y-95587200D02*
X151290476Y-95539580D01*
X148428095Y-90596819D02*
X148999523Y-90596819D01*
X148713809Y-91596819D02*
X148713809Y-90596819D01*
X149332857Y-91596819D02*
X149332857Y-90596819D01*
X149332857Y-90596819D02*
X149713809Y-90596819D01*
X149713809Y-90596819D02*
X149809047Y-90644438D01*
X149809047Y-90644438D02*
X149856666Y-90692057D01*
X149856666Y-90692057D02*
X149904285Y-90787295D01*
X149904285Y-90787295D02*
X149904285Y-90930152D01*
X149904285Y-90930152D02*
X149856666Y-91025390D01*
X149856666Y-91025390D02*
X149809047Y-91073009D01*
X149809047Y-91073009D02*
X149713809Y-91120628D01*
X149713809Y-91120628D02*
X149332857Y-91120628D01*
X150285238Y-90692057D02*
X150332857Y-90644438D01*
X150332857Y-90644438D02*
X150428095Y-90596819D01*
X150428095Y-90596819D02*
X150666190Y-90596819D01*
X150666190Y-90596819D02*
X150761428Y-90644438D01*
X150761428Y-90644438D02*
X150809047Y-90692057D01*
X150809047Y-90692057D02*
X150856666Y-90787295D01*
X150856666Y-90787295D02*
X150856666Y-90882533D01*
X150856666Y-90882533D02*
X150809047Y-91025390D01*
X150809047Y-91025390D02*
X150237619Y-91596819D01*
X150237619Y-91596819D02*
X150856666Y-91596819D01*
X135929580Y-99656666D02*
X135977200Y-99704285D01*
X135977200Y-99704285D02*
X136024819Y-99847142D01*
X136024819Y-99847142D02*
X136024819Y-99942380D01*
X136024819Y-99942380D02*
X135977200Y-100085237D01*
X135977200Y-100085237D02*
X135881961Y-100180475D01*
X135881961Y-100180475D02*
X135786723Y-100228094D01*
X135786723Y-100228094D02*
X135596247Y-100275713D01*
X135596247Y-100275713D02*
X135453390Y-100275713D01*
X135453390Y-100275713D02*
X135262914Y-100228094D01*
X135262914Y-100228094D02*
X135167676Y-100180475D01*
X135167676Y-100180475D02*
X135072438Y-100085237D01*
X135072438Y-100085237D02*
X135024819Y-99942380D01*
X135024819Y-99942380D02*
X135024819Y-99847142D01*
X135024819Y-99847142D02*
X135072438Y-99704285D01*
X135072438Y-99704285D02*
X135120057Y-99656666D01*
X136024819Y-99180475D02*
X136024819Y-98989999D01*
X136024819Y-98989999D02*
X135977200Y-98894761D01*
X135977200Y-98894761D02*
X135929580Y-98847142D01*
X135929580Y-98847142D02*
X135786723Y-98751904D01*
X135786723Y-98751904D02*
X135596247Y-98704285D01*
X135596247Y-98704285D02*
X135215295Y-98704285D01*
X135215295Y-98704285D02*
X135120057Y-98751904D01*
X135120057Y-98751904D02*
X135072438Y-98799523D01*
X135072438Y-98799523D02*
X135024819Y-98894761D01*
X135024819Y-98894761D02*
X135024819Y-99085237D01*
X135024819Y-99085237D02*
X135072438Y-99180475D01*
X135072438Y-99180475D02*
X135120057Y-99228094D01*
X135120057Y-99228094D02*
X135215295Y-99275713D01*
X135215295Y-99275713D02*
X135453390Y-99275713D01*
X135453390Y-99275713D02*
X135548628Y-99228094D01*
X135548628Y-99228094D02*
X135596247Y-99180475D01*
X135596247Y-99180475D02*
X135643866Y-99085237D01*
X135643866Y-99085237D02*
X135643866Y-98894761D01*
X135643866Y-98894761D02*
X135596247Y-98799523D01*
X135596247Y-98799523D02*
X135548628Y-98751904D01*
X135548628Y-98751904D02*
X135453390Y-98704285D01*
X152654819Y-91376666D02*
X152178628Y-91709999D01*
X152654819Y-91948094D02*
X151654819Y-91948094D01*
X151654819Y-91948094D02*
X151654819Y-91567142D01*
X151654819Y-91567142D02*
X151702438Y-91471904D01*
X151702438Y-91471904D02*
X151750057Y-91424285D01*
X151750057Y-91424285D02*
X151845295Y-91376666D01*
X151845295Y-91376666D02*
X151988152Y-91376666D01*
X151988152Y-91376666D02*
X152083390Y-91424285D01*
X152083390Y-91424285D02*
X152131009Y-91471904D01*
X152131009Y-91471904D02*
X152178628Y-91567142D01*
X152178628Y-91567142D02*
X152178628Y-91948094D01*
X152654819Y-90424285D02*
X152654819Y-90995713D01*
X152654819Y-90709999D02*
X151654819Y-90709999D01*
X151654819Y-90709999D02*
X151797676Y-90805237D01*
X151797676Y-90805237D02*
X151892914Y-90900475D01*
X151892914Y-90900475D02*
X151940533Y-90995713D01*
X144443333Y-93409580D02*
X144395714Y-93457200D01*
X144395714Y-93457200D02*
X144252857Y-93504819D01*
X144252857Y-93504819D02*
X144157619Y-93504819D01*
X144157619Y-93504819D02*
X144014762Y-93457200D01*
X144014762Y-93457200D02*
X143919524Y-93361961D01*
X143919524Y-93361961D02*
X143871905Y-93266723D01*
X143871905Y-93266723D02*
X143824286Y-93076247D01*
X143824286Y-93076247D02*
X143824286Y-92933390D01*
X143824286Y-92933390D02*
X143871905Y-92742914D01*
X143871905Y-92742914D02*
X143919524Y-92647676D01*
X143919524Y-92647676D02*
X144014762Y-92552438D01*
X144014762Y-92552438D02*
X144157619Y-92504819D01*
X144157619Y-92504819D02*
X144252857Y-92504819D01*
X144252857Y-92504819D02*
X144395714Y-92552438D01*
X144395714Y-92552438D02*
X144443333Y-92600057D01*
X145300476Y-92838152D02*
X145300476Y-93504819D01*
X145062381Y-92457200D02*
X144824286Y-93171485D01*
X144824286Y-93171485D02*
X145443333Y-93171485D01*
D11*
%TO.C,J8*%
X161340000Y-80280000D02*
X160116200Y-80280000D01*
X161340000Y-60340000D02*
X161340000Y-80280000D01*
X151340000Y-80280000D02*
X152963800Y-80280000D01*
X151340000Y-80280000D02*
X151340000Y-60340000D01*
X151340000Y-60340000D02*
X161340000Y-60340000D01*
%TO.C,J9*%
X149910000Y-80280000D02*
X148686200Y-80280000D01*
X149910000Y-60340000D02*
X149910000Y-80280000D01*
X139910000Y-80280000D02*
X141533800Y-80280000D01*
X139910000Y-80280000D02*
X139910000Y-60340000D01*
X139910000Y-60340000D02*
X149910000Y-60340000D01*
%TO.C,J10*%
X138480000Y-80280000D02*
X137256200Y-80280000D01*
X138480000Y-60340000D02*
X138480000Y-80280000D01*
X128480000Y-80280000D02*
X130103800Y-80280000D01*
X128480000Y-80280000D02*
X128480000Y-60340000D01*
X128480000Y-60340000D02*
X138480000Y-60340000D01*
%TO.C,J11*%
X127050000Y-80280000D02*
X125826200Y-80280000D01*
X127050000Y-60340000D02*
X127050000Y-80280000D01*
X117050000Y-80280000D02*
X118673800Y-80280000D01*
X117050000Y-80280000D02*
X117050000Y-60340000D01*
X117050000Y-60340000D02*
X127050000Y-60340000D01*
D12*
%TO.C,R3*%
X139290000Y-107651359D02*
X139290000Y-107958641D01*
X140050000Y-107651359D02*
X140050000Y-107958641D01*
%TO.C,C5*%
X162790000Y-89017836D02*
X162790000Y-88802164D01*
X163510000Y-89017836D02*
X163510000Y-88802164D01*
D13*
%TO.C,U2*%
X122148001Y-99263799D02*
X122148001Y-99930660D01*
X122148001Y-102850938D02*
X122148001Y-103517799D01*
X122148001Y-103517799D02*
X122814862Y-103517799D01*
X122814862Y-99263799D02*
X122148001Y-99263799D01*
X125735140Y-103517799D02*
X126402001Y-103517799D01*
X126402001Y-99263799D02*
X125735140Y-99263799D01*
X126402001Y-99930660D02*
X126402001Y-99263799D01*
X126402001Y-103517799D02*
X126402001Y-102850938D01*
D14*
X121915001Y-99950799D02*
G75*
G02*
X121655001Y-99950799I-130000J0D01*
G01*
X121655001Y-99950799D02*
G75*
G02*
X121915001Y-99950799I130000J0D01*
G01*
D15*
G36*
X127087802Y-101906300D02*
G01*
X126833802Y-101906300D01*
X126833802Y-101525300D01*
X127087802Y-101525300D01*
X127087802Y-101906300D01*
G37*
D12*
%TO.C,U1*%
X137718553Y-99696838D02*
X137718553Y-99457422D01*
X137718553Y-103118006D02*
X137718553Y-103357422D01*
X142838553Y-99696838D02*
X142838553Y-99457422D01*
X142838553Y-103118006D02*
X142838553Y-103357422D01*
X143073553Y-98947422D02*
X142743553Y-98707422D01*
X143073553Y-98467422D01*
X143073553Y-98947422D01*
G36*
X143073553Y-98947422D02*
G01*
X142743553Y-98707422D01*
X143073553Y-98467422D01*
X143073553Y-98947422D01*
G37*
%TO.C,TP1*%
X146100000Y-85470000D02*
G75*
G02*
X144200000Y-85470000I-950000J0D01*
G01*
X144200000Y-85470000D02*
G75*
G02*
X146100000Y-85470000I950000J0D01*
G01*
D13*
%TO.C,J5*%
X139699667Y-63526801D02*
X139699667Y-75287000D01*
X139699667Y-75287000D02*
X150113667Y-75287000D01*
X150113667Y-63526801D02*
X139699667Y-63526801D01*
X150113667Y-75287000D02*
X150113667Y-63526801D01*
D12*
%TO.C,R13*%
X133253641Y-89845714D02*
X132946359Y-89845714D01*
X133253641Y-90605714D02*
X132946359Y-90605714D01*
%TO.C,J3*%
X163040000Y-85730000D02*
X163810000Y-86120000D01*
X163040000Y-86530000D02*
X163040000Y-85730000D01*
X163810000Y-86120000D02*
X163040000Y-86530000D01*
X164240000Y-80130000D02*
X169240000Y-80130000D01*
X164240000Y-88130000D02*
X164240000Y-80130000D01*
X164240000Y-88130000D02*
X169240000Y-88130000D01*
X164590000Y-80730000D02*
X168890000Y-80730000D01*
X164590000Y-82630000D02*
X164240000Y-82630000D01*
X164590000Y-83630000D02*
X164240000Y-83630000D01*
X164590000Y-84630000D02*
X164240000Y-84630000D01*
X164590000Y-85630000D02*
X164240000Y-85630000D01*
X164590000Y-87530000D02*
X164590000Y-80730000D01*
X164590000Y-87530000D02*
X168890000Y-87530000D01*
X166840000Y-80730000D02*
X166840000Y-80130000D01*
X166840000Y-88130000D02*
X166840000Y-87530000D01*
X167840000Y-80730000D02*
X167840000Y-80130000D01*
X167840000Y-88130000D02*
X167840000Y-87530000D01*
X168890000Y-80730000D02*
X168890000Y-87530000D01*
X169240000Y-80130000D02*
X169240000Y-88130000D01*
%TO.C,D1*%
X152970000Y-87140000D02*
X152970000Y-88580000D01*
X152970000Y-87140000D02*
X153900000Y-87140000D01*
X156130000Y-87140000D02*
X155200000Y-87140000D01*
X156130000Y-87140000D02*
X156130000Y-88600000D01*
%TO.C,C16*%
X147708578Y-96510000D02*
X147191422Y-96510000D01*
X147708578Y-97930000D02*
X147191422Y-97930000D01*
D15*
%TO.C,G\u002A\u002A\u002A*%
G36*
X119580341Y-83787905D02*
G01*
X119647710Y-83795175D01*
X119700843Y-83806148D01*
X119742858Y-83821528D01*
X119776872Y-83842018D01*
X119785854Y-83849158D01*
X119805971Y-83869502D01*
X119815113Y-83891507D01*
X119817242Y-83923863D01*
X119810122Y-83973352D01*
X119789390Y-84009253D01*
X119760792Y-84028164D01*
X119741205Y-84031039D01*
X119705864Y-84031961D01*
X119659526Y-84030927D01*
X119612268Y-84028312D01*
X119418599Y-84024904D01*
X119226294Y-84041492D01*
X119036680Y-84077470D01*
X118851086Y-84132236D01*
X118670840Y-84205184D01*
X118497272Y-84295709D01*
X118331708Y-84403208D01*
X118175478Y-84527076D01*
X118029910Y-84666708D01*
X117911650Y-84802186D01*
X117856382Y-84874154D01*
X117805116Y-84947954D01*
X117755314Y-85027707D01*
X117704440Y-85117532D01*
X117649958Y-85221550D01*
X117634172Y-85252857D01*
X117607199Y-85305875D01*
X117583026Y-85351794D01*
X117563248Y-85387707D01*
X117549464Y-85410711D01*
X117543439Y-85417972D01*
X117531886Y-85412962D01*
X117506208Y-85399922D01*
X117470267Y-85380862D01*
X117430199Y-85359044D01*
X117388811Y-85335517D01*
X117355040Y-85314925D01*
X117332457Y-85299544D01*
X117324623Y-85291800D01*
X117329392Y-85279417D01*
X117342608Y-85252104D01*
X117362638Y-85212897D01*
X117387845Y-85164830D01*
X117416596Y-85110939D01*
X117447255Y-85054258D01*
X117478187Y-84997822D01*
X117507758Y-84944666D01*
X117534333Y-84897824D01*
X117556276Y-84860332D01*
X117563137Y-84849043D01*
X117618082Y-84766164D01*
X117684425Y-84676091D01*
X117757617Y-84584667D01*
X117833110Y-84497738D01*
X117855361Y-84473586D01*
X118003828Y-84329438D01*
X118164622Y-84200628D01*
X118336172Y-84087814D01*
X118516907Y-83991659D01*
X118705255Y-83912823D01*
X118899644Y-83851968D01*
X119098503Y-83809754D01*
X119300262Y-83786843D01*
X119495617Y-83783634D01*
X119580341Y-83787905D01*
G37*
G36*
X119805991Y-84754122D02*
G01*
X119906106Y-84756560D01*
X119997551Y-84761074D01*
X120075819Y-84767667D01*
X120115945Y-84772829D01*
X120214517Y-84789821D01*
X120309688Y-84809805D01*
X120398879Y-84831985D01*
X120479507Y-84855566D01*
X120548992Y-84879755D01*
X120604754Y-84903756D01*
X120644210Y-84926775D01*
X120659274Y-84940116D01*
X120676816Y-84973754D01*
X120684031Y-85017272D01*
X120680967Y-85062752D01*
X120667669Y-85102274D01*
X120658245Y-85116139D01*
X120634041Y-85144277D01*
X120315768Y-85091284D01*
X120204324Y-85072811D01*
X120110496Y-85057535D01*
X120031597Y-85045157D01*
X119964939Y-85035377D01*
X119907837Y-85027895D01*
X119857604Y-85022414D01*
X119811554Y-85018632D01*
X119767000Y-85016251D01*
X119721256Y-85014972D01*
X119671636Y-85014494D01*
X119626691Y-85014490D01*
X119389872Y-85025273D01*
X119152781Y-85056396D01*
X118916213Y-85107630D01*
X118680968Y-85178742D01*
X118447840Y-85269502D01*
X118217628Y-85379677D01*
X118054711Y-85470552D01*
X117985050Y-85511231D01*
X117929991Y-85541751D01*
X117886802Y-85563082D01*
X117852749Y-85576194D01*
X117825099Y-85582057D01*
X117801119Y-85581640D01*
X117778075Y-85575912D01*
X117768166Y-85572215D01*
X117750030Y-85562578D01*
X117722256Y-85545189D01*
X117689243Y-85523129D01*
X117655387Y-85499480D01*
X117625089Y-85477321D01*
X117602745Y-85459734D01*
X117592755Y-85449800D01*
X117592593Y-85449227D01*
X117601122Y-85440036D01*
X117625330Y-85422577D01*
X117662733Y-85398303D01*
X117710847Y-85368667D01*
X117767189Y-85335122D01*
X117829274Y-85299121D01*
X117894619Y-85262117D01*
X117960741Y-85225562D01*
X118025154Y-85190909D01*
X118085377Y-85159612D01*
X118102279Y-85151083D01*
X118340258Y-85040826D01*
X118577445Y-84949244D01*
X118817851Y-84875103D01*
X119065483Y-84817175D01*
X119324351Y-84774226D01*
X119333139Y-84773048D01*
X119408987Y-84765119D01*
X119498704Y-84759260D01*
X119597783Y-84755474D01*
X119701714Y-84753761D01*
X119805991Y-84754122D01*
G37*
G36*
X116916230Y-85380323D02*
G01*
X117000159Y-85388376D01*
X117032723Y-85393188D01*
X117152019Y-85418162D01*
X117266407Y-85453044D01*
X117378102Y-85499077D01*
X117489321Y-85557503D01*
X117602276Y-85629564D01*
X117719184Y-85716503D01*
X117842259Y-85819562D01*
X117923273Y-85892690D01*
X118020672Y-85988668D01*
X118109959Y-86088323D01*
X118190298Y-86189999D01*
X118260851Y-86292041D01*
X118320782Y-86392791D01*
X118369254Y-86490594D01*
X118405431Y-86583793D01*
X118428475Y-86670734D01*
X118437550Y-86749760D01*
X118431820Y-86819214D01*
X118415732Y-86867358D01*
X118386346Y-86912985D01*
X118343859Y-86954182D01*
X118286999Y-86991558D01*
X118214493Y-87025725D01*
X118125068Y-87057293D01*
X118017454Y-87086872D01*
X117906577Y-87111767D01*
X117749874Y-87140420D01*
X117601358Y-87159359D01*
X117451605Y-87169553D01*
X117319473Y-87172066D01*
X117221224Y-87171154D01*
X117136928Y-87167984D01*
X117060002Y-87161942D01*
X116983864Y-87152412D01*
X116901933Y-87138779D01*
X116842859Y-87127506D01*
X116767272Y-87110973D01*
X116698180Y-87091974D01*
X116629271Y-87068387D01*
X116554236Y-87038089D01*
X116482876Y-87006365D01*
X116437924Y-86986082D01*
X116399736Y-86969395D01*
X116372212Y-86957971D01*
X116359252Y-86953476D01*
X116359039Y-86953463D01*
X116351150Y-86961323D01*
X116334759Y-86982347D01*
X116312526Y-87012699D01*
X116287112Y-87048543D01*
X116261177Y-87086045D01*
X116237380Y-87121368D01*
X116218382Y-87150677D01*
X116206842Y-87170137D01*
X116204708Y-87175992D01*
X116215025Y-87178641D01*
X116242954Y-87184915D01*
X116285936Y-87194276D01*
X116341407Y-87206186D01*
X116406807Y-87220105D01*
X116479573Y-87235494D01*
X116557145Y-87251816D01*
X116636961Y-87268530D01*
X116716459Y-87285098D01*
X116793077Y-87300981D01*
X116864255Y-87315641D01*
X116927430Y-87328538D01*
X116980040Y-87339135D01*
X116984720Y-87340067D01*
X117064946Y-87357027D01*
X117128221Y-87373032D01*
X117178068Y-87389389D01*
X117218012Y-87407407D01*
X117251575Y-87428392D01*
X117276251Y-87448239D01*
X117307800Y-87479042D01*
X117334077Y-87512624D01*
X117356942Y-87552654D01*
X117378257Y-87602804D01*
X117399883Y-87666743D01*
X117417891Y-87727591D01*
X117439864Y-87804062D01*
X117463521Y-87885027D01*
X117488012Y-87967689D01*
X117512481Y-88049254D01*
X117536077Y-88126928D01*
X117557946Y-88197914D01*
X117577236Y-88259419D01*
X117593094Y-88308648D01*
X117604666Y-88342804D01*
X117609694Y-88356095D01*
X117627888Y-88388744D01*
X117650695Y-88417601D01*
X117652875Y-88419743D01*
X117670119Y-88431085D01*
X117703516Y-88448628D01*
X117750077Y-88470961D01*
X117806812Y-88496674D01*
X117870731Y-88524359D01*
X117906577Y-88539381D01*
X118059016Y-88604019D01*
X118193221Y-88664264D01*
X118310855Y-88721055D01*
X118413583Y-88775329D01*
X118503069Y-88828024D01*
X118580976Y-88880080D01*
X118648969Y-88932433D01*
X118708712Y-88986024D01*
X118722010Y-88999176D01*
X118765727Y-89045273D01*
X118798561Y-89085769D01*
X118825749Y-89127892D01*
X118852529Y-89178865D01*
X118853108Y-89180049D01*
X118881172Y-89242088D01*
X118902099Y-89300729D01*
X118916647Y-89360423D01*
X118925573Y-89425620D01*
X118929635Y-89500771D01*
X118929588Y-89590326D01*
X118928773Y-89624808D01*
X118927471Y-89663298D01*
X118925619Y-89700959D01*
X118922972Y-89739734D01*
X118919285Y-89781565D01*
X118914312Y-89828393D01*
X118907806Y-89882162D01*
X118899523Y-89944812D01*
X118889216Y-90018286D01*
X118876641Y-90104526D01*
X118861551Y-90205474D01*
X118843700Y-90323072D01*
X118825005Y-90445191D01*
X118776759Y-90761884D01*
X118732227Y-91059229D01*
X118691289Y-91338117D01*
X118653826Y-91599438D01*
X118619718Y-91844086D01*
X118588845Y-92072951D01*
X118561088Y-92286924D01*
X118536328Y-92486899D01*
X118514445Y-92673765D01*
X118495320Y-92848414D01*
X118478832Y-93011739D01*
X118473647Y-93066561D01*
X118450403Y-93349718D01*
X118432425Y-93639661D01*
X118419787Y-93932401D01*
X118412565Y-94223947D01*
X118410832Y-94510309D01*
X118414665Y-94787495D01*
X118424136Y-95051517D01*
X118433467Y-95215946D01*
X118440039Y-95315614D01*
X118616212Y-95224509D01*
X118716258Y-95175584D01*
X118831724Y-95123889D01*
X118957937Y-95071205D01*
X119090226Y-95019312D01*
X119223918Y-94969993D01*
X119354341Y-94925028D01*
X119476825Y-94886198D01*
X119580341Y-94856937D01*
X119721165Y-94826922D01*
X119853000Y-94813497D01*
X119979124Y-94816702D01*
X120102819Y-94836581D01*
X120203406Y-94864909D01*
X120297824Y-94901032D01*
X120379843Y-94943551D01*
X120455770Y-94996397D01*
X120531911Y-95063497D01*
X120548981Y-95080227D01*
X120593304Y-95125528D01*
X120626294Y-95162829D01*
X120652127Y-95197692D01*
X120674974Y-95235680D01*
X120695835Y-95275929D01*
X120723978Y-95334921D01*
X120745175Y-95386370D01*
X120760378Y-95434976D01*
X120770538Y-95485439D01*
X120776607Y-95542459D01*
X120779536Y-95610735D01*
X120780277Y-95693082D01*
X120779951Y-95763474D01*
X120778725Y-95817883D01*
X120776192Y-95860921D01*
X120771948Y-95897199D01*
X120765588Y-95931329D01*
X120756706Y-95967923D01*
X120755851Y-95971184D01*
X120715391Y-96097362D01*
X120661602Y-96217306D01*
X120593417Y-96332341D01*
X120509769Y-96443792D01*
X120409593Y-96552983D01*
X120291821Y-96661239D01*
X120155386Y-96769886D01*
X120054144Y-96842766D01*
X119857812Y-96970214D01*
X119647418Y-97089481D01*
X119421938Y-97201022D01*
X119180345Y-97305290D01*
X118921615Y-97402740D01*
X118644723Y-97493827D01*
X118465701Y-97546674D01*
X118063875Y-97652331D01*
X117646750Y-97746086D01*
X117215968Y-97827757D01*
X116773170Y-97897165D01*
X116319999Y-97954126D01*
X115858097Y-97998460D01*
X115389105Y-98029984D01*
X114914666Y-98048518D01*
X114436422Y-98053880D01*
X113956014Y-98045888D01*
X113951346Y-98045744D01*
X113629681Y-98032262D01*
X113305605Y-98011788D01*
X112981079Y-97984638D01*
X112658062Y-97951128D01*
X112338514Y-97911573D01*
X112024396Y-97866289D01*
X111717668Y-97815591D01*
X111420289Y-97759796D01*
X111134219Y-97699217D01*
X110861419Y-97634172D01*
X110603848Y-97564976D01*
X110363466Y-97491943D01*
X110227867Y-97446261D01*
X109990044Y-97357307D01*
X109758739Y-97259850D01*
X109537049Y-97155393D01*
X109328070Y-97045438D01*
X109134898Y-96931486D01*
X109040870Y-96870578D01*
X108878323Y-96752064D01*
X108734536Y-96627091D01*
X108609718Y-96495933D01*
X108504079Y-96358865D01*
X108417828Y-96216162D01*
X108351175Y-96068098D01*
X108304328Y-95914949D01*
X108300677Y-95899083D01*
X108291502Y-95838501D01*
X108286929Y-95764399D01*
X108286804Y-95683300D01*
X108290976Y-95601729D01*
X108299292Y-95526210D01*
X108310775Y-95466480D01*
X108353335Y-95336694D01*
X108411822Y-95219419D01*
X108485274Y-95115373D01*
X108572727Y-95025275D01*
X108673217Y-94949842D01*
X108785783Y-94889791D01*
X108909461Y-94845841D01*
X109043288Y-94818709D01*
X109186302Y-94809113D01*
X109192709Y-94809105D01*
X109262656Y-94810523D01*
X109327031Y-94815133D01*
X109389773Y-94823779D01*
X109454820Y-94837306D01*
X109526111Y-94856557D01*
X109607582Y-94882376D01*
X109703173Y-94915608D01*
X109723163Y-94922796D01*
X109766462Y-94939108D01*
X109823606Y-94961657D01*
X109891902Y-94989299D01*
X109968661Y-95020889D01*
X110051192Y-95055280D01*
X110136803Y-95091329D01*
X110222805Y-95127891D01*
X110306507Y-95163819D01*
X110385218Y-95197968D01*
X110456246Y-95229195D01*
X110516903Y-95256353D01*
X110564496Y-95278298D01*
X110596336Y-95293883D01*
X110601245Y-95296501D01*
X110660470Y-95328976D01*
X110660859Y-95299877D01*
X110661763Y-95272338D01*
X110663850Y-95229391D01*
X110666938Y-95173719D01*
X110670847Y-95108001D01*
X110675396Y-95034918D01*
X110680402Y-94957151D01*
X110685687Y-94877381D01*
X110691068Y-94798288D01*
X110696365Y-94722553D01*
X110701396Y-94652856D01*
X110705981Y-94591879D01*
X110709939Y-94542301D01*
X110713088Y-94506805D01*
X110715248Y-94488069D01*
X110715815Y-94485845D01*
X110727033Y-94487358D01*
X110755021Y-94495330D01*
X110797296Y-94508892D01*
X110851375Y-94527178D01*
X110914774Y-94549319D01*
X110985009Y-94574449D01*
X111059598Y-94601700D01*
X111136057Y-94630205D01*
X111211903Y-94659095D01*
X111213243Y-94659611D01*
X111260213Y-94678230D01*
X111291517Y-94692439D01*
X111310939Y-94704620D01*
X111322261Y-94717154D01*
X111329267Y-94732420D01*
X111329358Y-94732681D01*
X111331706Y-94746005D01*
X111333486Y-94771542D01*
X111334699Y-94810274D01*
X111335342Y-94863187D01*
X111335415Y-94931266D01*
X111334917Y-95015494D01*
X111333848Y-95116856D01*
X111332205Y-95236336D01*
X111329988Y-95374919D01*
X111328627Y-95453727D01*
X111326441Y-95585763D01*
X111324712Y-95707015D01*
X111323446Y-95816253D01*
X111322649Y-95912247D01*
X111322324Y-95993768D01*
X111322477Y-96059587D01*
X111323113Y-96108473D01*
X111324237Y-96139197D01*
X111325813Y-96150498D01*
X111336964Y-96154054D01*
X111365340Y-96161427D01*
X111408058Y-96171953D01*
X111462237Y-96184966D01*
X111524994Y-96199803D01*
X111593447Y-96215800D01*
X111664714Y-96232291D01*
X111735912Y-96248612D01*
X111804161Y-96264100D01*
X111866577Y-96278089D01*
X111920278Y-96289915D01*
X111962382Y-96298914D01*
X111990008Y-96304422D01*
X111999809Y-96305868D01*
X112001464Y-96296083D01*
X112003139Y-96268929D01*
X112004712Y-96227635D01*
X112006057Y-96175432D01*
X112007021Y-96117891D01*
X112007892Y-96069561D01*
X112009413Y-96007502D01*
X112011500Y-95933876D01*
X112014072Y-95850845D01*
X112017045Y-95760570D01*
X112020337Y-95665211D01*
X112023864Y-95566932D01*
X112027544Y-95467892D01*
X112031294Y-95370253D01*
X112035031Y-95276177D01*
X112038673Y-95187825D01*
X112042135Y-95107358D01*
X112045337Y-95036938D01*
X112048194Y-94978726D01*
X112050624Y-94934884D01*
X112052544Y-94907572D01*
X112053743Y-94898931D01*
X112064806Y-94899114D01*
X112092939Y-94902261D01*
X112134897Y-94907933D01*
X112187434Y-94915692D01*
X112247302Y-94925098D01*
X112247681Y-94925159D01*
X112701074Y-94988316D01*
X113162914Y-95032704D01*
X113441492Y-95050197D01*
X113546269Y-95054247D01*
X113665845Y-95056727D01*
X113795872Y-95057699D01*
X113932002Y-95057224D01*
X114069886Y-95055364D01*
X114205176Y-95052180D01*
X114333524Y-95047734D01*
X114450580Y-95042087D01*
X114551997Y-95035301D01*
X114564201Y-95034305D01*
X114878231Y-95002554D01*
X115189235Y-94960320D01*
X115493041Y-94908307D01*
X115785481Y-94847216D01*
X116021663Y-94788767D01*
X116145264Y-94755774D01*
X115501508Y-94749384D01*
X115348092Y-94747742D01*
X115212438Y-94745987D01*
X115091710Y-94744014D01*
X114983068Y-94741719D01*
X114883675Y-94738996D01*
X114790695Y-94735742D01*
X114701288Y-94731850D01*
X114612618Y-94727216D01*
X114521847Y-94721736D01*
X114426137Y-94715304D01*
X114322650Y-94707816D01*
X114270649Y-94703912D01*
X113800714Y-94661076D01*
X113345122Y-94604748D01*
X112902407Y-94534642D01*
X112471105Y-94450477D01*
X112049750Y-94351968D01*
X111636879Y-94238833D01*
X111268175Y-94123221D01*
X111151974Y-94084242D01*
X111053823Y-94050408D01*
X110972076Y-94020838D01*
X110905084Y-93994649D01*
X110851200Y-93970959D01*
X110808775Y-93948887D01*
X110776163Y-93927551D01*
X110751716Y-93906068D01*
X110733785Y-93883556D01*
X110720724Y-93859134D01*
X110710883Y-93831919D01*
X110708464Y-93823617D01*
X110704487Y-93802865D01*
X110698796Y-93763683D01*
X110691629Y-93708149D01*
X110683228Y-93638341D01*
X110673832Y-93556337D01*
X110663681Y-93464214D01*
X110653016Y-93364050D01*
X110642076Y-93257922D01*
X110635273Y-93190162D01*
X110613095Y-92969024D01*
X110592060Y-92764069D01*
X110571825Y-92572684D01*
X110552048Y-92392258D01*
X110532387Y-92220179D01*
X110512498Y-92053836D01*
X110492038Y-91890617D01*
X110470665Y-91727910D01*
X110448036Y-91563103D01*
X110423809Y-91393585D01*
X110397640Y-91216743D01*
X110369187Y-91029968D01*
X110338107Y-90830645D01*
X110304058Y-90616165D01*
X110268276Y-90393690D01*
X110251194Y-90287457D01*
X110235234Y-90187125D01*
X110220683Y-90094571D01*
X110207828Y-90011670D01*
X110196955Y-89940301D01*
X110188352Y-89882339D01*
X110182304Y-89839662D01*
X110179100Y-89814145D01*
X110178695Y-89807528D01*
X110185745Y-89809440D01*
X110202989Y-89825061D01*
X110227940Y-89851865D01*
X110258112Y-89887327D01*
X110262527Y-89892734D01*
X110376179Y-90019927D01*
X110506824Y-90143703D01*
X110650861Y-90261233D01*
X110804691Y-90369687D01*
X110964716Y-90466235D01*
X111047863Y-90510135D01*
X111108694Y-90543649D01*
X111152737Y-90575492D01*
X111183292Y-90608557D01*
X111203660Y-90645738D01*
X111204268Y-90647249D01*
X111211186Y-90668714D01*
X111222113Y-90707818D01*
X111236452Y-90762120D01*
X111253604Y-90829181D01*
X111272971Y-90906559D01*
X111293954Y-90991816D01*
X111315955Y-91082512D01*
X111338376Y-91176205D01*
X111360618Y-91270458D01*
X111382084Y-91362829D01*
X111402174Y-91450878D01*
X111411099Y-91490649D01*
X111478288Y-91801754D01*
X111545360Y-92131892D01*
X111612018Y-92479494D01*
X111677961Y-92842994D01*
X111742890Y-93220824D01*
X111752370Y-93277713D01*
X111767561Y-93368084D01*
X111783846Y-93462943D01*
X111800346Y-93557320D01*
X111816187Y-93646245D01*
X111830489Y-93724748D01*
X111842322Y-93787567D01*
X111855337Y-93854632D01*
X111865089Y-93903334D01*
X111872185Y-93935545D01*
X111877235Y-93953134D01*
X111880847Y-93957973D01*
X111883630Y-93951933D01*
X111886192Y-93936883D01*
X111887574Y-93926618D01*
X111889838Y-93902102D01*
X111892651Y-93860092D01*
X111895849Y-93803684D01*
X111899272Y-93735972D01*
X111902757Y-93660052D01*
X111906141Y-93579017D01*
X111907248Y-93550665D01*
X111913534Y-93279502D01*
X111912410Y-92991544D01*
X111904007Y-92689168D01*
X111888455Y-92374749D01*
X111865885Y-92050664D01*
X111837823Y-91734986D01*
X112165162Y-91734986D01*
X112168842Y-91793382D01*
X112188625Y-91849762D01*
X112225411Y-91900964D01*
X112244296Y-91918624D01*
X112302125Y-91957604D01*
X112359533Y-91976316D01*
X112418172Y-91974986D01*
X112479696Y-91953842D01*
X112484249Y-91951577D01*
X112540814Y-91913600D01*
X112579467Y-91865722D01*
X112600832Y-91807032D01*
X112605109Y-91775046D01*
X112603805Y-91711189D01*
X112588236Y-91658211D01*
X112556361Y-91610412D01*
X112539862Y-91592735D01*
X112494335Y-91557249D01*
X112442380Y-91532790D01*
X112390349Y-91521763D01*
X112356810Y-91523413D01*
X112293474Y-91544469D01*
X112241741Y-91579315D01*
X112202511Y-91624791D01*
X112176685Y-91677735D01*
X112165162Y-91734986D01*
X111837823Y-91734986D01*
X111836428Y-91719288D01*
X111800215Y-91382997D01*
X111777885Y-91200102D01*
X111769964Y-91136806D01*
X111763039Y-91079542D01*
X111757515Y-91031820D01*
X111753798Y-90997152D01*
X111752292Y-90979049D01*
X111752279Y-90978283D01*
X111751664Y-90973645D01*
X111750800Y-90969634D01*
X111751163Y-90966400D01*
X111754224Y-90964091D01*
X111761459Y-90962858D01*
X111774342Y-90962849D01*
X111794345Y-90964213D01*
X111822943Y-90967100D01*
X111861609Y-90971658D01*
X111911818Y-90978037D01*
X111975043Y-90986386D01*
X112052758Y-90996855D01*
X112146436Y-91009591D01*
X112257552Y-91024745D01*
X112387580Y-91042466D01*
X112390884Y-91042916D01*
X112609091Y-91072272D01*
X112808582Y-91098331D01*
X112990952Y-91121220D01*
X113157800Y-91141063D01*
X113310723Y-91157987D01*
X113451316Y-91172118D01*
X113581177Y-91183581D01*
X113701904Y-91192503D01*
X113815093Y-91199010D01*
X113922341Y-91203228D01*
X114025246Y-91205282D01*
X114125403Y-91205299D01*
X114224411Y-91203404D01*
X114323866Y-91199723D01*
X114358199Y-91198081D01*
X114441416Y-91193330D01*
X114531576Y-91187201D01*
X114626140Y-91179950D01*
X114722568Y-91171835D01*
X114818320Y-91163111D01*
X114910857Y-91154036D01*
X114997638Y-91144867D01*
X115076125Y-91135860D01*
X115143777Y-91127271D01*
X115198055Y-91119359D01*
X115236419Y-91112378D01*
X115254307Y-91107496D01*
X115248126Y-91105119D01*
X115223631Y-91101118D01*
X115183022Y-91095757D01*
X115128498Y-91089296D01*
X115062258Y-91081999D01*
X114986503Y-91074126D01*
X114914404Y-91066998D01*
X114488223Y-91021577D01*
X114079566Y-90969243D01*
X113686416Y-90909601D01*
X113306756Y-90842254D01*
X112938567Y-90766806D01*
X112579832Y-90682860D01*
X112228532Y-90590020D01*
X111882651Y-90487889D01*
X111747129Y-90444918D01*
X111515623Y-90364131D01*
X111301031Y-90276990D01*
X111103802Y-90183766D01*
X110924387Y-90084730D01*
X110763236Y-89980154D01*
X110620799Y-89870311D01*
X110497525Y-89755472D01*
X110393865Y-89635909D01*
X110382105Y-89620371D01*
X110350256Y-89575111D01*
X110319307Y-89526883D01*
X110294099Y-89483392D01*
X110285566Y-89466683D01*
X110270948Y-89434380D01*
X110261615Y-89407166D01*
X110256394Y-89378632D01*
X110254118Y-89342367D01*
X110253617Y-89291962D01*
X110253617Y-89291581D01*
X110254032Y-89241789D01*
X110256070Y-89206445D01*
X110260921Y-89179404D01*
X110269776Y-89154518D01*
X110283824Y-89125642D01*
X110286892Y-89119746D01*
X110329032Y-89055647D01*
X110389556Y-88988010D01*
X110466768Y-88917899D01*
X110558973Y-88846375D01*
X110664473Y-88774500D01*
X110781574Y-88703337D01*
X110908578Y-88633947D01*
X111043790Y-88567392D01*
X111185515Y-88504736D01*
X111332055Y-88447039D01*
X111400139Y-88422621D01*
X111460004Y-88402518D01*
X111528974Y-88380527D01*
X111604167Y-88357455D01*
X111682704Y-88334110D01*
X111761703Y-88311301D01*
X111838283Y-88289834D01*
X111909563Y-88270517D01*
X111972663Y-88254159D01*
X112024701Y-88241567D01*
X112062796Y-88233549D01*
X112083854Y-88230908D01*
X112093408Y-88239900D01*
X112108198Y-88263910D01*
X112125859Y-88298806D01*
X112137166Y-88323988D01*
X112211593Y-88472187D01*
X112301921Y-88607737D01*
X112407235Y-88729751D01*
X112526621Y-88837345D01*
X112659163Y-88929631D01*
X112803946Y-89005725D01*
X112869747Y-89033250D01*
X113045406Y-89090876D01*
X113221984Y-89128103D01*
X113398602Y-89145001D01*
X113574381Y-89141638D01*
X113748439Y-89118080D01*
X113919898Y-89074397D01*
X114087876Y-89010656D01*
X114251495Y-88926926D01*
X114252542Y-88926317D01*
X114297785Y-88900907D01*
X114327666Y-88886502D01*
X114343797Y-88882433D01*
X114347899Y-88886645D01*
X114346804Y-88894621D01*
X114343214Y-88909737D01*
X114336674Y-88933491D01*
X114326726Y-88967381D01*
X114312916Y-89012905D01*
X114294787Y-89071559D01*
X114271882Y-89144842D01*
X114243747Y-89234253D01*
X114209923Y-89341287D01*
X114197472Y-89380617D01*
X114177299Y-89443790D01*
X114161812Y-89490204D01*
X114149651Y-89522790D01*
X114139456Y-89544480D01*
X114129866Y-89558208D01*
X114119521Y-89566905D01*
X114108248Y-89572947D01*
X114089413Y-89579288D01*
X114053458Y-89589065D01*
X114003435Y-89601536D01*
X113942395Y-89615963D01*
X113873392Y-89631603D01*
X113804337Y-89646677D01*
X113711581Y-89666708D01*
X113636623Y-89683363D01*
X113577069Y-89697347D01*
X113530525Y-89709364D01*
X113494595Y-89720118D01*
X113466888Y-89730314D01*
X113445007Y-89740655D01*
X113426559Y-89751847D01*
X113412650Y-89761895D01*
X113373277Y-89803390D01*
X113350358Y-89852342D01*
X113343058Y-89905009D01*
X113350541Y-89957650D01*
X113371971Y-90006523D01*
X113406512Y-90047887D01*
X113453328Y-90078001D01*
X113485690Y-90088817D01*
X113506077Y-90088660D01*
X113543482Y-90083489D01*
X113595128Y-90073996D01*
X113658239Y-90060872D01*
X113730039Y-90044811D01*
X113807752Y-90026504D01*
X113888600Y-90006643D01*
X113969809Y-89985921D01*
X114048601Y-89965029D01*
X114122200Y-89944660D01*
X114187830Y-89925507D01*
X114242715Y-89908261D01*
X114284078Y-89893614D01*
X114304911Y-89884571D01*
X114362136Y-89846567D01*
X114410420Y-89794588D01*
X114451659Y-89726276D01*
X114475497Y-89672220D01*
X114485042Y-89645772D01*
X114499782Y-89601931D01*
X114519216Y-89542331D01*
X114542845Y-89468606D01*
X114570168Y-89382391D01*
X114600686Y-89285320D01*
X114633898Y-89179027D01*
X114669304Y-89065147D01*
X114706403Y-88945312D01*
X114744697Y-88821159D01*
X114783685Y-88694321D01*
X114822866Y-88566431D01*
X114861740Y-88439126D01*
X114899808Y-88314037D01*
X114936569Y-88192801D01*
X114971523Y-88077051D01*
X114975252Y-88064644D01*
X115238208Y-88064644D01*
X115239205Y-88073144D01*
X115253131Y-88074916D01*
X115275706Y-88072089D01*
X115337146Y-88070083D01*
X115387798Y-88085316D01*
X115418343Y-88107892D01*
X115429376Y-88121705D01*
X115441247Y-88142852D01*
X115454882Y-88173660D01*
X115471203Y-88216456D01*
X115491137Y-88273568D01*
X115515607Y-88347322D01*
X115525266Y-88377041D01*
X115549264Y-88451694D01*
X115573222Y-88527168D01*
X115595705Y-88598874D01*
X115615279Y-88662222D01*
X115630507Y-88712621D01*
X115635497Y-88729633D01*
X115649084Y-88773261D01*
X115668606Y-88831348D01*
X115692408Y-88899203D01*
X115718835Y-88972135D01*
X115746231Y-89045452D01*
X115755435Y-89069536D01*
X115809330Y-89213672D01*
X115853639Y-89341095D01*
X115888726Y-89453131D01*
X115914955Y-89551106D01*
X115932690Y-89636343D01*
X115942293Y-89710170D01*
X115944379Y-89757991D01*
X115953907Y-89822553D01*
X115980667Y-89881094D01*
X116022057Y-89929473D01*
X116072737Y-89962326D01*
X116116391Y-89977619D01*
X116157508Y-89980107D01*
X116204771Y-89970767D01*
X116257538Y-89946113D01*
X116298206Y-89906267D01*
X116324884Y-89853935D01*
X116335677Y-89791821D01*
X116335815Y-89783565D01*
X116334073Y-89748102D01*
X116328615Y-89705889D01*
X116319089Y-89655765D01*
X116305146Y-89596574D01*
X116286434Y-89527156D01*
X116262603Y-89446352D01*
X116233302Y-89353005D01*
X116198181Y-89245955D01*
X116156890Y-89124045D01*
X116109077Y-88986116D01*
X116054393Y-88831009D01*
X116009292Y-88704477D01*
X115947689Y-88531396D01*
X115892991Y-88375643D01*
X115844610Y-88235358D01*
X115801957Y-88108678D01*
X115764445Y-87993744D01*
X115731486Y-87888695D01*
X115702492Y-87791668D01*
X115676874Y-87700804D01*
X115654045Y-87614241D01*
X115633417Y-87530119D01*
X115620405Y-87473617D01*
X115609357Y-87424855D01*
X115601499Y-87390813D01*
X115865542Y-87390813D01*
X115866082Y-87439261D01*
X115869543Y-87486666D01*
X115876108Y-87528719D01*
X115877910Y-87536518D01*
X115887945Y-87572254D01*
X115903060Y-87620052D01*
X115922046Y-87676621D01*
X115943692Y-87738669D01*
X115966789Y-87802903D01*
X115990125Y-87866032D01*
X116012491Y-87924764D01*
X116032677Y-87975806D01*
X116049472Y-88015868D01*
X116061667Y-88041656D01*
X116066265Y-88048901D01*
X116099460Y-88075424D01*
X116145118Y-88093095D01*
X116191614Y-88101798D01*
X116251589Y-88110293D01*
X116321006Y-88121150D01*
X116396888Y-88133804D01*
X116476258Y-88147691D01*
X116556139Y-88162248D01*
X116633554Y-88176910D01*
X116705527Y-88191114D01*
X116769081Y-88204297D01*
X116821240Y-88215893D01*
X116859025Y-88225340D01*
X116879461Y-88232073D01*
X116879501Y-88232092D01*
X116920322Y-88259045D01*
X116951235Y-88297043D01*
X116974141Y-88349197D01*
X116989826Y-88412609D01*
X117006206Y-88487393D01*
X117026191Y-88553165D01*
X117052594Y-88617449D01*
X117088230Y-88687764D01*
X117102332Y-88713282D01*
X117138246Y-88773858D01*
X117171808Y-88820718D01*
X117207337Y-88857497D01*
X117249149Y-88887830D01*
X117301560Y-88915352D01*
X117368889Y-88943699D01*
X117382083Y-88948843D01*
X117522628Y-88999577D01*
X117676633Y-89048567D01*
X117836961Y-89093564D01*
X117859238Y-89099348D01*
X117919626Y-89112753D01*
X117965937Y-89117080D01*
X118002883Y-89111695D01*
X118035175Y-89095968D01*
X118064882Y-89071767D01*
X118102031Y-89025187D01*
X118123088Y-88972919D01*
X118128166Y-88918938D01*
X118117378Y-88867220D01*
X118090838Y-88821741D01*
X118056894Y-88791557D01*
X118034727Y-88780811D01*
X117996312Y-88766274D01*
X117945374Y-88749204D01*
X117885638Y-88730855D01*
X117829327Y-88714807D01*
X117734835Y-88688588D01*
X117658119Y-88666630D01*
X117596986Y-88648141D01*
X117549240Y-88632330D01*
X117512688Y-88618407D01*
X117485134Y-88605581D01*
X117464384Y-88593059D01*
X117448244Y-88580053D01*
X117443932Y-88575897D01*
X117426236Y-88551379D01*
X117404274Y-88508820D01*
X117377923Y-88447903D01*
X117347061Y-88368314D01*
X117311568Y-88269736D01*
X117271320Y-88151853D01*
X117226197Y-88014348D01*
X117219567Y-87993771D01*
X117199376Y-87931227D01*
X117180240Y-87872400D01*
X117163470Y-87821282D01*
X117150374Y-87781865D01*
X117142341Y-87758362D01*
X117118269Y-87709679D01*
X117085238Y-87668549D01*
X117047978Y-87640361D01*
X117033131Y-87633976D01*
X117016717Y-87629836D01*
X116982183Y-87622089D01*
X116931609Y-87611173D01*
X116867073Y-87597523D01*
X116790655Y-87581575D01*
X116704434Y-87563766D01*
X116610491Y-87544533D01*
X116510904Y-87524310D01*
X116494028Y-87520899D01*
X116393735Y-87500446D01*
X116298786Y-87480707D01*
X116211255Y-87462138D01*
X116133218Y-87445197D01*
X116066748Y-87430342D01*
X116013921Y-87418030D01*
X115976811Y-87408719D01*
X115957492Y-87402866D01*
X115956154Y-87402262D01*
X115923663Y-87378302D01*
X115907031Y-87345860D01*
X115903212Y-87309493D01*
X115899496Y-87281625D01*
X115888986Y-87272766D01*
X115879647Y-87282298D01*
X115872506Y-87308023D01*
X115867744Y-87345631D01*
X115865542Y-87390813D01*
X115601499Y-87390813D01*
X115599663Y-87382857D01*
X115592354Y-87352036D01*
X115588460Y-87336803D01*
X115588416Y-87336662D01*
X115578872Y-87335537D01*
X115557736Y-87344422D01*
X115529538Y-87360502D01*
X115498807Y-87380963D01*
X115470072Y-87402991D01*
X115447865Y-87423772D01*
X115447424Y-87424260D01*
X115433961Y-87443166D01*
X115419339Y-87471867D01*
X115402941Y-87512112D01*
X115384150Y-87565644D01*
X115362346Y-87634211D01*
X115336913Y-87719557D01*
X115311480Y-87808370D01*
X115292262Y-87876269D01*
X115274730Y-87937984D01*
X115259712Y-87990613D01*
X115248038Y-88031256D01*
X115240536Y-88057012D01*
X115238208Y-88064644D01*
X114975252Y-88064644D01*
X115004171Y-87968421D01*
X115034011Y-87868545D01*
X115060544Y-87779058D01*
X115083269Y-87701594D01*
X115101687Y-87637787D01*
X115115298Y-87589271D01*
X115123601Y-87557681D01*
X115125952Y-87546754D01*
X115133506Y-87496289D01*
X115046633Y-87501709D01*
X114970124Y-87511768D01*
X114908840Y-87532722D01*
X114859369Y-87566689D01*
X114818297Y-87615789D01*
X114793366Y-87659019D01*
X114782683Y-87683073D01*
X114766598Y-87723258D01*
X114746380Y-87776212D01*
X114723297Y-87838574D01*
X114698616Y-87906983D01*
X114680699Y-87957721D01*
X114637956Y-88079634D01*
X114601202Y-88183651D01*
X114569750Y-88271365D01*
X114542914Y-88344367D01*
X114520006Y-88404251D01*
X114500338Y-88452608D01*
X114483225Y-88491032D01*
X114467980Y-88521114D01*
X114453914Y-88544447D01*
X114440342Y-88562623D01*
X114426576Y-88577235D01*
X114411929Y-88589876D01*
X114405995Y-88594490D01*
X114367923Y-88618309D01*
X114313673Y-88645114D01*
X114247181Y-88673437D01*
X114172380Y-88701811D01*
X114093205Y-88728767D01*
X114013592Y-88752838D01*
X113937476Y-88772556D01*
X113915296Y-88777535D01*
X113836570Y-88790632D01*
X113743915Y-88799834D01*
X113643664Y-88804969D01*
X113542151Y-88805865D01*
X113445707Y-88802348D01*
X113360665Y-88794246D01*
X113351215Y-88792912D01*
X113200488Y-88764148D01*
X113065140Y-88723977D01*
X112942662Y-88671205D01*
X112830544Y-88604641D01*
X112726276Y-88523092D01*
X112668481Y-88468530D01*
X112574567Y-88359821D01*
X112497471Y-88239901D01*
X112437423Y-88109771D01*
X112394650Y-87970430D01*
X112369382Y-87822880D01*
X112361845Y-87668121D01*
X112364132Y-87632800D01*
X112746255Y-87632800D01*
X112747092Y-87676288D01*
X112749980Y-87712798D01*
X112754712Y-87737748D01*
X112760807Y-87746569D01*
X112768252Y-87738008D01*
X112781766Y-87715372D01*
X112798659Y-87683232D01*
X112801726Y-87677044D01*
X112905913Y-87486559D01*
X113023754Y-87311206D01*
X113154962Y-87151255D01*
X113299249Y-87006975D01*
X113456329Y-86878636D01*
X113625915Y-86766509D01*
X113730644Y-86711411D01*
X115244006Y-86711411D01*
X115249156Y-86716561D01*
X115254307Y-86711411D01*
X115249156Y-86706261D01*
X115244006Y-86711411D01*
X113730644Y-86711411D01*
X113807719Y-86670862D01*
X113912601Y-86625867D01*
X115196037Y-86625867D01*
X115198996Y-86642803D01*
X115212513Y-86664228D01*
X115227549Y-86684631D01*
X115236505Y-86695442D01*
X115237263Y-86695961D01*
X115246901Y-86692065D01*
X115273024Y-86681071D01*
X115313188Y-86664018D01*
X115364953Y-86641944D01*
X115425878Y-86615890D01*
X115493521Y-86586895D01*
X115499879Y-86584166D01*
X115760343Y-86472371D01*
X115690151Y-86450570D01*
X115646372Y-86438213D01*
X115602573Y-86427840D01*
X115572447Y-86422356D01*
X115522763Y-86422169D01*
X115464318Y-86431830D01*
X115405267Y-86449432D01*
X115353765Y-86473064D01*
X115352411Y-86473852D01*
X115312976Y-86500216D01*
X115272715Y-86532413D01*
X115236965Y-86565683D01*
X115211061Y-86595266D01*
X115203916Y-86606336D01*
X115196037Y-86625867D01*
X113912601Y-86625867D01*
X113925596Y-86620292D01*
X113976776Y-86600708D01*
X114026139Y-86582873D01*
X114067739Y-86568873D01*
X114093641Y-86561276D01*
X114120196Y-86552808D01*
X114134309Y-86544484D01*
X114134696Y-86540438D01*
X114115761Y-86530880D01*
X114080653Y-86521411D01*
X114033789Y-86512711D01*
X113979588Y-86505458D01*
X113922467Y-86500334D01*
X113866846Y-86498019D01*
X113858646Y-86497955D01*
X113728002Y-86507280D01*
X113598241Y-86536095D01*
X113468788Y-86584633D01*
X113339067Y-86653131D01*
X113208503Y-86741822D01*
X113150911Y-86787082D01*
X113063970Y-86869784D01*
X112983606Y-86968937D01*
X112911726Y-87080927D01*
X112850239Y-87202139D01*
X112801055Y-87328959D01*
X112766081Y-87457774D01*
X112751571Y-87543221D01*
X112747679Y-87586916D01*
X112746255Y-87632800D01*
X112364132Y-87632800D01*
X112372269Y-87507154D01*
X112400882Y-87340980D01*
X112406041Y-87318662D01*
X112456164Y-87151562D01*
X112524370Y-86992850D01*
X112609445Y-86843706D01*
X112710175Y-86705310D01*
X112825344Y-86578841D01*
X112953740Y-86465480D01*
X113094146Y-86366407D01*
X113245349Y-86282801D01*
X113406135Y-86215843D01*
X113575288Y-86166713D01*
X113596577Y-86161966D01*
X113779167Y-86132155D01*
X113957816Y-86122114D01*
X114131830Y-86131676D01*
X114300515Y-86160678D01*
X114463176Y-86208953D01*
X114619120Y-86276338D01*
X114767652Y-86362667D01*
X114908077Y-86467774D01*
X114917907Y-86476106D01*
X114988362Y-86536310D01*
X115060933Y-86466645D01*
X115158849Y-86382399D01*
X115258841Y-86316596D01*
X115364559Y-86267136D01*
X115461554Y-86236402D01*
X115494610Y-86229297D01*
X115530465Y-86224926D01*
X115573901Y-86223034D01*
X115629700Y-86223367D01*
X115679185Y-86224805D01*
X115738130Y-86226692D01*
X115779552Y-86227377D01*
X115806505Y-86226602D01*
X115822044Y-86224109D01*
X115829223Y-86219641D01*
X115831098Y-86212941D01*
X115831111Y-86212008D01*
X115834518Y-86184251D01*
X115842104Y-86149791D01*
X116051170Y-86149791D01*
X116052486Y-86239945D01*
X116074003Y-86326371D01*
X116115581Y-86408957D01*
X116144293Y-86453909D01*
X116157004Y-86347762D01*
X116164931Y-86293865D01*
X116175442Y-86239021D01*
X116186780Y-86191936D01*
X116191860Y-86175069D01*
X116223824Y-86101050D01*
X116267908Y-86029884D01*
X116319313Y-85968789D01*
X116344020Y-85946119D01*
X116383244Y-85915490D01*
X116416065Y-85893644D01*
X116438815Y-85882941D01*
X116443289Y-85882255D01*
X116446293Y-85891639D01*
X116448397Y-85916136D01*
X116449116Y-85947358D01*
X116457805Y-86016785D01*
X116482533Y-86079427D01*
X116521287Y-86131103D01*
X116548312Y-86153655D01*
X116604663Y-86180738D01*
X116668062Y-86191046D01*
X116733200Y-86184283D01*
X116782486Y-86166634D01*
X116838834Y-86129325D01*
X116881108Y-86081446D01*
X116908650Y-86026364D01*
X116920802Y-85967444D01*
X116916903Y-85908051D01*
X116896296Y-85851550D01*
X116858322Y-85801306D01*
X116854693Y-85797825D01*
X116811761Y-85766285D01*
X116761352Y-85747089D01*
X116698777Y-85738715D01*
X116670427Y-85738053D01*
X116623593Y-85736539D01*
X116588873Y-85730864D01*
X116557929Y-85719330D01*
X116544002Y-85712303D01*
X116489061Y-85691337D01*
X116433628Y-85687546D01*
X116376111Y-85701399D01*
X116314918Y-85733363D01*
X116248457Y-85783906D01*
X116223113Y-85806575D01*
X116179584Y-85849952D01*
X116147019Y-85891071D01*
X116118905Y-85938578D01*
X116109136Y-85957859D01*
X116070054Y-86055799D01*
X116051170Y-86149791D01*
X115842104Y-86149791D01*
X115843712Y-86142485D01*
X115857153Y-86091956D01*
X115873301Y-86037908D01*
X115890615Y-85985587D01*
X115907557Y-85940237D01*
X115917904Y-85916424D01*
X115986861Y-85794400D01*
X116070908Y-85685950D01*
X116168898Y-85591967D01*
X116279687Y-85513345D01*
X116402129Y-85450978D01*
X116535079Y-85405758D01*
X116588810Y-85393113D01*
X116656572Y-85383163D01*
X116738012Y-85377716D01*
X116826706Y-85376769D01*
X116916230Y-85380323D01*
G37*
D12*
%TO.C,C3*%
X138737131Y-95997422D02*
X138219975Y-95997422D01*
X138737131Y-97417422D02*
X138219975Y-97417422D01*
%TO.C,TP3*%
X147040000Y-91350000D02*
G75*
G02*
X145140000Y-91350000I-950000J0D01*
G01*
X145140000Y-91350000D02*
G75*
G02*
X147040000Y-91350000I950000J0D01*
G01*
%TO.C,C13*%
X140490000Y-107922836D02*
X140490000Y-107707164D01*
X141210000Y-107922836D02*
X141210000Y-107707164D01*
%TO.C,C8*%
X141870000Y-108457164D02*
X141870000Y-108672836D01*
X142590000Y-108457164D02*
X142590000Y-108672836D01*
%TO.C,R12*%
X122456359Y-96014284D02*
X122763641Y-96014284D01*
X122456359Y-96774284D02*
X122763641Y-96774284D01*
%TO.C,R2*%
X141850000Y-106361359D02*
X141850000Y-106668641D01*
X142610000Y-106361359D02*
X142610000Y-106668641D01*
%TO.C,R17*%
X119073641Y-100190000D02*
X118766359Y-100190000D01*
X119073641Y-100950000D02*
X118766359Y-100950000D01*
%TO.C,C7*%
X141769975Y-95997422D02*
X142287131Y-95997422D01*
X141769975Y-97417422D02*
X142287131Y-97417422D01*
%TO.C,C18*%
X147737131Y-100647422D02*
X147219975Y-100647422D01*
X147737131Y-102067422D02*
X147219975Y-102067422D01*
%TO.C,L1*%
X143968553Y-104677422D02*
X143968553Y-103207422D01*
X143968553Y-108447422D02*
X143968553Y-106937422D01*
X143978553Y-103207422D02*
X149678553Y-103207422D01*
X149668553Y-108447422D02*
X143968553Y-108447422D01*
X149678553Y-103207422D02*
X149678553Y-104677422D01*
X149678553Y-106937422D02*
X149678553Y-108447422D01*
%TO.C,R6*%
X132360000Y-105306359D02*
X132360000Y-105613641D01*
X133120000Y-105306359D02*
X133120000Y-105613641D01*
%TO.C,C17*%
X147737131Y-98497422D02*
X147219975Y-98497422D01*
X147737131Y-99917422D02*
X147219975Y-99917422D01*
D16*
%TO.C,J2*%
X162260000Y-92630000D02*
X174810000Y-92630000D01*
X174810000Y-92630000D02*
X174810000Y-106430000D01*
X174810000Y-106430000D02*
X162260000Y-106430000D01*
D12*
%TO.C,R15*%
X133253641Y-94748570D02*
X132946359Y-94748570D01*
X133253641Y-95508570D02*
X132946359Y-95508570D01*
%TO.C,C2*%
X138737131Y-94147422D02*
X138219975Y-94147422D01*
X138737131Y-95567422D02*
X138219975Y-95567422D01*
%TO.C,C11*%
X149735000Y-87478748D02*
X149735000Y-88001252D01*
X151205000Y-87478748D02*
X151205000Y-88001252D01*
%TO.C,R8*%
X130420000Y-105326359D02*
X130420000Y-105633641D01*
X131180000Y-105326359D02*
X131180000Y-105633641D01*
D13*
%TO.C,J4*%
X151133000Y-63526801D02*
X151133000Y-75287000D01*
X151133000Y-75287000D02*
X161547000Y-75287000D01*
X161547000Y-63526801D02*
X151133000Y-63526801D01*
X161547000Y-75287000D02*
X161547000Y-63526801D01*
%TO.C,J6*%
X128266334Y-63526801D02*
X128266334Y-75287000D01*
X128266334Y-75287000D02*
X138680334Y-75287000D01*
X138680334Y-63526801D02*
X128266334Y-63526801D01*
X138680334Y-75287000D02*
X138680334Y-63526801D01*
D12*
%TO.C,R9*%
X122456359Y-88660000D02*
X122763641Y-88660000D01*
X122456359Y-89420000D02*
X122763641Y-89420000D01*
%TO.C,R5*%
X136300000Y-103508641D02*
X136300000Y-103201359D01*
X137060000Y-103508641D02*
X137060000Y-103201359D01*
%TO.C,R7*%
X119073641Y-102636666D02*
X118766359Y-102636666D01*
X119073641Y-103396666D02*
X118766359Y-103396666D01*
%TO.C,Q1*%
X157495000Y-88050000D02*
X157495000Y-91590000D01*
X157495000Y-88050000D02*
X157865000Y-88050000D01*
X157495000Y-91590000D02*
X157865000Y-91590000D01*
X161035000Y-91590000D02*
X160665000Y-91590000D01*
X161035000Y-91590000D02*
X161035000Y-88380000D01*
X161195000Y-88060000D02*
X160715000Y-88060000D01*
X160715000Y-87580000D01*
X161195000Y-88060000D01*
G36*
X161195000Y-88060000D02*
G01*
X160715000Y-88060000D01*
X160715000Y-87580000D01*
X161195000Y-88060000D01*
G37*
%TO.C,C20*%
X118812164Y-103870000D02*
X119027836Y-103870000D01*
X118812164Y-104590000D02*
X119027836Y-104590000D01*
%TO.C,C1*%
X138737131Y-92297422D02*
X138219975Y-92297422D01*
X138737131Y-93717422D02*
X138219975Y-93717422D01*
%TO.C,R4*%
X136560000Y-106588641D02*
X136560000Y-106281359D01*
X137320000Y-106588641D02*
X137320000Y-106281359D01*
%TO.C,C10*%
X151740000Y-87372164D02*
X151740000Y-87587836D01*
X152460000Y-87372164D02*
X152460000Y-87587836D01*
%TO.C,R18*%
X119073641Y-101413333D02*
X118766359Y-101413333D01*
X119073641Y-102173333D02*
X118766359Y-102173333D01*
%TO.C,C19*%
X142310000Y-114280000D02*
X150370000Y-114280000D01*
X150370000Y-109760000D02*
X142310000Y-109760000D01*
X150370000Y-114280000D02*
X150370000Y-109760000D01*
%TO.C,R10*%
X122456359Y-91111428D02*
X122763641Y-91111428D01*
X122456359Y-91871428D02*
X122763641Y-91871428D01*
%TO.C,C14*%
X138010000Y-106492836D02*
X138010000Y-106277164D01*
X138730000Y-106492836D02*
X138730000Y-106277164D01*
%TO.C,R11*%
X122456359Y-93562856D02*
X122763641Y-93562856D01*
X122456359Y-94322856D02*
X122763641Y-94322856D01*
%TO.C,C12*%
X140122164Y-105675000D02*
X140337836Y-105675000D01*
X140122164Y-106395000D02*
X140337836Y-106395000D01*
%TO.C,C6*%
X141769975Y-94147422D02*
X142287131Y-94147422D01*
X141769975Y-95567422D02*
X142287131Y-95567422D01*
%TO.C,R16*%
X133253641Y-97200000D02*
X132946359Y-97200000D01*
X133253641Y-97960000D02*
X132946359Y-97960000D01*
%TO.C,R14*%
X133253641Y-92297142D02*
X132946359Y-92297142D01*
X133253641Y-93057142D02*
X132946359Y-93057142D01*
%TO.C,C15*%
X147721078Y-94360000D02*
X147203922Y-94360000D01*
X147721078Y-95780000D02*
X147203922Y-95780000D01*
D13*
%TO.C,J7*%
X116833000Y-63526801D02*
X116833000Y-75287000D01*
X116833000Y-75287000D02*
X127247000Y-75287000D01*
X127247000Y-63526801D02*
X116833000Y-63526801D01*
X127247000Y-75287000D02*
X127247000Y-63526801D01*
D12*
%TO.C,TP2*%
X150640000Y-92790000D02*
G75*
G02*
X148740000Y-92790000I-950000J0D01*
G01*
X148740000Y-92790000D02*
G75*
G02*
X150640000Y-92790000I950000J0D01*
G01*
%TO.C,C9*%
X136320000Y-99387164D02*
X136320000Y-99602836D01*
X137040000Y-99387164D02*
X137040000Y-99602836D01*
%TO.C,R1*%
X151710000Y-89296359D02*
X151710000Y-89603641D01*
X152470000Y-89296359D02*
X152470000Y-89603641D01*
%TO.C,C4*%
X141769975Y-92297422D02*
X142287131Y-92297422D01*
X141769975Y-93717422D02*
X142287131Y-93717422D01*
%TD*%
%LPC*%
D17*
%TO.C,J8*%
X158640000Y-74240000D03*
X158640000Y-79740000D03*
X154440000Y-79740000D03*
X154440000Y-74240000D03*
%TD*%
%TO.C,J9*%
X147210000Y-74240000D03*
X147210000Y-79740000D03*
X143010000Y-79740000D03*
X143010000Y-74240000D03*
%TD*%
%TO.C,J10*%
X135780000Y-74240000D03*
X135780000Y-79740000D03*
X131580000Y-79740000D03*
X131580000Y-74240000D03*
%TD*%
%TO.C,J11*%
X124350000Y-74240000D03*
X124350000Y-79740000D03*
X120150000Y-79740000D03*
X120150000Y-74240000D03*
%TD*%
D18*
%TO.C,R3*%
X139670000Y-107295000D03*
X139670000Y-108315000D03*
%TD*%
D19*
%TO.C,C5*%
X163150000Y-89390000D03*
X163150000Y-88430000D03*
%TD*%
D20*
%TO.C,U2*%
X122325800Y-100415800D03*
X122325800Y-101065798D03*
X122325800Y-101715800D03*
X122325800Y-102365798D03*
D21*
X123300002Y-103340000D03*
X123950000Y-103340000D03*
X124600002Y-103340000D03*
X125250000Y-103340000D03*
D20*
X126224202Y-102365798D03*
X126224202Y-101715800D03*
X126224202Y-101065798D03*
X126224202Y-100415800D03*
D21*
X125250000Y-99441598D03*
X124600002Y-99441598D03*
X123950000Y-99441598D03*
X123300002Y-99441598D03*
D22*
X124275001Y-101390799D03*
%TD*%
D23*
%TO.C,H1*%
X168641320Y-122311320D03*
%TD*%
D24*
%TO.C,U1*%
X140278553Y-101407422D03*
D25*
X142183553Y-98844922D03*
X140913553Y-98844922D03*
X139643553Y-98844922D03*
X138373553Y-98844922D03*
X138373553Y-103969922D03*
X139643553Y-103969922D03*
X140913553Y-103969922D03*
X142183553Y-103969922D03*
%TD*%
D26*
%TO.C,TP1*%
X145150000Y-85470000D03*
%TD*%
D27*
%TO.C,J5*%
X148716667Y-76830000D03*
X146176667Y-76830000D03*
X143636667Y-76830000D03*
X141096667Y-76830000D03*
%TD*%
D28*
%TO.C,R13*%
X133610000Y-90225714D03*
X132590000Y-90225714D03*
%TD*%
D29*
%TO.C,J3*%
X165740000Y-86130000D03*
D30*
X165740000Y-84130000D03*
X165740000Y-82130000D03*
X167740000Y-86130000D03*
X167740000Y-84130000D03*
X167740000Y-82130000D03*
%TD*%
D31*
%TO.C,D1*%
X153600000Y-88900000D03*
X155500000Y-88900000D03*
X154550000Y-86900000D03*
%TD*%
D32*
%TO.C,C16*%
X148387500Y-97220000D03*
X146512500Y-97220000D03*
%TD*%
%TO.C,C3*%
X139416053Y-96707422D03*
X137541053Y-96707422D03*
%TD*%
D26*
%TO.C,TP3*%
X146090000Y-91350000D03*
%TD*%
D23*
%TO.C,H4*%
X110641320Y-72811320D03*
%TD*%
D19*
%TO.C,C13*%
X140850000Y-108295000D03*
X140850000Y-107335000D03*
%TD*%
D33*
%TO.C,C8*%
X142230000Y-108085000D03*
X142230000Y-109045000D03*
%TD*%
D34*
%TO.C,R12*%
X122100000Y-96394284D03*
X123120000Y-96394284D03*
%TD*%
D18*
%TO.C,R2*%
X142230000Y-106005000D03*
X142230000Y-107025000D03*
%TD*%
D28*
%TO.C,R17*%
X119430000Y-100570000D03*
X118410000Y-100570000D03*
%TD*%
D35*
%TO.C,C7*%
X141091053Y-96707422D03*
X142966053Y-96707422D03*
%TD*%
D32*
%TO.C,C18*%
X148416053Y-101357422D03*
X146541053Y-101357422D03*
%TD*%
D36*
%TO.C,L1*%
X144628553Y-105807422D03*
X149028553Y-105807422D03*
%TD*%
D18*
%TO.C,R6*%
X132740000Y-104950000D03*
X132740000Y-105970000D03*
%TD*%
D32*
%TO.C,C17*%
X148416053Y-99207422D03*
X146541053Y-99207422D03*
%TD*%
D37*
%TO.C,J2*%
X168210000Y-95330000D03*
X168210000Y-103730000D03*
D38*
X160910000Y-95330000D03*
X160910000Y-99530000D03*
X160910000Y-103730000D03*
X156710000Y-95330000D03*
X156710000Y-99530000D03*
X156710000Y-103730000D03*
%TD*%
D28*
%TO.C,R15*%
X133610000Y-95128570D03*
X132590000Y-95128570D03*
%TD*%
D32*
%TO.C,C2*%
X139416053Y-94857422D03*
X137541053Y-94857422D03*
%TD*%
D39*
%TO.C,C11*%
X150470000Y-86790000D03*
X150470000Y-88690000D03*
%TD*%
D18*
%TO.C,R8*%
X130800000Y-104970000D03*
X130800000Y-105990000D03*
%TD*%
D27*
%TO.C,J4*%
X160150000Y-76830000D03*
X157610000Y-76830000D03*
X155070000Y-76830000D03*
X152530000Y-76830000D03*
%TD*%
%TO.C,J6*%
X137283334Y-76830000D03*
X134743334Y-76830000D03*
X132203334Y-76830000D03*
X129663334Y-76830000D03*
%TD*%
D34*
%TO.C,R9*%
X122100000Y-89040000D03*
X123120000Y-89040000D03*
%TD*%
D40*
%TO.C,R5*%
X136680000Y-103865000D03*
X136680000Y-102845000D03*
%TD*%
D28*
%TO.C,R7*%
X119430000Y-103016666D03*
X118410000Y-103016666D03*
%TD*%
D41*
%TO.C,Q1*%
X160240000Y-88320000D03*
X159590000Y-88320000D03*
X158940000Y-88320000D03*
X158290000Y-88320000D03*
D42*
X159265000Y-90275000D03*
%TD*%
D43*
%TO.C,C20*%
X118440000Y-104230000D03*
X119400000Y-104230000D03*
%TD*%
D32*
%TO.C,C1*%
X139416053Y-93007422D03*
X137541053Y-93007422D03*
%TD*%
D23*
%TO.C,H2*%
X110641320Y-122311320D03*
%TD*%
D40*
%TO.C,R4*%
X136940000Y-106945000D03*
X136940000Y-105925000D03*
%TD*%
D33*
%TO.C,C10*%
X152100000Y-87000000D03*
X152100000Y-87960000D03*
%TD*%
D28*
%TO.C,R18*%
X119430000Y-101793333D03*
X118410000Y-101793333D03*
%TD*%
D23*
%TO.C,H3*%
X168641320Y-72811320D03*
%TD*%
D44*
%TO.C,C19*%
X149072500Y-112020000D03*
X142847500Y-112020000D03*
%TD*%
D34*
%TO.C,R10*%
X122100000Y-91491428D03*
X123120000Y-91491428D03*
%TD*%
D19*
%TO.C,C14*%
X138370000Y-106865000D03*
X138370000Y-105905000D03*
%TD*%
D34*
%TO.C,R11*%
X122100000Y-93942856D03*
X123120000Y-93942856D03*
%TD*%
D43*
%TO.C,C12*%
X139750000Y-106035000D03*
X140710000Y-106035000D03*
%TD*%
D35*
%TO.C,C6*%
X141091053Y-94857422D03*
X142966053Y-94857422D03*
%TD*%
D28*
%TO.C,R16*%
X133610000Y-97580000D03*
X132590000Y-97580000D03*
%TD*%
%TO.C,R14*%
X133610000Y-92677142D03*
X132590000Y-92677142D03*
%TD*%
D32*
%TO.C,C15*%
X148400000Y-95070000D03*
X146525000Y-95070000D03*
%TD*%
D27*
%TO.C,J7*%
X125850000Y-76830000D03*
X123310000Y-76830000D03*
X120770000Y-76830000D03*
X118230000Y-76830000D03*
%TD*%
D26*
%TO.C,TP2*%
X149690000Y-92790000D03*
%TD*%
D33*
%TO.C,C9*%
X136680000Y-99015000D03*
X136680000Y-99975000D03*
%TD*%
D18*
%TO.C,R1*%
X152090000Y-88940000D03*
X152090000Y-89960000D03*
%TD*%
D35*
%TO.C,C4*%
X141091053Y-93007422D03*
X142966053Y-93007422D03*
%TD*%
D45*
%TO.C,J1*%
X163741320Y-123511320D03*
D46*
X163741320Y-120971320D03*
X161201320Y-123511320D03*
X161201320Y-120971320D03*
X158661320Y-123511320D03*
X158661320Y-120971320D03*
X156121320Y-123511320D03*
X156121320Y-120971320D03*
X153581320Y-123511320D03*
X153581320Y-120971320D03*
X151041320Y-123511320D03*
X151041320Y-120971320D03*
X148501320Y-123511320D03*
X148501320Y-120971320D03*
X145961320Y-123511320D03*
X145961320Y-120971320D03*
X143421320Y-123511320D03*
X143421320Y-120971320D03*
X140881320Y-123511320D03*
X140881320Y-120971320D03*
X138341320Y-123511320D03*
X138341320Y-120971320D03*
X135801320Y-123511320D03*
X135801320Y-120971320D03*
X133261320Y-123511320D03*
X133261320Y-120971320D03*
X130721320Y-123511320D03*
X130721320Y-120971320D03*
X128181320Y-123511320D03*
X128181320Y-120971320D03*
X125641320Y-123511320D03*
X125641320Y-120971320D03*
X123101320Y-123511320D03*
X123101320Y-120971320D03*
X120561320Y-123511320D03*
X120561320Y-120971320D03*
X118021320Y-123511320D03*
X118021320Y-120971320D03*
X115481320Y-123511320D03*
X115481320Y-120971320D03*
%TD*%
%LPD*%
M02*
