#VRML V2.0 utf8
# 3D model generated by easyeda2kicad.py (https://github.com/uPesy/easyeda2kicad.py)

Shape{
    appearance Appearance {
        material  Material 	{
            diffuseColor 0.5882352941176471 0.5725490196078431 0.5254901960784314
            specularColor 0.043137254901960784 0.0392156862745098 0.0392156862745098
            ambientIntensity 0.2
            transparency 0
            shininess 0.5
        }
    }
    geometry IndexedFaceSet {
        ccw TRUE
        solid FALSE
        coord DEF co Coordinate {
            point [
                -1.5748 -0.8465 0.0, -1.5748 -0.6693 0.0, -0.5773 -0.6693 0.0, -0.689 0.4921 0.0, -0.8858 0.4921 0.0, -1.5748 0.9843 0.0, 0.8858 -0.2953 0.0, 0.8294 -0.2953 0.0, 0.8294 -0.2139 0.0, 0.689 0.2953 0.0, 0.8294 0.2953 0.0, 0.8294 0.2411 0.0, 0.6302 -0.2139 0.0, 0.6302 -0.2115 0.0, 0.773 -0.2115 0.0, 0.5713 -0.2115 0.0, 0.5545 -0.2139 0.0, 0.5713 -0.1683 0.0, 0.5545 0.1846 0.0, 0.6302 -0.1683 0.0, 0.2449 -0.1911 0.0, 0.168 -0.2115 0.0, 0.2449 -0.1479 0.0, 0.168 0.1822 0.0, 0.2868 -0.2083 0.0, 0.3266 -0.2139 0.0, 0.1332 -0.2139 0.0, 0.3027 0.1846 0.0, 0.2904 0.1838 0.0, 0.2449 0.1714 0.0, 0.2449 0.1186 0.0, 0.2892 0.1376 0.0, 0.2519 -0.1518 0.0, 0.3371 0.1438 0.0, 0.3758 0.1395 0.0, 0.4053 0.1288 0.0, 0.4325 0.1106 0.0, 0.4563 0.0843 0.0, 0.4849 -0.0188 0.0, 0.4809 -0.0615 0.0, 0.4702 -0.0953 0.0, 0.3826 -0.169 0.0, 0.3459 -0.1731 0.0, 0.4113 -0.1584 0.0, 0.4355 -0.1421 0.0, 0.454 -0.1226 0.0, 0.2937 -0.1673 0.0, 0.4726 0.0539 0.0, 0.483 0.0118 0.0, 0.4017 -0.2113 0.0, 0.4399 -0.1981 0.0, 0.4716 -0.1779 0.0, 0.5011 -0.1467 0.0, 0.5221 -0.1093 0.0, 0.5168 0.0788 0.0, 0.4937 0.1156 0.0, 0.458 0.1497 0.0, 0.4206 0.1712 0.0, 0.3767 0.1838 0.0, 0.3672 0.1846 0.0, 0.5545 0.2411 0.0, 0.3375 0.187 0.0, 0.1332 0.2411 0.0, 0.1332 0.1846 0.0, 0.1332 0.1822 0.0, 0.5339 -0.0676 0.0, 0.5377 -0.0221 0.0, 0.5321 0.0339 0.0, 0.1332 -0.6693 0.0, 0.3424 -0.2161 0.0, 0.5545 -0.6693 0.0, 0.3532 -0.2163 0.0, 0.3763 -0.2139 0.0, -0.0336 0.1822 0.0, -0.0336 0.139 0.0, -0.0708 0.1846 0.0, -0.0432 -0.1683 0.0, -0.0708 -0.2139 0.0, -0.0432 -0.2115 0.0, 0.1332 -0.2115 0.0, 0.1152 -0.0338 0.0, 0.1152 -0.1683 0.0, -0.024 -0.0338 0.0, -0.024 0.0094 0.0, 0.1152 0.0094 0.0, 0.1152 0.139 0.0, -0.0708 0.2953 0.0, 0.0984 0.2953 0.0, 0.0984 0.4921 0.0, -0.1092 0.2411 0.0, -0.1092 0.9843 0.0, -0.0984 0.4921 0.0, -0.1092 -0.2139 0.0, -0.0984 -0.2953 0.0, -0.0984 -0.4921 0.0, 1.5748 0.2411 0.0, 0.8858 0.2953 0.0, 1.5748 0.9843 0.0, 0.8858 0.4921 0.0, 0.8294 0.9843 0.0, 0.8294 0.4921 0.0, 0.6302 0.9843 0.0, 0.689 0.4921 0.0, 0.6302 0.2411 0.0, 1.5748 -0.2139 0.0, 1.5748 -0.6693 0.0, 0.8858 -0.4921 0.0, 0.8294 -0.6693 0.0, 0.8294 -0.4921 0.0, 0.773 0.1822 0.0, 0.8294 0.1846 0.0, 0.689 -0.2953 0.0, 0.689 -0.4921 0.0, 0.6302 -0.6693 0.0, -0.5773 0.1846 0.0, -0.5773 0.0838 0.0, -0.6146 0.1822 0.0, -0.7236 -0.1011 0.0, -0.5773 -0.1011 0.0, -0.7634 -0.2115 0.0, -0.5773 -0.2139 0.0, -0.821 -0.2115 0.0, -1.5748 -0.2139 0.0, -0.6674 0.1822 0.0, -1.5748 0.1846 0.0, -0.5609 -0.1011 0.0, -0.5233 -0.2115 0.0, -0.4513 -0.2139 0.0, -0.4657 -0.2115 0.0, -0.4513 0.1846 0.0, -1.5748 0.2411 0.0, -0.8858 0.2953 0.0, -0.689 0.2953 0.0, -0.5773 0.2411 0.0, -0.5773 0.9843 0.0, -0.0708 0.4921 0.0, -0.0708 0.9843 0.0, 0.1332 0.9843 0.0, 0.5545 0.9843 0.0, -0.4513 0.9843 0.0, -0.4513 0.2411 0.0, -0.0984 0.2953 0.0, -0.0708 0.2411 0.0, 0.6302 0.1846 0.0, 0.7202 0.1822 0.0, 0.7202 -0.1683 0.0, -0.4173 -0.1035 0.0, -0.3947 -0.1387 0.0, -0.3623 -0.1698 0.0, -0.3212 -0.1937 0.0, -0.1092 0.1846 0.0, -0.2311 0.1822 0.0, -0.288 0.1761 0.0, -0.3339 0.16 0.0, -0.3768 0.1313 0.0, -0.3777 0.1306 0.0, -0.4054 0.0997 0.0, -0.4236 0.0658 0.0, -0.2759 -0.2072 0.0, -0.2271 -0.2115 0.0, -0.12 -0.2115 0.0, -0.12 0.1822 0.0, -0.4341 0.027 0.0, -0.4369 -0.0097 0.0, -0.4314 -0.0624 0.0, 1.5748 0.1846 0.0, -0.689 -0.2953 0.0, -0.8858 -0.2953 0.0, -0.689 -0.4921 0.0, -0.8858 -0.4921 0.0, -0.0708 -0.2953 0.0, 0.0984 -0.2953 0.0, 0.0984 -0.4921 0.0, -0.0708 -0.4921 0.0, -0.0708 -0.6693 0.0, -0.1092 -0.6693 0.0, -0.4513 -0.6693 0.0, -0.5773 -0.8465 0.0, -0.4513 -0.8465 0.0, -0.1092 -0.8465 0.0, -0.0708 -0.8465 0.0, 0.1332 -0.8465 0.0, 0.5545 -0.8465 0.0, 0.6302 -0.8465 0.0, 0.8294 -0.8465 0.0, 1.5748 -0.8465 0.0, 0.1928 -0.8465 1.8416, 0.1969 -0.8465 1.811, 0.1093 -0.8465 1.9251, -0.1093 -0.8465 1.9251, -0.0787 -0.8465 1.9291, -0.1969 -0.8465 1.811, 0.1969 -0.8465 0.7087, -0.1969 -0.8465 0.7087, 0.0787 -0.8465 1.9291, -0.1928 -0.8465 1.8416, -0.181 -0.8465 1.8701, -0.1378 -0.8465 1.9133, -0.1623 -0.8465 1.8945, 0.181 -0.8465 1.8701, 0.1378 -0.8465 1.9133, 0.1623 -0.8465 1.8945, 1.1024 0.9843 1.9502, 1.135 0.9843 1.9753, -1.1757 0.9843 2.0459, -1.1811 0.9843 2.0866, -1.5748 0.9843 2.5591, -1.1811 0.9843 2.5591, -1.16 0.9843 2.0079, -1.135 0.9843 1.9753, -1.1024 0.9843 1.9502, 1.0644 0.9843 1.9345, 1.16 0.9843 2.0079, 1.1757 0.9843 2.0459, 1.5748 0.9843 2.5591, 1.1811 0.9843 2.0866, 1.1811 0.9843 2.5591, -1.0644 0.9843 1.9345, -1.0236 0.9843 1.9291, 1.0236 0.9843 1.9291, -0.9449 -0.9843 0.4331, 0.9449 -0.9843 0.4331, 0.1969 -0.9843 0.7087, 0.5906 -0.9843 0.7087, 1.1744 -0.9843 2.1931, 1.5748 -0.9843 2.5591, 1.1811 -0.9843 2.2441, 1.1811 -0.9843 2.5591, 1.3189 -0.9843 0.4331, 1.5748 -0.9843 0.4331, 1.3189 -0.9843 1.4173, 1.3149 -0.9843 1.4479, 1.1547 -0.9843 2.1457, 0.9489 -0.9843 1.4479, 0.9607 -0.9843 1.4764, 0.5906 -0.9843 1.9291, 0.9795 -0.9843 1.5008, 0.9449 -0.9843 1.4173, 1.0827 -0.9843 2.0736, 1.2598 -0.9843 1.5196, 1.2843 -0.9843 1.5008, 0.1093 -0.9843 1.9251, 0.1969 -0.9843 1.811, 0.1928 -0.9843 1.8416, 0.0787 -0.9843 1.9291, -0.0787 -0.9843 1.9291, -0.1969 -0.9843 1.811, -0.1093 -0.9843 1.9251, -0.1928 -0.9843 1.8416, -1.3149 -0.9843 1.4479, -1.3031 -0.9843 1.4764, -1.5748 -0.9843 2.5591, -1.2843 -0.9843 1.5008, -1.2598 -0.9843 1.5196, -1.1811 -0.9843 2.2441, -1.1811 -0.9843 2.5591, 1.0039 -0.9843 1.5196, 0.7087 -0.9843 2.0472, 0.6781 -0.9843 2.0432, 1.1234 -0.9843 2.1049, 1.3031 -0.9843 1.4764, -1.3189 -0.9843 1.4173, -1.5748 -0.9843 0.4331, -1.3189 -0.9843 0.4331, 0.6251 -0.9843 2.0127, 0.6064 -0.9843 1.9882, 0.5946 -0.9843 1.9597, 0.181 -0.9843 1.8701, 0.1623 -0.9843 1.8945, 0.1378 -0.9843 1.9133, -1.0352 -0.9843 2.054, -1.0827 -0.9843 2.0736, -1.2314 -0.9843 1.5314, 0.6496 -0.9843 2.0314, 1.0352 -0.9843 2.054, 1.2008 -0.9843 1.5354, 1.2314 -0.9843 1.5314, -0.181 -0.9843 1.8701, -0.1378 -0.9843 1.9133, -0.1623 -0.9843 1.8945, -0.9795 -0.9843 1.5008, -0.9607 -0.9843 1.4764, -0.5906 -0.9843 1.9291, -0.1969 -0.9843 0.7087, -0.5906 -0.9843 0.7087, -0.9449 -0.9843 1.4173, -0.9489 -0.9843 1.4479, 0.9843 -0.9843 2.0472, 1.0324 -0.9843 1.5314, 1.063 -0.9843 1.5354, -1.1234 -0.9843 2.1049, -1.1547 -0.9843 2.1457, -1.1744 -0.9843 2.1931, -1.2008 -0.9843 1.5354, -1.063 -0.9843 1.5354, -0.9843 -0.9843 2.0472, -1.0324 -0.9843 1.5314, -0.7087 -0.9843 2.0472, -1.0039 -0.9843 1.5196, -0.6781 -0.9843 2.0432, -0.5946 -0.9843 1.9597, -0.6064 -0.9843 1.9882, -0.6251 -0.9843 2.0127, -0.6496 -0.9843 2.0314, 1.1757 0.8465 2.0459, 1.3189 0.8465 0.7087, 1.1811 0.8465 2.0866, 1.3189 0.8465 2.5591, 1.1811 0.8465 2.5591, 1.16 0.8465 2.0079, 1.135 0.8465 1.9753, 1.1024 0.8465 1.9502, -1.0644 0.8465 1.9345, -1.1024 0.8465 1.9502, -1.3189 0.8465 0.7087, -1.135 0.8465 1.9753, -1.16 0.8465 2.0079, -1.1757 0.8465 2.0459, -1.1811 0.8465 2.0866, -1.3189 0.8465 2.5591, -1.1811 0.8465 2.5591, 1.0644 0.8465 1.9345, 1.0236 0.8465 1.9291, -1.0236 0.8465 1.9291, 1.1024 -0.8465 0.7087, 1.3189 -0.8465 0.7087, 1.3189 -0.7382 0.7087, 0.3937 -0.9843 0.7087, 0.3937 -0.7382 0.7087, -0.3937 -0.7382 0.7087, -0.3937 -0.9843 0.7087, -0.5906 -0.8465 0.7087, -0.9449 -0.8465 0.7087, -1.3189 -0.7382 0.7087, -1.3189 -0.8465 0.7087, 0.5906 -0.8465 0.7087, 1.1024 -0.7382 0.7087, 0.9449 -0.8465 0.7087, -0.689 0.4921 0.7087, -0.3937 0.8465 0.7087, -0.8858 0.4921 0.7087, -0.8858 0.3937 0.7087, -1.3189 0.3937 0.7087, -0.8858 0.2953 0.7087, -1.3189 0.0 0.7087, -0.689 0.2953 0.7087, -0.3937 0.0 0.7087, -0.689 0.3937 0.7087, -0.3937 0.3937 0.7087, 0.0984 0.4921 0.7087, 0.3937 0.8465 0.7087, -0.0984 0.4921 0.7087, -0.0984 0.3937 0.7087, -0.0984 0.2953 0.7087, 0.0984 0.2953 0.7087, 0.3937 0.0 0.7087, 0.0984 0.3937 0.7087, 0.3937 0.3937 0.7087, 0.8858 0.4921 0.7087, 1.1024 0.8465 0.7087, 0.689 0.4921 0.7087, 0.689 0.3937 0.7087, 0.689 0.2953 0.7087, 0.8858 0.2953 0.7087, 1.1024 0.0 0.7087, 0.8858 0.3937 0.7087, 1.1024 0.3937 0.7087, -0.8858 -0.2953 0.7087, -0.8858 -0.4921 0.7087, -0.689 -0.4921 0.7087, -0.689 -0.2953 0.7087, -0.0984 -0.2953 0.7087, -0.0984 -0.4921 0.7087, 0.0984 -0.4921 0.7087, 0.0984 -0.2953 0.7087, 0.689 -0.2953 0.7087, 0.689 -0.4921 0.7087, 0.8858 -0.4921 0.7087, 0.8858 -0.2953 0.7087, 1.3189 0.0 0.7087, 1.3189 0.3937 0.7087, -1.3189 0.5906 2.5591, -1.5748 0.5906 2.5591, -1.5748 0.0264 1.3583, -1.5748 -0.8465 0.4331, -1.5748 0.0577 1.3175, -1.5748 -0.0 2.3622, -1.5748 -0.0 1.4567, -1.5748 0.0067 1.4057, -1.5748 0.0984 1.2862, -1.5748 0.1459 1.2665, -1.5748 0.1969 1.2598, -1.5748 0.2478 1.2665, -1.5748 0.2953 1.2862, -1.5748 0.336 1.3175, -1.5748 0.3673 1.3583, -1.5748 -0.1969 2.5591, -1.5748 -0.1459 2.5523, -1.5748 0.387 1.4057, -1.5748 0.3937 1.4567, -1.5748 0.3937 2.3622, -1.5748 0.5396 2.5523, -1.5748 0.4201 2.4606, -1.5748 0.4514 2.5014, -1.5748 0.4921 2.5327, -1.5748 -0.0984 2.5327, -1.5748 -0.0577 2.5014, -1.5748 -0.0067 2.4132, -1.5748 -0.0264 2.4606, -1.5748 0.4004 2.4132, -1.3189 -0.1969 2.5591, -1.3189 -0.8465 2.5591, -1.1811 -0.8465 2.5591, -1.3149 -0.8465 1.4479, -1.3189 -0.8465 1.4173, -0.5906 -0.8465 1.9291, -0.9449 -0.8465 1.4173, -0.9489 -0.8465 1.4479, -0.9607 -0.8465 1.4764, -0.9795 -0.8465 1.5008, -0.5946 -0.8465 1.9597, -1.1744 -0.8465 2.1931, -1.1547 -0.8465 2.1457, -1.1234 -0.8465 2.1049, -1.0827 -0.8465 2.0736, -1.2598 -0.8465 1.5196, -1.2843 -0.8465 1.5008, -1.3031 -0.8465 1.4764, -0.6781 -0.8465 2.0432, -0.6496 -0.8465 2.0314, -1.1811 -0.8465 2.2441, -1.0352 -0.8465 2.054, -1.2008 -0.8465 1.5354, -1.2314 -0.8465 1.5314, -0.6251 -0.8465 2.0127, -0.6064 -0.8465 1.9882, -0.7087 -0.8465 2.0472, -1.0039 -0.8465 1.5196, -0.9843 -0.8465 2.0472, -1.0324 -0.8465 1.5314, -1.063 -0.8465 1.5354, -1.3189 0.1969 1.2598, -1.3189 0.1459 1.2665, -1.3189 -0.8465 0.4331, -1.3189 0.387 1.4057, -1.3189 0.3673 1.3583, -1.3189 0.336 1.3175, -1.3189 0.2953 1.2862, -1.3189 0.2478 1.2665, -1.3189 0.0984 1.2862, -1.3189 0.0577 1.3175, -1.3189 0.0264 1.3583, -1.3189 0.3937 2.3622, -1.3189 0.3937 1.4567, -1.3189 0.5396 2.5523, -1.3189 0.4921 2.5327, -1.3189 0.4514 2.5014, -1.3189 0.4201 2.4606, -1.3189 0.4004 2.4132, -1.3189 0.0067 1.4057, -1.3189 0.0 1.4567, -1.3189 0.0 2.3622, -1.3189 -0.0067 2.4132, -1.3189 -0.0984 2.5327, -1.3189 -0.1459 2.5523, -1.3189 -0.0577 2.5014, -1.3189 -0.0264 2.4606, -0.9449 -0.8465 0.4331, 1.5748 -0.8465 0.4331, 1.3189 -0.8465 0.4331, 0.9449 -0.8465 0.4331, 1.3189 0.5906 2.5591, 1.5748 0.5906 2.5591, 1.5748 0.3937 1.4567, 1.5748 0.387 1.4057, 1.5748 0.3937 2.3622, 1.5748 0.0067 1.4057, 1.5748 -0.0 1.4567, 1.5748 -0.1969 2.5591, 1.5748 0.3673 1.3583, 1.5748 0.336 1.3175, 1.5748 0.2953 1.2862, 1.5748 0.0984 1.2862, 1.5748 0.0577 1.3175, 1.5748 0.0264 1.3583, 1.5748 0.2478 1.2665, 1.5748 0.1969 1.2598, 1.5748 0.1459 1.2665, 1.5748 -0.0577 2.5014, 1.5748 -0.0984 2.5327, 1.5748 -0.1459 2.5523, 1.5748 0.5396 2.5523, 1.5748 -0.0 2.3622, 1.5748 -0.0067 2.4132, 1.5748 -0.0264 2.4606, 1.5748 0.4921 2.5327, 1.5748 0.4514 2.5014, 1.5748 0.4201 2.4606, 1.5748 0.4004 2.4132, 1.1811 -0.8465 2.5591, 1.3189 -0.8465 2.5591, 1.3189 -0.1969 2.5591, 1.1234 -0.8465 2.1049, 1.3149 -0.8465 1.4479, 1.0827 -0.8465 2.0736, 1.3031 -0.8465 1.4764, 1.2843 -0.8465 1.5008, 1.1547 -0.8465 2.1457, 1.1744 -0.8465 2.1931, 1.1811 -0.8465 2.2441, 1.2598 -0.8465 1.5196, 1.2314 -0.8465 1.5314, 1.0352 -0.8465 2.054, 0.9449 -0.8465 1.4173, 0.5906 -0.8465 1.9291, 0.9489 -0.8465 1.4479, 0.9607 -0.8465 1.4764, 1.3189 -0.8465 1.4173, 1.2008 -0.8465 1.5354, 1.063 -0.8465 1.5354, 0.9843 -0.8465 2.0472, 1.0324 -0.8465 1.5314, 0.7087 -0.8465 2.0472, 1.0039 -0.8465 1.5196, 0.6781 -0.8465 2.0432, 0.9795 -0.8465 1.5008, 0.5946 -0.8465 1.9597, 0.6064 -0.8465 1.9882, 0.6251 -0.8465 2.0127, 0.6496 -0.8465 2.0314, 1.3189 0.336 1.3175, 1.3189 0.3673 1.3583, 1.3189 0.0 2.3622, 1.3189 0.0 1.4567, 1.3189 0.0067 1.4057, 1.3189 0.0264 1.3583, 1.3189 0.0577 1.3175, 1.3189 0.0984 1.2862, 1.3189 0.1459 1.2665, 1.3189 0.1969 1.2598, 1.3189 0.387 1.4057, 1.3189 0.3937 1.4567, 1.3189 -0.1459 2.5523, 1.3189 0.2478 1.2665, 1.3189 0.2953 1.2862, 1.3189 0.4514 2.5014, 1.3189 0.4921 2.5327, 1.3189 0.5396 2.5523, 1.3189 -0.0984 2.5327, 1.3189 -0.0577 2.5014, 1.3189 -0.0264 2.4606, 1.3189 -0.0067 2.4132, 1.3189 0.3937 2.3622, 1.3189 0.4004 2.4132, 1.3189 0.4201 2.4606, 1.3189 0.4201 2.4606
            ]
        }
        coordIndex [
            0,1,2,-1,3,4,5,-1,6,7,8,-1,9,10,11,-1,12,13,14,-1,13,12,15,-1,15,12,16,-1,15,16,17,-1,17,16,18,-1,17,18,19,-1,20,21,22,-1,22,21,23,-1,20,24,21,-1,21,24,25,-1,21,25,26,-1,23,27,28,-1,28,29,23,-1,23,29,30,-1,23,30,22,-1,22,30,31,-1,22,31,32,-1,32,31,33,-1,32,33,34,-1,34,35,32,-1,32,35,36,-1,32,36,37,-1,38,39,32,-1,32,39,40,-1,41,42,43,-1,43,42,44,-1,40,45,32,-1,32,45,44,-1,32,44,46,-1,46,44,42,-1,37,47,32,-1,32,47,48,-1,32,48,38,-1,49,50,16,-1,50,51,16,-1,16,51,52,-1,16,52,53,-1,54,55,18,-1,18,55,56,-1,18,56,57,-1,57,58,18,-1,18,58,59,-1,18,59,60,-1,60,59,61,-1,60,61,62,-1,62,61,27,-1,62,27,63,-1,63,27,23,-1,63,23,64,-1,53,65,16,-1,16,65,66,-1,16,66,18,-1,18,66,67,-1,18,67,54,-1,26,25,68,-1,68,25,69,-1,68,69,70,-1,70,69,71,-1,70,71,72,-1,73,74,75,-1,75,74,76,-1,75,76,77,-1,77,76,78,-1,77,78,26,-1,26,78,79,-1,26,79,21,-1,80,81,82,-1,82,81,76,-1,82,76,83,-1,83,76,74,-1,83,74,84,-1,84,74,85,-1,86,87,62,-1,62,87,88,-1,89,90,91,-1,92,93,94,-1,95,96,97,-1,97,96,98,-1,97,98,99,-1,99,98,100,-1,99,100,101,-1,101,100,102,-1,101,102,103,-1,104,105,106,-1,106,105,107,-1,106,107,108,-1,109,110,14,-1,14,110,8,-1,14,8,12,-1,12,8,7,-1,12,7,111,-1,108,107,112,-1,112,107,113,-1,112,113,111,-1,114,115,116,-1,117,118,119,-1,119,118,120,-1,121,122,123,-1,123,122,124,-1,118,125,120,-1,120,125,126,-1,120,126,127,-1,127,126,128,-1,127,128,129,-1,5,4,130,-1,131,132,133,-1,133,132,3,-1,133,3,134,-1,134,3,5,-1,91,90,135,-1,135,90,136,-1,135,136,88,-1,88,136,137,-1,88,137,62,-1,62,137,138,-1,62,138,60,-1,4,131,130,-1,130,131,133,-1,130,133,124,-1,124,133,114,-1,124,114,123,-1,123,114,116,-1,134,139,133,-1,133,139,140,-1,133,140,114,-1,114,140,129,-1,114,129,115,-1,115,129,128,-1,141,86,142,-1,142,86,62,-1,142,62,75,-1,75,62,63,-1,75,63,73,-1,73,63,64,-1,138,101,60,-1,60,101,103,-1,60,103,18,-1,18,103,143,-1,18,143,19,-1,19,143,144,-1,19,144,145,-1,102,9,103,-1,103,9,11,-1,103,11,143,-1,143,11,110,-1,143,110,144,-1,144,110,109,-1,146,147,127,-1,127,147,148,-1,127,148,149,-1,139,90,140,-1,140,90,89,-1,140,89,129,-1,129,89,150,-1,129,150,151,-1,151,152,129,-1,129,152,153,-1,129,153,154,-1,154,155,129,-1,129,155,156,-1,129,156,157,-1,149,158,127,-1,127,158,159,-1,127,159,92,-1,92,159,160,-1,92,160,150,-1,150,160,161,-1,150,161,151,-1,157,162,129,-1,129,162,163,-1,129,163,127,-1,127,163,164,-1,127,164,146,-1,91,141,89,-1,89,141,142,-1,89,142,150,-1,150,142,75,-1,150,75,92,-1,92,75,77,-1,10,96,11,-1,11,96,95,-1,11,95,110,-1,110,95,165,-1,110,165,8,-1,8,165,104,-1,8,104,6,-1,6,104,106,-1,120,166,167,-1,168,2,169,-1,169,2,1,-1,169,1,167,-1,167,1,122,-1,167,122,120,-1,120,122,121,-1,120,121,119,-1,93,92,170,-1,170,92,77,-1,170,77,171,-1,171,77,26,-1,171,26,172,-1,172,26,68,-1,172,68,173,-1,173,68,174,-1,173,174,94,-1,94,174,175,-1,94,175,92,-1,92,175,176,-1,92,176,127,-1,127,176,2,-1,127,2,120,-1,120,2,168,-1,120,168,166,-1,111,113,12,-1,12,113,70,-1,12,70,16,-1,16,70,72,-1,16,72,49,-1,0,2,177,-1,177,2,176,-1,177,176,178,-1,178,176,175,-1,178,175,179,-1,179,175,174,-1,179,174,180,-1,180,174,68,-1,180,68,181,-1,181,68,70,-1,181,70,182,-1,182,70,113,-1,182,113,183,-1,183,113,107,-1,183,107,184,-1,184,107,105,-1,184,105,185,-1,186,187,188,-1,189,190,191,-1,192,193,187,-1,187,193,191,-1,191,190,187,-1,187,190,194,-1,187,194,188,-1,191,195,189,-1,189,195,196,-1,189,196,197,-1,197,196,198,-1,186,188,199,-1,199,188,200,-1,199,200,201,-1,202,203,97,-1,204,5,205,-1,205,5,206,-1,205,206,207,-1,204,208,5,-1,5,208,209,-1,5,209,210,-1,202,97,211,-1,203,212,97,-1,97,212,213,-1,97,213,214,-1,214,213,215,-1,214,215,216,-1,210,217,5,-1,5,217,218,-1,5,218,97,-1,97,218,219,-1,97,219,211,-1,220,221,222,-1,222,221,223,-1,224,225,226,-1,226,225,227,-1,228,229,230,-1,230,229,225,-1,230,225,231,-1,231,225,224,-1,231,224,232,-1,233,234,235,-1,235,234,236,-1,223,221,235,-1,235,221,237,-1,235,237,233,-1,238,239,240,-1,241,242,243,-1,244,245,246,-1,246,245,247,-1,246,247,248,-1,249,250,251,-1,251,250,252,-1,251,252,253,-1,254,255,251,-1,256,257,258,-1,232,259,231,-1,231,259,238,-1,231,238,260,-1,260,238,240,-1,249,251,261,-1,261,251,262,-1,261,262,263,-1,264,265,236,-1,236,265,266,-1,236,266,235,-1,243,267,241,-1,241,267,268,-1,241,268,269,-1,270,271,272,-1,272,271,253,-1,256,258,236,-1,236,258,273,-1,236,273,264,-1,274,275,238,-1,238,275,276,-1,238,276,239,-1,248,247,277,-1,277,247,278,-1,277,278,279,-1,280,281,282,-1,241,244,242,-1,242,244,246,-1,242,246,222,-1,222,246,283,-1,222,283,220,-1,220,283,284,-1,220,284,285,-1,285,284,282,-1,285,282,286,-1,286,282,281,-1,257,256,287,-1,287,256,288,-1,287,288,274,-1,274,288,289,-1,274,289,275,-1,271,290,253,-1,253,290,291,-1,253,291,251,-1,251,291,292,-1,251,292,254,-1,272,293,270,-1,270,293,294,-1,270,294,295,-1,295,294,296,-1,295,296,297,-1,297,296,298,-1,297,298,299,-1,280,282,298,-1,298,282,300,-1,298,300,301,-1,301,302,298,-1,298,302,303,-1,298,303,299,-1,304,305,306,-1,306,305,307,-1,306,307,308,-1,304,309,305,-1,305,309,310,-1,305,310,311,-1,312,313,314,-1,314,313,315,-1,314,315,316,-1,316,317,314,-1,314,317,318,-1,314,318,319,-1,319,318,320,-1,311,321,305,-1,305,321,322,-1,305,322,314,-1,314,322,323,-1,314,323,312,-1,324,325,326,-1,222,327,192,-1,192,327,328,-1,192,328,193,-1,193,328,329,-1,193,329,283,-1,283,329,330,-1,284,330,331,-1,331,330,329,-1,331,329,332,-1,332,329,333,-1,332,333,334,-1,327,223,328,-1,328,223,335,-1,328,335,336,-1,336,335,337,-1,336,337,324,-1,338,339,340,-1,340,339,314,-1,340,314,341,-1,341,314,342,-1,341,342,343,-1,343,342,344,-1,343,344,345,-1,345,344,346,-1,345,346,347,-1,347,346,348,-1,347,348,338,-1,338,348,339,-1,349,350,351,-1,351,350,339,-1,351,339,352,-1,352,339,348,-1,352,348,353,-1,353,348,346,-1,353,346,354,-1,354,346,355,-1,354,355,356,-1,356,355,357,-1,356,357,349,-1,349,357,350,-1,358,359,360,-1,360,359,350,-1,360,350,361,-1,361,350,357,-1,361,357,362,-1,362,357,355,-1,362,355,363,-1,363,355,364,-1,363,364,365,-1,365,364,366,-1,365,366,358,-1,358,366,359,-1,367,344,368,-1,368,344,333,-1,368,333,369,-1,369,333,329,-1,369,329,370,-1,370,329,346,-1,370,346,367,-1,367,346,344,-1,371,346,372,-1,372,346,329,-1,372,329,373,-1,373,329,328,-1,373,328,374,-1,374,328,355,-1,374,355,371,-1,371,355,346,-1,375,355,376,-1,376,355,328,-1,376,328,377,-1,377,328,336,-1,377,336,378,-1,378,336,364,-1,378,364,375,-1,375,364,355,-1,324,326,336,-1,336,326,379,-1,336,379,364,-1,364,379,380,-1,364,380,366,-1,366,380,305,-1,366,305,359,-1,320,207,319,-1,319,207,206,-1,319,206,381,-1,381,206,382,-1,382,206,5,-1,262,383,384,-1,384,383,385,-1,384,385,0,-1,386,387,262,-1,262,387,388,-1,262,388,383,-1,385,389,0,-1,0,389,390,-1,0,390,5,-1,5,390,391,-1,5,391,392,-1,392,393,5,-1,5,393,394,-1,5,394,395,-1,262,251,386,-1,386,251,396,-1,386,396,397,-1,395,398,5,-1,5,398,399,-1,5,399,382,-1,382,399,400,-1,382,400,401,-1,402,403,404,-1,397,405,386,-1,386,405,406,-1,386,406,407,-1,407,406,408,-1,401,400,404,-1,404,400,409,-1,404,409,402,-1,410,396,411,-1,411,396,251,-1,411,251,412,-1,412,251,255,-1,413,414,411,-1,331,332,415,-1,415,332,416,-1,415,416,417,-1,417,418,415,-1,415,418,419,-1,415,419,420,-1,421,422,413,-1,413,422,423,-1,413,423,424,-1,425,426,424,-1,424,426,427,-1,424,427,413,-1,419,428,429,-1,421,413,430,-1,430,413,411,-1,430,411,412,-1,431,432,424,-1,424,432,433,-1,424,433,425,-1,429,434,419,-1,419,434,435,-1,419,435,420,-1,428,419,436,-1,436,419,437,-1,436,437,438,-1,438,437,439,-1,438,439,431,-1,431,439,440,-1,431,440,432,-1,410,411,414,-1,441,442,314,-1,263,443,334,-1,444,445,314,-1,314,445,446,-1,446,447,314,-1,314,447,448,-1,314,448,441,-1,449,450,414,-1,414,450,451,-1,442,449,314,-1,314,449,414,-1,314,414,334,-1,334,414,261,-1,334,261,263,-1,319,452,314,-1,314,452,453,-1,314,453,444,-1,319,381,452,-1,452,381,454,-1,452,454,455,-1,456,457,455,-1,455,457,458,-1,455,458,452,-1,451,459,414,-1,414,459,460,-1,414,460,410,-1,410,460,461,-1,410,461,462,-1,463,464,465,-1,465,464,410,-1,465,410,466,-1,466,410,462,-1,461,460,386,-1,386,460,387,-1,453,452,399,-1,399,452,400,-1,396,410,464,-1,396,464,397,-1,397,464,463,-1,397,463,405,-1,405,463,465,-1,405,465,406,-1,406,465,466,-1,406,466,408,-1,408,466,462,-1,408,462,407,-1,407,462,461,-1,407,461,386,-1,391,441,392,-1,392,441,448,-1,392,448,393,-1,393,448,447,-1,393,447,394,-1,394,447,446,-1,394,446,395,-1,395,446,445,-1,395,445,398,-1,398,445,444,-1,398,444,399,-1,399,444,453,-1,441,391,442,-1,442,391,390,-1,442,390,449,-1,449,390,389,-1,449,389,450,-1,450,389,385,-1,450,385,451,-1,451,385,383,-1,451,383,459,-1,459,383,388,-1,459,388,460,-1,460,388,387,-1,381,382,401,-1,381,401,454,-1,454,401,404,-1,454,404,455,-1,455,404,403,-1,455,403,456,-1,456,403,402,-1,456,402,457,-1,457,402,409,-1,457,409,458,-1,458,409,400,-1,458,400,452,-1,467,332,334,-1,384,0,443,-1,443,0,185,-1,185,468,469,-1,325,337,469,-1,469,337,470,-1,469,470,185,-1,185,470,467,-1,185,467,443,-1,443,467,334,-1,432,440,293,-1,293,440,294,-1,285,416,220,-1,220,416,332,-1,220,332,467,-1,191,193,246,-1,246,193,283,-1,282,284,415,-1,415,284,331,-1,384,443,262,-1,262,443,263,-1,221,220,470,-1,470,220,467,-1,436,438,297,-1,297,438,295,-1,430,412,254,-1,254,412,255,-1,430,254,421,-1,421,254,292,-1,421,292,422,-1,422,292,291,-1,422,291,423,-1,423,291,290,-1,423,290,424,-1,424,290,271,-1,424,271,431,-1,431,271,270,-1,431,270,438,-1,438,270,295,-1,322,219,323,-1,323,219,218,-1,205,318,204,-1,204,318,317,-1,204,317,208,-1,208,317,316,-1,208,316,209,-1,209,316,315,-1,209,315,210,-1,210,315,313,-1,210,313,217,-1,217,313,312,-1,217,312,218,-1,218,312,323,-1,318,205,320,-1,320,205,207,-1,245,244,190,-1,190,244,194,-1,261,414,249,-1,249,414,413,-1,249,413,250,-1,250,413,427,-1,250,427,252,-1,252,427,426,-1,252,426,253,-1,253,426,425,-1,253,425,272,-1,272,425,433,-1,272,433,293,-1,293,433,432,-1,294,440,296,-1,296,440,439,-1,296,439,298,-1,298,439,437,-1,298,437,280,-1,280,437,419,-1,280,419,281,-1,281,419,418,-1,281,418,286,-1,286,418,417,-1,286,417,285,-1,285,417,416,-1,436,297,299,-1,436,299,428,-1,428,299,303,-1,428,303,429,-1,429,303,302,-1,429,302,434,-1,434,302,301,-1,434,301,435,-1,435,301,300,-1,435,300,420,-1,420,300,282,-1,420,282,415,-1,191,246,248,-1,191,248,195,-1,195,248,277,-1,195,277,196,-1,196,277,279,-1,196,279,198,-1,198,279,278,-1,198,278,197,-1,197,278,247,-1,197,247,189,-1,189,247,245,-1,189,245,190,-1,471,472,307,-1,307,472,214,-1,307,214,308,-1,308,214,216,-1,473,474,97,-1,473,97,475,-1,476,477,229,-1,229,477,478,-1,229,478,225,-1,474,479,97,-1,97,479,480,-1,97,480,481,-1,185,482,468,-1,468,482,483,-1,468,483,229,-1,229,483,484,-1,229,484,476,-1,481,485,97,-1,97,485,486,-1,97,486,185,-1,185,486,487,-1,185,487,482,-1,488,489,490,-1,97,214,475,-1,475,214,472,-1,475,472,491,-1,477,492,478,-1,478,492,493,-1,478,493,490,-1,490,493,494,-1,490,494,488,-1,491,495,496,-1,496,497,491,-1,491,497,498,-1,491,498,475,-1,499,227,500,-1,500,227,225,-1,500,225,501,-1,501,225,478,-1,502,503,504,-1,504,503,505,-1,504,505,506,-1,502,507,503,-1,503,507,508,-1,503,508,509,-1,506,510,504,-1,504,510,511,-1,504,511,512,-1,337,335,513,-1,513,335,514,-1,513,514,515,-1,515,514,516,-1,517,503,500,-1,500,503,509,-1,500,509,499,-1,511,518,512,-1,512,518,519,-1,512,519,520,-1,520,519,521,-1,520,521,522,-1,522,521,523,-1,522,523,524,-1,524,523,525,-1,516,514,525,-1,525,514,526,-1,525,526,527,-1,527,528,525,-1,525,528,529,-1,525,529,524,-1,471,307,305,-1,530,531,305,-1,532,533,517,-1,533,534,517,-1,517,534,535,-1,517,535,536,-1,537,538,305,-1,305,538,539,-1,531,540,305,-1,305,540,541,-1,305,541,471,-1,517,500,532,-1,532,500,501,-1,532,501,542,-1,536,537,517,-1,517,537,305,-1,517,305,230,-1,230,305,325,-1,230,325,228,-1,228,325,469,-1,539,543,305,-1,305,543,544,-1,305,544,530,-1,545,546,547,-1,542,548,549,-1,549,550,542,-1,542,550,551,-1,542,551,532,-1,541,552,471,-1,471,552,553,-1,471,553,547,-1,547,553,554,-1,547,554,545,-1,533,532,477,-1,477,532,492,-1,552,541,475,-1,475,541,473,-1,492,532,551,-1,492,551,493,-1,493,551,550,-1,493,550,494,-1,494,550,549,-1,494,549,488,-1,488,549,548,-1,488,548,489,-1,489,548,542,-1,489,542,490,-1,490,542,501,-1,490,501,478,-1,473,541,474,-1,474,541,540,-1,474,540,479,-1,479,540,531,-1,479,531,480,-1,480,531,530,-1,480,530,481,-1,481,530,544,-1,481,544,485,-1,485,544,543,-1,485,543,486,-1,486,543,539,-1,533,477,534,-1,534,477,476,-1,534,476,535,-1,535,476,484,-1,535,484,536,-1,536,484,483,-1,536,483,537,-1,537,483,482,-1,537,482,538,-1,538,482,487,-1,538,487,539,-1,539,487,486,-1,552,475,498,-1,552,498,553,-1,553,498,497,-1,553,497,554,-1,554,497,496,-1,554,496,545,-1,545,496,495,-1,545,495,546,-1,546,495,491,-1,546,491,547,-1,547,491,472,-1,547,472,471,-1,519,518,289,-1,289,518,275,-1,513,237,337,-1,337,237,221,-1,337,221,470,-1,192,187,222,-1,222,187,242,-1,223,235,335,-1,335,235,514,-1,469,468,228,-1,228,468,229,-1,520,522,287,-1,287,522,257,-1,499,509,227,-1,227,509,226,-1,520,287,512,-1,512,287,274,-1,512,274,504,-1,504,274,238,-1,504,238,502,-1,502,238,259,-1,502,259,507,-1,507,259,232,-1,507,232,508,-1,508,232,224,-1,508,224,509,-1,509,224,226,-1,219,322,211,-1,211,322,321,-1,211,321,202,-1,202,321,311,-1,202,311,203,-1,203,311,310,-1,203,310,212,-1,212,310,309,-1,212,309,213,-1,213,309,304,-1,213,304,215,-1,215,304,306,-1,215,306,216,-1,216,306,308,-1,275,518,276,-1,276,518,511,-1,276,511,239,-1,239,511,510,-1,239,510,240,-1,240,510,506,-1,240,506,260,-1,260,506,505,-1,260,505,231,-1,231,505,503,-1,231,503,230,-1,230,503,517,-1,237,513,233,-1,233,513,515,-1,233,515,234,-1,234,515,516,-1,234,516,236,-1,236,516,525,-1,236,525,256,-1,256,525,523,-1,256,523,288,-1,288,523,521,-1,288,521,289,-1,289,521,519,-1,514,235,266,-1,514,266,526,-1,526,266,265,-1,526,265,527,-1,527,265,264,-1,527,264,528,-1,528,264,273,-1,528,273,529,-1,529,273,258,-1,529,258,524,-1,524,258,257,-1,524,257,522,-1,194,244,241,-1,194,241,188,-1,188,241,269,-1,188,269,200,-1,200,269,268,-1,200,268,201,-1,201,268,267,-1,201,267,199,-1,199,267,243,-1,199,243,186,-1,186,243,242,-1,186,242,187,-1,
        ]
    }
}
Shape{
    appearance Appearance {
        material  Material 	{
            diffuseColor 0.6666666666666666 0.6666666666666666 0.6666666666666666
            specularColor 0.4666666666666667 0.4666666666666667 0.4666666666666667
            ambientIntensity 0.2
            transparency 0
            shininess 0.5
        }
    }
    geometry IndexedFaceSet {
        ccw TRUE
        solid FALSE
        coord DEF co Coordinate {
            point [
                -0.7283 0.3346 1.8898, -0.7283 0.4528 1.8898, -0.8465 0.3346 1.8898, -0.8465 0.4528 1.8898, -0.689 0.2953 1.7428, -0.689 0.2953 0.7087, -0.689 0.4921 1.7428, -0.689 0.4921 0.7087, -0.8858 0.2953 1.7428, -0.8858 0.2953 0.7087, -0.8858 0.4921 1.7428, -0.8858 0.4921 0.7087, -0.7283 0.4528 -1.1811, -0.7283 0.3346 -1.1811, -0.8465 0.4528 -1.1811, -0.8465 0.3346 -1.1811, -0.8858 0.4921 -1.0342, -0.8858 0.4921 0.0, -0.689 0.4921 -1.0342, -0.689 0.4921 0.0, -0.8858 0.2953 -1.0342, -0.8858 0.2953 0.0, -0.689 0.2953 -1.0342, -0.689 0.2953 0.0, -0.7283 -0.4528 1.8898, -0.7283 -0.3346 1.8898, -0.8465 -0.4528 1.8898, -0.8465 -0.3346 1.8898, -0.689 -0.4921 1.7428, -0.689 -0.4921 0.7087, -0.689 -0.2953 1.7428, -0.689 -0.2953 0.7087, -0.8858 -0.4921 1.7428, -0.8858 -0.4921 0.7087, -0.8858 -0.2953 1.7428, -0.8858 -0.2953 0.7087, -0.7283 -0.3346 -1.1811, -0.7283 -0.4528 -1.1811, -0.8465 -0.3346 -1.1811, -0.8465 -0.4528 -1.1811, -0.8858 -0.2953 -1.0342, -0.8858 -0.2953 0.0, -0.689 -0.2953 -1.0342, -0.689 -0.2953 0.0, -0.8858 -0.4921 -1.0342, -0.8858 -0.4921 0.0, -0.689 -0.4921 -1.0342, -0.689 -0.4921 0.0, 0.0591 0.3346 1.8898, 0.0591 0.4528 1.8898, -0.0591 0.3346 1.8898, -0.0591 0.4528 1.8898, 0.0984 0.4921 0.7087, 0.0984 0.4921 1.7428, 0.0984 0.3937 0.7087, 0.0984 0.2953 1.7428, 0.0984 0.2953 0.7087, -0.0984 0.2953 1.7428, -0.0984 0.2953 0.7087, -0.0984 0.3937 0.7087, -0.0984 0.4921 1.7428, -0.0984 0.4921 0.7087, 0.0591 0.4528 -1.1811, 0.0591 0.3346 -1.1811, -0.0591 0.4528 -1.1811, -0.0591 0.3346 -1.1811, 0.0984 0.4921 0.0, 0.0984 0.4921 -1.0342, -0.0708 0.4921 0.0, -0.0984 0.4921 -1.0342, -0.0984 0.4921 0.0, -0.0984 0.2953 -1.0342, -0.0984 0.2953 0.0, -0.0708 0.2953 0.0, 0.0984 0.2953 -1.0342, 0.0984 0.2953 0.0, 0.0591 -0.4528 1.8898, 0.0591 -0.3346 1.8898, -0.0591 -0.4528 1.8898, -0.0591 -0.3346 1.8898, 0.0984 -0.4921 1.7428, 0.0984 -0.4921 0.7087, 0.0984 -0.2953 1.7428, 0.0984 -0.2953 0.7087, -0.0984 -0.4921 1.7428, -0.0984 -0.4921 0.7087, -0.0984 -0.2953 1.7428, -0.0984 -0.2953 0.7087, 0.0591 -0.3346 -1.1811, 0.0591 -0.4528 -1.1811, -0.0591 -0.3346 -1.1811, -0.0591 -0.4528 -1.1811, 0.0984 -0.2953 0.0, 0.0984 -0.2953 -1.0342, -0.0708 -0.2953 0.0, -0.0984 -0.2953 -1.0342, -0.0984 -0.2953 0.0, -0.0984 -0.4921 -1.0342, -0.0984 -0.4921 0.0, -0.0708 -0.4921 0.0, 0.0984 -0.4921 -1.0342, 0.0984 -0.4921 0.0, 0.8465 0.3346 1.8898, 0.8465 0.4528 1.8898, 0.7283 0.3346 1.8898, 0.7283 0.4528 1.8898, 0.8858 0.4921 0.7087, 0.8858 0.4921 1.7428, 0.8858 0.3937 0.7087, 0.8858 0.2953 1.7428, 0.8858 0.2953 0.7087, 0.689 0.2953 1.7428, 0.689 0.2953 0.7087, 0.689 0.3937 0.7087, 0.689 0.4921 1.7428, 0.689 0.4921 0.7087, 0.8465 0.4528 -1.1811, 0.8465 0.3346 -1.1811, 0.7283 0.4528 -1.1811, 0.7283 0.3346 -1.1811, 0.8858 0.4921 0.0, 0.8858 0.4921 -1.0342, 0.8294 0.4921 0.0, 0.689 0.4921 -1.0342, 0.689 0.4921 0.0, 0.689 0.2953 -1.0342, 0.689 0.2953 0.0, 0.8294 0.2953 0.0, 0.8858 0.2953 -1.0342, 0.8858 0.2953 0.0, 0.8465 -0.4528 1.8898, 0.8465 -0.3346 1.8898, 0.7283 -0.4528 1.8898, 0.7283 -0.3346 1.8898, 0.8858 -0.4921 1.7428, 0.8858 -0.4921 0.7087, 0.8858 -0.2953 1.7428, 0.8858 -0.2953 0.7087, 0.689 -0.4921 1.7428, 0.689 -0.4921 0.7087, 0.689 -0.2953 1.7428, 0.689 -0.2953 0.7087, 0.8465 -0.3346 -1.1811, 0.8465 -0.4528 -1.1811, 0.7283 -0.3346 -1.1811, 0.7283 -0.4528 -1.1811, 0.8858 -0.2953 0.0, 0.8858 -0.2953 -1.0342, 0.8294 -0.2953 0.0, 0.689 -0.2953 -1.0342, 0.689 -0.2953 0.0, 0.689 -0.4921 -1.0342, 0.689 -0.4921 0.0, 0.8294 -0.4921 0.0, 0.8858 -0.4921 -1.0342, 0.8858 -0.4921 0.0, 0.8858 -0.4921 0.0
            ]
        }
        coordIndex [
            0,1,2,-1,2,1,3,-1,4,5,6,-1,6,5,7,-1,8,9,4,-1,4,9,5,-1,10,11,8,-1,8,11,9,-1,6,7,10,-1,10,7,11,-1,12,13,14,-1,14,13,15,-1,16,17,18,-1,18,17,19,-1,20,21,16,-1,16,21,17,-1,22,23,20,-1,20,23,21,-1,18,19,22,-1,22,19,23,-1,13,22,15,-1,15,22,20,-1,12,18,13,-1,13,18,22,-1,16,14,20,-1,20,14,15,-1,14,16,12,-1,12,16,18,-1,10,3,6,-1,6,3,1,-1,8,2,10,-1,10,2,3,-1,0,4,1,-1,1,4,6,-1,4,0,8,-1,8,0,2,-1,24,25,26,-1,26,25,27,-1,28,29,30,-1,30,29,31,-1,32,33,28,-1,28,33,29,-1,34,35,32,-1,32,35,33,-1,30,31,34,-1,34,31,35,-1,36,37,38,-1,38,37,39,-1,40,41,42,-1,42,41,43,-1,44,45,40,-1,40,45,41,-1,46,47,44,-1,44,47,45,-1,42,43,46,-1,46,43,47,-1,48,49,50,-1,50,49,51,-1,52,53,54,-1,54,53,55,-1,54,55,56,-1,57,58,55,-1,55,58,56,-1,58,57,59,-1,59,57,60,-1,59,60,61,-1,53,52,60,-1,60,52,61,-1,62,63,64,-1,64,63,65,-1,66,67,68,-1,68,67,69,-1,68,69,70,-1,71,72,69,-1,69,72,70,-1,72,71,73,-1,73,71,74,-1,73,74,75,-1,67,66,74,-1,74,66,75,-1,76,77,78,-1,78,77,79,-1,80,81,82,-1,82,81,83,-1,84,85,80,-1,80,85,81,-1,86,87,84,-1,84,87,85,-1,82,83,86,-1,86,83,87,-1,88,89,90,-1,90,89,91,-1,92,93,94,-1,94,93,95,-1,94,95,96,-1,97,98,95,-1,95,98,96,-1,98,97,99,-1,99,97,100,-1,99,100,101,-1,93,92,100,-1,100,92,101,-1,102,103,104,-1,104,103,105,-1,106,107,108,-1,108,107,109,-1,108,109,110,-1,111,112,109,-1,109,112,110,-1,112,111,113,-1,113,111,114,-1,113,114,115,-1,107,106,114,-1,114,106,115,-1,116,117,118,-1,118,117,119,-1,120,121,122,-1,122,121,123,-1,122,123,124,-1,125,126,123,-1,123,126,124,-1,126,125,127,-1,127,125,128,-1,127,128,129,-1,121,120,128,-1,128,120,129,-1,130,131,132,-1,132,131,133,-1,134,135,136,-1,136,135,137,-1,138,139,134,-1,134,139,135,-1,140,141,138,-1,138,141,139,-1,136,137,140,-1,140,137,141,-1,142,143,144,-1,144,143,145,-1,146,147,148,-1,148,147,149,-1,148,149,150,-1,151,152,149,-1,149,152,150,-1,152,151,153,-1,153,151,154,-1,153,154,155,-1,147,146,154,-1,154,146,155,-1,37,46,39,-1,39,46,44,-1,36,42,37,-1,37,42,46,-1,40,38,44,-1,44,38,39,-1,38,40,36,-1,36,40,42,-1,34,27,30,-1,30,27,25,-1,32,26,34,-1,34,26,27,-1,24,28,25,-1,25,28,30,-1,28,24,32,-1,32,24,26,-1,63,74,65,-1,65,74,71,-1,62,67,63,-1,63,67,74,-1,69,64,71,-1,71,64,65,-1,64,69,62,-1,62,69,67,-1,60,51,53,-1,53,51,49,-1,57,50,60,-1,60,50,51,-1,48,55,49,-1,49,55,53,-1,55,48,57,-1,57,48,50,-1,89,100,91,-1,91,100,97,-1,88,93,89,-1,89,93,100,-1,95,90,97,-1,97,90,91,-1,90,95,88,-1,88,95,93,-1,86,79,82,-1,82,79,77,-1,84,78,86,-1,86,78,79,-1,76,80,77,-1,77,80,82,-1,80,76,84,-1,84,76,78,-1,117,128,119,-1,119,128,125,-1,116,121,117,-1,117,121,128,-1,123,118,125,-1,125,118,119,-1,118,123,116,-1,116,123,121,-1,114,105,107,-1,107,105,103,-1,111,104,114,-1,114,104,105,-1,102,109,103,-1,103,109,107,-1,109,102,111,-1,111,102,104,-1,143,154,145,-1,145,154,151,-1,142,147,143,-1,143,147,154,-1,149,144,151,-1,151,144,145,-1,144,149,142,-1,142,149,147,-1,140,133,136,-1,136,133,131,-1,138,132,140,-1,140,132,133,-1,130,134,131,-1,131,134,136,-1,134,130,138,-1,138,130,132,-1,
        ]
    }
}
Shape{
    appearance Appearance {
        material  Material 	{
            diffuseColor 1.0 1.0 1.0
            specularColor 0.8784313725490196 0.8784313725490196 0.8784313725490196
            ambientIntensity 0.2
            transparency 0
            shininess 0.5
        }
    }
    geometry IndexedFaceSet {
        ccw TRUE
        solid FALSE
        coord DEF co Coordinate {
            point [
                -0.6674 0.1822 0.0079, -0.821 -0.2115 0.0079, -0.6674 0.1822 0.0, -0.821 -0.2115 0.0, -0.7634 -0.2115 0.0079, -0.7634 -0.2115 0.0, -0.7236 -0.1011 0.0079, -0.7236 -0.1011 0.0, -0.5773 -0.1011 0.0, -0.5609 -0.1011 0.0079, -0.5609 -0.1011 0.0, -0.5233 -0.2115 0.0079, -0.5233 -0.2115 0.0, -0.4657 -0.2115 0.0079, -0.4657 -0.2115 0.0, -0.5773 0.0838 0.0, -0.6146 0.1822 0.0079, -0.6146 0.1822 0.0, -0.5742 -0.0578 0.0079, -0.7059 -0.0578 0.0079, -0.6329 0.1066 0.0079, -0.6367 0.1203 0.0079, -0.6392 0.1342 0.0079, -0.6405 0.1342 0.0079, -0.6431 0.1203 0.0079, -0.6466 0.1066 0.0079, -0.5742 -0.0578 0.0, -0.7059 -0.0578 0.0, -0.6329 0.1066 0.0, -0.6367 0.1203 0.0, -0.6392 0.1342 0.0, -0.6405 0.1342 0.0, -0.6431 0.1203 0.0, -0.6466 0.1066 0.0, -0.2271 -0.2115 0.0079, -0.12 -0.2115 0.0079, -0.2271 -0.2115 0.0, -0.12 -0.2115 0.0, -0.12 0.1822 0.0079, -0.12 0.1822 0.0, -0.2311 0.1822 0.0079, -0.2311 0.1822 0.0, -0.4369 -0.0097 0.0079, -0.4369 -0.0097 0.0, -0.4341 0.027 0.0, -0.4341 0.027 0.0079, -0.4236 0.0658 0.0, -0.4236 0.0658 0.0079, -0.4054 0.0997 0.0, -0.4054 0.0997 0.0079, -0.3777 0.1306 0.0, -0.3777 0.1306 0.0079, -0.3768 0.1313 0.0, -0.3768 0.1313 0.0079, -0.3339 0.16 0.0, -0.3339 0.16 0.0079, -0.288 0.1761 0.0, -0.288 0.1761 0.0079, -0.2759 -0.2072 0.0, -0.2759 -0.2072 0.0079, -0.3212 -0.1937 0.0, -0.3212 -0.1937 0.0079, -0.3623 -0.1698 0.0, -0.3623 -0.1698 0.0079, -0.3947 -0.1387 0.0, -0.3947 -0.1387 0.0079, -0.4173 -0.1035 0.0, -0.4173 -0.1035 0.0079, -0.4314 -0.0624 0.0, -0.4314 -0.0624 0.0079, -0.3579 0.0838 0.0079, -0.3387 0.1041 0.0079, -0.31 0.1227 0.0079, -0.2775 0.1341 0.0079, -0.2309 0.139 0.0079, -0.1728 0.139 0.0079, -0.1728 -0.1683 0.0079, -0.2287 -0.1683 0.0079, -0.2703 -0.1644 0.0079, -0.3034 -0.1541 0.0079, -0.3302 -0.1381 0.0079, -0.3523 -0.1163 0.0079, -0.3689 -0.0892 0.0079, -0.3805 -0.0522 0.0079, -0.3841 -0.0108 0.0079, -0.3808 0.0284 0.0079, -0.3716 0.0595 0.0079, -0.2309 0.139 0.0, -0.1728 0.139 0.0, -0.2775 0.1341 0.0, -0.31 0.1227 0.0, -0.3387 0.1041 0.0, -0.3579 0.0838 0.0, -0.3716 0.0595 0.0, -0.3808 0.0284 0.0, -0.3841 -0.0108 0.0, -0.3805 -0.0522 0.0, -0.3689 -0.0892 0.0, -0.3523 -0.1163 0.0, -0.3302 -0.1381 0.0, -0.3034 -0.1541 0.0, -0.2703 -0.1644 0.0, -0.2287 -0.1683 0.0, -0.1728 -0.1683 0.0, -0.0432 -0.1683 0.0079, -0.0432 -0.2115 0.0079, -0.0432 -0.1683 0.0, -0.0432 -0.2115 0.0, 0.1332 -0.2115 0.0, 0.168 -0.2115 0.0079, 0.168 -0.2115 0.0, 0.168 0.1822 0.0079, 0.168 0.1822 0.0, 0.1332 0.1822 0.0, -0.0336 0.1822 0.0079, -0.0336 0.1822 0.0, -0.0336 0.139 0.0079, -0.0336 0.139 0.0, 0.1152 0.139 0.0079, 0.1152 0.139 0.0, 0.1152 0.0094 0.0079, 0.1152 0.0094 0.0, -0.024 0.0094 0.0079, -0.024 0.0094 0.0, -0.024 -0.0338 0.0079, -0.024 -0.0338 0.0, 0.1152 -0.0338 0.0079, 0.1152 -0.0338 0.0, 0.1152 -0.1683 0.0079, 0.1152 -0.1683 0.0, 0.2449 -0.1479 0.0079, 0.2449 -0.1911 0.0079, 0.2449 -0.1479 0.0, 0.2449 -0.1911 0.0, 0.2868 -0.2083 0.0079, 0.3532 -0.2163 0.0079, 0.3532 -0.2163 0.0, 0.3424 -0.2161 0.0, 0.3424 -0.2161 0.0079, 0.3266 -0.2139 0.0, 0.2868 -0.2083 0.0, 0.5377 -0.0221 0.0079, 0.5377 -0.0221 0.0, 0.5339 -0.0676 0.0, 0.5339 -0.0676 0.0079, 0.5221 -0.1093 0.0, 0.5221 -0.1093 0.0079, 0.5011 -0.1467 0.0, 0.5011 -0.1467 0.0079, 0.4716 -0.1779 0.0, 0.4716 -0.1779 0.0079, 0.4399 -0.1981 0.0, 0.4399 -0.1981 0.0079, 0.4017 -0.2113 0.0, 0.4017 -0.2113 0.0079, 0.3763 -0.2139 0.0, 0.3375 0.187 0.0079, 0.3375 0.187 0.0, 0.3767 0.1838 0.0079, 0.3672 0.1846 0.0, 0.3767 0.1838 0.0, 0.4206 0.1712 0.0, 0.4206 0.1712 0.0079, 0.458 0.1497 0.0, 0.458 0.1497 0.0079, 0.4937 0.1156 0.0, 0.4937 0.1156 0.0079, 0.5168 0.0788 0.0, 0.5168 0.0788 0.0079, 0.5321 0.0339 0.0, 0.5321 0.0339 0.0079, 0.3027 0.1846 0.0, 0.2904 0.1838 0.0079, 0.2904 0.1838 0.0, 0.2449 0.1714 0.0079, 0.2449 0.1714 0.0, 0.2449 0.1186 0.0079, 0.2449 0.1186 0.0, 0.3371 0.1438 0.0079, 0.3371 0.1438 0.0, 0.2892 0.1376 0.0, 0.2892 0.1376 0.0079, 0.4849 -0.0188 0.0079, 0.4849 -0.0188 0.0, 0.483 0.0118 0.0, 0.483 0.0118 0.0079, 0.4726 0.0539 0.0, 0.4726 0.0539 0.0079, 0.4563 0.0843 0.0, 0.4563 0.0843 0.0079, 0.4325 0.1106 0.0, 0.4325 0.1106 0.0079, 0.4053 0.1288 0.0, 0.4053 0.1288 0.0079, 0.3758 0.1395 0.0, 0.3758 0.1395 0.0079, 0.3459 -0.1731 0.0079, 0.3459 -0.1731 0.0, 0.3826 -0.169 0.0, 0.3826 -0.169 0.0079, 0.4113 -0.1584 0.0, 0.4113 -0.1584 0.0079, 0.4355 -0.1421 0.0, 0.4355 -0.1421 0.0079, 0.454 -0.1226 0.0, 0.454 -0.1226 0.0079, 0.4702 -0.0953 0.0, 0.4702 -0.0953 0.0079, 0.4809 -0.0615 0.0, 0.4809 -0.0615 0.0079, 0.2519 -0.1518 0.0, 0.2519 -0.1518 0.0079, 0.2937 -0.1673 0.0, 0.2937 -0.1673 0.0079, 0.5713 -0.1683 0.0079, 0.5713 -0.2115 0.0079, 0.5713 -0.1683 0.0, 0.5713 -0.2115 0.0, 0.6302 -0.2115 0.0, 0.773 -0.2115 0.0079, 0.773 -0.2115 0.0, 0.773 0.1822 0.0079, 0.773 0.1822 0.0, 0.7202 0.1822 0.0079, 0.7202 0.1822 0.0, 0.7202 -0.1683 0.0079, 0.7202 -0.1683 0.0, 0.6302 -0.1683 0.0, 0.6302 -0.1683 0.0
            ]
        }
        coordIndex [
            0,1,2,-1,2,1,3,-1,1,4,3,-1,3,4,5,-1,4,6,5,-1,5,6,7,-1,7,6,8,-1,8,6,9,-1,8,9,10,-1,9,11,10,-1,10,11,12,-1,11,13,12,-1,12,13,14,-1,14,13,15,-1,15,13,16,-1,15,16,17,-1,16,0,17,-1,17,0,2,-1,18,9,19,-1,19,9,6,-1,20,16,18,-1,18,16,13,-1,18,13,9,-1,9,13,11,-1,20,21,16,-1,16,21,22,-1,16,22,0,-1,0,22,23,-1,0,23,24,-1,24,25,0,-1,0,25,19,-1,0,19,1,-1,1,19,6,-1,1,6,4,-1,18,19,26,-1,26,19,27,-1,20,18,28,-1,28,18,26,-1,20,28,29,-1,20,29,21,-1,21,29,30,-1,21,30,22,-1,23,22,31,-1,31,22,30,-1,23,31,32,-1,23,32,24,-1,24,32,33,-1,24,33,25,-1,19,25,27,-1,27,25,33,-1,34,35,36,-1,36,35,37,-1,35,38,37,-1,37,38,39,-1,38,40,39,-1,39,40,41,-1,42,43,44,-1,42,44,45,-1,45,44,46,-1,45,46,47,-1,47,46,48,-1,47,48,49,-1,49,48,50,-1,49,50,51,-1,51,50,52,-1,51,52,53,-1,53,52,54,-1,53,54,55,-1,55,54,56,-1,55,56,57,-1,57,56,41,-1,57,41,40,-1,34,36,58,-1,34,58,59,-1,59,58,60,-1,59,60,61,-1,61,60,62,-1,61,62,63,-1,63,62,64,-1,63,64,65,-1,65,64,66,-1,65,66,67,-1,67,66,68,-1,67,68,69,-1,69,68,43,-1,69,43,42,-1,47,49,70,-1,70,49,51,-1,70,51,71,-1,71,51,53,-1,71,53,72,-1,72,53,55,-1,72,55,73,-1,73,55,57,-1,73,57,74,-1,74,57,40,-1,74,40,75,-1,75,40,38,-1,75,38,76,-1,76,38,35,-1,76,35,77,-1,77,35,34,-1,77,34,78,-1,78,34,59,-1,78,59,79,-1,79,59,61,-1,79,61,80,-1,80,61,63,-1,80,63,81,-1,81,63,65,-1,81,65,82,-1,82,65,67,-1,82,67,83,-1,83,67,69,-1,83,69,84,-1,84,69,42,-1,84,42,85,-1,85,42,45,-1,85,45,86,-1,86,45,47,-1,86,47,70,-1,74,75,87,-1,87,75,88,-1,74,87,89,-1,74,89,73,-1,73,89,90,-1,73,90,72,-1,72,90,91,-1,72,91,71,-1,71,91,92,-1,71,92,70,-1,70,92,93,-1,70,93,86,-1,86,93,94,-1,86,94,85,-1,85,94,95,-1,85,95,84,-1,84,95,96,-1,84,96,83,-1,83,96,97,-1,83,97,82,-1,82,97,98,-1,82,98,81,-1,81,98,99,-1,81,99,80,-1,80,99,100,-1,80,100,79,-1,79,100,101,-1,79,101,78,-1,78,101,102,-1,78,102,77,-1,76,77,103,-1,103,77,102,-1,75,76,88,-1,88,76,103,-1,104,105,106,-1,106,105,107,-1,107,105,108,-1,108,105,109,-1,108,109,110,-1,109,111,110,-1,110,111,112,-1,112,111,113,-1,113,111,114,-1,113,114,115,-1,114,116,115,-1,115,116,117,-1,116,118,117,-1,117,118,119,-1,118,120,119,-1,119,120,121,-1,120,122,121,-1,121,122,123,-1,122,124,123,-1,123,124,125,-1,124,126,125,-1,125,126,127,-1,126,128,127,-1,127,128,129,-1,128,104,129,-1,129,104,106,-1,109,105,104,-1,104,128,109,-1,109,128,126,-1,109,126,111,-1,116,114,118,-1,118,114,111,-1,118,111,120,-1,120,111,126,-1,120,126,122,-1,122,126,124,-1,130,131,132,-1,132,131,133,-1,133,131,134,-1,135,136,137,-1,135,137,138,-1,138,137,139,-1,138,139,134,-1,134,139,140,-1,134,140,133,-1,141,142,143,-1,141,143,144,-1,144,143,145,-1,144,145,146,-1,146,145,147,-1,146,147,148,-1,148,147,149,-1,148,149,150,-1,150,149,151,-1,150,151,152,-1,152,151,153,-1,152,153,154,-1,154,153,135,-1,135,153,155,-1,135,155,136,-1,156,157,158,-1,158,157,159,-1,159,160,158,-1,158,160,161,-1,158,161,162,-1,162,161,163,-1,162,163,164,-1,164,163,165,-1,164,165,166,-1,166,165,167,-1,166,167,168,-1,168,167,169,-1,168,169,170,-1,170,169,142,-1,170,142,141,-1,157,156,171,-1,171,156,172,-1,171,172,173,-1,173,172,174,-1,173,174,175,-1,174,176,175,-1,175,176,177,-1,178,179,180,-1,178,180,181,-1,181,180,177,-1,181,177,176,-1,182,183,184,-1,182,184,185,-1,185,184,186,-1,185,186,187,-1,187,186,188,-1,187,188,189,-1,189,188,190,-1,189,190,191,-1,191,190,192,-1,191,192,193,-1,193,192,194,-1,193,194,195,-1,195,194,179,-1,195,179,178,-1,196,197,198,-1,196,198,199,-1,199,198,200,-1,199,200,201,-1,201,200,202,-1,201,202,203,-1,203,202,204,-1,203,204,205,-1,205,204,206,-1,205,206,207,-1,207,206,208,-1,207,208,209,-1,209,208,183,-1,209,183,182,-1,130,132,210,-1,130,210,211,-1,211,210,212,-1,211,212,213,-1,213,212,197,-1,213,197,196,-1,199,135,196,-1,196,135,138,-1,196,138,213,-1,213,138,134,-1,213,134,211,-1,211,134,131,-1,211,131,130,-1,176,174,181,-1,181,174,172,-1,181,172,178,-1,178,172,156,-1,178,156,195,-1,195,156,158,-1,195,158,193,-1,193,158,162,-1,193,162,191,-1,191,162,164,-1,191,164,189,-1,189,164,166,-1,189,166,187,-1,187,166,168,-1,187,168,185,-1,185,168,170,-1,185,170,182,-1,182,170,141,-1,182,141,209,-1,209,141,144,-1,209,144,207,-1,207,144,146,-1,207,146,205,-1,205,146,148,-1,205,148,203,-1,203,148,150,-1,203,150,201,-1,201,150,152,-1,201,152,199,-1,199,152,154,-1,199,154,135,-1,214,215,216,-1,216,215,217,-1,217,215,218,-1,218,215,219,-1,218,219,220,-1,219,221,220,-1,220,221,222,-1,221,223,222,-1,222,223,224,-1,223,225,224,-1,224,225,226,-1,226,225,227,-1,227,225,214,-1,227,214,216,-1,223,221,225,-1,225,221,219,-1,225,219,214,-1,214,219,215,-1,
        ]
    }
}
Shape{
    appearance Appearance {
        material  Material 	{
            diffuseColor 0.5882352941176471 0.5725490196078431 0.5254901960784314
            specularColor 0.043137254901960784 0.0392156862745098 0.0392156862745098
            ambientIntensity 0.2
            transparency 0
            shininess 0.5
        }
    }
    geometry IndexedFaceSet {
        ccw TRUE
        solid FALSE
        coord DEF co Coordinate {
            point [
                -0.5742 -0.0578 0.0, -0.7059 -0.0578 0.0, -0.6329 0.1066 0.0, -0.6466 0.1066 0.0, -0.6367 0.1203 0.0, -0.6431 0.1203 0.0, -0.6392 0.1342 0.0, -0.6405 0.1342 0.0, -0.1728 0.139 0.0, -0.1728 -0.1683 0.0, -0.2309 0.139 0.0, -0.2287 -0.1683 0.0, -0.2703 -0.1644 0.0, -0.3841 -0.0108 0.0, -0.3808 0.0284 0.0, -0.3716 0.0595 0.0, -0.2775 0.1341 0.0, -0.3034 -0.1541 0.0, -0.3302 -0.1381 0.0, -0.3523 -0.1163 0.0, -0.3689 -0.0892 0.0, -0.3805 -0.0522 0.0, -0.3579 0.0838 0.0, -0.3387 0.1041 0.0, -0.31 0.1227 0.0, -0.31 0.1227 0.0
            ]
        }
        coordIndex [
            0,1,2,-1,2,1,3,-1,2,3,4,-1,4,3,5,-1,4,5,6,-1,6,5,7,-1,8,9,10,-1,10,9,11,-1,10,11,12,-1,13,14,10,-1,10,14,15,-1,10,15,16,-1,12,17,10,-1,10,17,18,-1,10,18,19,-1,19,20,10,-1,10,20,21,-1,10,21,13,-1,22,23,15,-1,15,23,24,-1,15,24,16,-1,
        ]
    }
}